<?xml version="1.0" encoding="UTF-8"?>
<svg xmlns="http://www.w3.org/2000/svg" xmlns:xlink="http://www.w3.org/1999/xlink" width="353.128pt" height="188.751pt" viewBox="0 0 353.128 188.751">
<defs>
<g>
<g id="glyph-0-0">
<path d="M 3.328125 -3.015625 C 3.390625 -3.265625 3.625 -4.1875 4.3125 -4.1875 C 4.359375 -4.1875 4.609375 -4.1875 4.8125 -4.0625 C 4.53125 -4 4.34375 -3.765625 4.34375 -3.515625 C 4.34375 -3.359375 4.453125 -3.171875 4.71875 -3.171875 C 4.9375 -3.171875 5.25 -3.34375 5.25 -3.75 C 5.25 -4.265625 4.671875 -4.40625 4.328125 -4.40625 C 3.75 -4.40625 3.40625 -3.875 3.28125 -3.65625 C 3.03125 -4.3125 2.5 -4.40625 2.203125 -4.40625 C 1.171875 -4.40625 0.59375 -3.125 0.59375 -2.875 C 0.59375 -2.765625 0.703125 -2.765625 0.71875 -2.765625 C 0.796875 -2.765625 0.828125 -2.796875 0.84375 -2.875 C 1.1875 -3.9375 1.84375 -4.1875 2.1875 -4.1875 C 2.375 -4.1875 2.71875 -4.09375 2.71875 -3.515625 C 2.71875 -3.203125 2.546875 -2.546875 2.1875 -1.140625 C 2.03125 -0.53125 1.671875 -0.109375 1.234375 -0.109375 C 1.171875 -0.109375 0.953125 -0.109375 0.734375 -0.234375 C 0.984375 -0.296875 1.203125 -0.5 1.203125 -0.78125 C 1.203125 -1.046875 0.984375 -1.125 0.84375 -1.125 C 0.53125 -1.125 0.296875 -0.875 0.296875 -0.546875 C 0.296875 -0.09375 0.78125 0.109375 1.21875 0.109375 C 1.890625 0.109375 2.25 -0.59375 2.265625 -0.640625 C 2.390625 -0.28125 2.75 0.109375 3.34375 0.109375 C 4.375 0.109375 4.9375 -1.171875 4.9375 -1.421875 C 4.9375 -1.53125 4.859375 -1.53125 4.828125 -1.53125 C 4.734375 -1.53125 4.71875 -1.484375 4.6875 -1.421875 C 4.359375 -0.34375 3.6875 -0.109375 3.375 -0.109375 C 2.984375 -0.109375 2.828125 -0.421875 2.828125 -0.765625 C 2.828125 -0.984375 2.875 -1.203125 2.984375 -1.640625 Z M 3.328125 -3.015625 "/>
</g>
<g id="glyph-0-1">
<path d="M 3.65625 -3.984375 L 4.515625 -3.984375 C 4.71875 -3.984375 4.8125 -3.984375 4.8125 -4.1875 C 4.8125 -4.296875 4.71875 -4.296875 4.546875 -4.296875 L 3.71875 -4.296875 L 3.921875 -5.4375 C 3.96875 -5.640625 4.109375 -6.34375 4.171875 -6.46875 C 4.25 -6.65625 4.421875 -6.8125 4.640625 -6.8125 C 4.671875 -6.8125 4.9375 -6.8125 5.125 -6.625 C 4.6875 -6.59375 4.578125 -6.234375 4.578125 -6.09375 C 4.578125 -5.859375 4.765625 -5.734375 4.953125 -5.734375 C 5.21875 -5.734375 5.5 -5.96875 5.5 -6.34375 C 5.5 -6.796875 5.046875 -7.03125 4.640625 -7.03125 C 4.296875 -7.03125 3.671875 -6.84375 3.375 -5.859375 C 3.3125 -5.65625 3.28125 -5.546875 3.046875 -4.296875 L 2.359375 -4.296875 C 2.15625 -4.296875 2.046875 -4.296875 2.046875 -4.109375 C 2.046875 -3.984375 2.140625 -3.984375 2.328125 -3.984375 L 2.984375 -3.984375 L 2.25 -0.046875 C 2.0625 0.921875 1.890625 1.828125 1.375 1.828125 C 1.328125 1.828125 1.09375 1.828125 0.890625 1.640625 C 1.359375 1.609375 1.453125 1.25 1.453125 1.109375 C 1.453125 0.875 1.265625 0.75 1.078125 0.75 C 0.8125 0.75 0.53125 0.984375 0.53125 1.359375 C 0.53125 1.796875 0.96875 2.046875 1.375 2.046875 C 1.921875 2.046875 2.328125 1.453125 2.5 1.078125 C 2.828125 0.453125 3.046875 -0.75 3.0625 -0.828125 Z M 3.65625 -3.984375 "/>
</g>
<g id="glyph-1-0">
<path d="M 3.296875 2.390625 C 3.296875 2.359375 3.296875 2.34375 3.125 2.171875 C 1.890625 0.921875 1.5625 -0.96875 1.5625 -2.5 C 1.5625 -4.234375 1.9375 -5.96875 3.171875 -7.203125 C 3.296875 -7.328125 3.296875 -7.34375 3.296875 -7.375 C 3.296875 -7.453125 3.265625 -7.484375 3.203125 -7.484375 C 3.09375 -7.484375 2.203125 -6.796875 1.609375 -5.53125 C 1.109375 -4.4375 0.984375 -3.328125 0.984375 -2.5 C 0.984375 -1.71875 1.09375 -0.515625 1.640625 0.625 C 2.25 1.84375 3.09375 2.5 3.203125 2.5 C 3.265625 2.5 3.296875 2.46875 3.296875 2.390625 Z M 3.296875 2.390625 "/>
</g>
<g id="glyph-1-1">
<path d="M 2.875 -2.5 C 2.875 -3.265625 2.765625 -4.46875 2.21875 -5.609375 C 1.625 -6.828125 0.765625 -7.484375 0.671875 -7.484375 C 0.609375 -7.484375 0.5625 -7.4375 0.5625 -7.375 C 0.5625 -7.34375 0.5625 -7.328125 0.75 -7.140625 C 1.734375 -6.15625 2.296875 -4.578125 2.296875 -2.5 C 2.296875 -0.78125 1.9375 0.96875 0.703125 2.21875 C 0.5625 2.34375 0.5625 2.359375 0.5625 2.390625 C 0.5625 2.453125 0.609375 2.5 0.671875 2.5 C 0.765625 2.5 1.671875 1.8125 2.25 0.546875 C 2.765625 -0.546875 2.875 -1.65625 2.875 -2.5 Z M 2.875 -2.5 "/>
</g>
<g id="glyph-2-0">
<path d="M 3.359375 -3.59375 L 4.15625 -3.59375 C 4.34375 -3.59375 4.4375 -3.59375 4.4375 -3.75 C 4.4375 -3.859375 4.34375 -3.859375 4.171875 -3.859375 L 3.40625 -3.859375 C 3.5 -4.40625 3.625 -5.140625 3.75 -5.625 C 3.828125 -5.96875 4.046875 -6.09375 4.21875 -6.09375 C 4.28125 -6.09375 4.484375 -6.078125 4.640625 -5.96875 C 4.453125 -5.9375 4.203125 -5.78125 4.203125 -5.484375 C 4.203125 -5.25 4.375 -5.15625 4.53125 -5.15625 C 4.78125 -5.15625 5.03125 -5.359375 5.03125 -5.6875 C 5.03125 -6.09375 4.640625 -6.328125 4.21875 -6.328125 C 3.8125 -6.328125 3.40625 -6.03125 3.21875 -5.671875 C 3.015625 -5.28125 2.953125 -4.9375 2.765625 -3.859375 L 2.125 -3.859375 C 1.953125 -3.859375 1.84375 -3.859375 1.84375 -3.703125 C 1.84375 -3.59375 1.953125 -3.59375 2.109375 -3.59375 L 2.71875 -3.59375 C 2.46875 -2.28125 2.15625 -0.5 1.953125 0.4375 C 1.84375 0.9375 1.703125 1.609375 1.28125 1.609375 C 1.140625 1.609375 0.953125 1.5625 0.875 1.484375 C 1.09375 1.453125 1.3125 1.265625 1.3125 1 C 1.3125 0.765625 1.140625 0.671875 0.984375 0.671875 C 0.734375 0.671875 0.484375 0.875 0.484375 1.203125 C 0.484375 1.625 0.890625 1.84375 1.28125 1.84375 C 2.1875 1.84375 2.609375 0.34375 2.75 -0.421875 Z M 3.359375 -3.59375 "/>
</g>
<g id="glyph-2-1">
<path d="M 4.40625 -3.625 C 4.078125 -3.5625 3.984375 -3.28125 3.984375 -3.140625 C 3.984375 -2.96875 4.109375 -2.8125 4.328125 -2.8125 C 4.578125 -2.8125 4.828125 -3.03125 4.828125 -3.34375 C 4.828125 -3.765625 4.375 -3.96875 3.953125 -3.96875 C 3.421875 -3.96875 3.109375 -3.484375 3 -3.296875 C 2.828125 -3.734375 2.4375 -3.96875 2 -3.96875 C 1.046875 -3.96875 0.515625 -2.8125 0.515625 -2.578125 C 0.515625 -2.5 0.578125 -2.46875 0.640625 -2.46875 C 0.71875 -2.46875 0.75 -2.515625 0.765625 -2.578125 C 1.046875 -3.46875 1.640625 -3.734375 1.984375 -3.734375 C 2.25 -3.734375 2.46875 -3.5625 2.46875 -3.140625 C 2.46875 -2.828125 2.09375 -1.390625 1.96875 -0.953125 C 1.90625 -0.6875 1.625 -0.125 1.140625 -0.125 C 0.953125 -0.125 0.765625 -0.1875 0.6875 -0.234375 C 0.921875 -0.28125 1.109375 -0.5 1.109375 -0.71875 C 1.109375 -0.953125 0.9375 -1.046875 0.765625 -1.046875 C 0.5 -1.046875 0.265625 -0.828125 0.265625 -0.515625 C 0.265625 -0.078125 0.75 0.09375 1.125 0.09375 C 1.65625 0.09375 1.953125 -0.328125 2.09375 -0.578125 C 2.3125 0.015625 2.84375 0.09375 3.078125 0.09375 C 4.046875 0.09375 4.5625 -1.0625 4.5625 -1.28125 C 4.5625 -1.328125 4.53125 -1.390625 4.453125 -1.390625 C 4.34375 -1.390625 4.34375 -1.359375 4.296875 -1.21875 C 4.09375 -0.578125 3.578125 -0.125 3.109375 -0.125 C 2.859375 -0.125 2.609375 -0.28125 2.609375 -0.71875 C 2.609375 -0.921875 2.734375 -1.40625 2.8125 -1.75 C 2.859375 -1.90625 3.09375 -2.875 3.109375 -2.9375 C 3.21875 -3.265625 3.484375 -3.734375 3.953125 -3.734375 C 4.109375 -3.734375 4.28125 -3.71875 4.40625 -3.625 Z M 4.40625 -3.625 "/>
</g>
<g id="glyph-3-0">
<path d="M 3.0625 2.140625 C 3.0625 2.09375 3.03125 2.0625 2.984375 2 C 1.828125 0.9375 1.46875 -0.671875 1.46875 -2.25 C 1.46875 -3.625 1.734375 -5.3125 3 -6.515625 C 3.046875 -6.5625 3.0625 -6.578125 3.0625 -6.625 C 3.0625 -6.6875 3.015625 -6.734375 2.953125 -6.734375 C 2.84375 -6.734375 2.03125 -6.078125 1.546875 -5.109375 C 1.125 -4.25 0.90625 -3.3125 0.90625 -2.25 C 0.90625 -1.609375 0.984375 -0.578125 1.484375 0.46875 C 2.015625 1.578125 2.84375 2.234375 2.953125 2.234375 C 3.015625 2.234375 3.0625 2.203125 3.0625 2.140625 Z M 3.0625 2.140625 "/>
</g>
<g id="glyph-3-1">
<path d="M 2.671875 -2.25 C 2.671875 -2.984375 2.5625 -3.96875 2.09375 -4.96875 C 1.5625 -6.078125 0.734375 -6.734375 0.625 -6.734375 C 0.53125 -6.734375 0.515625 -6.65625 0.515625 -6.625 C 0.515625 -6.578125 0.53125 -6.5625 0.59375 -6.5 C 1.125 -6.03125 2.109375 -4.8125 2.109375 -2.25 C 2.109375 -0.96875 1.875 0.8125 0.578125 2.03125 C 0.5625 2.046875 0.515625 2.09375 0.515625 2.140625 C 0.515625 2.15625 0.53125 2.234375 0.625 2.234375 C 0.734375 2.234375 1.546875 1.59375 2.03125 0.609375 C 2.453125 -0.25 2.671875 -1.171875 2.671875 -2.25 Z M 2.671875 -2.25 "/>
</g>
<g id="glyph-3-2">
<path d="M 6.34375 -2.96875 C 6.46875 -2.96875 6.640625 -2.96875 6.640625 -3.15625 C 6.640625 -3.359375 6.453125 -3.359375 6.3125 -3.359375 L 0.84375 -3.359375 C 0.703125 -3.359375 0.515625 -3.359375 0.515625 -3.15625 C 0.515625 -2.96875 0.6875 -2.96875 0.8125 -2.96875 Z M 6.3125 -1.140625 C 6.453125 -1.140625 6.640625 -1.140625 6.640625 -1.34375 C 6.640625 -1.53125 6.46875 -1.53125 6.34375 -1.53125 L 0.8125 -1.53125 C 0.6875 -1.53125 0.515625 -1.53125 0.515625 -1.34375 C 0.515625 -1.140625 0.703125 -1.140625 0.84375 -1.140625 Z M 6.3125 -1.140625 "/>
</g>
<g id="glyph-3-3">
<path d="M 2.734375 -3.15625 C 3.5625 -3.46875 3.96875 -4.125 3.96875 -4.75 C 3.96875 -5.4375 3.203125 -5.96875 2.265625 -5.96875 C 1.34375 -5.96875 0.640625 -5.4375 0.640625 -4.765625 C 0.640625 -4.46875 0.828125 -4.296875 1.09375 -4.296875 C 1.359375 -4.296875 1.546875 -4.484375 1.546875 -4.75 C 1.546875 -5.0625 1.328125 -5.1875 1.015625 -5.1875 C 1.25 -5.5625 1.796875 -5.75 2.25 -5.75 C 2.984375 -5.75 3.125 -5.15625 3.125 -4.734375 C 3.125 -4.46875 3.078125 -4.03125 2.859375 -3.6875 C 2.578125 -3.296875 2.265625 -3.28125 2 -3.25 C 1.78125 -3.234375 1.765625 -3.234375 1.6875 -3.234375 C 1.609375 -3.234375 1.53125 -3.21875 1.53125 -3.125 C 1.53125 -3 1.609375 -3 1.765625 -3 L 2.171875 -3 C 2.953125 -3 3.296875 -2.375 3.296875 -1.53125 C 3.296875 -0.375 2.6875 -0.046875 2.234375 -0.046875 C 2.0625 -0.046875 1.1875 -0.09375 0.796875 -0.765625 C 1.109375 -0.71875 1.359375 -0.9375 1.359375 -1.25 C 1.359375 -1.546875 1.140625 -1.734375 0.875 -1.734375 C 0.65625 -1.734375 0.390625 -1.59375 0.390625 -1.21875 C 0.390625 -0.421875 1.21875 0.203125 2.265625 0.203125 C 3.375 0.203125 4.21875 -0.609375 4.21875 -1.53125 C 4.21875 -2.3125 3.59375 -2.96875 2.734375 -3.15625 Z M 2.734375 -3.15625 "/>
</g>
<g id="glyph-3-4">
<path d="M 4.25 -2.875 C 4.25 -3.46875 4.21875 -4.25 3.90625 -4.921875 C 3.5 -5.765625 2.828125 -5.96875 2.3125 -5.96875 C 1.765625 -5.96875 1.078125 -5.765625 0.6875 -4.890625 C 0.40625 -4.28125 0.359375 -3.546875 0.359375 -2.875 C 0.359375 -2.28125 0.375 -1.421875 0.765625 -0.703125 C 1.1875 0.046875 1.890625 0.203125 2.296875 0.203125 C 2.875 0.203125 3.546875 -0.046875 3.921875 -0.875 C 4.1875 -1.484375 4.25 -2.15625 4.25 -2.875 Z M 2.3125 -0.03125 C 2.03125 -0.03125 1.390625 -0.15625 1.21875 -1.171875 C 1.125 -1.6875 1.125 -2.46875 1.125 -2.984375 C 1.125 -3.59375 1.125 -4.296875 1.234375 -4.796875 C 1.421875 -5.59375 1.984375 -5.75 2.296875 -5.75 C 2.640625 -5.75 3.203125 -5.5625 3.375 -4.734375 C 3.46875 -4.25 3.46875 -3.546875 3.46875 -2.984375 C 3.46875 -2.421875 3.46875 -1.671875 3.375 -1.140625 C 3.1875 -0.109375 2.53125 -0.03125 2.3125 -0.03125 Z M 2.3125 -0.03125 "/>
</g>
<g id="glyph-4-0">
<path d="M 1.765625 -1.984375 C 2.265625 -1.984375 2.609375 -1.640625 2.609375 -1.03125 C 2.609375 -0.375 2.21875 -0.09375 1.78125 -0.09375 C 1.609375 -0.09375 1 -0.125 0.734375 -0.46875 C 0.96875 -0.5 1.0625 -0.65625 1.0625 -0.8125 C 1.0625 -1.015625 0.921875 -1.15625 0.71875 -1.15625 C 0.5625 -1.15625 0.375 -1.046875 0.375 -0.796875 C 0.375 -0.203125 1.03125 0.125 1.796875 0.125 C 2.6875 0.125 3.265625 -0.4375 3.265625 -1.03125 C 3.265625 -1.46875 2.9375 -1.9375 2.21875 -2.109375 C 2.703125 -2.265625 3.078125 -2.65625 3.078125 -3.140625 C 3.078125 -3.625 2.515625 -3.984375 1.796875 -3.984375 C 1.09375 -3.984375 0.5625 -3.65625 0.5625 -3.171875 C 0.5625 -2.90625 0.765625 -2.84375 0.890625 -2.84375 C 1.046875 -2.84375 1.203125 -2.9375 1.203125 -3.15625 C 1.203125 -3.34375 1.078125 -3.453125 0.90625 -3.46875 C 1.1875 -3.78125 1.734375 -3.78125 1.796875 -3.78125 C 2.09375 -3.78125 2.484375 -3.640625 2.484375 -3.140625 C 2.484375 -2.8125 2.296875 -2.234375 1.6875 -2.203125 C 1.578125 -2.203125 1.421875 -2.1875 1.375 -2.1875 C 1.3125 -2.171875 1.25 -2.171875 1.25 -2.078125 C 1.25 -1.984375 1.3125 -1.984375 1.40625 -1.984375 Z M 1.765625 -1.984375 "/>
</g>
<g id="glyph-4-1">
<path d="M 3.21875 -1.125 L 3 -1.125 C 2.984375 -1.03125 2.921875 -0.640625 2.84375 -0.578125 C 2.796875 -0.53125 2.3125 -0.53125 2.21875 -0.53125 L 1.109375 -0.53125 L 1.875 -1.15625 C 2.078125 -1.328125 2.609375 -1.703125 2.796875 -1.890625 C 2.96875 -2.0625 3.21875 -2.375 3.21875 -2.796875 C 3.21875 -3.546875 2.546875 -3.984375 1.734375 -3.984375 C 0.96875 -3.984375 0.4375 -3.46875 0.4375 -2.90625 C 0.4375 -2.609375 0.6875 -2.5625 0.75 -2.5625 C 0.90625 -2.5625 1.078125 -2.671875 1.078125 -2.890625 C 1.078125 -3.015625 1 -3.21875 0.734375 -3.21875 C 0.875 -3.515625 1.234375 -3.75 1.65625 -3.75 C 2.28125 -3.75 2.609375 -3.28125 2.609375 -2.796875 C 2.609375 -2.375 2.328125 -1.9375 1.921875 -1.546875 L 0.5 -0.25 C 0.4375 -0.1875 0.4375 -0.1875 0.4375 0 L 3.03125 0 Z M 3.21875 -1.125 "/>
</g>
<g id="glyph-5-0">
<path d="M 2.015625 -3.296875 C 2.078125 -3.40625 2.078125 -3.46875 2.078125 -3.515625 C 2.078125 -3.734375 1.890625 -3.890625 1.671875 -3.890625 C 1.40625 -3.890625 1.328125 -3.671875 1.296875 -3.5625 L 0.375 -0.546875 C 0.359375 -0.53125 0.328125 -0.453125 0.328125 -0.4375 C 0.328125 -0.359375 0.546875 -0.28125 0.609375 -0.28125 C 0.65625 -0.28125 0.65625 -0.296875 0.703125 -0.40625 Z M 2.015625 -3.296875 "/>
</g>
<g id="glyph-6-0">
<path d="M 1.875 -2.8125 C 1.921875 -2.90625 1.9375 -2.96875 1.9375 -3 C 1.9375 -3.1875 1.765625 -3.34375 1.5625 -3.34375 C 1.328125 -3.34375 1.25 -3.140625 1.234375 -3.046875 L 0.390625 -0.484375 C 0.390625 -0.453125 0.359375 -0.40625 0.359375 -0.390625 C 0.359375 -0.28125 0.609375 -0.234375 0.609375 -0.234375 C 0.671875 -0.234375 0.6875 -0.28125 0.71875 -0.328125 Z M 1.875 -2.8125 "/>
</g>
</g>
<clipPath id="clip-0">
<path clip-rule="nonzero" d="M 12 25 L 123 25 L 123 188.75 L 12 188.75 Z M 12 25 "/>
</clipPath>
</defs>
<path fill="none" stroke-width="0.79701" stroke-linecap="butt" stroke-linejoin="miter" stroke="rgb(0%, 0%, 0%)" stroke-opacity="1" stroke-miterlimit="10" d="M -62.363094 0.00109375 L 58.656437 0.00109375 " transform="matrix(1, 0, 0, -1, 67.742, 112.505)"/>
<path fill-rule="nonzero" fill="rgb(0%, 0%, 0%)" fill-opacity="1" stroke-width="0.79701" stroke-linecap="butt" stroke-linejoin="miter" stroke="rgb(0%, 0%, 0%)" stroke-opacity="1" stroke-miterlimit="10" d="M 4.84153 0.00109375 L 1.286843 1.344844 L 2.470436 0.00109375 L 1.286843 -1.346563 Z M 4.84153 0.00109375 " transform="matrix(1, 0, 0, -1, 124.12722, 112.505)"/>
<g fill="rgb(0%, 0%, 0%)" fill-opacity="1">
<use xlink:href="#glyph-0-0" x="127.257" y="120.514"/>
</g>
<path fill="none" stroke-width="0.79701" stroke-linecap="butt" stroke-linejoin="miter" stroke="rgb(0%, 0%, 0%)" stroke-opacity="1" stroke-miterlimit="10" d="M 0.0001875 -70.866094 L 0.0001875 67.16125 " transform="matrix(1, 0, 0, -1, 67.742, 112.505)"/>
<path fill-rule="nonzero" fill="rgb(0%, 0%, 0%)" fill-opacity="1" stroke-width="0.79701" stroke-linecap="butt" stroke-linejoin="miter" stroke="rgb(0%, 0%, 0%)" stroke-opacity="1" stroke-miterlimit="10" d="M 4.842223 -0.0001875 L 1.287535 1.347469 L 2.471129 -0.0001875 L 1.287535 -1.347844 Z M 4.842223 -0.0001875 " transform="matrix(0, -1, -1, 0, 67.742, 47.61566)"/>
<g fill="rgb(0%, 0%, 0%)" fill-opacity="1">
<use xlink:href="#glyph-0-1" x="44.63" y="44.13"/>
</g>
<g fill="rgb(0%, 0%, 0%)" fill-opacity="1">
<use xlink:href="#glyph-1-0" x="50.58" y="44.13"/>
</g>
<g fill="rgb(0%, 0%, 0%)" fill-opacity="1">
<use xlink:href="#glyph-0-0" x="54.455" y="44.13"/>
</g>
<g fill="rgb(0%, 0%, 0%)" fill-opacity="1">
<use xlink:href="#glyph-1-1" x="60.148" y="44.13"/>
</g>
<g clip-path="url(#clip-0)">
<path fill="none" stroke-width="1.19553" stroke-linecap="butt" stroke-linejoin="miter" stroke="rgb(0%, 0%, 0%)" stroke-opacity="1" stroke-miterlimit="10" d="M -38.269344 -69.745 L -36.706844 -61.549688 L -35.144344 -54.022344 L -33.581844 -47.131719 L -32.019344 -40.858281 L -30.46075 -35.166875 L -28.89825 -30.030156 L -27.33575 -25.416875 L -25.77325 -21.303594 L -24.21075 -17.662969 L -22.64825 -14.459844 L -21.08575 -11.670781 L -19.527156 -9.264531 L -17.964656 -7.21375 L -16.402156 -5.491094 L -14.839656 -4.065313 L -13.277156 -2.912969 L -11.714656 -2.002813 L -10.156063 -1.303594 L -8.593563 -0.787969 L -7.031063 -0.4325 L -5.468563 -0.202031 L -3.906063 -0.073125 L -2.343563 -0.0145313 L -0.781063 0.00109375 L 0.777531 0.00109375 L 2.340031 0.0167187 L 3.902531 0.0753125 L 5.465031 0.204219 L 7.027531 0.430781 L 8.590031 0.78625 L 10.148625 1.301875 L 11.711125 2.001094 L 13.273625 2.91125 L 14.836125 4.063594 L 16.398625 5.485469 L 17.961125 7.208125 L 19.523625 9.258906 L 21.082219 11.66125 L 22.644719 14.450312 L 24.207219 17.653437 L 25.769719 21.294062 L 27.332219 25.407344 L 28.894719 30.016719 L 30.453312 35.153437 L 32.015812 40.844844 L 33.578312 47.118281 L 35.140812 54.005 L 36.703312 61.528437 L 38.265812 69.72375 " transform="matrix(1, 0, 0, -1, 67.742, 112.505)"/>
</g>
<path fill-rule="nonzero" fill="rgb(0%, 0%, 0%)" fill-opacity="1" d="M 70.730469 112.503906 C 70.730469 110.855469 69.394531 109.515625 67.742188 109.515625 C 66.089844 109.515625 64.753906 110.855469 64.753906 112.503906 C 64.753906 114.15625 66.089844 115.492188 67.742188 115.492188 C 69.394531 115.492188 70.730469 114.15625 70.730469 112.503906 Z M 70.730469 112.503906 "/>
<g fill="rgb(0%, 0%, 0%)" fill-opacity="1">
<use xlink:href="#glyph-2-0" x="105.277" y="58.522"/>
</g>
<g fill="rgb(0%, 0%, 0%)" fill-opacity="1">
<use xlink:href="#glyph-3-0" x="110.726" y="58.522"/>
</g>
<g fill="rgb(0%, 0%, 0%)" fill-opacity="1">
<use xlink:href="#glyph-2-1" x="114.309" y="58.522"/>
</g>
<g fill="rgb(0%, 0%, 0%)" fill-opacity="1">
<use xlink:href="#glyph-3-1" x="119.533" y="58.522"/>
</g>
<g fill="rgb(0%, 0%, 0%)" fill-opacity="1">
<use xlink:href="#glyph-3-2" x="125.67228" y="58.522"/>
</g>
<g fill="rgb(0%, 0%, 0%)" fill-opacity="1">
<use xlink:href="#glyph-2-1" x="135.404" y="58.522"/>
</g>
<g fill="rgb(0%, 0%, 0%)" fill-opacity="1">
<use xlink:href="#glyph-4-0" x="140.627" y="54.713"/>
</g>
<path fill="none" stroke-width="0.79701" stroke-linecap="butt" stroke-linejoin="miter" stroke="rgb(0%, 0%, 0%)" stroke-opacity="1" stroke-miterlimit="10" d="M 121.890812 0.00109375 L 242.910344 0.00109375 " transform="matrix(1, 0, 0, -1, 67.742, 112.505)"/>
<path fill-rule="nonzero" fill="rgb(0%, 0%, 0%)" fill-opacity="1" stroke-width="0.79701" stroke-linecap="butt" stroke-linejoin="miter" stroke="rgb(0%, 0%, 0%)" stroke-opacity="1" stroke-miterlimit="10" d="M 4.841096 0.00109375 L 1.286409 1.344844 L 2.470003 0.00109375 L 1.286409 -1.346563 Z M 4.841096 0.00109375 " transform="matrix(1, 0, 0, -1, 308.38156, 112.505)"/>
<g fill="rgb(0%, 0%, 0%)" fill-opacity="1">
<use xlink:href="#glyph-0-0" x="311.509" y="120.514"/>
</g>
<path fill="none" stroke-width="0.79701" stroke-linecap="butt" stroke-linejoin="miter" stroke="rgb(0%, 0%, 0%)" stroke-opacity="1" stroke-miterlimit="10" d="M 184.254094 -14.174688 L 184.254094 95.508906 " transform="matrix(1, 0, 0, -1, 67.742, 112.505)"/>
<path fill-rule="nonzero" fill="rgb(0%, 0%, 0%)" fill-opacity="1" stroke-width="0.79701" stroke-linecap="butt" stroke-linejoin="miter" stroke="rgb(0%, 0%, 0%)" stroke-opacity="1" stroke-miterlimit="10" d="M 4.843059 0.00022625 L 1.288371 1.347883 L 2.471965 0.00022625 L 1.288371 -1.34743 Z M 4.843059 0.00022625 " transform="matrix(0, -1, -1, 0, 251.99632, 19.26884)"/>
<g fill="rgb(0%, 0%, 0%)" fill-opacity="1">
<use xlink:href="#glyph-0-1" x="226.087" y="15.792"/>
</g>
<g fill="rgb(0%, 0%, 0%)" fill-opacity="1">
<use xlink:href="#glyph-5-0" x="232.037" y="12.177"/>
</g>
<g fill="rgb(0%, 0%, 0%)" fill-opacity="1">
<use xlink:href="#glyph-1-0" x="234.832" y="15.792"/>
</g>
<g fill="rgb(0%, 0%, 0%)" fill-opacity="1">
<use xlink:href="#glyph-0-0" x="238.707" y="15.792"/>
</g>
<g fill="rgb(0%, 0%, 0%)" fill-opacity="1">
<use xlink:href="#glyph-1-1" x="244.4" y="15.792"/>
</g>
<path fill="none" stroke-width="1.19553" stroke-linecap="butt" stroke-linejoin="miter" stroke="rgb(0%, 0%, 0%)" stroke-opacity="1" stroke-miterlimit="10" d="M 144.5705 83.337031 L 146.187687 76.676875 L 147.808781 70.290156 L 149.425969 64.180781 L 151.047062 58.352656 L 152.66425 52.797969 L 154.285344 47.524531 L 155.906437 42.528437 L 157.523625 37.805781 L 159.144719 33.364375 L 160.761906 29.200312 L 162.383 25.313594 L 164.000187 21.704219 L 165.621281 18.372187 L 167.242375 15.3175 L 168.859562 12.540156 L 170.480656 10.040156 L 172.097844 7.8175 L 173.718937 5.872187 L 175.336125 4.208125 L 176.957219 2.8175 L 178.578312 1.704219 L 180.1955 0.872187 L 181.816594 0.313594 L 183.433781 0.03625 L 185.054875 0.0323437 L 186.672062 0.309687 L 188.293156 0.864375 L 189.91425 1.6925 L 191.531437 2.801875 L 193.152531 4.188594 L 194.769719 5.852656 L 196.390812 7.794062 L 198.008 10.012812 L 199.629094 12.508906 L 201.250187 15.282344 L 202.867375 18.333125 L 204.488469 21.66125 L 206.105656 25.270625 L 207.72675 29.153437 L 209.343937 33.313594 L 210.965031 37.755 L 212.586125 42.469844 L 214.203312 47.465937 L 215.824406 52.735469 L 217.441594 58.28625 L 219.062687 64.114375 L 220.679875 70.215937 L 222.300969 76.59875 L 223.922062 83.258906 " transform="matrix(1, 0, 0, -1, 67.742, 112.505)"/>
<path fill-rule="nonzero" fill="rgb(0%, 0%, 0%)" fill-opacity="1" d="M 254.984375 112.503906 C 254.984375 110.855469 253.648438 109.515625 251.996094 109.515625 C 250.34375 109.515625 249.007812 110.855469 249.007812 112.503906 C 249.007812 114.15625 250.34375 115.492188 251.996094 115.492188 C 253.648438 115.492188 254.984375 114.15625 254.984375 112.503906 Z M 254.984375 112.503906 "/>
<g fill="rgb(0%, 0%, 0%)" fill-opacity="1">
<use xlink:href="#glyph-2-0" x="298.033" y="24.506"/>
</g>
<g fill="rgb(0%, 0%, 0%)" fill-opacity="1">
<use xlink:href="#glyph-6-0" x="303.482" y="20.697"/>
</g>
<g fill="rgb(0%, 0%, 0%)" fill-opacity="1">
<use xlink:href="#glyph-3-0" x="306.166" y="24.506"/>
</g>
<g fill="rgb(0%, 0%, 0%)" fill-opacity="1">
<use xlink:href="#glyph-2-1" x="309.75" y="24.506"/>
</g>
<g fill="rgb(0%, 0%, 0%)" fill-opacity="1">
<use xlink:href="#glyph-3-1" x="314.973" y="24.506"/>
</g>
<g fill="rgb(0%, 0%, 0%)" fill-opacity="1">
<use xlink:href="#glyph-3-2" x="321.11228" y="24.506"/>
</g>
<g fill="rgb(0%, 0%, 0%)" fill-opacity="1">
<use xlink:href="#glyph-3-3" x="330.844389" y="24.506"/>
</g>
<g fill="rgb(0%, 0%, 0%)" fill-opacity="1">
<use xlink:href="#glyph-2-1" x="335.452" y="24.506"/>
</g>
<g fill="rgb(0%, 0%, 0%)" fill-opacity="1">
<use xlink:href="#glyph-4-1" x="340.675" y="20.697"/>
</g>
<g fill="rgb(0%, 0%, 0%)" fill-opacity="1">
<use xlink:href="#glyph-2-0" x="211.671" y="123.155"/>
</g>
<g fill="rgb(0%, 0%, 0%)" fill-opacity="1">
<use xlink:href="#glyph-6-0" x="217.12" y="119.346"/>
</g>
<g fill="rgb(0%, 0%, 0%)" fill-opacity="1">
<use xlink:href="#glyph-3-0" x="219.804" y="123.155"/>
<use xlink:href="#glyph-3-4" x="223.387862" y="123.155"/>
<use xlink:href="#glyph-3-1" x="227.995685" y="123.155"/>
</g>
<g fill="rgb(0%, 0%, 0%)" fill-opacity="1">
<use xlink:href="#glyph-3-2" x="234.134965" y="123.155"/>
</g>
<g fill="rgb(0%, 0%, 0%)" fill-opacity="1">
<use xlink:href="#glyph-3-4" x="243.858108" y="123.155"/>
</g>
</svg>
