<?xml version="1.0" encoding="UTF-8"?>
<svg xmlns="http://www.w3.org/2000/svg" xmlns:xlink="http://www.w3.org/1999/xlink" width="214.954pt" height="215.22pt" viewBox="0 0 214.954 215.22">
<defs>
<g>
<g id="glyph-0-0">
<path d="M 3.328125 -3.015625 C 3.390625 -3.265625 3.625 -4.1875 4.3125 -4.1875 C 4.359375 -4.1875 4.609375 -4.1875 4.8125 -4.0625 C 4.53125 -4 4.34375 -3.765625 4.34375 -3.515625 C 4.34375 -3.359375 4.453125 -3.171875 4.71875 -3.171875 C 4.9375 -3.171875 5.25 -3.34375 5.25 -3.75 C 5.25 -4.265625 4.671875 -4.40625 4.328125 -4.40625 C 3.75 -4.40625 3.40625 -3.875 3.28125 -3.65625 C 3.03125 -4.3125 2.5 -4.40625 2.203125 -4.40625 C 1.171875 -4.40625 0.59375 -3.125 0.59375 -2.875 C 0.59375 -2.765625 0.703125 -2.765625 0.71875 -2.765625 C 0.796875 -2.765625 0.828125 -2.796875 0.84375 -2.875 C 1.1875 -3.9375 1.84375 -4.1875 2.1875 -4.1875 C 2.375 -4.1875 2.71875 -4.09375 2.71875 -3.515625 C 2.71875 -3.203125 2.546875 -2.546875 2.1875 -1.140625 C 2.03125 -0.53125 1.671875 -0.109375 1.234375 -0.109375 C 1.171875 -0.109375 0.953125 -0.109375 0.734375 -0.234375 C 0.984375 -0.296875 1.203125 -0.5 1.203125 -0.78125 C 1.203125 -1.046875 0.984375 -1.125 0.84375 -1.125 C 0.53125 -1.125 0.296875 -0.875 0.296875 -0.546875 C 0.296875 -0.09375 0.78125 0.109375 1.21875 0.109375 C 1.890625 0.109375 2.25 -0.59375 2.265625 -0.640625 C 2.390625 -0.28125 2.75 0.109375 3.34375 0.109375 C 4.375 0.109375 4.9375 -1.171875 4.9375 -1.421875 C 4.9375 -1.53125 4.859375 -1.53125 4.828125 -1.53125 C 4.734375 -1.53125 4.71875 -1.484375 4.6875 -1.421875 C 4.359375 -0.34375 3.6875 -0.109375 3.375 -0.109375 C 2.984375 -0.109375 2.828125 -0.421875 2.828125 -0.765625 C 2.828125 -0.984375 2.875 -1.203125 2.984375 -1.640625 Z M 3.328125 -3.015625 "/>
</g>
<g id="glyph-0-1">
<path d="M 4.84375 -3.796875 C 4.890625 -3.9375 4.890625 -3.953125 4.890625 -4.03125 C 4.890625 -4.203125 4.75 -4.296875 4.59375 -4.296875 C 4.5 -4.296875 4.34375 -4.234375 4.25 -4.09375 C 4.234375 -4.03125 4.140625 -3.734375 4.109375 -3.546875 C 4.03125 -3.296875 3.96875 -3.015625 3.90625 -2.75 L 3.453125 -0.953125 C 3.421875 -0.8125 2.984375 -0.109375 2.328125 -0.109375 C 1.828125 -0.109375 1.71875 -0.546875 1.71875 -0.921875 C 1.71875 -1.375 1.890625 -2 2.21875 -2.875 C 2.375 -3.28125 2.421875 -3.390625 2.421875 -3.59375 C 2.421875 -4.03125 2.109375 -4.40625 1.609375 -4.40625 C 0.65625 -4.40625 0.296875 -2.953125 0.296875 -2.875 C 0.296875 -2.765625 0.390625 -2.765625 0.40625 -2.765625 C 0.515625 -2.765625 0.515625 -2.796875 0.5625 -2.953125 C 0.84375 -3.890625 1.234375 -4.1875 1.578125 -4.1875 C 1.65625 -4.1875 1.828125 -4.1875 1.828125 -3.875 C 1.828125 -3.625 1.71875 -3.359375 1.65625 -3.171875 C 1.25 -2.109375 1.078125 -1.546875 1.078125 -1.078125 C 1.078125 -0.1875 1.703125 0.109375 2.296875 0.109375 C 2.6875 0.109375 3.015625 -0.0625 3.296875 -0.34375 C 3.171875 0.171875 3.046875 0.671875 2.65625 1.203125 C 2.390625 1.53125 2.015625 1.828125 1.5625 1.828125 C 1.421875 1.828125 0.96875 1.796875 0.796875 1.40625 C 0.953125 1.40625 1.09375 1.40625 1.21875 1.28125 C 1.328125 1.203125 1.421875 1.0625 1.421875 0.875 C 1.421875 0.5625 1.15625 0.53125 1.0625 0.53125 C 0.828125 0.53125 0.5 0.6875 0.5 1.171875 C 0.5 1.671875 0.9375 2.046875 1.5625 2.046875 C 2.578125 2.046875 3.609375 1.140625 3.890625 0.015625 Z M 4.84375 -3.796875 "/>
</g>
</g>
<clipPath id="clip-0">
<path clip-rule="nonzero" d="M 96 102 L 214.953125 102 L 214.953125 215.21875 L 96 215.21875 Z M 96 102 "/>
</clipPath>
</defs>
<path fill-rule="nonzero" fill="rgb(0%, 0%, 100%)" fill-opacity="0.15" d="M 5.378906 102.527344 L 6.921875 102.402344 L 8.464844 102.269531 L 10.011719 102.132812 L 11.554688 101.992188 L 13.097656 101.84375 L 14.644531 101.695312 L 16.1875 101.539062 L 17.730469 101.378906 L 19.277344 101.210938 L 20.820312 101.035156 L 22.363281 100.855469 L 23.90625 100.667969 L 25.453125 100.476562 L 26.996094 100.273438 L 28.539062 100.0625 L 30.085938 99.84375 L 31.628906 99.617188 L 33.171875 99.378906 L 34.71875 99.128906 L 36.261719 98.867188 L 37.804688 98.597656 L 39.351562 98.3125 L 40.894531 98.011719 L 42.4375 97.703125 L 43.980469 97.371094 L 45.527344 97.027344 L 47.070312 96.660156 L 48.613281 96.273438 L 50.160156 95.867188 L 51.703125 95.4375 L 53.246094 94.980469 L 54.792969 94.492188 L 56.335938 93.980469 L 57.878906 93.425781 L 59.421875 92.835938 L 60.96875 92.210938 L 62.511719 91.535156 L 64.054688 90.808594 L 65.601562 90.023438 L 67.144531 89.175781 L 68.6875 88.25 L 70.234375 87.242188 L 71.777344 86.144531 L 73.320312 84.933594 L 74.867188 83.597656 L 76.410156 82.117188 L 77.953125 80.464844 L 79.496094 78.605469 L 81.042969 76.507812 L 82.585938 74.113281 L 84.128906 71.355469 L 85.675781 68.148438 L 87.21875 64.375 L 88.761719 59.863281 L 90.308594 54.371094 L 91.851562 47.5625 L 93.394531 38.859375 L 94.941406 27.378906 L 96.484375 11.523438 L 203.804688 11.414062 L 203.804688 110.628906 L 5.378906 110.628906 Z M 5.378906 102.527344 "/>
<path fill-rule="nonzero" fill="rgb(0%, 0%, 100%)" fill-opacity="0.15" d="M 203.804688 118.726562 L 202.261719 118.855469 L 200.71875 118.988281 L 199.171875 119.121094 L 196.085938 119.410156 L 194.539062 119.5625 L 192.996094 119.71875 L 191.453125 119.878906 L 189.910156 120.046875 L 188.363281 120.21875 L 186.820312 120.398438 L 185.277344 120.585938 L 183.730469 120.78125 L 182.1875 120.984375 L 180.644531 121.191406 L 179.097656 121.410156 L 177.554688 121.640625 L 176.011719 121.878906 L 174.464844 122.128906 L 172.921875 122.386719 L 171.378906 122.660156 L 169.835938 122.945312 L 168.289062 123.242188 L 166.746094 123.554688 L 165.203125 123.886719 L 163.65625 124.230469 L 162.113281 124.597656 L 160.570312 124.984375 L 159.023438 125.386719 L 157.480469 125.820312 L 155.9375 126.277344 L 154.394531 126.761719 L 152.847656 127.277344 L 151.304688 127.828125 L 149.761719 128.417969 L 148.214844 129.046875 L 146.671875 129.722656 L 145.128906 130.449219 L 143.582031 131.234375 L 142.039062 132.082031 L 140.496094 133.007812 L 138.949219 134.015625 L 137.40625 135.109375 L 135.863281 136.320312 L 134.320312 137.65625 L 132.773438 139.140625 L 131.230469 140.792969 L 129.6875 142.648438 L 128.140625 144.746094 L 126.597656 147.144531 L 125.054688 149.898438 L 123.507812 153.105469 L 121.964844 156.882812 L 120.421875 161.394531 L 118.878906 166.882812 L 117.332031 173.695312 L 115.789062 182.398438 L 114.246094 193.878906 L 112.699219 209.730469 L 5.378906 209.84375 L 5.378906 110.628906 L 203.804688 110.628906 Z M 203.804688 118.726562 "/>
<path fill="none" stroke-width="0.79701" stroke-linecap="butt" stroke-linejoin="miter" stroke="rgb(0%, 0%, 0%)" stroke-opacity="1" stroke-miterlimit="10" d="M -99.213094 -0.00090625 L 95.505656 -0.00090625 " transform="matrix(1, 0, 0, -1, 104.592, 110.628)"/>
<path fill-rule="nonzero" fill="rgb(0%, 0%, 0%)" fill-opacity="1" stroke-width="0.79701" stroke-linecap="butt" stroke-linejoin="miter" stroke="rgb(0%, 0%, 0%)" stroke-opacity="1" stroke-miterlimit="10" d="M 4.843715 -0.00090625 L 1.285121 1.34675 L 2.468715 -0.00090625 L 1.285121 -1.344656 Z M 4.843715 -0.00090625 " transform="matrix(1, 0, 0, -1, 197.82816, 110.628)"/>
<g fill="rgb(0%, 0%, 0%)" fill-opacity="1">
<use xlink:href="#glyph-0-0" x="200.958" y="118.636"/>
</g>
<path fill="none" stroke-width="0.79701" stroke-linecap="butt" stroke-linejoin="miter" stroke="rgb(0%, 0%, 0%)" stroke-opacity="1" stroke-miterlimit="10" d="M 0.00175 -99.21575 L 0.00175 95.506906 " transform="matrix(1, 0, 0, -1, 104.592, 110.628)"/>
<path fill-rule="nonzero" fill="rgb(0%, 0%, 0%)" fill-opacity="1" stroke-width="0.79701" stroke-linecap="butt" stroke-linejoin="miter" stroke="rgb(0%, 0%, 0%)" stroke-opacity="1" stroke-miterlimit="10" d="M 4.841059 -0.00175 L 1.286371 1.345906 L 2.469965 -0.00175 L 1.286371 -1.3455 Z M 4.841059 -0.00175 " transform="matrix(0, -1, -1, 0, 104.592, 17.39184)"/>
<g fill="rgb(0%, 0%, 0%)" fill-opacity="1">
<use xlink:href="#glyph-0-1" x="95.631" y="12.591"/>
</g>
<path fill="none" stroke-width="1.19553" stroke-linecap="butt" stroke-linejoin="miter" stroke="rgb(100%, 0%, 0%)" stroke-opacity="1" stroke-dasharray="2.98883 2.98883" stroke-miterlimit="10" d="M -93.545125 8.588938 L -91.822469 8.753 L -90.095906 8.917063 L -88.37325 9.092844 L -86.650594 9.272531 L -84.927937 9.460031 L -83.201375 9.655344 L -81.478719 9.862375 L -79.756062 10.073313 L -78.033406 10.295969 L -76.306844 10.530344 L -74.584187 10.772531 L -72.861531 11.030344 L -71.134969 11.295969 L -69.412312 11.577219 L -67.689656 11.870188 L -65.967 12.178781 L -64.240437 12.506906 L -62.517781 12.850656 L -60.795125 13.213938 L -59.072469 13.600656 L -57.345906 14.010813 L -55.62325 14.444406 L -53.900594 14.90925 L -52.177937 15.397531 L -50.451375 15.924875 L -48.728719 16.487375 L -47.006062 17.092844 L -45.283406 17.745188 L -43.556844 18.448313 L -41.834187 19.206125 L -40.111531 20.03425 L -38.388875 20.932688 L -36.662312 21.913156 L -34.939656 22.995188 L -33.217 24.1905 L -31.494344 25.514719 L -29.767781 26.991281 L -28.045125 28.651438 L -26.322469 30.526438 L -24.599812 32.667063 L -22.87325 35.128 L -21.150594 37.991281 L -19.427937 41.362375 L -17.705281 45.393625 L -15.978719 50.288156 L -14.256062 56.370188 L -12.533406 64.116281 L -10.806844 74.34675 L -9.084187 88.444406 " transform="matrix(1, 0, 0, -1, 104.592, 110.628)"/>
<g clip-path="url(#clip-0)">
<path fill="none" stroke-width="1.19553" stroke-linecap="butt" stroke-linejoin="miter" stroke="rgb(100%, 0%, 0%)" stroke-opacity="1" stroke-dasharray="2.98883 2.98883" stroke-miterlimit="10" d="M 9.072063 -88.582937 L 10.794719 -74.438406 L 12.517375 -64.188406 L 14.243938 -56.426687 L 15.966594 -50.332937 L 17.68925 -45.426687 L 19.411906 -41.391531 L 21.138469 -38.016531 L 22.861125 -35.149344 L 24.583781 -32.6845 L 26.306438 -30.543875 L 28.033 -28.664969 L 29.755656 -27.004812 L 31.478313 -25.524344 L 33.200969 -24.200125 L 34.927531 -23.004812 L 36.650188 -21.922781 L 38.372844 -20.938406 L 40.0955 -20.039969 L 41.822063 -19.211844 L 43.544719 -18.450125 L 45.267375 -17.747 L 46.990031 -17.098562 L 48.716594 -16.493094 L 50.43925 -15.930594 L 52.161906 -15.40325 L 53.884563 -14.911062 L 55.611125 -14.446219 L 57.333781 -14.012625 L 59.056438 -13.606375 L 60.783 -13.219656 L 62.505656 -12.856375 L 64.228313 -12.508719 L 65.950969 -12.180594 L 67.677531 -11.872 L 69.400188 -11.579031 L 71.122844 -11.297781 L 72.8455 -11.032156 L 74.572063 -10.774344 L 76.294719 -10.532156 L 78.017375 -10.297781 L 79.740031 -10.075125 L 81.466594 -9.864187 L 83.18925 -9.661062 L 84.911906 -9.461844 L 86.634563 -9.274344 L 88.361125 -9.094656 L 90.083781 -8.918875 L 93.529094 -8.59075 " transform="matrix(1, 0, 0, -1, 104.592, 110.628)"/>
</g>
</svg>
