<?xml version="1.0" encoding="UTF-8"?>
<svg xmlns="http://www.w3.org/2000/svg" xmlns:xlink="http://www.w3.org/1999/xlink" width="205.346pt" height="144.354pt" viewBox="0 0 205.346 144.354">
<defs>
<g>
<g id="glyph-0-0">
<path d="M 3.328125 -3.015625 C 3.390625 -3.265625 3.625 -4.1875 4.3125 -4.1875 C 4.359375 -4.1875 4.609375 -4.1875 4.8125 -4.0625 C 4.53125 -4 4.34375 -3.765625 4.34375 -3.515625 C 4.34375 -3.359375 4.453125 -3.171875 4.71875 -3.171875 C 4.9375 -3.171875 5.25 -3.34375 5.25 -3.75 C 5.25 -4.265625 4.671875 -4.40625 4.328125 -4.40625 C 3.75 -4.40625 3.40625 -3.875 3.28125 -3.65625 C 3.03125 -4.3125 2.5 -4.40625 2.203125 -4.40625 C 1.171875 -4.40625 0.59375 -3.125 0.59375 -2.875 C 0.59375 -2.765625 0.703125 -2.765625 0.71875 -2.765625 C 0.796875 -2.765625 0.828125 -2.796875 0.84375 -2.875 C 1.1875 -3.9375 1.84375 -4.1875 2.1875 -4.1875 C 2.375 -4.1875 2.71875 -4.09375 2.71875 -3.515625 C 2.71875 -3.203125 2.546875 -2.546875 2.1875 -1.140625 C 2.03125 -0.53125 1.671875 -0.109375 1.234375 -0.109375 C 1.171875 -0.109375 0.953125 -0.109375 0.734375 -0.234375 C 0.984375 -0.296875 1.203125 -0.5 1.203125 -0.78125 C 1.203125 -1.046875 0.984375 -1.125 0.84375 -1.125 C 0.53125 -1.125 0.296875 -0.875 0.296875 -0.546875 C 0.296875 -0.09375 0.78125 0.109375 1.21875 0.109375 C 1.890625 0.109375 2.25 -0.59375 2.265625 -0.640625 C 2.390625 -0.28125 2.75 0.109375 3.34375 0.109375 C 4.375 0.109375 4.9375 -1.171875 4.9375 -1.421875 C 4.9375 -1.53125 4.859375 -1.53125 4.828125 -1.53125 C 4.734375 -1.53125 4.71875 -1.484375 4.6875 -1.421875 C 4.359375 -0.34375 3.6875 -0.109375 3.375 -0.109375 C 2.984375 -0.109375 2.828125 -0.421875 2.828125 -0.765625 C 2.828125 -0.984375 2.875 -1.203125 2.984375 -1.640625 Z M 3.328125 -3.015625 "/>
</g>
<g id="glyph-0-1">
<path d="M 4.84375 -3.796875 C 4.890625 -3.9375 4.890625 -3.953125 4.890625 -4.03125 C 4.890625 -4.203125 4.75 -4.296875 4.59375 -4.296875 C 4.5 -4.296875 4.34375 -4.234375 4.25 -4.09375 C 4.234375 -4.03125 4.140625 -3.734375 4.109375 -3.546875 C 4.03125 -3.296875 3.96875 -3.015625 3.90625 -2.75 L 3.453125 -0.953125 C 3.421875 -0.8125 2.984375 -0.109375 2.328125 -0.109375 C 1.828125 -0.109375 1.71875 -0.546875 1.71875 -0.921875 C 1.71875 -1.375 1.890625 -2 2.21875 -2.875 C 2.375 -3.28125 2.421875 -3.390625 2.421875 -3.59375 C 2.421875 -4.03125 2.109375 -4.40625 1.609375 -4.40625 C 0.65625 -4.40625 0.296875 -2.953125 0.296875 -2.875 C 0.296875 -2.765625 0.390625 -2.765625 0.40625 -2.765625 C 0.515625 -2.765625 0.515625 -2.796875 0.5625 -2.953125 C 0.84375 -3.890625 1.234375 -4.1875 1.578125 -4.1875 C 1.65625 -4.1875 1.828125 -4.1875 1.828125 -3.875 C 1.828125 -3.625 1.71875 -3.359375 1.65625 -3.171875 C 1.25 -2.109375 1.078125 -1.546875 1.078125 -1.078125 C 1.078125 -0.1875 1.703125 0.109375 2.296875 0.109375 C 2.6875 0.109375 3.015625 -0.0625 3.296875 -0.34375 C 3.171875 0.171875 3.046875 0.671875 2.65625 1.203125 C 2.390625 1.53125 2.015625 1.828125 1.5625 1.828125 C 1.421875 1.828125 0.96875 1.796875 0.796875 1.40625 C 0.953125 1.40625 1.09375 1.40625 1.21875 1.28125 C 1.328125 1.203125 1.421875 1.0625 1.421875 0.875 C 1.421875 0.5625 1.15625 0.53125 1.0625 0.53125 C 0.828125 0.53125 0.5 0.6875 0.5 1.171875 C 0.5 1.671875 0.9375 2.046875 1.5625 2.046875 C 2.578125 2.046875 3.609375 1.140625 3.890625 0.015625 Z M 4.84375 -3.796875 "/>
</g>
<g id="glyph-0-2">
<path d="M 3.71875 -3.765625 C 3.53125 -4.140625 3.25 -4.40625 2.796875 -4.40625 C 1.640625 -4.40625 0.40625 -2.9375 0.40625 -1.484375 C 0.40625 -0.546875 0.953125 0.109375 1.71875 0.109375 C 1.921875 0.109375 2.421875 0.0625 3.015625 -0.640625 C 3.09375 -0.21875 3.453125 0.109375 3.921875 0.109375 C 4.28125 0.109375 4.5 -0.125 4.671875 -0.4375 C 4.828125 -0.796875 4.96875 -1.40625 4.96875 -1.421875 C 4.96875 -1.53125 4.875 -1.53125 4.84375 -1.53125 C 4.75 -1.53125 4.734375 -1.484375 4.703125 -1.34375 C 4.53125 -0.703125 4.359375 -0.109375 3.953125 -0.109375 C 3.671875 -0.109375 3.65625 -0.375 3.65625 -0.5625 C 3.65625 -0.78125 3.671875 -0.875 3.78125 -1.3125 C 3.890625 -1.71875 3.90625 -1.828125 4 -2.203125 L 4.359375 -3.59375 C 4.421875 -3.875 4.421875 -3.890625 4.421875 -3.9375 C 4.421875 -4.109375 4.3125 -4.203125 4.140625 -4.203125 C 3.890625 -4.203125 3.75 -3.984375 3.71875 -3.765625 Z M 3.078125 -1.1875 C 3.015625 -1 3.015625 -0.984375 2.875 -0.8125 C 2.4375 -0.265625 2.03125 -0.109375 1.75 -0.109375 C 1.25 -0.109375 1.109375 -0.65625 1.109375 -1.046875 C 1.109375 -1.546875 1.421875 -2.765625 1.65625 -3.234375 C 1.96875 -3.8125 2.40625 -4.1875 2.8125 -4.1875 C 3.453125 -4.1875 3.59375 -3.375 3.59375 -3.3125 C 3.59375 -3.25 3.578125 -3.1875 3.5625 -3.140625 Z M 3.078125 -1.1875 "/>
</g>
<g id="glyph-1-0">
<path d="M 2.34375 0 L 2.34375 -0.28125 C 1.75 -0.28125 1.65625 -0.28125 1.65625 -0.6875 L 1.65625 -6.21875 L 0.328125 -6.125 L 0.328125 -5.84375 C 0.9375 -5.84375 1.015625 -5.78125 1.015625 -5.34375 L 1.015625 -0.6875 C 1.015625 -0.28125 0.921875 -0.28125 0.328125 -0.28125 L 0.328125 0 C 0.75 -0.015625 0.921875 -0.03125 1.328125 -0.03125 C 1.75 -0.03125 1.90625 -0.015625 2.34375 0 Z M 2.34375 0 "/>
</g>
<g id="glyph-1-1">
<path d="M 2.265625 0 L 2.265625 -0.28125 C 1.6875 -0.28125 1.65625 -0.328125 1.65625 -0.671875 L 1.65625 -3.96875 L 0.359375 -3.859375 L 0.359375 -3.59375 C 0.9375 -3.59375 1.015625 -3.53125 1.015625 -3.09375 L 1.015625 -0.6875 C 1.015625 -0.28125 0.921875 -0.28125 0.328125 -0.28125 L 0.328125 0 C 0.71875 -0.015625 0.921875 -0.03125 1.3125 -0.03125 C 1.453125 -0.03125 1.828125 -0.03125 2.265625 0 Z M 1.765625 -5.40625 C 1.765625 -5.671875 1.546875 -5.890625 1.28125 -5.890625 C 1.015625 -5.890625 0.796875 -5.671875 0.796875 -5.40625 C 0.796875 -5.140625 1.015625 -4.921875 1.28125 -4.921875 C 1.546875 -4.921875 1.765625 -5.140625 1.765625 -5.40625 Z M 1.765625 -5.40625 "/>
</g>
<g id="glyph-1-2">
<path d="M 7.46875 0 L 7.46875 -0.28125 C 7.015625 -0.28125 6.796875 -0.28125 6.78125 -0.5625 L 6.78125 -2.28125 C 6.78125 -3.0625 6.78125 -3.3125 6.484375 -3.640625 C 6.296875 -3.859375 5.9375 -3.96875 5.53125 -3.96875 C 4.875 -3.96875 4.4375 -3.59375 4.1875 -3.109375 C 4.078125 -3.640625 3.71875 -3.96875 2.96875 -3.96875 C 2.25 -3.96875 1.8125 -3.5 1.625 -3.078125 L 1.609375 -3.078125 L 1.609375 -3.96875 L 0.3125 -3.859375 L 0.3125 -3.59375 C 0.921875 -3.59375 1 -3.53125 1 -3.078125 L 1 -0.6875 C 1 -0.28125 0.90625 -0.28125 0.3125 -0.28125 L 0.3125 0 C 0.734375 -0.015625 0.90625 -0.03125 1.34375 -0.03125 C 1.765625 -0.03125 1.890625 -0.015625 2.359375 0 L 2.359375 -0.28125 C 1.765625 -0.28125 1.671875 -0.28125 1.671875 -0.6875 L 1.671875 -2.328125 C 1.671875 -3.296875 2.375 -3.734375 2.90625 -3.734375 C 3.40625 -3.734375 3.5625 -3.390625 3.5625 -2.765625 L 3.5625 -0.6875 C 3.5625 -0.28125 3.46875 -0.28125 2.875 -0.28125 L 2.875 0 C 3.296875 -0.015625 3.46875 -0.03125 3.890625 -0.03125 C 4.328125 -0.03125 4.4375 -0.015625 4.921875 0 L 4.921875 -0.28125 C 4.328125 -0.28125 4.21875 -0.28125 4.21875 -0.6875 L 4.21875 -2.328125 C 4.21875 -3.296875 4.921875 -3.734375 5.46875 -3.734375 C 5.953125 -3.734375 6.109375 -3.390625 6.109375 -2.765625 L 6.109375 -0.6875 C 6.109375 -0.28125 6.015625 -0.28125 5.421875 -0.28125 L 5.421875 0 C 5.84375 -0.015625 6.015625 -0.03125 6.453125 -0.03125 C 6.875 -0.03125 7 -0.015625 7.46875 0 Z M 7.46875 0 "/>
</g>
<g id="glyph-2-0">
<path d="M 3.375 -2.359375 C 3.15625 -2.296875 3.109375 -2.125 3.109375 -2.03125 C 3.109375 -1.84375 3.265625 -1.796875 3.34375 -1.796875 C 3.53125 -1.796875 3.703125 -1.9375 3.703125 -2.171875 C 3.703125 -2.5 3.34375 -2.640625 3.046875 -2.640625 C 2.640625 -2.640625 2.40625 -2.328125 2.34375 -2.21875 C 2.265625 -2.375 2.03125 -2.640625 1.578125 -2.640625 C 0.890625 -2.640625 0.484375 -1.921875 0.484375 -1.71875 C 0.484375 -1.6875 0.515625 -1.640625 0.59375 -1.640625 C 0.6875 -1.640625 0.703125 -1.671875 0.71875 -1.71875 C 0.875 -2.203125 1.28125 -2.4375 1.5625 -2.4375 C 1.859375 -2.4375 1.953125 -2.25 1.953125 -2.046875 C 1.953125 -1.984375 1.953125 -1.921875 1.90625 -1.734375 C 1.765625 -1.1875 1.640625 -0.640625 1.609375 -0.5625 C 1.515625 -0.34375 1.296875 -0.140625 1.046875 -0.140625 C 1.015625 -0.140625 0.84375 -0.140625 0.703125 -0.234375 C 0.9375 -0.3125 0.96875 -0.5 0.96875 -0.546875 C 0.96875 -0.703125 0.84375 -0.78125 0.71875 -0.78125 C 0.5625 -0.78125 0.375 -0.65625 0.375 -0.40625 C 0.375 -0.0625 0.75 0.0625 1.03125 0.0625 C 1.375 0.0625 1.625 -0.171875 1.734375 -0.359375 C 1.859375 -0.109375 2.140625 0.0625 2.484375 0.0625 C 3.1875 0.0625 3.578125 -0.671875 3.578125 -0.859375 C 3.578125 -0.875 3.578125 -0.953125 3.46875 -0.953125 C 3.390625 -0.953125 3.375 -0.90625 3.359375 -0.84375 C 3.1875 -0.328125 2.765625 -0.140625 2.5 -0.140625 C 2.28125 -0.140625 2.125 -0.265625 2.125 -0.515625 C 2.125 -0.640625 2.140625 -0.765625 2.203125 -0.96875 L 2.390625 -1.75 C 2.453125 -1.984375 2.484375 -2.09375 2.609375 -2.234375 C 2.6875 -2.328125 2.84375 -2.4375 3.03125 -2.4375 C 3.0625 -2.4375 3.234375 -2.4375 3.375 -2.359375 Z M 3.375 -2.359375 "/>
</g>
<g id="glyph-2-1">
<path d="M 3.109375 -1.921875 C 3.140625 -2.0625 3.203125 -2.28125 3.203125 -2.328125 C 3.203125 -2.453125 3.09375 -2.53125 2.984375 -2.53125 C 2.8125 -2.53125 2.71875 -2.375 2.703125 -2.28125 C 2.609375 -2.421875 2.40625 -2.640625 2.046875 -2.640625 C 1.28125 -2.640625 0.453125 -1.84375 0.453125 -0.953125 C 0.453125 -0.3125 0.90625 0.0625 1.40625 0.0625 C 1.8125 0.0625 2.15625 -0.21875 2.296875 -0.359375 C 2.421875 0.015625 2.8125 0.0625 2.953125 0.0625 C 3.171875 0.0625 3.328125 -0.0625 3.4375 -0.25 C 3.578125 -0.484375 3.671875 -0.828125 3.671875 -0.859375 C 3.671875 -0.875 3.65625 -0.953125 3.546875 -0.953125 C 3.46875 -0.953125 3.453125 -0.90625 3.421875 -0.8125 C 3.328125 -0.4375 3.203125 -0.140625 2.96875 -0.140625 C 2.765625 -0.140625 2.75 -0.359375 2.75 -0.4375 C 2.75 -0.515625 2.8125 -0.765625 2.859375 -0.921875 Z M 2.328125 -0.78125 C 2.296875 -0.671875 2.296875 -0.671875 2.21875 -0.578125 C 1.890625 -0.203125 1.578125 -0.140625 1.4375 -0.140625 C 1.1875 -0.140625 0.953125 -0.296875 0.953125 -0.71875 C 0.953125 -0.96875 1.078125 -1.5625 1.28125 -1.890625 C 1.453125 -2.21875 1.765625 -2.4375 2.046875 -2.4375 C 2.5 -2.4375 2.609375 -1.96875 2.609375 -1.921875 L 2.59375 -1.84375 Z M 2.328125 -0.78125 "/>
</g>
<g id="glyph-3-0">
<path d="M 5.8125 -1.34375 C 5.09375 -0.828125 4.953125 -0.03125 4.953125 0 C 4.953125 0.09375 5.046875 0.09375 5.109375 0.09375 C 5.25 0.09375 5.25 0.078125 5.296875 -0.09375 C 5.390625 -0.515625 5.671875 -0.8125 5.703125 -0.84375 C 6.09375 -1.25 6.40625 -1.34375 6.6875 -1.40625 C 6.71875 -1.421875 6.75 -1.453125 6.75 -1.5 C 6.75 -1.5625 6.703125 -1.578125 6.671875 -1.578125 C 5.8125 -1.8125 5.421875 -2.40625 5.28125 -2.9375 C 5.25 -3.0625 5.25 -3.078125 5.109375 -3.078125 C 5.046875 -3.078125 4.953125 -3.078125 4.953125 -2.984375 C 4.953125 -2.953125 5.09375 -2.171875 5.8125 -1.65625 L 0.796875 -1.65625 C 0.703125 -1.65625 0.5625 -1.65625 0.5625 -1.5 C 0.5625 -1.34375 0.703125 -1.34375 0.796875 -1.34375 Z M 5.8125 -1.34375 "/>
</g>
<g id="glyph-3-1">
<path d="M 4.765625 -1.34375 C 4.859375 -1.34375 5.015625 -1.34375 5.015625 -1.5 C 5.015625 -1.65625 4.859375 -1.65625 4.765625 -1.65625 L 1 -1.65625 C 0.890625 -1.65625 0.75 -1.65625 0.75 -1.5 C 0.75 -1.34375 0.890625 -1.34375 1 -1.34375 Z M 4.765625 -1.34375 "/>
</g>
<g id="glyph-4-0">
<path d="M 3.359375 -3.59375 L 4.15625 -3.59375 C 4.34375 -3.59375 4.4375 -3.59375 4.4375 -3.75 C 4.4375 -3.859375 4.34375 -3.859375 4.171875 -3.859375 L 3.40625 -3.859375 C 3.5 -4.40625 3.625 -5.140625 3.75 -5.625 C 3.828125 -5.96875 4.046875 -6.09375 4.21875 -6.09375 C 4.28125 -6.09375 4.484375 -6.078125 4.640625 -5.96875 C 4.453125 -5.9375 4.203125 -5.78125 4.203125 -5.484375 C 4.203125 -5.25 4.375 -5.15625 4.53125 -5.15625 C 4.78125 -5.15625 5.03125 -5.359375 5.03125 -5.6875 C 5.03125 -6.09375 4.640625 -6.328125 4.21875 -6.328125 C 3.8125 -6.328125 3.40625 -6.03125 3.21875 -5.671875 C 3.015625 -5.28125 2.953125 -4.9375 2.765625 -3.859375 L 2.125 -3.859375 C 1.953125 -3.859375 1.84375 -3.859375 1.84375 -3.703125 C 1.84375 -3.59375 1.953125 -3.59375 2.109375 -3.59375 L 2.71875 -3.59375 C 2.46875 -2.28125 2.15625 -0.5 1.953125 0.4375 C 1.84375 0.9375 1.703125 1.609375 1.28125 1.609375 C 1.140625 1.609375 0.953125 1.5625 0.875 1.484375 C 1.09375 1.453125 1.3125 1.265625 1.3125 1 C 1.3125 0.765625 1.140625 0.671875 0.984375 0.671875 C 0.734375 0.671875 0.484375 0.875 0.484375 1.203125 C 0.484375 1.625 0.890625 1.84375 1.28125 1.84375 C 2.1875 1.84375 2.609375 0.34375 2.75 -0.421875 Z M 3.359375 -3.59375 "/>
</g>
<g id="glyph-4-1">
<path d="M 4.40625 -3.625 C 4.078125 -3.5625 3.984375 -3.28125 3.984375 -3.140625 C 3.984375 -2.96875 4.109375 -2.8125 4.328125 -2.8125 C 4.578125 -2.8125 4.828125 -3.03125 4.828125 -3.34375 C 4.828125 -3.765625 4.375 -3.96875 3.953125 -3.96875 C 3.421875 -3.96875 3.109375 -3.484375 3 -3.296875 C 2.828125 -3.734375 2.4375 -3.96875 2 -3.96875 C 1.046875 -3.96875 0.515625 -2.8125 0.515625 -2.578125 C 0.515625 -2.5 0.578125 -2.46875 0.640625 -2.46875 C 0.71875 -2.46875 0.75 -2.515625 0.765625 -2.578125 C 1.046875 -3.46875 1.640625 -3.734375 1.984375 -3.734375 C 2.25 -3.734375 2.46875 -3.5625 2.46875 -3.140625 C 2.46875 -2.828125 2.09375 -1.390625 1.96875 -0.953125 C 1.90625 -0.6875 1.625 -0.125 1.140625 -0.125 C 0.953125 -0.125 0.765625 -0.1875 0.6875 -0.234375 C 0.921875 -0.28125 1.109375 -0.5 1.109375 -0.71875 C 1.109375 -0.953125 0.9375 -1.046875 0.765625 -1.046875 C 0.5 -1.046875 0.265625 -0.828125 0.265625 -0.515625 C 0.265625 -0.078125 0.75 0.09375 1.125 0.09375 C 1.65625 0.09375 1.953125 -0.328125 2.09375 -0.578125 C 2.3125 0.015625 2.84375 0.09375 3.078125 0.09375 C 4.046875 0.09375 4.5625 -1.0625 4.5625 -1.28125 C 4.5625 -1.328125 4.53125 -1.390625 4.453125 -1.390625 C 4.34375 -1.390625 4.34375 -1.359375 4.296875 -1.21875 C 4.09375 -0.578125 3.578125 -0.125 3.109375 -0.125 C 2.859375 -0.125 2.609375 -0.28125 2.609375 -0.71875 C 2.609375 -0.921875 2.734375 -1.40625 2.8125 -1.75 C 2.859375 -1.90625 3.09375 -2.875 3.109375 -2.9375 C 3.21875 -3.265625 3.484375 -3.734375 3.953125 -3.734375 C 4.109375 -3.734375 4.28125 -3.71875 4.40625 -3.625 Z M 4.40625 -3.625 "/>
</g>
<g id="glyph-5-0">
<path d="M 3.0625 2.140625 C 3.0625 2.09375 3.03125 2.0625 2.984375 2 C 1.828125 0.9375 1.46875 -0.671875 1.46875 -2.25 C 1.46875 -3.625 1.734375 -5.3125 3 -6.515625 C 3.046875 -6.5625 3.0625 -6.578125 3.0625 -6.625 C 3.0625 -6.6875 3.015625 -6.734375 2.953125 -6.734375 C 2.84375 -6.734375 2.03125 -6.078125 1.546875 -5.109375 C 1.125 -4.25 0.90625 -3.3125 0.90625 -2.25 C 0.90625 -1.609375 0.984375 -0.578125 1.484375 0.46875 C 2.015625 1.578125 2.84375 2.234375 2.953125 2.234375 C 3.015625 2.234375 3.0625 2.203125 3.0625 2.140625 Z M 3.0625 2.140625 "/>
</g>
<g id="glyph-5-1">
<path d="M 2.671875 -2.25 C 2.671875 -2.984375 2.5625 -3.96875 2.09375 -4.96875 C 1.5625 -6.078125 0.734375 -6.734375 0.625 -6.734375 C 0.53125 -6.734375 0.515625 -6.65625 0.515625 -6.625 C 0.515625 -6.578125 0.53125 -6.5625 0.59375 -6.5 C 1.125 -6.03125 2.109375 -4.8125 2.109375 -2.25 C 2.109375 -0.96875 1.875 0.8125 0.578125 2.03125 C 0.5625 2.046875 0.515625 2.09375 0.515625 2.140625 C 0.515625 2.15625 0.53125 2.234375 0.625 2.234375 C 0.734375 2.234375 1.546875 1.59375 2.03125 0.609375 C 2.453125 -0.25 2.671875 -1.171875 2.671875 -2.25 Z M 2.671875 -2.25 "/>
</g>
<g id="glyph-6-0">
<path d="M 2.953125 -1.34375 L 4.890625 -1.34375 C 4.96875 -1.34375 5.109375 -1.34375 5.109375 -1.5 C 5.109375 -1.65625 4.96875 -1.65625 4.890625 -1.65625 L 2.953125 -1.65625 L 2.953125 -3.59375 C 2.953125 -3.671875 2.953125 -3.828125 2.796875 -3.828125 C 2.640625 -3.828125 2.640625 -3.671875 2.640625 -3.59375 L 2.640625 -1.65625 L 0.703125 -1.65625 C 0.625 -1.65625 0.46875 -1.65625 0.46875 -1.5 C 0.46875 -1.34375 0.625 -1.34375 0.703125 -1.34375 L 2.640625 -1.34375 L 2.640625 0.59375 C 2.640625 0.6875 2.640625 0.828125 2.796875 0.828125 C 2.953125 0.828125 2.953125 0.6875 2.953125 0.59375 Z M 2.953125 -1.34375 "/>
</g>
</g>
</defs>
<path fill="none" stroke-width="0.79701" stroke-linecap="butt" stroke-linejoin="miter" stroke="rgb(0%, 0%, 0%)" stroke-opacity="1" stroke-miterlimit="10" d="M -28.347813 0.00021875 L 138.027187 0.00021875 " transform="matrix(1, 0, 0, -1, 52.465, 124.801)"/>
<path fill-rule="nonzero" fill="rgb(0%, 0%, 0%)" fill-opacity="1" stroke-width="0.79701" stroke-linecap="butt" stroke-linejoin="miter" stroke="rgb(0%, 0%, 0%)" stroke-opacity="1" stroke-miterlimit="10" d="M 4.84112 0.00021875 L 1.286432 1.347875 L 2.470026 0.00021875 L 1.286432 -1.347437 Z M 4.84112 0.00021875 " transform="matrix(1, 0, 0, -1, 188.22138, 124.801)"/>
<g fill="rgb(0%, 0%, 0%)" fill-opacity="1">
<use xlink:href="#glyph-0-0" x="191.35" y="132.809"/>
</g>
<path fill="none" stroke-width="0.79701" stroke-linecap="butt" stroke-linejoin="miter" stroke="rgb(0%, 0%, 0%)" stroke-opacity="1" stroke-miterlimit="10" d="M -0.00015625 -14.171656 L -0.00015625 109.679906 " transform="matrix(1, 0, 0, -1, 52.465, 124.801)"/>
<path fill-rule="nonzero" fill="rgb(0%, 0%, 0%)" fill-opacity="1" stroke-width="0.79701" stroke-linecap="butt" stroke-linejoin="miter" stroke="rgb(0%, 0%, 0%)" stroke-opacity="1" stroke-miterlimit="10" d="M 4.844545 0.00015625 L 1.285951 1.347813 L 2.469545 0.00015625 L 1.285951 -1.3475 Z M 4.844545 0.00015625 " transform="matrix(0, -1, -1, 0, 52.465, 17.39142)"/>
<g fill="rgb(0%, 0%, 0%)" fill-opacity="1">
<use xlink:href="#glyph-0-1" x="43.504" y="12.591"/>
</g>
<path fill="none" stroke-width="1.19553" stroke-linecap="butt" stroke-linejoin="miter" stroke="rgb(0%, 0%, 0%)" stroke-opacity="1" stroke-miterlimit="10" d="M 8.50375 18.426 L 10.163906 19.258031 L 11.827969 20.086156 L 13.488125 20.918188 L 15.148281 21.746313 L 16.812344 22.578344 L 18.4725 23.410375 L 20.132656 24.2385 L 21.796719 25.070531 L 23.456875 25.902563 L 25.117031 26.730688 L 26.781094 27.562719 L 28.44125 28.39475 L 30.101406 29.222875 L 31.761562 30.054906 L 33.425625 30.886938 L 35.085781 31.715063 L 36.745937 32.547094 L 38.41 33.379125 L 40.070156 34.20725 L 41.730312 35.039281 L 43.394375 35.871313 L 45.054531 36.699438 L 46.714687 37.531469 L 48.37875 38.3635 L 50.038906 39.191625 L 51.699062 40.023656 L 53.363125 40.855688 L 55.023281 41.683813 L 56.683437 42.515844 " transform="matrix(1, 0, 0, -1, 52.465, 124.801)"/>
<path fill="none" stroke-width="1.19553" stroke-linecap="butt" stroke-linejoin="miter" stroke="rgb(0%, 0%, 0%)" stroke-opacity="1" stroke-miterlimit="10" d="M 56.695156 70.867406 L 59.136562 69.890844 L 61.581875 68.914281 L 64.023281 67.933813 L 66.468594 66.95725 L 68.91 65.980688 L 71.355312 65.004125 L 73.796719 64.027563 L 76.242031 63.047094 L 78.683437 62.070531 L 81.12875 61.093969 L 83.570156 60.117406 L 86.015469 59.140844 L 88.456875 58.160375 L 90.902187 57.183813 L 93.343594 56.20725 L 95.788906 55.230688 L 98.230312 54.254125 L 100.675625 53.273656 L 103.117031 52.297094 L 105.562344 51.320531 L 108.00375 50.343969 L 110.449062 49.367406 L 112.890469 48.386938 L 115.335781 47.410375 L 117.777187 46.433813 L 120.2225 45.45725 L 122.663906 44.476781 L 125.109219 43.500219 L 127.550625 42.523656 " transform="matrix(1, 0, 0, -1, 52.465, 124.801)"/>
<path fill-rule="nonzero" fill="rgb(100%, 100%, 100%)" fill-opacity="1" stroke-width="0.3985" stroke-linecap="butt" stroke-linejoin="miter" stroke="rgb(0%, 0%, 0%)" stroke-opacity="1" stroke-miterlimit="10" d="M 58.808437 42.51975 C 58.808437 43.687719 57.859219 44.633031 56.695156 44.633031 C 55.527187 44.633031 54.581875 43.687719 54.581875 42.51975 C 54.581875 41.351781 55.527187 40.406469 56.695156 40.406469 C 57.859219 40.406469 58.808437 41.351781 58.808437 42.51975 Z M 58.808437 42.51975 " transform="matrix(1, 0, 0, -1, 52.465, 124.801)"/>
<path fill-rule="nonzero" fill="rgb(100%, 100%, 100%)" fill-opacity="1" stroke-width="0.3985" stroke-linecap="butt" stroke-linejoin="miter" stroke="rgb(0%, 0%, 0%)" stroke-opacity="1" stroke-miterlimit="10" d="M 58.808437 70.867406 C 58.808437 72.035375 57.859219 72.980688 56.695156 72.980688 C 55.527187 72.980688 54.581875 72.035375 54.581875 70.867406 C 54.581875 69.699438 55.527187 68.754125 56.695156 68.754125 C 57.859219 68.754125 58.808437 69.699438 58.808437 70.867406 Z M 58.808437 70.867406 " transform="matrix(1, 0, 0, -1, 52.465, 124.801)"/>
<path fill="none" stroke-width="0.59776" stroke-linecap="butt" stroke-linejoin="miter" stroke="rgb(0%, 0%, 0%)" stroke-opacity="1" stroke-dasharray="2.98883 2.98883" stroke-miterlimit="10" d="M 56.695156 0.00021875 L 56.695156 70.867406 " transform="matrix(1, 0, 0, -1, 52.465, 124.801)"/>
<g fill="rgb(0%, 0%, 0%)" fill-opacity="1">
<use xlink:href="#glyph-0-2" x="106.525" y="132.71"/>
</g>
<path fill="none" stroke-width="0.59776" stroke-linecap="butt" stroke-linejoin="miter" stroke="rgb(0%, 0%, 0%)" stroke-opacity="1" stroke-dasharray="2.98883 2.98883" stroke-miterlimit="10" d="M -0.00015625 42.51975 L 56.695156 42.51975 " transform="matrix(1, 0, 0, -1, 52.465, 124.801)"/>
<path fill="none" stroke-width="0.59776" stroke-linecap="butt" stroke-linejoin="miter" stroke="rgb(0%, 0%, 0%)" stroke-opacity="1" stroke-dasharray="2.98883 2.98883" stroke-miterlimit="10" d="M -0.00015625 70.867406 L 56.695156 70.867406 " transform="matrix(1, 0, 0, -1, 52.465, 124.801)"/>
<g fill="rgb(0%, 0%, 0%)" fill-opacity="1">
<use xlink:href="#glyph-1-0" x="12.534" y="82.018"/>
<use xlink:href="#glyph-1-1" x="15.098385" y="82.018"/>
<use xlink:href="#glyph-1-2" x="17.662769" y="82.018"/>
</g>
<g fill="rgb(0%, 0%, 0%)" fill-opacity="1">
<use xlink:href="#glyph-2-0" x="8.302" y="87.443"/>
</g>
<g fill="rgb(0%, 0%, 0%)" fill-opacity="1">
<use xlink:href="#glyph-3-0" x="12.474" y="87.443"/>
<use xlink:href="#glyph-3-1" x="19.779798" y="87.443"/>
</g>
<g fill="rgb(0%, 0%, 0%)" fill-opacity="1">
<use xlink:href="#glyph-2-1" x="25.536" y="87.443"/>
</g>
<g fill="rgb(0%, 0%, 0%)" fill-opacity="1">
<use xlink:href="#glyph-4-0" x="31.106" y="82.018"/>
</g>
<g fill="rgb(0%, 0%, 0%)" fill-opacity="1">
<use xlink:href="#glyph-5-0" x="36.554" y="82.018"/>
</g>
<g fill="rgb(0%, 0%, 0%)" fill-opacity="1">
<use xlink:href="#glyph-4-1" x="40.138" y="82.018"/>
</g>
<g fill="rgb(0%, 0%, 0%)" fill-opacity="1">
<use xlink:href="#glyph-5-1" x="45.361" y="82.018"/>
</g>
<g fill="rgb(0%, 0%, 0%)" fill-opacity="1">
<use xlink:href="#glyph-1-0" x="12.617" y="53.672"/>
<use xlink:href="#glyph-1-1" x="15.181385" y="53.672"/>
<use xlink:href="#glyph-1-2" x="17.745769" y="53.672"/>
</g>
<g fill="rgb(0%, 0%, 0%)" fill-opacity="1">
<use xlink:href="#glyph-2-0" x="8.468" y="59.096"/>
</g>
<g fill="rgb(0%, 0%, 0%)" fill-opacity="1">
<use xlink:href="#glyph-3-0" x="12.64" y="59.096"/>
</g>
<g fill="rgb(0%, 0%, 0%)" fill-opacity="1">
<use xlink:href="#glyph-6-0" x="19.946" y="59.096"/>
</g>
<g fill="rgb(0%, 0%, 0%)" fill-opacity="1">
<use xlink:href="#glyph-2-1" x="25.536" y="59.096"/>
</g>
<g fill="rgb(0%, 0%, 0%)" fill-opacity="1">
<use xlink:href="#glyph-4-0" x="31.106" y="53.672"/>
</g>
<g fill="rgb(0%, 0%, 0%)" fill-opacity="1">
<use xlink:href="#glyph-5-0" x="36.554" y="53.672"/>
</g>
<g fill="rgb(0%, 0%, 0%)" fill-opacity="1">
<use xlink:href="#glyph-4-1" x="40.138" y="53.672"/>
</g>
<g fill="rgb(0%, 0%, 0%)" fill-opacity="1">
<use xlink:href="#glyph-5-1" x="45.361" y="53.672"/>
</g>
<path fill="none" stroke-width="1.19553" stroke-linecap="butt" stroke-linejoin="miter" stroke="rgb(100%, 0%, 0%)" stroke-opacity="1" stroke-miterlimit="10" d="M 14.171719 21.261938 L 16.113125 22.230688 L 18.050625 23.199438 L 19.992031 24.168188 L 21.929531 25.140844 L 25.812344 27.078344 L 27.749844 28.047094 L 29.69125 29.01975 L 31.62875 29.9885 L 33.570156 30.95725 L 35.507656 31.926 L 37.449062 32.898656 L 39.386562 33.867406 L 41.327969 34.836156 L 43.265469 35.804906 L 45.206875 36.777563 L 47.144375 37.746313 L 49.085781 38.715063 L 47.785 38.066625 " transform="matrix(1, 0, 0, -1, 52.465, 124.801)"/>
<path fill-rule="nonzero" fill="rgb(100%, 0%, 0%)" fill-opacity="1" stroke-width="1.00871" stroke-linecap="butt" stroke-linejoin="miter" stroke="rgb(100%, 0%, 0%)" stroke-opacity="1" stroke-miterlimit="10" d="M 4.540365 0.000639927 L 1.629742 1.106507 L 2.609856 0.000622659 L 1.628014 -1.107027 Z M 4.540365 0.000639927 " transform="matrix(0.89436, -0.44717, -0.44717, -0.89436, 98.14269, 87.7887)"/>
<path fill="none" stroke-width="1.19553" stroke-linecap="butt" stroke-linejoin="miter" stroke="rgb(100%, 0%, 0%)" stroke-opacity="1" stroke-miterlimit="10" d="M 113.386562 48.191625 L 110.702969 49.265844 L 108.015469 50.340063 L 105.331875 51.410375 L 102.648281 52.484594 L 99.960781 53.558813 L 97.277187 54.633031 L 94.589687 55.70725 L 91.906094 56.781469 L 89.218594 57.855688 L 83.851406 60.004125 L 81.163906 61.078344 L 78.480312 62.152563 L 75.792812 63.226781 L 70.425625 65.375219 L 67.738125 66.449438 L 65.054531 67.523656 L 65.730312 67.254125 " transform="matrix(1, 0, 0, -1, 52.465, 124.801)"/>
<path fill-rule="nonzero" fill="rgb(100%, 0%, 0%)" fill-opacity="1" stroke-width="1.00871" stroke-linecap="butt" stroke-linejoin="miter" stroke="rgb(100%, 0%, 0%)" stroke-opacity="1" stroke-miterlimit="10" d="M 4.540007 0.000777867 L 1.627401 1.107476 L 2.609703 -0.00157758 L 1.630509 -1.108637 Z M 4.540007 0.000777867 " transform="matrix(-0.9284, -0.37146, -0.37146, 0.9284, 120.3832, 58.42399)"/>
</svg>
