<?xml version="1.0" encoding="UTF-8"?>
<svg xmlns="http://www.w3.org/2000/svg" xmlns:xlink="http://www.w3.org/1999/xlink" width="279.082pt" height="158.527pt" viewBox="0 0 279.082 158.527">
<defs>
<g>
<g id="glyph-0-0">
<path d="M 3.328125 -3.015625 C 3.390625 -3.265625 3.625 -4.1875 4.3125 -4.1875 C 4.359375 -4.1875 4.609375 -4.1875 4.8125 -4.0625 C 4.53125 -4 4.34375 -3.765625 4.34375 -3.515625 C 4.34375 -3.359375 4.453125 -3.171875 4.71875 -3.171875 C 4.9375 -3.171875 5.25 -3.34375 5.25 -3.75 C 5.25 -4.265625 4.671875 -4.40625 4.328125 -4.40625 C 3.75 -4.40625 3.40625 -3.875 3.28125 -3.65625 C 3.03125 -4.3125 2.5 -4.40625 2.203125 -4.40625 C 1.171875 -4.40625 0.59375 -3.125 0.59375 -2.875 C 0.59375 -2.765625 0.703125 -2.765625 0.71875 -2.765625 C 0.796875 -2.765625 0.828125 -2.796875 0.84375 -2.875 C 1.1875 -3.9375 1.84375 -4.1875 2.1875 -4.1875 C 2.375 -4.1875 2.71875 -4.09375 2.71875 -3.515625 C 2.71875 -3.203125 2.546875 -2.546875 2.1875 -1.140625 C 2.03125 -0.53125 1.671875 -0.109375 1.234375 -0.109375 C 1.171875 -0.109375 0.953125 -0.109375 0.734375 -0.234375 C 0.984375 -0.296875 1.203125 -0.5 1.203125 -0.78125 C 1.203125 -1.046875 0.984375 -1.125 0.84375 -1.125 C 0.53125 -1.125 0.296875 -0.875 0.296875 -0.546875 C 0.296875 -0.09375 0.78125 0.109375 1.21875 0.109375 C 1.890625 0.109375 2.25 -0.59375 2.265625 -0.640625 C 2.390625 -0.28125 2.75 0.109375 3.34375 0.109375 C 4.375 0.109375 4.9375 -1.171875 4.9375 -1.421875 C 4.9375 -1.53125 4.859375 -1.53125 4.828125 -1.53125 C 4.734375 -1.53125 4.71875 -1.484375 4.6875 -1.421875 C 4.359375 -0.34375 3.6875 -0.109375 3.375 -0.109375 C 2.984375 -0.109375 2.828125 -0.421875 2.828125 -0.765625 C 2.828125 -0.984375 2.875 -1.203125 2.984375 -1.640625 Z M 3.328125 -3.015625 "/>
</g>
<g id="glyph-0-1">
<path d="M 4.84375 -3.796875 C 4.890625 -3.9375 4.890625 -3.953125 4.890625 -4.03125 C 4.890625 -4.203125 4.75 -4.296875 4.59375 -4.296875 C 4.5 -4.296875 4.34375 -4.234375 4.25 -4.09375 C 4.234375 -4.03125 4.140625 -3.734375 4.109375 -3.546875 C 4.03125 -3.296875 3.96875 -3.015625 3.90625 -2.75 L 3.453125 -0.953125 C 3.421875 -0.8125 2.984375 -0.109375 2.328125 -0.109375 C 1.828125 -0.109375 1.71875 -0.546875 1.71875 -0.921875 C 1.71875 -1.375 1.890625 -2 2.21875 -2.875 C 2.375 -3.28125 2.421875 -3.390625 2.421875 -3.59375 C 2.421875 -4.03125 2.109375 -4.40625 1.609375 -4.40625 C 0.65625 -4.40625 0.296875 -2.953125 0.296875 -2.875 C 0.296875 -2.765625 0.390625 -2.765625 0.40625 -2.765625 C 0.515625 -2.765625 0.515625 -2.796875 0.5625 -2.953125 C 0.84375 -3.890625 1.234375 -4.1875 1.578125 -4.1875 C 1.65625 -4.1875 1.828125 -4.1875 1.828125 -3.875 C 1.828125 -3.625 1.71875 -3.359375 1.65625 -3.171875 C 1.25 -2.109375 1.078125 -1.546875 1.078125 -1.078125 C 1.078125 -0.1875 1.703125 0.109375 2.296875 0.109375 C 2.6875 0.109375 3.015625 -0.0625 3.296875 -0.34375 C 3.171875 0.171875 3.046875 0.671875 2.65625 1.203125 C 2.390625 1.53125 2.015625 1.828125 1.5625 1.828125 C 1.421875 1.828125 0.96875 1.796875 0.796875 1.40625 C 0.953125 1.40625 1.09375 1.40625 1.21875 1.28125 C 1.328125 1.203125 1.421875 1.0625 1.421875 0.875 C 1.421875 0.5625 1.15625 0.53125 1.0625 0.53125 C 0.828125 0.53125 0.5 0.6875 0.5 1.171875 C 0.5 1.671875 0.9375 2.046875 1.5625 2.046875 C 2.578125 2.046875 3.609375 1.140625 3.890625 0.015625 Z M 4.84375 -3.796875 "/>
</g>
<g id="glyph-0-2">
<path d="M 3.71875 -3.765625 C 3.53125 -4.140625 3.25 -4.40625 2.796875 -4.40625 C 1.640625 -4.40625 0.40625 -2.9375 0.40625 -1.484375 C 0.40625 -0.546875 0.953125 0.109375 1.71875 0.109375 C 1.921875 0.109375 2.421875 0.0625 3.015625 -0.640625 C 3.09375 -0.21875 3.453125 0.109375 3.921875 0.109375 C 4.28125 0.109375 4.5 -0.125 4.671875 -0.4375 C 4.828125 -0.796875 4.96875 -1.40625 4.96875 -1.421875 C 4.96875 -1.53125 4.875 -1.53125 4.84375 -1.53125 C 4.75 -1.53125 4.734375 -1.484375 4.703125 -1.34375 C 4.53125 -0.703125 4.359375 -0.109375 3.953125 -0.109375 C 3.671875 -0.109375 3.65625 -0.375 3.65625 -0.5625 C 3.65625 -0.78125 3.671875 -0.875 3.78125 -1.3125 C 3.890625 -1.71875 3.90625 -1.828125 4 -2.203125 L 4.359375 -3.59375 C 4.421875 -3.875 4.421875 -3.890625 4.421875 -3.9375 C 4.421875 -4.109375 4.3125 -4.203125 4.140625 -4.203125 C 3.890625 -4.203125 3.75 -3.984375 3.71875 -3.765625 Z M 3.078125 -1.1875 C 3.015625 -1 3.015625 -0.984375 2.875 -0.8125 C 2.4375 -0.265625 2.03125 -0.109375 1.75 -0.109375 C 1.25 -0.109375 1.109375 -0.65625 1.109375 -1.046875 C 1.109375 -1.546875 1.421875 -2.765625 1.65625 -3.234375 C 1.96875 -3.8125 2.40625 -4.1875 2.8125 -4.1875 C 3.453125 -4.1875 3.59375 -3.375 3.59375 -3.3125 C 3.59375 -3.25 3.578125 -3.1875 3.5625 -3.140625 Z M 3.078125 -1.1875 "/>
</g>
<g id="glyph-0-3">
<path d="M 3.65625 -3.984375 L 4.515625 -3.984375 C 4.71875 -3.984375 4.8125 -3.984375 4.8125 -4.1875 C 4.8125 -4.296875 4.71875 -4.296875 4.546875 -4.296875 L 3.71875 -4.296875 L 3.921875 -5.4375 C 3.96875 -5.640625 4.109375 -6.34375 4.171875 -6.46875 C 4.25 -6.65625 4.421875 -6.8125 4.640625 -6.8125 C 4.671875 -6.8125 4.9375 -6.8125 5.125 -6.625 C 4.6875 -6.59375 4.578125 -6.234375 4.578125 -6.09375 C 4.578125 -5.859375 4.765625 -5.734375 4.953125 -5.734375 C 5.21875 -5.734375 5.5 -5.96875 5.5 -6.34375 C 5.5 -6.796875 5.046875 -7.03125 4.640625 -7.03125 C 4.296875 -7.03125 3.671875 -6.84375 3.375 -5.859375 C 3.3125 -5.65625 3.28125 -5.546875 3.046875 -4.296875 L 2.359375 -4.296875 C 2.15625 -4.296875 2.046875 -4.296875 2.046875 -4.109375 C 2.046875 -3.984375 2.140625 -3.984375 2.328125 -3.984375 L 2.984375 -3.984375 L 2.25 -0.046875 C 2.0625 0.921875 1.890625 1.828125 1.375 1.828125 C 1.328125 1.828125 1.09375 1.828125 0.890625 1.640625 C 1.359375 1.609375 1.453125 1.25 1.453125 1.109375 C 1.453125 0.875 1.265625 0.75 1.078125 0.75 C 0.8125 0.75 0.53125 0.984375 0.53125 1.359375 C 0.53125 1.796875 0.96875 2.046875 1.375 2.046875 C 1.921875 2.046875 2.328125 1.453125 2.5 1.078125 C 2.828125 0.453125 3.046875 -0.75 3.0625 -0.828125 Z M 3.65625 -3.984375 "/>
</g>
<g id="glyph-1-0">
<path d="M 3.296875 2.390625 C 3.296875 2.359375 3.296875 2.34375 3.125 2.171875 C 1.890625 0.921875 1.5625 -0.96875 1.5625 -2.5 C 1.5625 -4.234375 1.9375 -5.96875 3.171875 -7.203125 C 3.296875 -7.328125 3.296875 -7.34375 3.296875 -7.375 C 3.296875 -7.453125 3.265625 -7.484375 3.203125 -7.484375 C 3.09375 -7.484375 2.203125 -6.796875 1.609375 -5.53125 C 1.109375 -4.4375 0.984375 -3.328125 0.984375 -2.5 C 0.984375 -1.71875 1.09375 -0.515625 1.640625 0.625 C 2.25 1.84375 3.09375 2.5 3.203125 2.5 C 3.265625 2.5 3.296875 2.46875 3.296875 2.390625 Z M 3.296875 2.390625 "/>
</g>
<g id="glyph-1-1">
<path d="M 2.875 -2.5 C 2.875 -3.265625 2.765625 -4.46875 2.21875 -5.609375 C 1.625 -6.828125 0.765625 -7.484375 0.671875 -7.484375 C 0.609375 -7.484375 0.5625 -7.4375 0.5625 -7.375 C 0.5625 -7.34375 0.5625 -7.328125 0.75 -7.140625 C 1.734375 -6.15625 2.296875 -4.578125 2.296875 -2.5 C 2.296875 -0.78125 1.9375 0.96875 0.703125 2.21875 C 0.5625 2.34375 0.5625 2.359375 0.5625 2.390625 C 0.5625 2.453125 0.609375 2.5 0.671875 2.5 C 0.765625 2.5 1.671875 1.8125 2.25 0.546875 C 2.765625 -0.546875 2.875 -1.65625 2.875 -2.5 Z M 2.875 -2.5 "/>
</g>
<g id="glyph-2-0">
<path d="M 2.3125 -6.078125 C 2.5625 -5.8125 2.703125 -5.6875 2.921875 -5.578125 C 3.1875 -5.4375 3.59375 -5.34375 3.90625 -5.34375 C 4.0625 -5.34375 4.359375 -5.34375 4.546875 -5.359375 C 4.421875 -5.28125 4.421875 -5.28125 3.828125 -4.953125 C 3.609375 -4.84375 3.46875 -4.75 3.203125 -4.59375 L 3.265625 -4.46875 C 3.421875 -4.53125 3.421875 -4.53125 3.59375 -4.609375 C 4.09375 -4.828125 4.09375 -4.828125 4.296875 -4.90625 C 5.15625 -5.21875 5.234375 -5.25 5.5625 -5.328125 C 6.140625 -5.453125 6.1875 -5.484375 6.1875 -5.625 C 6.1875 -5.8125 5.90625 -6.078125 5.671875 -6.078125 C 5.65625 -6.078125 5.578125 -6.0625 5.515625 -6.03125 C 5.015625 -5.875 4.296875 -5.78125 3.71875 -5.78125 C 3.140625 -5.78125 2.84375 -5.859375 2.40625 -6.15625 Z M 2 -2.78125 C 1.890625 -2.5 1.859375 -2.265625 1.859375 -2.0625 C 1.859375 -1.515625 2.140625 -0.96875 2.5625 -0.703125 C 3 -0.40625 3.609375 -0.28125 4.578125 -0.28125 C 5.34375 -0.28125 6.1875 -0.359375 6.59375 -0.453125 C 6.765625 -0.5 6.859375 -0.59375 6.859375 -0.71875 C 6.859375 -0.828125 6.796875 -0.9375 6.671875 -1.03125 C 6.53125 -1.125 6.328125 -1.203125 6.203125 -1.203125 C 6.15625 -1.203125 6.109375 -1.1875 6.0625 -1.171875 C 5.546875 -0.96875 4.828125 -0.859375 4.15625 -0.859375 C 2.765625 -0.859375 2.109375 -1.34375 2.109375 -2.359375 C 2.109375 -2.484375 2.125 -2.5625 2.140625 -2.75 Z M 2 -2.78125 "/>
</g>
<g id="glyph-2-1">
<path d="M 4.296875 -0.03125 C 5.03125 -0.15625 5.484375 -0.296875 5.984375 -0.5625 C 7.078125 -1.140625 7.703125 -2.09375 7.703125 -3.171875 C 7.703125 -4.015625 7.421875 -4.6875 6.875 -5.203125 C 6.328125 -5.703125 5.515625 -6 4.65625 -6 C 3.515625 -6 2.375 -5.53125 1.6875 -4.78125 C 1.203125 -4.265625 0.90625 -3.625 0.90625 -3.078125 C 0.90625 -2.796875 0.96875 -2.5625 1.109375 -2.296875 C 1.359375 -1.8125 1.40625 -1.703125 1.484375 -1.484375 C 1.625 -1.0625 1.640625 -1.03125 1.71875 -0.9375 C 1.8125 -0.8125 1.953125 -0.75 2.109375 -0.75 C 2.421875 -0.75 2.84375 -1.171875 3.390625 -2.03125 C 4.046875 -3.09375 4.53125 -4.34375 4.53125 -5.015625 C 4.53125 -5.265625 4.46875 -5.4375 4.265625 -5.734375 C 4.40625 -5.75 4.453125 -5.75 4.5625 -5.75 C 5.109375 -5.75 5.671875 -5.609375 6.0625 -5.359375 C 6.6875 -4.953125 7.03125 -4.28125 7.03125 -3.453125 C 7.03125 -2.65625 6.765625 -1.953125 6.265625 -1.375 C 5.765625 -0.796875 5.171875 -0.453125 4.25 -0.171875 Z M 4.078125 -5.703125 C 4.171875 -5.484375 4.203125 -5.40625 4.203125 -5.265625 C 4.203125 -4.734375 3.75 -3.625 3.109375 -2.609375 C 2.6875 -1.9375 2.265625 -1.46875 2.078125 -1.46875 C 1.984375 -1.46875 1.875 -1.5625 1.75 -1.71875 C 1.53125 -2.015625 1.40625 -2.4375 1.40625 -2.859375 C 1.40625 -4.1875 2.578125 -5.4375 4.078125 -5.703125 Z M 4.078125 -5.703125 "/>
</g>
<g id="glyph-2-2">
<path d="M 0.21875 -3.1875 C 0.6875 -3.703125 0.890625 -3.984375 1.1875 -4.4375 L 1.1875 -1.765625 C 1.1875 -1.234375 1.1875 -0.859375 1.1875 -0.609375 C 1.171875 0.109375 1.171875 0.109375 1.171875 0.53125 C 1.171875 0.59375 1.203125 0.625 1.28125 0.625 C 1.421875 0.625 1.59375 0.609375 1.6875 0.578125 C 1.75 0.5625 1.765625 0.53125 1.765625 0.46875 C 1.765625 0.46875 1.765625 0.46875 1.765625 0.453125 C 1.75 -0.515625 1.75 -0.546875 1.75 -0.875 L 1.75 -4.484375 C 1.890625 -4.546875 1.96875 -4.59375 1.96875 -4.65625 C 1.96875 -4.703125 1.84375 -4.75 1.578125 -4.78125 C 1.546875 -4.78125 1.484375 -4.78125 1.40625 -4.796875 C 1.875 -5.578125 2.1875 -6.171875 2.4375 -6.78125 C 2.640625 -6.84375 2.78125 -6.875 2.796875 -6.90625 C 2.84375 -6.921875 2.859375 -6.953125 2.859375 -6.984375 C 2.859375 -7.03125 2.59375 -7.140625 1.875 -7.3125 C 1.828125 -6.90625 1.6875 -6.453125 1.3125 -5.546875 C 0.953125 -4.671875 0.78125 -4.3125 0.125 -3.25 Z M 2.953125 -3.828125 C 3.578125 -4.203125 3.6875 -4.265625 4.09375 -4.59375 C 4.1875 -4.578125 4.25 -4.578125 4.28125 -4.578125 C 4.34375 -4.578125 4.390625 -4.59375 4.390625 -4.640625 C 4.390625 -4.6875 4.359375 -4.71875 4.28125 -4.78125 C 4.28125 -4.78125 4.1875 -4.859375 4.078125 -4.9375 C 4.015625 -5 3.90625 -5.078125 3.765625 -5.1875 C 3.625 -4.859375 3.328125 -4.421875 2.953125 -4 L 2.953125 -5.703125 C 3.125 -5.765625 3.25 -5.828125 3.25 -5.890625 C 3.25 -5.953125 3.140625 -5.984375 2.78125 -6.03125 C 2.703125 -6.046875 2.578125 -6.0625 2.421875 -6.09375 C 2.4375 -5.828125 2.4375 -5.78125 2.4375 -5.3125 L 2.4375 -1.34375 C 2.453125 -0.96875 2.53125 -0.921875 3.109375 -0.921875 C 3.953125 -0.921875 4.25 -1 4.25 -1.234375 C 4.25 -1.3125 4.21875 -1.375 4.171875 -1.40625 C 4.046875 -1.484375 4.046875 -1.484375 4.046875 -1.515625 L 4.046875 -1.703125 L 4.09375 -2.953125 L 3.96875 -2.953125 C 3.78125 -2.0625 3.703125 -1.671875 3.640625 -1.53125 C 3.59375 -1.421875 3.53125 -1.390625 3.265625 -1.390625 C 3 -1.390625 2.953125 -1.40625 2.953125 -1.53125 Z M 8.34375 -6.484375 C 8.390625 -6.484375 8.4375 -6.5 8.4375 -6.53125 C 8.4375 -6.5625 8.421875 -6.578125 8.390625 -6.609375 C 8.03125 -6.875 7.921875 -6.953125 7.578125 -7.21875 C 7.390625 -7 7.328125 -6.921875 7.125 -6.671875 L 4.46875 -6.671875 C 4.15625 -6.671875 3.96875 -6.6875 3.703125 -6.75 L 3.78125 -6.421875 C 4.078125 -6.453125 4.21875 -6.484375 4.46875 -6.484375 L 5.765625 -6.484375 C 5.734375 -6.03125 5.703125 -5.875 5.578125 -5.3125 L 5.078125 -5.3125 C 4.828125 -5.453125 4.734375 -5.484375 4.46875 -5.609375 C 4.5 -4.890625 4.5 -4.8125 4.5 -4.71875 C 4.5 -3.25 4.46875 -1.796875 4.453125 -1.15625 C 4.453125 -1.140625 4.453125 -1.125 4.453125 -1.125 C 4.453125 -1.046875 4.515625 -1.015625 4.609375 -1.015625 C 4.671875 -1.015625 4.859375 -1.03125 4.9375 -1.046875 C 5 -1.046875 5.015625 -1.09375 5.015625 -1.15625 L 5.015625 -1.34375 L 7.1875 -1.34375 L 7.1875 -1.09375 C 7.1875 -1.09375 7.1875 -1.0625 7.1875 -1.0625 C 7.1875 -1 7.21875 -0.96875 7.296875 -0.96875 C 7.390625 -0.96875 7.671875 -0.984375 7.6875 -1 C 7.75 -1.015625 7.765625 -1.03125 7.765625 -1.109375 C 7.75 -1.75 7.75 -2.046875 7.75 -2.578125 L 7.75 -5.046875 C 7.90625 -5.109375 7.96875 -5.171875 7.96875 -5.234375 C 7.96875 -5.25 7.953125 -5.28125 7.90625 -5.328125 C 7.6875 -5.484375 7.625 -5.53125 7.40625 -5.671875 C 7.265625 -5.515625 7.234375 -5.46875 7.109375 -5.3125 L 5.78125 -5.3125 C 6.078125 -5.703125 6.171875 -5.859375 6.46875 -6.484375 Z M 7.1875 -4.140625 L 5.015625 -4.140625 L 5.015625 -5.109375 L 7.1875 -5.109375 Z M 7.1875 -3.9375 L 7.1875 -2.859375 L 5.015625 -2.859375 L 5.015625 -3.9375 Z M 7.1875 -2.671875 L 7.1875 -1.53125 L 5.015625 -1.53125 L 5.015625 -2.671875 Z M 6.15625 -0.953125 C 6.796875 -0.546875 7.390625 -0.0625 7.78125 0.359375 C 7.9375 0.53125 8 0.5625 8.0625 0.5625 C 8.171875 0.5625 8.234375 0.390625 8.234375 0.15625 C 8.234375 -0.109375 8.125 -0.296875 7.90625 -0.40625 C 7.5625 -0.609375 6.984375 -0.8125 6.1875 -1.0625 Z M 2.953125 0.59375 C 4.078125 0.296875 4.59375 0.0625 5.4375 -0.453125 C 5.75 -0.453125 5.828125 -0.46875 5.828125 -0.546875 C 5.828125 -0.609375 5.671875 -0.703125 5.078125 -1.015625 C 4.9375 -0.84375 4.8125 -0.71875 4.453125 -0.453125 C 4.03125 -0.125 3.890625 -0.03125 2.875 0.484375 Z M 2.953125 0.59375 "/>
</g>
<g id="glyph-2-3">
<path d="M 1.484375 -5.421875 C 1.875 -5 2.28125 -4.796875 2.75 -4.796875 C 3.203125 -4.796875 3.78125 -4.890625 4.359375 -5.078125 C 4.546875 -4.765625 4.78125 -4.375 4.953125 -4.03125 C 4.25 -3.828125 3.609375 -3.703125 3.109375 -3.703125 C 2.65625 -3.703125 2.375 -3.84375 2.09375 -4.21875 L 2 -4.140625 C 2.140625 -3.859375 2.234375 -3.75 2.40625 -3.625 C 2.65625 -3.453125 2.9375 -3.375 3.296875 -3.375 C 3.828125 -3.375 4.5625 -3.5 5.140625 -3.703125 C 5.453125 -3.09375 5.6875 -2.578125 5.78125 -2.234375 C 5.15625 -2.375 4.671875 -2.421875 4.171875 -2.421875 C 2.796875 -2.421875 1.890625 -1.90625 1.890625 -1.125 C 1.890625 -0.6875 2.203125 -0.28125 2.71875 -0.046875 C 3.109375 0.125 3.703125 0.21875 4.375 0.21875 C 4.875 0.21875 5.40625 0.15625 5.5625 0.09375 C 5.65625 0.046875 5.6875 -0.015625 5.6875 -0.078125 C 5.6875 -0.296875 5.375 -0.53125 5.125 -0.53125 C 5.09375 -0.53125 5.0625 -0.53125 5.015625 -0.515625 C 4.609375 -0.421875 4.359375 -0.390625 3.9375 -0.390625 C 2.875 -0.390625 2.296875 -0.6875 2.296875 -1.21875 C 2.296875 -1.515625 2.46875 -1.734375 2.828125 -1.921875 C 3.109375 -2.0625 3.5 -2.15625 3.90625 -2.15625 C 4.65625 -2.15625 5.453125 -1.921875 5.90625 -1.5625 C 6.03125 -1.453125 6.0625 -1.4375 6.140625 -1.4375 C 6.3125 -1.4375 6.421875 -1.65625 6.421875 -2 C 6.421875 -2.15625 6.375 -2.296875 6.28125 -2.453125 C 6.078125 -2.78125 6.078125 -2.78125 5.875 -3.140625 C 5.796875 -3.28125 5.765625 -3.359375 5.5 -3.8125 C 6.671875 -4.21875 7.171875 -4.5 7.171875 -4.703125 C 7.171875 -4.828125 7.078125 -4.921875 6.9375 -4.921875 C 6.921875 -4.921875 6.890625 -4.921875 6.859375 -4.90625 C 6.703125 -4.890625 6.703125 -4.890625 6.703125 -4.890625 C 6.53125 -4.890625 6.3125 -4.96875 5.984375 -5.125 L 5.921875 -5.046875 C 6.125 -4.875 6.1875 -4.828125 6.375 -4.640625 C 6.15625 -4.5 5.984375 -4.4375 5.296875 -4.171875 C 5.078125 -4.546875 4.9375 -4.78125 4.875 -4.875 C 4.78125 -5.046875 4.78125 -5.046875 4.6875 -5.1875 C 5.40625 -5.421875 5.828125 -5.5625 5.953125 -5.625 C 6.40625 -5.8125 6.515625 -5.875 6.515625 -6 C 6.515625 -6.15625 6.34375 -6.234375 6.015625 -6.234375 C 5.875 -6.234375 5.796875 -6.203125 5.734375 -6.140625 C 5.5 -5.90625 5.296875 -5.796875 4.5 -5.5 C 4.15625 -6.1875 4.15625 -6.1875 4.15625 -6.359375 C 4.125 -6.59375 4.125 -6.625 4.046875 -6.6875 C 3.96875 -6.765625 3.765625 -6.8125 3.453125 -6.8125 C 3.296875 -6.8125 3.203125 -6.796875 3.0625 -6.765625 C 2.828125 -6.703125 2.78125 -6.6875 2.71875 -6.53125 C 3.03125 -6.5 3.265625 -6.4375 3.375 -6.359375 C 3.578125 -6.203125 3.921875 -5.765625 4.125 -5.390625 C 3.75 -5.25 3.109375 -5.125 2.703125 -5.125 C 2.25 -5.125 1.96875 -5.234375 1.5625 -5.515625 Z M 1.484375 -5.421875 "/>
</g>
<g id="glyph-2-4">
<path d="M 2.171875 -1.171875 C 3.078125 -0.421875 3.109375 -0.375 3.125 -0.15625 C 3.140625 -0.015625 3.21875 0.046875 3.359375 0.046875 C 3.640625 0.046875 3.96875 -0.125 4.1875 -0.34375 C 4.6875 -0.890625 5.125 -2.328125 5.125 -3.4375 C 5.125 -4.34375 4.78125 -4.78125 4.03125 -4.78125 C 3.828125 -4.78125 3.671875 -4.765625 3.28125 -4.6875 C 3.53125 -5.28125 3.671875 -5.5625 3.84375 -5.84375 C 3.9375 -6 3.953125 -6.03125 3.953125 -6.09375 C 3.953125 -6.28125 3.75 -6.4375 3.359375 -6.5625 C 3.125 -6.625 2.890625 -6.671875 2.765625 -6.671875 C 2.671875 -6.671875 2.625 -6.65625 2.515625 -6.578125 C 3.015625 -6.421875 3.1875 -6.265625 3.1875 -6 C 3.1875 -5.703125 3.03125 -5.078125 2.828125 -4.578125 C 2.1875 -4.40625 1.546875 -4.28125 1.359375 -4.28125 C 1.046875 -4.28125 0.890625 -4.40625 0.703125 -4.75 C 0.671875 -4.671875 0.65625 -4.609375 0.65625 -4.5625 C 0.65625 -4.40625 0.78125 -4.109375 0.9375 -3.90625 C 1.046875 -3.765625 1.21875 -3.640625 1.3125 -3.640625 C 1.390625 -3.640625 1.4375 -3.671875 1.5625 -3.75 C 1.75 -3.859375 2.109375 -4 2.6875 -4.1875 C 1.859375 -2.375 1.484375 -1.671875 1.109375 -1.1875 C 0.9375 -0.984375 0.90625 -0.921875 0.90625 -0.703125 C 0.90625 -0.34375 1 -0.109375 1.15625 -0.109375 C 1.234375 -0.109375 1.296875 -0.15625 1.359375 -0.28125 C 1.5 -0.515625 1.78125 -1.140625 2.125 -1.953125 C 2.421875 -2.640625 2.59375 -3.046875 2.640625 -3.15625 C 3.015625 -4.03125 3.015625 -4.03125 3.140625 -4.328125 C 3.625 -4.46875 3.796875 -4.5 4.03125 -4.5 C 4.21875 -4.5 4.34375 -4.46875 4.421875 -4.421875 C 4.578125 -4.3125 4.65625 -4.078125 4.65625 -3.71875 C 4.65625 -3.0625 4.453125 -2.109375 4.15625 -1.40625 C 3.921875 -0.859375 3.78125 -0.6875 3.59375 -0.6875 C 3.40625 -0.6875 2.90625 -0.890625 2.25 -1.265625 Z M 5.984375 -4.625 C 6.75 -4.28125 7.328125 -3.484375 7.4375 -2.640625 C 7.1875 -2.546875 6.96875 -2.46875 6.109375 -2.203125 L 6.15625 -2.09375 C 6.875 -2.171875 6.921875 -2.171875 7.234375 -2.171875 C 7.390625 -2.171875 7.4375 -2.171875 7.578125 -2.078125 C 7.671875 -2.03125 7.703125 -2.015625 7.78125 -2.015625 C 8 -2.015625 8.125 -2.1875 8.125 -2.5 C 8.125 -2.875 7.953125 -3.28125 7.640625 -3.703125 C 7.25 -4.203125 6.734375 -4.546875 6.0625 -4.75 Z M 6.234375 -6.359375 C 6.46875 -6.125 6.75 -5.75 6.90625 -5.453125 C 7.171875 -4.890625 7.171875 -4.890625 7.28125 -4.890625 C 7.421875 -4.890625 7.546875 -5.046875 7.546875 -5.25 C 7.546875 -5.453125 7.421875 -5.65625 7.109375 -5.9375 C 6.90625 -6.125 6.671875 -6.296875 6.34375 -6.46875 Z M 7.140625 -6.859375 C 7.609375 -6.390625 7.78125 -6.171875 8.09375 -5.625 C 8.15625 -5.5 8.21875 -5.453125 8.28125 -5.453125 C 8.421875 -5.453125 8.5 -5.609375 8.5 -5.8125 C 8.5 -6.0625 8.390625 -6.234375 8.0625 -6.484375 C 7.796875 -6.6875 7.546875 -6.828125 7.234375 -6.96875 Z M 7.140625 -6.859375 "/>
</g>
<g id="glyph-3-0">
<path d="M 3.359375 -3.59375 L 4.15625 -3.59375 C 4.34375 -3.59375 4.4375 -3.59375 4.4375 -3.75 C 4.4375 -3.859375 4.34375 -3.859375 4.171875 -3.859375 L 3.40625 -3.859375 C 3.5 -4.40625 3.625 -5.140625 3.75 -5.625 C 3.828125 -5.96875 4.046875 -6.09375 4.21875 -6.09375 C 4.28125 -6.09375 4.484375 -6.078125 4.640625 -5.96875 C 4.453125 -5.9375 4.203125 -5.78125 4.203125 -5.484375 C 4.203125 -5.25 4.375 -5.15625 4.53125 -5.15625 C 4.78125 -5.15625 5.03125 -5.359375 5.03125 -5.6875 C 5.03125 -6.09375 4.640625 -6.328125 4.21875 -6.328125 C 3.8125 -6.328125 3.40625 -6.03125 3.21875 -5.671875 C 3.015625 -5.28125 2.953125 -4.9375 2.765625 -3.859375 L 2.125 -3.859375 C 1.953125 -3.859375 1.84375 -3.859375 1.84375 -3.703125 C 1.84375 -3.59375 1.953125 -3.59375 2.109375 -3.59375 L 2.71875 -3.59375 C 2.46875 -2.28125 2.15625 -0.5 1.953125 0.4375 C 1.84375 0.9375 1.703125 1.609375 1.28125 1.609375 C 1.140625 1.609375 0.953125 1.5625 0.875 1.484375 C 1.09375 1.453125 1.3125 1.265625 1.3125 1 C 1.3125 0.765625 1.140625 0.671875 0.984375 0.671875 C 0.734375 0.671875 0.484375 0.875 0.484375 1.203125 C 0.484375 1.625 0.890625 1.84375 1.28125 1.84375 C 2.1875 1.84375 2.609375 0.34375 2.75 -0.421875 Z M 3.359375 -3.59375 "/>
</g>
<g id="glyph-3-1">
<path d="M 3.421875 -3.40625 C 3.25 -3.734375 2.984375 -3.96875 2.578125 -3.96875 C 1.53125 -3.96875 0.375 -2.71875 0.375 -1.359375 C 0.375 -0.375 1 0.09375 1.609375 0.09375 C 2.1875 0.09375 2.65625 -0.390625 2.8125 -0.5625 C 2.90625 -0.0625 3.359375 0.09375 3.640625 0.09375 C 3.90625 0.09375 4.125 -0.015625 4.328125 -0.390625 C 4.484375 -0.6875 4.609375 -1.25 4.609375 -1.28125 C 4.609375 -1.328125 4.578125 -1.390625 4.5 -1.390625 C 4.390625 -1.390625 4.375 -1.34375 4.34375 -1.171875 C 4.140625 -0.390625 3.953125 -0.125 3.671875 -0.125 C 3.4375 -0.125 3.390625 -0.34375 3.390625 -0.53125 C 3.390625 -0.703125 3.4375 -0.890625 3.515625 -1.203125 L 3.734375 -2.125 C 3.796875 -2.34375 3.96875 -3.015625 4 -3.15625 C 4.03125 -3.28125 4.09375 -3.5 4.09375 -3.53125 C 4.09375 -3.671875 3.96875 -3.78125 3.8125 -3.78125 C 3.6875 -3.78125 3.46875 -3.71875 3.421875 -3.40625 Z M 2.84375 -1.09375 C 2.796875 -0.921875 2.796875 -0.921875 2.65625 -0.75 C 2.328125 -0.359375 1.96875 -0.125 1.625 -0.125 C 1.1875 -0.125 1.046875 -0.578125 1.046875 -0.96875 C 1.046875 -1.40625 1.296875 -2.4375 1.515625 -2.875 C 1.796875 -3.40625 2.21875 -3.734375 2.578125 -3.734375 C 3.171875 -3.734375 3.3125 -3.015625 3.3125 -2.953125 C 3.3125 -2.921875 3.296875 -2.859375 3.28125 -2.828125 Z M 2.84375 -1.09375 "/>
</g>
<g id="glyph-4-0">
<path d="M 1.875 -2.8125 C 1.921875 -2.90625 1.9375 -2.96875 1.9375 -3 C 1.9375 -3.1875 1.765625 -3.34375 1.5625 -3.34375 C 1.328125 -3.34375 1.25 -3.140625 1.234375 -3.046875 L 0.390625 -0.484375 C 0.390625 -0.453125 0.359375 -0.40625 0.359375 -0.390625 C 0.359375 -0.28125 0.609375 -0.234375 0.609375 -0.234375 C 0.671875 -0.234375 0.6875 -0.28125 0.71875 -0.328125 Z M 1.875 -2.8125 "/>
</g>
<g id="glyph-5-0">
<path d="M 3.0625 2.140625 C 3.0625 2.09375 3.03125 2.0625 2.984375 2 C 1.828125 0.9375 1.46875 -0.671875 1.46875 -2.25 C 1.46875 -3.625 1.734375 -5.3125 3 -6.515625 C 3.046875 -6.5625 3.0625 -6.578125 3.0625 -6.625 C 3.0625 -6.6875 3.015625 -6.734375 2.953125 -6.734375 C 2.84375 -6.734375 2.03125 -6.078125 1.546875 -5.109375 C 1.125 -4.25 0.90625 -3.3125 0.90625 -2.25 C 0.90625 -1.609375 0.984375 -0.578125 1.484375 0.46875 C 2.015625 1.578125 2.84375 2.234375 2.953125 2.234375 C 3.015625 2.234375 3.0625 2.203125 3.0625 2.140625 Z M 3.0625 2.140625 "/>
</g>
<g id="glyph-5-1">
<path d="M 2.671875 -2.25 C 2.671875 -2.984375 2.5625 -3.96875 2.09375 -4.96875 C 1.5625 -6.078125 0.734375 -6.734375 0.625 -6.734375 C 0.53125 -6.734375 0.515625 -6.65625 0.515625 -6.625 C 0.515625 -6.578125 0.53125 -6.5625 0.59375 -6.5 C 1.125 -6.03125 2.109375 -4.8125 2.109375 -2.25 C 2.109375 -0.96875 1.875 0.8125 0.578125 2.03125 C 0.5625 2.046875 0.515625 2.09375 0.515625 2.140625 C 0.515625 2.15625 0.53125 2.234375 0.625 2.234375 C 0.734375 2.234375 1.546875 1.59375 2.03125 0.609375 C 2.453125 -0.25 2.671875 -1.171875 2.671875 -2.25 Z M 2.671875 -2.25 "/>
</g>
</g>
</defs>
<path fill="none" stroke-width="0.79701" stroke-linecap="butt" stroke-linejoin="miter" stroke="rgb(0%, 0%, 0%)" stroke-opacity="1" stroke-miterlimit="10" d="M -14.172719 0.00134375 L 208.893687 0.00134375 " transform="matrix(1, 0, 0, -1, 30.786, 138.974)"/>
<path fill-rule="nonzero" fill="rgb(0%, 0%, 0%)" fill-opacity="1" stroke-width="0.79701" stroke-linecap="butt" stroke-linejoin="miter" stroke="rgb(0%, 0%, 0%)" stroke-opacity="1" stroke-miterlimit="10" d="M 4.844506 0.00134375 L 1.285912 1.345094 L 2.469506 0.00134375 L 1.285912 -1.346312 Z M 4.844506 0.00134375 " transform="matrix(1, 0, 0, -1, 237.4094, 138.974)"/>
<g fill="rgb(0%, 0%, 0%)" fill-opacity="1">
<use xlink:href="#glyph-0-0" x="240.538" y="146.982"/>
</g>
<path fill="none" stroke-width="0.79701" stroke-linecap="butt" stroke-linejoin="miter" stroke="rgb(0%, 0%, 0%)" stroke-opacity="1" stroke-miterlimit="10" d="M -0.00084375 -14.174437 L -0.00084375 123.852906 " transform="matrix(1, 0, 0, -1, 30.786, 138.974)"/>
<path fill-rule="nonzero" fill="rgb(0%, 0%, 0%)" fill-opacity="1" stroke-width="0.79701" stroke-linecap="butt" stroke-linejoin="miter" stroke="rgb(0%, 0%, 0%)" stroke-opacity="1" stroke-miterlimit="10" d="M 4.844165 0.00084375 L 1.285571 1.344594 L 2.469165 0.00084375 L 1.285571 -1.346813 Z M 4.844165 0.00084375 " transform="matrix(0, -1, -1, 0, 30.786, 17.39104)"/>
<g fill="rgb(0%, 0%, 0%)" fill-opacity="1">
<use xlink:href="#glyph-0-1" x="21.825" y="12.591"/>
</g>
<path fill="none" stroke-width="1.19553" stroke-linecap="butt" stroke-linejoin="miter" stroke="rgb(0%, 0%, 0%)" stroke-opacity="1" stroke-miterlimit="10" d="M 8.503063 83.903688 L 10.760875 81.466188 L 13.018688 79.118531 L 15.2765 76.860719 L 17.534313 74.688844 L 19.792125 72.610719 L 22.049938 70.622438 L 24.30775 68.724 L 26.565563 66.915406 L 28.823375 65.196656 L 31.081188 63.563844 L 33.339 62.024781 L 35.596812 60.575563 L 37.854625 59.216188 L 40.112437 57.946656 L 42.37025 56.766969 L 44.628062 55.677125 L 46.885875 54.677125 L 49.143687 53.766969 L 51.4015 52.946656 L 53.659312 52.216188 L 55.917125 51.579469 L 58.174937 51.028688 L 60.43275 50.56775 L 62.690562 50.196656 L 64.948375 49.915406 L 67.210094 49.724 L 69.467906 49.626344 L 71.725719 49.614625 L 73.983531 49.69275 L 76.241344 49.860719 L 78.499156 50.122438 L 80.756969 50.470094 L 83.014781 50.907594 L 85.272594 51.438844 L 87.530406 52.056031 L 89.788219 52.763063 L 92.046031 53.563844 L 94.303844 54.450563 L 96.561656 55.431031 L 98.819469 56.497438 L 101.077281 57.653688 L 103.335094 58.903688 L 105.592906 60.239625 L 107.850719 61.669313 L 110.108531 63.184938 L 112.366344 64.794313 L 114.624156 66.493531 L 116.881969 68.278688 L 119.139781 70.157594 L 121.397594 72.122438 L 123.655406 74.181031 L 125.913219 76.329469 L 128.171031 78.56775 L 130.428844 80.891969 L 132.686656 83.309938 L 134.944469 85.81775 L 137.202281 88.415406 L 139.460094 91.099 L 141.717906 93.876344 " transform="matrix(1, 0, 0, -1, 30.786, 138.974)"/>
<path fill="none" stroke-width="1.19553" stroke-linecap="butt" stroke-linejoin="miter" stroke="rgb(100%, 0%, 0%)" stroke-opacity="1" stroke-miterlimit="10" d="M 22.678844 18.427125 L 28.581188 21.376344 L 52.206187 33.188844 L 58.108531 36.141969 L 81.733531 47.954469 L 87.635875 50.903688 L 111.260875 62.716188 L 117.163219 65.669313 L 134.881969 74.528688 L 140.788219 77.477906 L 146.690562 80.431031 L 164.409312 89.290406 " transform="matrix(1, 0, 0, -1, 30.786, 138.974)"/>
<path fill="none" stroke-width="0.59776" stroke-linecap="butt" stroke-linejoin="miter" stroke="rgb(0%, 0%, 0%)" stroke-opacity="1" stroke-dasharray="2.98883 2.98883" stroke-miterlimit="10" d="M 99.214 0.00134375 L 99.214 56.69275 " transform="matrix(1, 0, 0, -1, 30.786, 138.974)"/>
<path fill="none" stroke-width="0.59776" stroke-linecap="butt" stroke-linejoin="miter" stroke="rgb(0%, 0%, 0%)" stroke-opacity="1" stroke-dasharray="2.98883 2.98883" stroke-miterlimit="10" d="M -0.00084375 56.69275 L 99.214 56.69275 " transform="matrix(1, 0, 0, -1, 30.786, 138.974)"/>
<g fill="rgb(0%, 0%, 0%)" fill-opacity="1">
<use xlink:href="#glyph-0-2" x="127.366" y="146.783"/>
</g>
<g fill="rgb(0%, 0%, 0%)" fill-opacity="1">
<use xlink:href="#glyph-0-3" x="8.302" y="84.772"/>
</g>
<g fill="rgb(0%, 0%, 0%)" fill-opacity="1">
<use xlink:href="#glyph-1-0" x="14.252" y="84.772"/>
</g>
<g fill="rgb(0%, 0%, 0%)" fill-opacity="1">
<use xlink:href="#glyph-0-2" x="18.126" y="84.772"/>
</g>
<g fill="rgb(0%, 0%, 0%)" fill-opacity="1">
<use xlink:href="#glyph-1-1" x="23.392" y="84.772"/>
</g>
<path fill="none" stroke-width="0.59776" stroke-linecap="butt" stroke-linejoin="miter" stroke="rgb(0%, 0%, 0%)" stroke-opacity="1" stroke-miterlimit="10" d="M 170.081187 70.868531 C 155.909312 73.700563 155.909312 73.700563 144.788219 75.923219 " transform="matrix(1, 0, 0, -1, 30.786, 138.974)"/>
<path fill-rule="nonzero" fill="rgb(0%, 0%, 0%)" fill-opacity="1" stroke-width="0.59776" stroke-linecap="butt" stroke-linejoin="miter" stroke="rgb(0%, 0%, 0%)" stroke-opacity="1" stroke-miterlimit="10" d="M 4.129242 0.000625345 L 0.96601 1.196545 L 2.014029 -0.000120018 L 0.966753 -1.19753 Z M 4.129242 0.000625345 " transform="matrix(-0.98055, -0.1961, -0.1961, 0.98055, 177.40452, 63.4146)"/>
<g fill="rgb(0%, 0%, 0%)" fill-opacity="1">
<use xlink:href="#glyph-2-0" x="204.385" y="70.783"/>
<use xlink:href="#glyph-2-1" x="213.01262" y="70.783"/>
<use xlink:href="#glyph-2-2" x="221.64024" y="70.783"/>
<use xlink:href="#glyph-2-3" x="230.26786" y="70.783"/>
<use xlink:href="#glyph-2-4" x="238.89548" y="70.783"/>
</g>
<g fill="rgb(0%, 0%, 0%)" fill-opacity="1">
<use xlink:href="#glyph-3-0" x="250.598" y="70.783"/>
</g>
<g fill="rgb(0%, 0%, 0%)" fill-opacity="1">
<use xlink:href="#glyph-4-0" x="256.047" y="66.974"/>
</g>
<g fill="rgb(0%, 0%, 0%)" fill-opacity="1">
<use xlink:href="#glyph-5-0" x="258.731" y="70.783"/>
</g>
<g fill="rgb(0%, 0%, 0%)" fill-opacity="1">
<use xlink:href="#glyph-3-1" x="262.315" y="70.783"/>
</g>
<g fill="rgb(0%, 0%, 0%)" fill-opacity="1">
<use xlink:href="#glyph-5-1" x="267.197" y="70.783"/>
</g>
</svg>
