<?xml version="1.0" encoding="UTF-8"?>
<svg xmlns="http://www.w3.org/2000/svg" xmlns:xlink="http://www.w3.org/1999/xlink" width="240.987pt" height="160.395pt" viewBox="0 0 240.987 160.395">
<defs>
<g>
<g id="glyph-0-0">
<path d="M 3.328125 -3.015625 C 3.390625 -3.265625 3.625 -4.1875 4.3125 -4.1875 C 4.359375 -4.1875 4.609375 -4.1875 4.8125 -4.0625 C 4.53125 -4 4.34375 -3.765625 4.34375 -3.515625 C 4.34375 -3.359375 4.453125 -3.171875 4.71875 -3.171875 C 4.9375 -3.171875 5.25 -3.34375 5.25 -3.75 C 5.25 -4.265625 4.671875 -4.40625 4.328125 -4.40625 C 3.75 -4.40625 3.40625 -3.875 3.28125 -3.65625 C 3.03125 -4.3125 2.5 -4.40625 2.203125 -4.40625 C 1.171875 -4.40625 0.59375 -3.125 0.59375 -2.875 C 0.59375 -2.765625 0.703125 -2.765625 0.71875 -2.765625 C 0.796875 -2.765625 0.828125 -2.796875 0.84375 -2.875 C 1.1875 -3.9375 1.84375 -4.1875 2.1875 -4.1875 C 2.375 -4.1875 2.71875 -4.09375 2.71875 -3.515625 C 2.71875 -3.203125 2.546875 -2.546875 2.1875 -1.140625 C 2.03125 -0.53125 1.671875 -0.109375 1.234375 -0.109375 C 1.171875 -0.109375 0.953125 -0.109375 0.734375 -0.234375 C 0.984375 -0.296875 1.203125 -0.5 1.203125 -0.78125 C 1.203125 -1.046875 0.984375 -1.125 0.84375 -1.125 C 0.53125 -1.125 0.296875 -0.875 0.296875 -0.546875 C 0.296875 -0.09375 0.78125 0.109375 1.21875 0.109375 C 1.890625 0.109375 2.25 -0.59375 2.265625 -0.640625 C 2.390625 -0.28125 2.75 0.109375 3.34375 0.109375 C 4.375 0.109375 4.9375 -1.171875 4.9375 -1.421875 C 4.9375 -1.53125 4.859375 -1.53125 4.828125 -1.53125 C 4.734375 -1.53125 4.71875 -1.484375 4.6875 -1.421875 C 4.359375 -0.34375 3.6875 -0.109375 3.375 -0.109375 C 2.984375 -0.109375 2.828125 -0.421875 2.828125 -0.765625 C 2.828125 -0.984375 2.875 -1.203125 2.984375 -1.640625 Z M 3.328125 -3.015625 "/>
</g>
<g id="glyph-0-1">
<path d="M 3.65625 -3.984375 L 4.515625 -3.984375 C 4.71875 -3.984375 4.8125 -3.984375 4.8125 -4.1875 C 4.8125 -4.296875 4.71875 -4.296875 4.546875 -4.296875 L 3.71875 -4.296875 L 3.921875 -5.4375 C 3.96875 -5.640625 4.109375 -6.34375 4.171875 -6.46875 C 4.25 -6.65625 4.421875 -6.8125 4.640625 -6.8125 C 4.671875 -6.8125 4.9375 -6.8125 5.125 -6.625 C 4.6875 -6.59375 4.578125 -6.234375 4.578125 -6.09375 C 4.578125 -5.859375 4.765625 -5.734375 4.953125 -5.734375 C 5.21875 -5.734375 5.5 -5.96875 5.5 -6.34375 C 5.5 -6.796875 5.046875 -7.03125 4.640625 -7.03125 C 4.296875 -7.03125 3.671875 -6.84375 3.375 -5.859375 C 3.3125 -5.65625 3.28125 -5.546875 3.046875 -4.296875 L 2.359375 -4.296875 C 2.15625 -4.296875 2.046875 -4.296875 2.046875 -4.109375 C 2.046875 -3.984375 2.140625 -3.984375 2.328125 -3.984375 L 2.984375 -3.984375 L 2.25 -0.046875 C 2.0625 0.921875 1.890625 1.828125 1.375 1.828125 C 1.328125 1.828125 1.09375 1.828125 0.890625 1.640625 C 1.359375 1.609375 1.453125 1.25 1.453125 1.109375 C 1.453125 0.875 1.265625 0.75 1.078125 0.75 C 0.8125 0.75 0.53125 0.984375 0.53125 1.359375 C 0.53125 1.796875 0.96875 2.046875 1.375 2.046875 C 1.921875 2.046875 2.328125 1.453125 2.5 1.078125 C 2.828125 0.453125 3.046875 -0.75 3.0625 -0.828125 Z M 3.65625 -3.984375 "/>
</g>
<g id="glyph-1-0">
<path d="M 3.296875 2.390625 C 3.296875 2.359375 3.296875 2.34375 3.125 2.171875 C 1.890625 0.921875 1.5625 -0.96875 1.5625 -2.5 C 1.5625 -4.234375 1.9375 -5.96875 3.171875 -7.203125 C 3.296875 -7.328125 3.296875 -7.34375 3.296875 -7.375 C 3.296875 -7.453125 3.265625 -7.484375 3.203125 -7.484375 C 3.09375 -7.484375 2.203125 -6.796875 1.609375 -5.53125 C 1.109375 -4.4375 0.984375 -3.328125 0.984375 -2.5 C 0.984375 -1.71875 1.09375 -0.515625 1.640625 0.625 C 2.25 1.84375 3.09375 2.5 3.203125 2.5 C 3.265625 2.5 3.296875 2.46875 3.296875 2.390625 Z M 3.296875 2.390625 "/>
</g>
<g id="glyph-1-1">
<path d="M 2.875 -2.5 C 2.875 -3.265625 2.765625 -4.46875 2.21875 -5.609375 C 1.625 -6.828125 0.765625 -7.484375 0.671875 -7.484375 C 0.609375 -7.484375 0.5625 -7.4375 0.5625 -7.375 C 0.5625 -7.34375 0.5625 -7.328125 0.75 -7.140625 C 1.734375 -6.15625 2.296875 -4.578125 2.296875 -2.5 C 2.296875 -0.78125 1.9375 0.96875 0.703125 2.21875 C 0.5625 2.34375 0.5625 2.359375 0.5625 2.390625 C 0.5625 2.453125 0.609375 2.5 0.671875 2.5 C 0.765625 2.5 1.671875 1.8125 2.25 0.546875 C 2.765625 -0.546875 2.875 -1.65625 2.875 -2.5 Z M 2.875 -2.5 "/>
</g>
</g>
</defs>
<path fill="none" stroke-width="0.79701" stroke-linecap="butt" stroke-linejoin="miter" stroke="rgb(0%, 0%, 0%)" stroke-opacity="1" stroke-miterlimit="10" d="M -14.174719 -0.00175 L 194.719812 -0.00175 " transform="matrix(1, 0, 0, -1, 31.413, 140.842)"/>
<path fill-rule="nonzero" fill="rgb(0%, 0%, 0%)" fill-opacity="1" stroke-width="0.79701" stroke-linecap="butt" stroke-linejoin="miter" stroke="rgb(0%, 0%, 0%)" stroke-opacity="1" stroke-miterlimit="10" d="M 4.844031 -0.00175 L 1.285437 1.345906 L 2.469031 -0.00175 L 1.285437 -1.3455 Z M 4.844031 -0.00175 " transform="matrix(1, 0, 0, -1, 223.863, 140.842)"/>
<g fill="rgb(0%, 0%, 0%)" fill-opacity="1">
<use xlink:href="#glyph-0-0" x="226.992" y="148.85"/>
</g>
<path fill="none" stroke-width="0.79701" stroke-linecap="butt" stroke-linejoin="miter" stroke="rgb(0%, 0%, 0%)" stroke-opacity="1" stroke-miterlimit="10" d="M 0.0010625 -14.173625 L 0.0010625 123.853719 " transform="matrix(1, 0, 0, -1, 31.413, 140.842)"/>
<path fill-rule="nonzero" fill="rgb(0%, 0%, 0%)" fill-opacity="1" stroke-width="0.79701" stroke-linecap="butt" stroke-linejoin="miter" stroke="rgb(0%, 0%, 0%)" stroke-opacity="1" stroke-miterlimit="10" d="M 4.841071 -0.0010625 L 1.286384 1.346594 L 2.469978 -0.0010625 L 1.286384 -1.344812 Z M 4.841071 -0.0010625 " transform="matrix(0, -1, -1, 0, 31.413, 19.25904)"/>
<g fill="rgb(0%, 0%, 0%)" fill-opacity="1">
<use xlink:href="#glyph-0-1" x="8.302" y="15.774"/>
</g>
<g fill="rgb(0%, 0%, 0%)" fill-opacity="1">
<use xlink:href="#glyph-1-0" x="14.252" y="15.774"/>
</g>
<g fill="rgb(0%, 0%, 0%)" fill-opacity="1">
<use xlink:href="#glyph-0-0" x="18.126" y="15.774"/>
</g>
<g fill="rgb(0%, 0%, 0%)" fill-opacity="1">
<use xlink:href="#glyph-1-1" x="23.82" y="15.774"/>
</g>
<path fill="none" stroke-width="0.79701" stroke-linecap="butt" stroke-linejoin="miter" stroke="rgb(0%, 0%, 0%)" stroke-opacity="1" stroke-miterlimit="10" d="M 8.504969 52.080281 L 11.481531 55.299031 L 14.462 58.4045 L 17.438562 61.37325 L 20.419031 64.174031 L 23.395594 66.787313 L 26.376062 69.193563 L 29.352625 71.37325 L 32.333094 73.306844 L 35.309656 74.990438 L 38.290125 76.408406 L 41.266688 77.552938 L 44.247156 78.424031 L 47.223719 79.021688 L 50.204188 79.349813 L 53.18075 79.416219 L 56.161219 79.224813 L 59.137781 78.799031 L 62.11825 78.142781 L 65.094813 77.287313 L 68.071375 76.244344 L 71.051844 75.041219 L 74.028406 73.701375 L 77.008875 72.252156 L 79.985438 70.724813 L 82.965906 69.146688 L 85.942469 67.549031 L 88.922938 65.955281 L 91.8995 64.4045 L 94.879969 62.924031 L 97.856531 61.537313 L 100.837 60.275594 L 103.813563 59.166219 L 106.794031 58.232625 L 109.770594 57.49825 L 112.751063 56.978719 L 115.727625 56.693563 L 118.708094 56.658406 L 121.684656 56.881063 L 124.665125 57.37325 L 127.641688 58.134969 L 130.622156 59.174031 L 133.598719 60.486531 L 136.579187 62.064656 L 139.55575 63.900594 L 142.536219 65.986531 L 145.512781 68.302938 L 148.49325 70.838094 L 151.469812 73.568563 L 154.450281 76.474813 L 157.426844 79.5295 L 160.407312 82.709188 L 163.383875 85.982625 L 166.360437 89.322469 L 169.340906 92.701375 L 172.317469 96.088094 L 175.297937 99.451375 L 178.2745 102.763875 L 181.254969 105.994344 L 184.231531 109.111531 " transform="matrix(1, 0, 0, -1, 31.413, 140.842)"/>
<path fill="none" stroke-width="0.3985" stroke-linecap="butt" stroke-linejoin="miter" stroke="rgb(0%, 0%, 100%)" stroke-opacity="1" stroke-miterlimit="10" d="M 14.172937 -0.00175 L 14.172937 58.111531 " transform="matrix(1, 0, 0, -1, 31.413, 140.842)"/>
<path fill="none" stroke-width="0.3985" stroke-linecap="butt" stroke-linejoin="miter" stroke="rgb(0%, 0%, 100%)" stroke-opacity="1" stroke-miterlimit="10" d="M 35.434656 -0.00175 L 35.434656 75.052938 " transform="matrix(1, 0, 0, -1, 31.413, 140.842)"/>
<path fill="none" stroke-width="0.3985" stroke-linecap="butt" stroke-linejoin="miter" stroke="rgb(0%, 0%, 100%)" stroke-opacity="1" stroke-dasharray="2.98883 2.98883" stroke-miterlimit="10" d="M 14.172937 58.111531 L 35.434656 75.052938 " transform="matrix(1, 0, 0, -1, 31.413, 140.842)"/>
<path fill-rule="nonzero" fill="rgb(0%, 0%, 100%)" fill-opacity="0.1" d="M 45.585938 140.84375 L 45.585938 82.730469 L 66.847656 65.789062 L 66.847656 140.84375 Z M 45.585938 140.84375 "/>
<path fill="none" stroke-width="0.3985" stroke-linecap="butt" stroke-linejoin="miter" stroke="rgb(0%, 0%, 100%)" stroke-opacity="1" stroke-miterlimit="10" d="M 35.434656 -0.00175 L 35.434656 75.052938 " transform="matrix(1, 0, 0, -1, 31.413, 140.842)"/>
<path fill="none" stroke-width="0.3985" stroke-linecap="butt" stroke-linejoin="miter" stroke="rgb(0%, 0%, 100%)" stroke-opacity="1" stroke-miterlimit="10" d="M 56.692469 -0.00175 L 56.692469 79.166219 " transform="matrix(1, 0, 0, -1, 31.413, 140.842)"/>
<path fill="none" stroke-width="0.3985" stroke-linecap="butt" stroke-linejoin="miter" stroke="rgb(0%, 0%, 100%)" stroke-opacity="1" stroke-dasharray="2.98883 2.98883" stroke-miterlimit="10" d="M 35.434656 75.052938 L 56.692469 79.166219 " transform="matrix(1, 0, 0, -1, 31.413, 140.842)"/>
<path fill-rule="nonzero" fill="rgb(0%, 0%, 100%)" fill-opacity="0.1" d="M 66.847656 140.84375 L 66.847656 65.789062 L 88.105469 61.675781 L 88.105469 140.84375 Z M 66.847656 140.84375 "/>
<path fill="none" stroke-width="0.3985" stroke-linecap="butt" stroke-linejoin="miter" stroke="rgb(0%, 0%, 100%)" stroke-opacity="1" stroke-miterlimit="10" d="M 56.692469 -0.00175 L 56.692469 79.166219 " transform="matrix(1, 0, 0, -1, 31.413, 140.842)"/>
<path fill="none" stroke-width="0.3985" stroke-linecap="butt" stroke-linejoin="miter" stroke="rgb(0%, 0%, 100%)" stroke-opacity="1" stroke-miterlimit="10" d="M 77.954188 -0.00175 L 77.954188 71.775594 " transform="matrix(1, 0, 0, -1, 31.413, 140.842)"/>
<path fill="none" stroke-width="0.3985" stroke-linecap="butt" stroke-linejoin="miter" stroke="rgb(0%, 0%, 100%)" stroke-opacity="1" stroke-dasharray="2.98883 2.98883" stroke-miterlimit="10" d="M 56.692469 79.166219 L 77.954188 71.775594 " transform="matrix(1, 0, 0, -1, 31.413, 140.842)"/>
<path fill-rule="nonzero" fill="rgb(0%, 0%, 100%)" fill-opacity="0.1" d="M 88.105469 140.84375 L 88.105469 61.675781 L 109.367188 69.066406 L 109.367188 140.84375 Z M 88.105469 140.84375 "/>
<path fill="none" stroke-width="0.3985" stroke-linecap="butt" stroke-linejoin="miter" stroke="rgb(0%, 0%, 100%)" stroke-opacity="1" stroke-miterlimit="10" d="M 77.954188 -0.00175 L 77.954188 71.775594 " transform="matrix(1, 0, 0, -1, 31.413, 140.842)"/>
<path fill="none" stroke-width="0.3985" stroke-linecap="butt" stroke-linejoin="miter" stroke="rgb(0%, 0%, 100%)" stroke-opacity="1" stroke-miterlimit="10" d="M 99.212 -0.00175 L 99.212 60.947469 " transform="matrix(1, 0, 0, -1, 31.413, 140.842)"/>
<path fill="none" stroke-width="0.3985" stroke-linecap="butt" stroke-linejoin="miter" stroke="rgb(0%, 0%, 100%)" stroke-opacity="1" stroke-dasharray="2.98883 2.98883" stroke-miterlimit="10" d="M 77.954188 71.775594 L 99.212 60.947469 " transform="matrix(1, 0, 0, -1, 31.413, 140.842)"/>
<path fill-rule="nonzero" fill="rgb(0%, 0%, 100%)" fill-opacity="0.1" d="M 109.367188 140.84375 L 109.367188 69.066406 L 130.625 79.894531 L 130.625 140.84375 Z M 109.367188 140.84375 "/>
<path fill="none" stroke-width="0.3985" stroke-linecap="butt" stroke-linejoin="miter" stroke="rgb(0%, 0%, 100%)" stroke-opacity="1" stroke-miterlimit="10" d="M 99.212 -0.00175 L 99.212 60.947469 " transform="matrix(1, 0, 0, -1, 31.413, 140.842)"/>
<path fill="none" stroke-width="0.3985" stroke-linecap="butt" stroke-linejoin="miter" stroke="rgb(0%, 0%, 100%)" stroke-opacity="1" stroke-miterlimit="10" d="M 120.473719 -0.00175 L 120.473719 56.759969 " transform="matrix(1, 0, 0, -1, 31.413, 140.842)"/>
<path fill="none" stroke-width="0.3985" stroke-linecap="butt" stroke-linejoin="miter" stroke="rgb(0%, 0%, 100%)" stroke-opacity="1" stroke-dasharray="2.98883 2.98883" stroke-miterlimit="10" d="M 99.212 60.947469 L 120.473719 56.759969 " transform="matrix(1, 0, 0, -1, 31.413, 140.842)"/>
<path fill-rule="nonzero" fill="rgb(0%, 0%, 100%)" fill-opacity="0.1" d="M 130.625 140.84375 L 130.625 79.894531 L 151.886719 84.082031 L 151.886719 140.84375 Z M 130.625 140.84375 "/>
<path fill="none" stroke-width="0.3985" stroke-linecap="butt" stroke-linejoin="miter" stroke="rgb(0%, 0%, 100%)" stroke-opacity="1" stroke-miterlimit="10" d="M 120.473719 -0.00175 L 120.473719 56.759969 " transform="matrix(1, 0, 0, -1, 31.413, 140.842)"/>
<path fill="none" stroke-width="0.3985" stroke-linecap="butt" stroke-linejoin="miter" stroke="rgb(0%, 0%, 100%)" stroke-opacity="1" stroke-miterlimit="10" d="M 141.735437 -0.00175 L 141.735437 65.400594 " transform="matrix(1, 0, 0, -1, 31.413, 140.842)"/>
<path fill="none" stroke-width="0.3985" stroke-linecap="butt" stroke-linejoin="miter" stroke="rgb(0%, 0%, 100%)" stroke-opacity="1" stroke-dasharray="2.98883 2.98883" stroke-miterlimit="10" d="M 120.473719 56.759969 L 141.735437 65.400594 " transform="matrix(1, 0, 0, -1, 31.413, 140.842)"/>
<path fill-rule="nonzero" fill="rgb(0%, 0%, 100%)" fill-opacity="0.1" d="M 151.886719 140.84375 L 151.886719 84.082031 L 173.148438 75.441406 L 173.148438 140.84375 Z M 151.886719 140.84375 "/>
<path fill="none" stroke-width="0.3985" stroke-linecap="butt" stroke-linejoin="miter" stroke="rgb(0%, 0%, 100%)" stroke-opacity="1" stroke-miterlimit="10" d="M 141.735437 -0.00175 L 141.735437 65.400594 " transform="matrix(1, 0, 0, -1, 31.413, 140.842)"/>
<path fill="none" stroke-width="0.3985" stroke-linecap="butt" stroke-linejoin="miter" stroke="rgb(0%, 0%, 100%)" stroke-opacity="1" stroke-miterlimit="10" d="M 162.99325 -0.00175 L 162.99325 85.549031 " transform="matrix(1, 0, 0, -1, 31.413, 140.842)"/>
<path fill="none" stroke-width="0.3985" stroke-linecap="butt" stroke-linejoin="miter" stroke="rgb(0%, 0%, 100%)" stroke-opacity="1" stroke-dasharray="2.98883 2.98883" stroke-miterlimit="10" d="M 141.735437 65.400594 L 162.99325 85.549031 " transform="matrix(1, 0, 0, -1, 31.413, 140.842)"/>
<path fill-rule="nonzero" fill="rgb(0%, 0%, 100%)" fill-opacity="0.1" d="M 173.148438 140.84375 L 173.148438 75.441406 L 194.40625 55.292969 L 194.40625 140.84375 Z M 173.148438 140.84375 "/>
<path fill="none" stroke-width="0.3985" stroke-linecap="butt" stroke-linejoin="miter" stroke="rgb(0%, 0%, 100%)" stroke-opacity="1" stroke-miterlimit="10" d="M 162.99325 -0.00175 L 162.99325 85.549031 " transform="matrix(1, 0, 0, -1, 31.413, 140.842)"/>
<path fill="none" stroke-width="0.3985" stroke-linecap="butt" stroke-linejoin="miter" stroke="rgb(0%, 0%, 100%)" stroke-opacity="1" stroke-miterlimit="10" d="M 184.254969 -0.00175 L 184.254969 109.134969 " transform="matrix(1, 0, 0, -1, 31.413, 140.842)"/>
<path fill="none" stroke-width="0.3985" stroke-linecap="butt" stroke-linejoin="miter" stroke="rgb(0%, 0%, 100%)" stroke-opacity="1" stroke-dasharray="2.98883 2.98883" stroke-miterlimit="10" d="M 162.99325 85.549031 L 184.254969 109.134969 " transform="matrix(1, 0, 0, -1, 31.413, 140.842)"/>
<path fill-rule="nonzero" fill="rgb(0%, 0%, 100%)" fill-opacity="0.1" d="M 194.40625 140.84375 L 194.40625 55.292969 L 215.667969 31.707031 L 215.667969 140.84375 Z M 194.40625 140.84375 "/>
</svg>
