<?xml version="1.0" encoding="UTF-8"?>
<svg xmlns="http://www.w3.org/2000/svg" xmlns:xlink="http://www.w3.org/1999/xlink" width="419.851pt" height="195.782pt" viewBox="0 0 419.851 195.782">
<defs>
<g>
<g id="glyph-0-0">
<path d="M 5.671875 -4.875 C 5.28125 -4.8125 5.140625 -4.515625 5.140625 -4.296875 C 5.140625 -4 5.359375 -3.90625 5.53125 -3.90625 C 5.890625 -3.90625 6.140625 -4.21875 6.140625 -4.546875 C 6.140625 -5.046875 5.5625 -5.265625 5.0625 -5.265625 C 4.34375 -5.265625 3.9375 -4.546875 3.828125 -4.328125 C 3.546875 -5.21875 2.8125 -5.265625 2.59375 -5.265625 C 1.375 -5.265625 0.734375 -3.703125 0.734375 -3.4375 C 0.734375 -3.390625 0.78125 -3.328125 0.859375 -3.328125 C 0.953125 -3.328125 0.984375 -3.40625 1 -3.453125 C 1.40625 -4.78125 2.21875 -5.03125 2.5625 -5.03125 C 3.09375 -5.03125 3.203125 -4.53125 3.203125 -4.25 C 3.203125 -3.984375 3.125 -3.703125 2.984375 -3.125 L 2.578125 -1.5 C 2.40625 -0.78125 2.0625 -0.125 1.421875 -0.125 C 1.359375 -0.125 1.0625 -0.125 0.8125 -0.28125 C 1.25 -0.359375 1.34375 -0.71875 1.34375 -0.859375 C 1.34375 -1.09375 1.15625 -1.25 0.9375 -1.25 C 0.640625 -1.25 0.328125 -0.984375 0.328125 -0.609375 C 0.328125 -0.109375 0.890625 0.125 1.40625 0.125 C 1.984375 0.125 2.390625 -0.328125 2.640625 -0.828125 C 2.828125 -0.125 3.4375 0.125 3.875 0.125 C 5.09375 0.125 5.734375 -1.453125 5.734375 -1.703125 C 5.734375 -1.765625 5.6875 -1.8125 5.625 -1.8125 C 5.515625 -1.8125 5.5 -1.75 5.46875 -1.65625 C 5.140625 -0.609375 4.453125 -0.125 3.90625 -0.125 C 3.484375 -0.125 3.265625 -0.4375 3.265625 -0.921875 C 3.265625 -1.1875 3.3125 -1.375 3.5 -2.15625 L 3.921875 -3.796875 C 4.09375 -4.5 4.5 -5.03125 5.0625 -5.03125 C 5.078125 -5.03125 5.421875 -5.03125 5.671875 -4.875 Z M 5.671875 -4.875 "/>
</g>
<g id="glyph-0-1">
<path d="M 3.140625 1.34375 C 2.828125 1.796875 2.359375 2.203125 1.765625 2.203125 C 1.625 2.203125 1.046875 2.171875 0.875 1.625 C 0.90625 1.640625 0.96875 1.640625 0.984375 1.640625 C 1.34375 1.640625 1.59375 1.328125 1.59375 1.046875 C 1.59375 0.78125 1.359375 0.6875 1.1875 0.6875 C 0.984375 0.6875 0.578125 0.828125 0.578125 1.40625 C 0.578125 2.015625 1.09375 2.4375 1.765625 2.4375 C 2.96875 2.4375 4.171875 1.34375 4.5 0.015625 L 5.671875 -4.65625 C 5.6875 -4.703125 5.71875 -4.78125 5.71875 -4.859375 C 5.71875 -5.03125 5.5625 -5.15625 5.390625 -5.15625 C 5.28125 -5.15625 5.03125 -5.109375 4.9375 -4.75 L 4.046875 -1.234375 C 4 -1.015625 4 -0.984375 3.890625 -0.859375 C 3.65625 -0.53125 3.265625 -0.125 2.6875 -0.125 C 2.015625 -0.125 1.953125 -0.78125 1.953125 -1.09375 C 1.953125 -1.78125 2.28125 -2.703125 2.609375 -3.5625 C 2.734375 -3.90625 2.8125 -4.078125 2.8125 -4.3125 C 2.8125 -4.8125 2.453125 -5.265625 1.859375 -5.265625 C 0.765625 -5.265625 0.328125 -3.53125 0.328125 -3.4375 C 0.328125 -3.390625 0.375 -3.328125 0.453125 -3.328125 C 0.5625 -3.328125 0.578125 -3.375 0.625 -3.546875 C 0.90625 -4.546875 1.359375 -5.03125 1.828125 -5.03125 C 1.9375 -5.03125 2.140625 -5.03125 2.140625 -4.640625 C 2.140625 -4.328125 2.015625 -3.984375 1.828125 -3.53125 C 1.25 -1.953125 1.25 -1.5625 1.25 -1.28125 C 1.25 -0.140625 2.0625 0.125 2.65625 0.125 C 3 0.125 3.4375 0.015625 3.84375 -0.4375 L 3.859375 -0.421875 C 3.6875 0.28125 3.5625 0.75 3.140625 1.34375 Z M 3.140625 1.34375 "/>
</g>
<g id="glyph-0-2">
<path d="M 1.875 -0.890625 C 1.765625 -0.46875 1.75 -0.34375 0.90625 -0.34375 C 0.6875 -0.34375 0.5625 -0.34375 0.5625 -0.125 C 0.5625 0 0.640625 0 0.875 0 L 4.65625 0 C 7.078125 0 9.4375 -2.5 9.4375 -5.15625 C 9.4375 -6.890625 8.40625 -8.15625 6.6875 -8.15625 L 2.859375 -8.15625 C 2.625 -8.15625 2.515625 -8.15625 2.515625 -7.9375 C 2.515625 -7.8125 2.625 -7.8125 2.8125 -7.8125 C 3.53125 -7.8125 3.53125 -7.71875 3.53125 -7.59375 C 3.53125 -7.5625 3.53125 -7.5 3.484375 -7.3125 Z M 4.40625 -7.34375 C 4.5 -7.796875 4.546875 -7.8125 5.015625 -7.8125 L 6.328125 -7.8125 C 7.453125 -7.8125 8.484375 -7.203125 8.484375 -5.5625 C 8.484375 -4.953125 8.25 -2.875 7.09375 -1.5625 C 6.75 -1.171875 5.84375 -0.34375 4.46875 -0.34375 L 3.109375 -0.34375 C 2.9375 -0.34375 2.921875 -0.34375 2.84375 -0.359375 C 2.71875 -0.375 2.703125 -0.390625 2.703125 -0.484375 C 2.703125 -0.578125 2.71875 -0.640625 2.75 -0.75 Z M 4.40625 -7.34375 "/>
</g>
<g id="glyph-0-3">
<path d="M 4.65625 -4.890625 C 4.28125 -4.8125 4.09375 -4.546875 4.09375 -4.296875 C 4.09375 -4 4.3125 -3.90625 4.484375 -3.90625 C 4.8125 -3.90625 5.09375 -4.203125 5.09375 -4.546875 C 5.09375 -4.9375 4.71875 -5.265625 4.125 -5.265625 C 3.640625 -5.265625 3.09375 -5.0625 2.59375 -4.328125 C 2.515625 -4.953125 2.03125 -5.265625 1.546875 -5.265625 C 1.09375 -5.265625 0.84375 -4.90625 0.703125 -4.65625 C 0.5 -4.21875 0.328125 -3.5 0.328125 -3.4375 C 0.328125 -3.390625 0.375 -3.328125 0.453125 -3.328125 C 0.546875 -3.328125 0.5625 -3.34375 0.640625 -3.625 C 0.8125 -4.34375 1.046875 -5.03125 1.515625 -5.03125 C 1.8125 -5.03125 1.890625 -4.828125 1.890625 -4.484375 C 1.890625 -4.21875 1.765625 -3.75 1.6875 -3.375 L 1.34375 -2.09375 C 1.296875 -1.859375 1.171875 -1.328125 1.109375 -1.109375 C 1.03125 -0.796875 0.890625 -0.234375 0.890625 -0.171875 C 0.890625 -0.015625 1.03125 0.125 1.203125 0.125 C 1.34375 0.125 1.5625 0.03125 1.640625 -0.203125 C 1.671875 -0.296875 2.109375 -2.109375 2.1875 -2.375 C 2.25 -2.640625 2.3125 -2.890625 2.375 -3.15625 C 2.421875 -3.328125 2.46875 -3.515625 2.515625 -3.671875 C 2.546875 -3.78125 2.875 -4.359375 3.171875 -4.625 C 3.3125 -4.75 3.625 -5.03125 4.109375 -5.03125 C 4.296875 -5.03125 4.5 -5 4.65625 -4.890625 Z M 4.65625 -4.890625 "/>
</g>
<g id="glyph-0-4">
<path d="M 5.296875 -6.015625 C 5.296875 -7.234375 4.90625 -8.421875 3.9375 -8.421875 C 2.265625 -8.421875 0.484375 -4.90625 0.484375 -2.28125 C 0.484375 -1.734375 0.59375 0.125 1.859375 0.125 C 3.484375 0.125 5.296875 -3.296875 5.296875 -6.015625 Z M 1.671875 -4.328125 C 1.859375 -5.03125 2.109375 -6.03125 2.578125 -6.890625 C 2.96875 -7.609375 3.390625 -8.171875 3.921875 -8.171875 C 4.3125 -8.171875 4.578125 -7.84375 4.578125 -6.6875 C 4.578125 -6.265625 4.546875 -5.671875 4.203125 -4.328125 Z M 4.109375 -3.96875 C 3.8125 -2.796875 3.5625 -2.046875 3.125 -1.296875 C 2.78125 -0.6875 2.359375 -0.125 1.859375 -0.125 C 1.5 -0.125 1.1875 -0.40625 1.1875 -1.59375 C 1.1875 -2.359375 1.390625 -3.171875 1.578125 -3.96875 Z M 4.109375 -3.96875 "/>
</g>
<g id="glyph-0-5">
<path d="M 3.09375 -4.5 L 4.453125 -4.5 C 4.125 -3.171875 3.921875 -2.296875 3.921875 -1.34375 C 3.921875 -1.171875 3.921875 0.125 4.40625 0.125 C 4.65625 0.125 4.875 -0.109375 4.875 -0.3125 C 4.875 -0.375 4.875 -0.390625 4.796875 -0.578125 C 4.46875 -1.40625 4.46875 -2.421875 4.46875 -2.515625 C 4.46875 -2.578125 4.46875 -3.4375 4.71875 -4.5 L 6.0625 -4.5 C 6.21875 -4.5 6.609375 -4.5 6.609375 -4.890625 C 6.609375 -5.15625 6.390625 -5.15625 6.171875 -5.15625 L 2.234375 -5.15625 C 1.953125 -5.15625 1.546875 -5.15625 1 -4.5625 C 0.6875 -4.21875 0.3125 -3.578125 0.3125 -3.515625 C 0.3125 -3.4375 0.375 -3.421875 0.4375 -3.421875 C 0.53125 -3.421875 0.53125 -3.453125 0.59375 -3.53125 C 1.21875 -4.5 1.84375 -4.5 2.140625 -4.5 L 2.828125 -4.5 C 2.5625 -3.609375 2.265625 -2.5625 1.28125 -0.484375 C 1.1875 -0.28125 1.1875 -0.265625 1.1875 -0.1875 C 1.1875 0.0625 1.40625 0.125 1.5 0.125 C 1.859375 0.125 1.953125 -0.1875 2.09375 -0.6875 C 2.28125 -1.296875 2.28125 -1.328125 2.40625 -1.8125 Z M 3.09375 -4.5 "/>
</g>
<g id="glyph-1-0">
<path d="M 8.453125 -4.046875 C 8.453125 -6.53125 6.640625 -8.421875 4.546875 -8.421875 C 2.421875 -8.421875 0.640625 -6.5 0.640625 -4.046875 C 0.640625 -1.625 2.453125 0.25 4.546875 0.25 C 6.6875 0.25 8.453125 -1.65625 8.453125 -4.046875 Z M 7.34375 -4.234375 C 7.34375 -1.125 5.71875 -0.03125 4.546875 -0.03125 C 3.328125 -0.03125 1.75 -1.171875 1.75 -4.234375 C 1.75 -7.15625 3.421875 -8.15625 4.546875 -8.15625 C 5.71875 -8.15625 7.34375 -7.125 7.34375 -4.234375 Z M 7.34375 -4.234375 "/>
</g>
<g id="glyph-2-0">
<path d="M 3.4375 -7.65625 C 3.4375 -7.9375 3.4375 -7.953125 3.203125 -7.953125 C 2.921875 -7.625 2.3125 -7.1875 1.09375 -7.1875 L 1.09375 -6.84375 C 1.359375 -6.84375 1.953125 -6.84375 2.625 -7.140625 L 2.625 -0.921875 C 2.625 -0.484375 2.578125 -0.34375 1.53125 -0.34375 L 1.15625 -0.34375 L 1.15625 0 C 1.484375 -0.03125 2.640625 -0.03125 3.03125 -0.03125 C 3.4375 -0.03125 4.578125 -0.03125 4.90625 0 L 4.90625 -0.34375 L 4.53125 -0.34375 C 3.484375 -0.34375 3.4375 -0.484375 3.4375 -0.921875 Z M 3.4375 -7.65625 "/>
</g>
<g id="glyph-2-1">
<path d="M 5.265625 -2.015625 L 5 -2.015625 C 4.953125 -1.8125 4.859375 -1.140625 4.75 -0.953125 C 4.65625 -0.84375 3.984375 -0.84375 3.625 -0.84375 L 1.40625 -0.84375 C 1.734375 -1.125 2.46875 -1.890625 2.765625 -2.171875 C 4.59375 -3.84375 5.265625 -4.46875 5.265625 -5.65625 C 5.265625 -7.03125 4.171875 -7.953125 2.78125 -7.953125 C 1.40625 -7.953125 0.578125 -6.765625 0.578125 -5.734375 C 0.578125 -5.125 1.109375 -5.125 1.140625 -5.125 C 1.40625 -5.125 1.703125 -5.3125 1.703125 -5.6875 C 1.703125 -6.03125 1.484375 -6.25 1.140625 -6.25 C 1.046875 -6.25 1.015625 -6.25 0.984375 -6.234375 C 1.203125 -7.046875 1.859375 -7.609375 2.625 -7.609375 C 3.640625 -7.609375 4.265625 -6.75 4.265625 -5.65625 C 4.265625 -4.640625 3.6875 -3.75 3 -2.984375 L 0.578125 -0.28125 L 0.578125 0 L 4.953125 0 Z M 5.265625 -2.015625 "/>
</g>
</g>
</defs>
<path fill-rule="nonzero" fill="rgb(84.999084%, 84.999084%, 100%)" fill-opacity="1" stroke-width="0.79701" stroke-linecap="butt" stroke-linejoin="miter" stroke="rgb(0%, 0%, 100%)" stroke-opacity="1" stroke-miterlimit="10" d="M 51.023531 0.00084375 C 51.023531 28.180531 28.179781 51.024281 0.00009375 51.024281 C -28.179594 51.024281 -51.023344 28.180531 -51.023344 0.00084375 C -51.023344 -28.178844 -28.179594 -51.022594 0.00009375 -51.022594 C 28.179781 -51.022594 51.023531 -28.178844 51.023531 0.00084375 Z M 51.023531 0.00084375 " transform="matrix(1, 0, 0, -1, 76.246, 119.536)"/>
<path fill="none" stroke-width="0.79701" stroke-linecap="butt" stroke-linejoin="miter" stroke="rgb(0%, 0%, 0%)" stroke-opacity="1" stroke-miterlimit="10" d="M -70.867094 0.00084375 L 67.16025 0.00084375 " transform="matrix(1, 0, 0, -1, 76.246, 119.536)"/>
<path fill-rule="nonzero" fill="rgb(0%, 0%, 0%)" fill-opacity="1" stroke-width="0.79701" stroke-linecap="butt" stroke-linejoin="miter" stroke="rgb(0%, 0%, 0%)" stroke-opacity="1" stroke-miterlimit="10" d="M 4.841223 0.00084375 L 1.286535 1.344594 L 2.470129 0.00084375 L 1.286535 -1.346812 Z M 4.841223 0.00084375 " transform="matrix(1, 0, 0, -1, 141.13534, 119.536)"/>
<g fill="rgb(0%, 0%, 0%)" fill-opacity="1">
<use xlink:href="#glyph-0-0" x="150.831" y="122.11"/>
</g>
<path fill="none" stroke-width="0.79701" stroke-linecap="butt" stroke-linejoin="miter" stroke="rgb(0%, 0%, 0%)" stroke-opacity="1" stroke-miterlimit="10" d="M 0.00009375 -70.866344 L 0.00009375 67.161 " transform="matrix(1, 0, 0, -1, 76.246, 119.536)"/>
<path fill-rule="nonzero" fill="rgb(0%, 0%, 0%)" fill-opacity="1" stroke-width="0.79701" stroke-linecap="butt" stroke-linejoin="miter" stroke="rgb(0%, 0%, 0%)" stroke-opacity="1" stroke-miterlimit="10" d="M 4.841973 -0.00009375 L 1.287285 1.347563 L 2.470879 -0.00009375 L 1.287285 -1.34775 Z M 4.841973 -0.00009375 " transform="matrix(0, -1, -1, 0, 76.246, 54.64666)"/>
<g fill="rgb(0%, 0%, 0%)" fill-opacity="1">
<use xlink:href="#glyph-0-1" x="73.178" y="42.626"/>
</g>
<g fill="rgb(0%, 0%, 0%)" fill-opacity="1">
<use xlink:href="#glyph-0-2" x="91.066" y="103.778"/>
</g>
<g fill="rgb(0%, 0%, 0%)" fill-opacity="1">
<use xlink:href="#glyph-1-0" x="63.616" y="131.472"/>
</g>
<path fill="none" stroke-width="1.19553" stroke-linecap="butt" stroke-linejoin="miter" stroke="rgb(0%, 0%, 0%)" stroke-opacity="1" stroke-miterlimit="10" d="M 90.711031 0.00084375 L 131.175875 0.00084375 " transform="matrix(1, 0, 0, -1, 76.246, 119.536)"/>
<path fill-rule="nonzero" fill="rgb(0%, 0%, 0%)" fill-opacity="1" stroke-width="1.19553" stroke-linecap="butt" stroke-linejoin="miter" stroke="rgb(0%, 0%, 0%)" stroke-opacity="1" stroke-miterlimit="10" d="M 6.268835 0.00084375 L 1.928991 1.645375 L 3.382116 0.00084375 L 1.928991 -1.647594 Z M 6.268835 0.00084375 " transform="matrix(1, 0, 0, -1, 204.34054, 119.536)"/>
<path fill="none" stroke-width="0.79701" stroke-linecap="butt" stroke-linejoin="miter" stroke="rgb(0%, 0%, 0%)" stroke-opacity="1" stroke-miterlimit="10" d="M 218.269625 0.00084375 L 322.281344 0.00084375 " transform="matrix(1, 0, 0, -1, 76.246, 119.536)"/>
<path fill-rule="nonzero" fill="rgb(0%, 0%, 0%)" fill-opacity="1" stroke-width="0.79701" stroke-linecap="butt" stroke-linejoin="miter" stroke="rgb(0%, 0%, 0%)" stroke-opacity="1" stroke-miterlimit="10" d="M 4.840926 0.00084375 L 1.286239 1.344594 L 2.469833 0.00084375 L 1.286239 -1.346812 Z M 4.840926 0.00084375 " transform="matrix(1, 0, 0, -1, 396.25673, 119.536)"/>
<g fill="rgb(0%, 0%, 0%)" fill-opacity="1">
<use xlink:href="#glyph-0-3" x="405.949" y="122.11"/>
</g>
<path fill="none" stroke-width="0.79701" stroke-linecap="butt" stroke-linejoin="miter" stroke="rgb(0%, 0%, 0%)" stroke-opacity="1" stroke-miterlimit="10" d="M 226.773531 -8.503062 L 226.773531 95.508656 " transform="matrix(1, 0, 0, -1, 76.246, 119.536)"/>
<path fill-rule="nonzero" fill="rgb(0%, 0%, 0%)" fill-opacity="1" stroke-width="0.79701" stroke-linecap="butt" stroke-linejoin="miter" stroke="rgb(0%, 0%, 0%)" stroke-opacity="1" stroke-miterlimit="10" d="M 4.842809 0.00103875 L 1.288121 1.344789 L 2.471715 0.00103875 L 1.288121 -1.346618 Z M 4.842809 0.00103875 " transform="matrix(0, -1, -1, 0, 303.02057, 26.29984)"/>
<g fill="rgb(0%, 0%, 0%)" fill-opacity="1">
<use xlink:href="#glyph-0-4" x="300.127" y="16.604"/>
</g>
<path fill-rule="nonzero" fill="rgb(84.999084%, 84.999084%, 100%)" fill-opacity="1" d="M 303.019531 119.535156 L 303.019531 40.164062 L 354.042969 40.164062 L 354.042969 119.535156 Z M 303.019531 119.535156 "/>
<path fill="none" stroke-width="0.79701" stroke-linecap="butt" stroke-linejoin="miter" stroke="rgb(0%, 0%, 100%)" stroke-opacity="1" stroke-miterlimit="10" d="M 226.773531 0.00084375 L 277.796969 0.00084375 L 277.796969 79.371938 L 226.773531 79.371938 " transform="matrix(1, 0, 0, -1, 76.246, 119.536)"/>
<path fill="none" stroke-width="0.79701" stroke-linecap="butt" stroke-linejoin="miter" stroke="rgb(0%, 0%, 100%)" stroke-opacity="1" stroke-dasharray="2.98883 2.98883" stroke-miterlimit="10" d="M 226.773531 0.00084375 L 226.773531 79.371938 " transform="matrix(1, 0, 0, -1, 76.246, 119.536)"/>
<g fill="rgb(0%, 0%, 0%)" fill-opacity="1">
<use xlink:href="#glyph-2-0" x="351.115" y="130.76"/>
</g>
<g fill="rgb(0%, 0%, 0%)" fill-opacity="1">
<use xlink:href="#glyph-2-1" x="286.576" y="44.018"/>
</g>
<g fill="rgb(0%, 0%, 0%)" fill-opacity="1">
<use xlink:href="#glyph-0-5" x="292.429" y="44.018"/>
</g>
<g fill="rgb(0%, 0%, 0%)" fill-opacity="1">
<use xlink:href="#glyph-1-0" x="290.388" y="131.472"/>
</g>
<circle cx="76.246" cy="119.536" r="2.5" fill="white" stroke="black" stroke-width="0.79701"/>
</svg>
