<?xml version="1.0" encoding="UTF-8"?>
<svg xmlns="http://www.w3.org/2000/svg" xmlns:xlink="http://www.w3.org/1999/xlink" width="231.23pt" height="216.674pt" viewBox="0 0 231.23 216.674">
<defs>
<g>
<g id="glyph-0-0">
<path d="M 3.328125 -3.015625 C 3.390625 -3.265625 3.625 -4.1875 4.3125 -4.1875 C 4.359375 -4.1875 4.609375 -4.1875 4.8125 -4.0625 C 4.53125 -4 4.34375 -3.765625 4.34375 -3.515625 C 4.34375 -3.359375 4.453125 -3.171875 4.71875 -3.171875 C 4.9375 -3.171875 5.25 -3.34375 5.25 -3.75 C 5.25 -4.265625 4.671875 -4.40625 4.328125 -4.40625 C 3.75 -4.40625 3.40625 -3.875 3.28125 -3.65625 C 3.03125 -4.3125 2.5 -4.40625 2.203125 -4.40625 C 1.171875 -4.40625 0.59375 -3.125 0.59375 -2.875 C 0.59375 -2.765625 0.703125 -2.765625 0.71875 -2.765625 C 0.796875 -2.765625 0.828125 -2.796875 0.84375 -2.875 C 1.1875 -3.9375 1.84375 -4.1875 2.1875 -4.1875 C 2.375 -4.1875 2.71875 -4.09375 2.71875 -3.515625 C 2.71875 -3.203125 2.546875 -2.546875 2.1875 -1.140625 C 2.03125 -0.53125 1.671875 -0.109375 1.234375 -0.109375 C 1.171875 -0.109375 0.953125 -0.109375 0.734375 -0.234375 C 0.984375 -0.296875 1.203125 -0.5 1.203125 -0.78125 C 1.203125 -1.046875 0.984375 -1.125 0.84375 -1.125 C 0.53125 -1.125 0.296875 -0.875 0.296875 -0.546875 C 0.296875 -0.09375 0.78125 0.109375 1.21875 0.109375 C 1.890625 0.109375 2.25 -0.59375 2.265625 -0.640625 C 2.390625 -0.28125 2.75 0.109375 3.34375 0.109375 C 4.375 0.109375 4.9375 -1.171875 4.9375 -1.421875 C 4.9375 -1.53125 4.859375 -1.53125 4.828125 -1.53125 C 4.734375 -1.53125 4.71875 -1.484375 4.6875 -1.421875 C 4.359375 -0.34375 3.6875 -0.109375 3.375 -0.109375 C 2.984375 -0.109375 2.828125 -0.421875 2.828125 -0.765625 C 2.828125 -0.984375 2.875 -1.203125 2.984375 -1.640625 Z M 3.328125 -3.015625 "/>
</g>
<g id="glyph-0-1">
<path d="M 4.84375 -3.796875 C 4.890625 -3.9375 4.890625 -3.953125 4.890625 -4.03125 C 4.890625 -4.203125 4.75 -4.296875 4.59375 -4.296875 C 4.5 -4.296875 4.34375 -4.234375 4.25 -4.09375 C 4.234375 -4.03125 4.140625 -3.734375 4.109375 -3.546875 C 4.03125 -3.296875 3.96875 -3.015625 3.90625 -2.75 L 3.453125 -0.953125 C 3.421875 -0.8125 2.984375 -0.109375 2.328125 -0.109375 C 1.828125 -0.109375 1.71875 -0.546875 1.71875 -0.921875 C 1.71875 -1.375 1.890625 -2 2.21875 -2.875 C 2.375 -3.28125 2.421875 -3.390625 2.421875 -3.59375 C 2.421875 -4.03125 2.109375 -4.40625 1.609375 -4.40625 C 0.65625 -4.40625 0.296875 -2.953125 0.296875 -2.875 C 0.296875 -2.765625 0.390625 -2.765625 0.40625 -2.765625 C 0.515625 -2.765625 0.515625 -2.796875 0.5625 -2.953125 C 0.84375 -3.890625 1.234375 -4.1875 1.578125 -4.1875 C 1.65625 -4.1875 1.828125 -4.1875 1.828125 -3.875 C 1.828125 -3.625 1.71875 -3.359375 1.65625 -3.171875 C 1.25 -2.109375 1.078125 -1.546875 1.078125 -1.078125 C 1.078125 -0.1875 1.703125 0.109375 2.296875 0.109375 C 2.6875 0.109375 3.015625 -0.0625 3.296875 -0.34375 C 3.171875 0.171875 3.046875 0.671875 2.65625 1.203125 C 2.390625 1.53125 2.015625 1.828125 1.5625 1.828125 C 1.421875 1.828125 0.96875 1.796875 0.796875 1.40625 C 0.953125 1.40625 1.09375 1.40625 1.21875 1.28125 C 1.328125 1.203125 1.421875 1.0625 1.421875 0.875 C 1.421875 0.5625 1.15625 0.53125 1.0625 0.53125 C 0.828125 0.53125 0.5 0.6875 0.5 1.171875 C 0.5 1.671875 0.9375 2.046875 1.5625 2.046875 C 2.578125 2.046875 3.609375 1.140625 3.890625 0.015625 Z M 4.84375 -3.796875 "/>
</g>
<g id="glyph-0-2">
<path d="M 1.328125 -0.828125 C 1.859375 -1.40625 2.15625 -1.65625 2.515625 -1.96875 C 2.515625 -1.96875 3.125 -2.5 3.484375 -2.859375 C 4.4375 -3.78125 4.65625 -4.265625 4.65625 -4.3125 C 4.65625 -4.40625 4.5625 -4.40625 4.546875 -4.40625 C 4.46875 -4.40625 4.453125 -4.390625 4.390625 -4.296875 C 4.09375 -3.8125 3.890625 -3.65625 3.65625 -3.65625 C 3.40625 -3.65625 3.296875 -3.8125 3.140625 -3.984375 C 2.953125 -4.203125 2.78125 -4.40625 2.453125 -4.40625 C 1.703125 -4.40625 1.25 -3.484375 1.25 -3.265625 C 1.25 -3.21875 1.28125 -3.15625 1.359375 -3.15625 C 1.453125 -3.15625 1.46875 -3.203125 1.5 -3.265625 C 1.6875 -3.734375 2.265625 -3.734375 2.34375 -3.734375 C 2.546875 -3.734375 2.734375 -3.671875 2.96875 -3.59375 C 3.375 -3.4375 3.484375 -3.4375 3.734375 -3.4375 C 3.375 -3.015625 2.546875 -2.296875 2.359375 -2.140625 L 1.453125 -1.296875 C 0.78125 -0.625 0.421875 -0.0625 0.421875 0.015625 C 0.421875 0.109375 0.53125 0.109375 0.546875 0.109375 C 0.625 0.109375 0.640625 0.09375 0.703125 -0.015625 C 0.9375 -0.375 1.234375 -0.640625 1.5625 -0.640625 C 1.78125 -0.640625 1.890625 -0.546875 2.140625 -0.265625 C 2.296875 -0.046875 2.484375 0.109375 2.765625 0.109375 C 3.765625 0.109375 4.34375 -1.15625 4.34375 -1.421875 C 4.34375 -1.46875 4.296875 -1.53125 4.21875 -1.53125 C 4.125 -1.53125 4.109375 -1.46875 4.078125 -1.390625 C 3.84375 -0.75 3.203125 -0.5625 2.875 -0.5625 C 2.6875 -0.5625 2.5 -0.625 2.296875 -0.6875 C 1.953125 -0.8125 1.796875 -0.859375 1.59375 -0.859375 C 1.578125 -0.859375 1.421875 -0.859375 1.328125 -0.828125 Z M 1.328125 -0.828125 "/>
</g>
<g id="glyph-0-3">
<path d="M 3.71875 -3.765625 C 3.53125 -4.140625 3.25 -4.40625 2.796875 -4.40625 C 1.640625 -4.40625 0.40625 -2.9375 0.40625 -1.484375 C 0.40625 -0.546875 0.953125 0.109375 1.71875 0.109375 C 1.921875 0.109375 2.421875 0.0625 3.015625 -0.640625 C 3.09375 -0.21875 3.453125 0.109375 3.921875 0.109375 C 4.28125 0.109375 4.5 -0.125 4.671875 -0.4375 C 4.828125 -0.796875 4.96875 -1.40625 4.96875 -1.421875 C 4.96875 -1.53125 4.875 -1.53125 4.84375 -1.53125 C 4.75 -1.53125 4.734375 -1.484375 4.703125 -1.34375 C 4.53125 -0.703125 4.359375 -0.109375 3.953125 -0.109375 C 3.671875 -0.109375 3.65625 -0.375 3.65625 -0.5625 C 3.65625 -0.78125 3.671875 -0.875 3.78125 -1.3125 C 3.890625 -1.71875 3.90625 -1.828125 4 -2.203125 L 4.359375 -3.59375 C 4.421875 -3.875 4.421875 -3.890625 4.421875 -3.9375 C 4.421875 -4.109375 4.3125 -4.203125 4.140625 -4.203125 C 3.890625 -4.203125 3.75 -3.984375 3.71875 -3.765625 Z M 3.078125 -1.1875 C 3.015625 -1 3.015625 -0.984375 2.875 -0.8125 C 2.4375 -0.265625 2.03125 -0.109375 1.75 -0.109375 C 1.25 -0.109375 1.109375 -0.65625 1.109375 -1.046875 C 1.109375 -1.546875 1.421875 -2.765625 1.65625 -3.234375 C 1.96875 -3.8125 2.40625 -4.1875 2.8125 -4.1875 C 3.453125 -4.1875 3.59375 -3.375 3.59375 -3.3125 C 3.59375 -3.25 3.578125 -3.1875 3.5625 -3.140625 Z M 3.078125 -1.1875 "/>
</g>
<g id="glyph-0-4">
<path d="M 2.375 -6.8125 C 2.375 -6.8125 2.375 -6.921875 2.25 -6.921875 C 2.03125 -6.921875 1.296875 -6.84375 1.03125 -6.8125 C 0.953125 -6.8125 0.84375 -6.796875 0.84375 -6.625 C 0.84375 -6.5 0.9375 -6.5 1.09375 -6.5 C 1.5625 -6.5 1.578125 -6.4375 1.578125 -6.328125 C 1.578125 -6.265625 1.5 -5.921875 1.453125 -5.71875 L 0.625 -2.46875 C 0.515625 -1.96875 0.46875 -1.796875 0.46875 -1.453125 C 0.46875 -0.515625 1 0.109375 1.734375 0.109375 C 2.90625 0.109375 4.140625 -1.375 4.140625 -2.8125 C 4.140625 -3.71875 3.609375 -4.40625 2.8125 -4.40625 C 2.359375 -4.40625 1.9375 -4.109375 1.640625 -3.8125 Z M 1.453125 -3.046875 C 1.5 -3.265625 1.5 -3.28125 1.59375 -3.390625 C 2.078125 -4.03125 2.53125 -4.1875 2.796875 -4.1875 C 3.15625 -4.1875 3.421875 -3.890625 3.421875 -3.25 C 3.421875 -2.65625 3.09375 -1.515625 2.90625 -1.140625 C 2.578125 -0.46875 2.125 -0.109375 1.734375 -0.109375 C 1.390625 -0.109375 1.0625 -0.375 1.0625 -1.109375 C 1.0625 -1.3125 1.0625 -1.5 1.21875 -2.125 Z M 1.453125 -3.046875 "/>
</g>
<g id="glyph-1-0">
<path d="M 1.625 -1.046875 C 1.1875 -0.328125 0.796875 -0.3125 0.4375 -0.28125 C 0.375 -0.265625 0.328125 -0.203125 0.328125 -0.109375 C 0.328125 -0.0625 0.375 0 0.453125 0 C 0.625 0 1.046875 -0.03125 1.21875 -0.03125 C 1.421875 -0.03125 1.90625 0 2.09375 0 C 2.15625 0 2.265625 0 2.265625 -0.15625 C 2.265625 -0.265625 2.15625 -0.28125 2.140625 -0.28125 C 2.046875 -0.28125 1.71875 -0.3125 1.71875 -0.578125 C 1.71875 -0.703125 1.8125 -0.875 1.84375 -0.921875 L 2.546875 -2.078125 L 4.890625 -2.078125 C 4.921875 -1.859375 4.9375 -1.5625 4.96875 -1.34375 C 5 -0.984375 5.0625 -0.59375 5.0625 -0.5625 C 5.0625 -0.4375 4.9375 -0.28125 4.40625 -0.28125 C 4.328125 -0.28125 4.203125 -0.28125 4.203125 -0.109375 C 4.203125 -0.015625 4.28125 0 4.34375 0 C 4.515625 0 4.734375 -0.015625 4.90625 -0.015625 C 5.078125 -0.015625 5.296875 -0.03125 5.4375 -0.03125 C 5.734375 -0.03125 5.765625 -0.03125 5.96875 -0.015625 C 6.109375 -0.015625 6.328125 0 6.46875 0 C 6.515625 0 6.640625 0 6.640625 -0.15625 C 6.640625 -0.28125 6.53125 -0.28125 6.4375 -0.28125 C 5.890625 -0.28125 5.890625 -0.34375 5.859375 -0.59375 L 5.234375 -6.171875 C 5.203125 -6.375 5.203125 -6.421875 5.046875 -6.421875 C 4.921875 -6.421875 4.875 -6.359375 4.796875 -6.25 Z M 2.71875 -2.34375 L 4.53125 -5.3125 L 4.859375 -2.34375 Z M 2.71875 -2.34375 "/>
</g>
<g id="glyph-1-1">
<path d="M 2.765625 -2.8125 L 4.265625 -2.8125 C 5.71875 -2.8125 6.90625 -3.8125 6.90625 -4.765625 C 6.90625 -5.46875 6.265625 -6.125 5.09375 -6.125 L 2.140625 -6.125 C 1.96875 -6.125 1.859375 -6.125 1.859375 -5.96875 C 1.859375 -5.84375 1.953125 -5.84375 2.140625 -5.84375 C 2.171875 -5.84375 2.328125 -5.84375 2.46875 -5.828125 C 2.625 -5.8125 2.6875 -5.796875 2.6875 -5.6875 C 2.6875 -5.65625 2.6875 -5.609375 2.65625 -5.515625 L 1.4375 -0.6875 C 1.359375 -0.359375 1.34375 -0.28125 0.671875 -0.28125 C 0.5 -0.28125 0.40625 -0.28125 0.40625 -0.109375 C 0.40625 -0.015625 0.46875 0 0.53125 0 C 0.703125 0 0.9375 -0.015625 1.109375 -0.015625 C 1.375 -0.03125 1.390625 -0.03125 1.671875 -0.03125 C 1.96875 -0.03125 1.984375 -0.03125 2.25 -0.015625 C 2.4375 -0.015625 2.65625 0 2.828125 0 C 2.890625 0 3.015625 0 3.015625 -0.15625 C 3.015625 -0.28125 2.921875 -0.28125 2.734375 -0.28125 C 2.703125 -0.28125 2.53125 -0.28125 2.390625 -0.296875 C 2.203125 -0.328125 2.1875 -0.359375 2.1875 -0.4375 C 2.1875 -0.46875 2.1875 -0.484375 2.234375 -0.640625 Z M 3.421875 -5.5 C 3.5 -5.828125 3.515625 -5.84375 3.890625 -5.84375 L 4.796875 -5.84375 C 5.5 -5.84375 6.046875 -5.625 6.046875 -4.984375 C 6.046875 -4.796875 5.953125 -3.953125 5.484375 -3.515625 C 5.296875 -3.34375 4.875 -3.0625 4.109375 -3.0625 L 2.8125 -3.0625 Z M 3.421875 -5.5 "/>
</g>
<g id="glyph-1-2">
<path d="M 4.859375 -5.328125 C 4.84375 -5.3125 4.453125 -4.953125 4.453125 -4.8125 C 4.453125 -4.703125 4.53125 -4.625 4.640625 -4.625 C 4.734375 -4.625 4.78125 -4.6875 4.8125 -4.734375 C 4.921875 -4.859375 5.125 -5.109375 5.53125 -5.3125 C 5.625 -5.359375 5.71875 -5.40625 5.71875 -5.53125 C 5.71875 -5.625 5.625 -5.671875 5.59375 -5.71875 C 5.453125 -5.796875 5.296875 -5.921875 5.203125 -6.203125 C 5.171875 -6.3125 5.125 -6.421875 5 -6.421875 C 4.921875 -6.421875 4.8125 -6.359375 4.8125 -6.21875 C 4.8125 -6.0625 4.984375 -5.765625 5.015625 -5.71875 L 1.96875 -5.71875 C 1.828125 -5.71875 1.640625 -5.71875 1.640625 -5.53125 C 1.640625 -5.328125 1.8125 -5.328125 1.96875 -5.328125 Z M 4.859375 -5.328125 "/>
</g>
<g id="glyph-1-3">
<path d="M 1.6875 -1.40625 C 1.796875 -1.828125 1.96875 -2.484375 1.96875 -2.5625 C 1.984375 -2.609375 2.21875 -3.046875 2.53125 -3.359375 C 2.796875 -3.59375 3.140625 -3.734375 3.484375 -3.734375 C 3.96875 -3.734375 3.96875 -3.265625 3.96875 -3.109375 C 3.96875 -2.5625 3.546875 -1.46875 3.453125 -1.1875 C 3.34375 -0.921875 3.3125 -0.828125 3.3125 -0.65625 C 3.3125 -0.171875 3.671875 0.09375 4.078125 0.09375 C 4.9375 0.09375 5.296875 -1.1875 5.296875 -1.28125 C 5.296875 -1.328125 5.265625 -1.390625 5.171875 -1.390625 C 5.078125 -1.390625 5.0625 -1.34375 5.03125 -1.234375 C 4.8125 -0.46875 4.4375 -0.125 4.109375 -0.125 C 4.046875 -0.125 3.890625 -0.125 3.890625 -0.40625 C 3.890625 -0.640625 3.96875 -0.875 4.046875 -1.0625 C 4.21875 -1.53125 4.578125 -2.46875 4.578125 -2.984375 C 4.578125 -3.78125 3.984375 -3.96875 3.515625 -3.96875 C 2.6875 -3.96875 2.25 -3.375 2.09375 -3.1875 C 2.046875 -3.671875 1.671875 -3.96875 1.234375 -3.96875 C 0.859375 -3.96875 0.65625 -3.6875 0.53125 -3.4375 C 0.390625 -3.125 0.265625 -2.625 0.265625 -2.578125 C 0.265625 -2.5 0.328125 -2.46875 0.390625 -2.46875 C 0.484375 -2.46875 0.5 -2.515625 0.546875 -2.703125 C 0.71875 -3.40625 0.90625 -3.734375 1.203125 -3.734375 C 1.484375 -3.734375 1.484375 -3.453125 1.484375 -3.3125 C 1.484375 -3.125 1.40625 -2.859375 1.359375 -2.625 C 1.296875 -2.390625 1.203125 -2 1.171875 -1.890625 L 0.8125 -0.421875 C 0.75 -0.203125 0.75 -0.1875 0.75 -0.15625 C 0.75 -0.046875 0.828125 0.09375 1.015625 0.09375 C 1.140625 0.09375 1.28125 0.015625 1.34375 -0.09375 C 1.375 -0.140625 1.4375 -0.4375 1.484375 -0.609375 Z M 1.6875 -1.40625 "/>
</g>
<g id="glyph-1-4">
<path d="M 0.40625 1.125 C 0.34375 1.375 0.328125 1.46875 -0.046875 1.46875 C -0.15625 1.46875 -0.265625 1.46875 -0.265625 1.625 C -0.265625 1.65625 -0.234375 1.734375 -0.140625 1.734375 L 0.234375 1.71875 C 0.296875 1.71875 0.5 1.71875 0.625 1.71875 C 0.78125 1.71875 0.9375 1.71875 1.078125 1.71875 C 1.234375 1.71875 1.375 1.734375 1.515625 1.734375 C 1.5625 1.734375 1.6875 1.734375 1.6875 1.578125 C 1.6875 1.46875 1.59375 1.46875 1.4375 1.46875 C 1.015625 1.46875 1.015625 1.40625 1.015625 1.3125 C 1.015625 1.265625 1.078125 1.015625 1.125 0.875 L 1.453125 -0.453125 C 1.546875 -0.265625 1.796875 0.09375 2.3125 0.09375 C 3.359375 0.09375 4.5 -1.171875 4.5 -2.515625 C 4.5 -3.421875 3.9375 -3.96875 3.265625 -3.96875 C 3.078125 -3.96875 2.625 -3.921875 2.078125 -3.3125 C 1.953125 -3.8125 1.53125 -3.96875 1.234375 -3.96875 C 0.859375 -3.96875 0.65625 -3.6875 0.53125 -3.4375 C 0.390625 -3.125 0.265625 -2.625 0.265625 -2.578125 C 0.265625 -2.5 0.328125 -2.46875 0.390625 -2.46875 C 0.484375 -2.46875 0.5 -2.515625 0.546875 -2.703125 C 0.71875 -3.40625 0.90625 -3.734375 1.203125 -3.734375 C 1.484375 -3.734375 1.484375 -3.453125 1.484375 -3.3125 C 1.484375 -3.25 1.46875 -3.109375 1.453125 -3.046875 Z M 2.03125 -2.765625 C 2.078125 -2.9375 2.078125 -2.953125 2.203125 -3.09375 C 2.4375 -3.40625 2.84375 -3.734375 3.25 -3.734375 C 3.671875 -3.734375 3.84375 -3.3125 3.84375 -2.890625 C 3.84375 -2.5 3.59375 -1.375 3.3125 -0.90625 C 3 -0.390625 2.625 -0.125 2.296875 -0.125 C 1.71875 -0.125 1.5625 -0.828125 1.5625 -0.890625 C 1.5625 -0.953125 1.59375 -1 1.59375 -1.046875 Z M 2.03125 -2.765625 "/>
</g>
<g id="glyph-1-5">
<path d="M 4.140625 -3.65625 C 4.171875 -3.78125 4.171875 -3.796875 4.171875 -3.84375 C 4.171875 -3.953125 4.078125 -3.96875 4.0625 -3.96875 C 3.96875 -3.96875 3.625 -3.65625 3.453125 -3.34375 C 3.3125 -3.671875 3.03125 -3.96875 2.578125 -3.96875 C 1.53125 -3.96875 0.375 -2.71875 0.375 -1.359375 C 0.375 -0.375 1 0.09375 1.609375 0.09375 C 1.984375 0.09375 2.34375 -0.09375 2.671875 -0.40625 L 2.328125 0.96875 C 2.21875 1.421875 2.203125 1.453125 1.640625 1.46875 C 1.53125 1.46875 1.421875 1.46875 1.421875 1.625 C 1.421875 1.640625 1.421875 1.734375 1.546875 1.734375 C 1.75 1.734375 2.265625 1.71875 2.453125 1.71875 C 2.75 1.71875 2.765625 1.71875 2.921875 1.71875 C 3.03125 1.734375 3.28125 1.734375 3.390625 1.734375 C 3.4375 1.734375 3.5625 1.734375 3.5625 1.578125 C 3.5625 1.46875 3.46875 1.46875 3.3125 1.46875 C 2.890625 1.46875 2.890625 1.40625 2.890625 1.3125 C 2.890625 1.3125 2.890625 1.25 2.9375 1.125 Z M 2.84375 -1.09375 C 2.796875 -0.921875 2.796875 -0.921875 2.65625 -0.75 C 2.328125 -0.359375 1.96875 -0.125 1.625 -0.125 C 1.1875 -0.125 1.046875 -0.578125 1.046875 -0.96875 C 1.046875 -1.40625 1.296875 -2.4375 1.515625 -2.875 C 1.796875 -3.40625 2.21875 -3.734375 2.578125 -3.734375 C 3.171875 -3.734375 3.3125 -3.015625 3.3125 -2.953125 C 3.3125 -2.921875 3.296875 -2.859375 3.28125 -2.828125 Z M 2.84375 -1.09375 "/>
</g>
<g id="glyph-1-6">
<path d="M 3.625 -3.625 C 3.328125 -3.578125 3.171875 -3.328125 3.171875 -3.140625 C 3.171875 -2.96875 3.296875 -2.8125 3.53125 -2.8125 C 3.765625 -2.8125 4.015625 -3.015625 4.015625 -3.359375 C 4.015625 -3.703125 3.6875 -3.96875 3.25 -3.96875 C 2.578125 -3.96875 2.203125 -3.46875 2.078125 -3.296875 C 1.96875 -3.78125 1.5625 -3.96875 1.234375 -3.96875 C 0.90625 -3.96875 0.703125 -3.765625 0.546875 -3.453125 C 0.375 -3.125 0.265625 -2.625 0.265625 -2.578125 C 0.265625 -2.5 0.328125 -2.46875 0.390625 -2.46875 C 0.484375 -2.46875 0.5 -2.515625 0.546875 -2.703125 C 0.71875 -3.40625 0.90625 -3.734375 1.203125 -3.734375 C 1.484375 -3.734375 1.484375 -3.453125 1.484375 -3.3125 C 1.484375 -3.125 1.40625 -2.859375 1.359375 -2.625 C 1.296875 -2.390625 1.203125 -2 1.171875 -1.890625 L 0.8125 -0.421875 C 0.75 -0.203125 0.75 -0.1875 0.75 -0.15625 C 0.75 -0.046875 0.828125 0.09375 1.015625 0.09375 C 1.3125 0.09375 1.375 -0.140625 1.4375 -0.40625 C 1.546875 -0.796875 1.546875 -0.8125 1.625 -1.171875 C 1.96875 -2.515625 2.015625 -2.734375 2.03125 -2.78125 C 2.09375 -2.890625 2.5 -3.734375 3.25 -3.734375 C 3.453125 -3.734375 3.578125 -3.671875 3.625 -3.625 Z M 3.625 -3.625 "/>
</g>
<g id="glyph-1-7">
<path d="M 3.6875 0.375 C 3.671875 0.46875 3.671875 0.59375 3.671875 0.703125 C 3.671875 1.125 3.75 1.734375 4.453125 1.734375 C 5.53125 1.734375 5.984375 0.140625 5.984375 0 C 5.984375 -0.046875 5.9375 -0.109375 5.859375 -0.109375 C 5.796875 -0.109375 5.78125 -0.046875 5.75 0.015625 C 5.546875 0.625 5.015625 0.859375 4.6875 0.859375 C 4.28125 0.859375 4.140625 0.59375 4.046875 -0.046875 C 6.015625 -0.890625 6.796875 -2.65625 6.796875 -3.890625 C 6.796875 -5.296875 5.84375 -6.328125 4.4375 -6.328125 C 2.4375 -6.328125 0.453125 -4.265625 0.453125 -2.21875 C 0.453125 -0.75 1.46875 0.203125 2.8125 0.203125 C 3.1875 0.203125 3.546875 0.109375 3.703125 0.078125 Z M 2.28125 -0.15625 C 1.859375 -0.328125 1.265625 -0.796875 1.265625 -1.953125 C 1.265625 -2.421875 1.421875 -3.859375 2.390625 -5.015625 C 2.859375 -5.5625 3.609375 -6.078125 4.375 -6.078125 C 5.265625 -6.078125 5.984375 -5.421875 5.984375 -4.15625 C 5.984375 -3.265625 5.546875 -1.234375 4 -0.375 C 3.921875 -0.859375 3.75 -1.34375 3.171875 -1.34375 C 2.671875 -1.34375 2.234375 -0.875 2.234375 -0.421875 C 2.234375 -0.34375 2.25 -0.21875 2.28125 -0.15625 Z M 3.71875 -0.234375 C 3.59375 -0.171875 3.25 -0.046875 2.875 -0.046875 C 2.765625 -0.046875 2.453125 -0.046875 2.453125 -0.421875 C 2.453125 -0.75 2.796875 -1.109375 3.1875 -1.109375 C 3.71875 -1.109375 3.71875 -0.625 3.71875 -0.234375 Z M 3.71875 -0.234375 "/>
</g>
<g id="glyph-2-0">
<path d="M 6.34375 -2.96875 C 6.46875 -2.96875 6.640625 -2.96875 6.640625 -3.15625 C 6.640625 -3.359375 6.453125 -3.359375 6.3125 -3.359375 L 0.84375 -3.359375 C 0.703125 -3.359375 0.515625 -3.359375 0.515625 -3.15625 C 0.515625 -2.96875 0.6875 -2.96875 0.8125 -2.96875 Z M 6.3125 -1.140625 C 6.453125 -1.140625 6.640625 -1.140625 6.640625 -1.34375 C 6.640625 -1.53125 6.46875 -1.53125 6.34375 -1.53125 L 0.8125 -1.53125 C 0.6875 -1.53125 0.515625 -1.53125 0.515625 -1.34375 C 0.515625 -1.140625 0.703125 -1.140625 0.84375 -1.140625 Z M 6.3125 -1.140625 "/>
</g>
<g id="glyph-3-0">
<path d="M 3.75 12.6875 C 3.78125 11.9375 3.84375 11.1875 3.921875 10.4375 C 4.109375 8.765625 4.46875 6.59375 5.25 4.4375 C 5.90625 2.59375 6.6875 1.234375 7.625 -0.0625 L 7.75 -0.21875 C 7.765625 -0.234375 7.765625 -0.25 7.765625 -0.265625 C 7.765625 -0.375 7.671875 -0.375 7.546875 -0.375 C 7.40625 -0.375 7.390625 -0.375 7.359375 -0.34375 C 7.34375 -0.328125 6.578125 0.515625 5.875 1.65625 C 4.109375 4.5 3.28125 7.765625 2.921875 11.078125 C 2.890625 11.296875 2.6875 13.21875 2.6875 15.421875 L 2.6875 15.765625 C 2.6875 15.859375 2.75 15.859375 2.9375 15.859375 L 3.421875 15.859375 C 3.671875 15.859375 3.671875 15.859375 3.671875 15.609375 L 3.671875 15.15625 C 3.671875 14.734375 3.6875 14.28125 3.703125 13.859375 Z M 3.75 12.6875 "/>
</g>
<g id="glyph-3-1">
<path d="M 7.359375 15.734375 C 7.390625 15.765625 7.40625 15.765625 7.546875 15.765625 C 7.671875 15.765625 7.765625 15.765625 7.765625 15.65625 L 7.765625 15.625 C 7.765625 15.625 7.765625 15.609375 7.640625 15.46875 C 5.1875 12.140625 4.375 8.5625 3.96875 5.234375 C 3.765625 3.671875 3.671875 1.359375 3.671875 0.234375 L 3.671875 -0.21875 C 3.671875 -0.46875 3.671875 -0.46875 3.421875 -0.46875 L 2.9375 -0.46875 C 2.75 -0.46875 2.6875 -0.46875 2.6875 -0.375 L 2.6875 -0.03125 C 2.6875 2.421875 2.875 4.859375 3.375 7.25 C 3.96875 10.140625 5.125 13.109375 7.1875 15.546875 Z M 7.359375 15.734375 "/>
</g>
<g id="glyph-3-2">
<path d="M 5.296875 12.984375 C 5.28125 12.546875 5.109375 9.078125 4.078125 5.828125 C 3.375 3.609375 2.3125 1.5625 0.859375 -0.15625 L 0.6875 -0.34375 C 0.65625 -0.375 0.640625 -0.375 0.515625 -0.375 C 0.390625 -0.375 0.296875 -0.375 0.296875 -0.265625 C 0.296875 -0.234375 0.296875 -0.21875 0.40625 -0.09375 C 2.640625 2.953125 3.59375 6.203125 4.09375 10.15625 C 4.28125 11.71875 4.375 14.03125 4.375 15.15625 L 4.375 15.609375 C 4.375 15.859375 4.390625 15.859375 4.625 15.859375 L 5.125 15.859375 C 5.296875 15.859375 5.359375 15.859375 5.375 15.765625 L 5.375 15.421875 C 5.375 15.0625 5.375 14.703125 5.359375 14.34375 Z M 5.296875 12.984375 "/>
</g>
<g id="glyph-3-3">
<path d="M 4.625 -0.46875 C 4.390625 -0.46875 4.375 -0.46875 4.375 -0.21875 L 4.375 0.234375 C 4.375 1.28125 4.296875 3.5625 4.09375 5.234375 C 3.65625 8.765625 2.796875 12.21875 0.421875 15.453125 C 0.296875 15.609375 0.296875 15.625 0.296875 15.65625 C 0.296875 15.765625 0.390625 15.765625 0.515625 15.765625 C 0.640625 15.765625 0.65625 15.765625 0.6875 15.734375 C 0.71875 15.71875 1.46875 14.875 2.171875 13.734375 C 3.9375 10.890625 4.78125 7.625 5.140625 4.3125 C 5.171875 4.09375 5.375 2.171875 5.375 -0.03125 L 5.375 -0.375 C 5.359375 -0.46875 5.296875 -0.46875 5.125 -0.46875 Z M 4.625 -0.46875 "/>
</g>
</g>
</defs>
<path fill="none" stroke-width="0.79701" stroke-linecap="butt" stroke-linejoin="miter" stroke="rgb(0%, 0%, 0%)" stroke-opacity="1" stroke-miterlimit="10" d="M -0.0010625 0.0005 L 198.971594 0.0005 " transform="matrix(1, 0, 0, -1, 10.837, 200.563)"/>
<path fill-rule="nonzero" fill="rgb(0%, 0%, 0%)" fill-opacity="1" stroke-width="0.79701" stroke-linecap="butt" stroke-linejoin="miter" stroke="rgb(0%, 0%, 0%)" stroke-opacity="1" stroke-miterlimit="10" d="M 4.843333 0.0005 L 1.288645 1.348156 L 2.468333 0.0005 L 1.288645 -1.347156 Z M 4.843333 0.0005 " transform="matrix(1, 0, 0, -1, 207.53948, 200.563)"/>
<g fill="rgb(0%, 0%, 0%)" fill-opacity="1">
<use xlink:href="#glyph-0-0" x="217.234" y="202.708"/>
</g>
<path fill="none" stroke-width="0.79701" stroke-linecap="butt" stroke-linejoin="miter" stroke="rgb(0%, 0%, 0%)" stroke-opacity="1" stroke-miterlimit="10" d="M -0.0010625 0.0005 L 71.385656 89.230969 " transform="matrix(1, 0, 0, -1, 10.837, 200.563)"/>
<path fill-rule="nonzero" fill="rgb(0%, 0%, 0%)" fill-opacity="1" stroke-width="0.79701" stroke-linecap="butt" stroke-linejoin="miter" stroke="rgb(0%, 0%, 0%)" stroke-opacity="1" stroke-miterlimit="10" d="M 4.843553 0.00151181 L 1.28549 1.347396 L 2.469677 -0.00152753 L 1.289138 -1.34617 Z M 4.843553 0.00151181 " transform="matrix(0.62465, -0.78082, -0.78082, -0.62465, 80.80378, 113.1032)"/>
<g fill="rgb(0%, 0%, 0%)" fill-opacity="1">
<use xlink:href="#glyph-0-1" x="81.916" y="102.781"/>
</g>
<path fill="none" stroke-width="0.79701" stroke-linecap="butt" stroke-linejoin="miter" stroke="rgb(0%, 0%, 0%)" stroke-opacity="1" stroke-miterlimit="10" d="M -0.0010625 0.0005 L -0.0010625 180.547375 " transform="matrix(1, 0, 0, -1, 10.837, 200.563)"/>
<path fill-rule="nonzero" fill="rgb(0%, 0%, 0%)" fill-opacity="1" stroke-width="0.79701" stroke-linecap="butt" stroke-linejoin="miter" stroke="rgb(0%, 0%, 0%)" stroke-opacity="1" stroke-miterlimit="10" d="M 4.844584 0.0010625 L 1.28599 1.344812 L 2.469584 0.0010625 L 1.28599 -1.346594 Z M 4.844584 0.0010625 " transform="matrix(0, -1, -1, 0, 10.837, 22.28599)"/>
<g fill="rgb(0%, 0%, 0%)" fill-opacity="1">
<use xlink:href="#glyph-0-2" x="8.302" y="12.592"/>
</g>
<path fill="none" stroke-width="0.79701" stroke-linecap="butt" stroke-linejoin="miter" stroke="rgb(0%, 0%, 0%)" stroke-opacity="1" stroke-dasharray="2.98883 2.98883" stroke-miterlimit="10" d="M 77.401281 27.645031 L 151.116125 27.645031 L 180.604406 64.5005 L 106.889562 64.5005 Z M 77.401281 27.645031 " transform="matrix(1, 0, 0, -1, 10.837, 200.563)"/>
<path fill="none" stroke-width="0.79701" stroke-linecap="butt" stroke-linejoin="miter" stroke="rgb(0%, 0%, 0%)" stroke-opacity="1" stroke-dasharray="2.98883 2.98883" stroke-miterlimit="10" d="M 55.276281 0.0005 L 77.401281 27.645031 " transform="matrix(1, 0, 0, -1, 10.837, 200.563)"/>
<path fill="none" stroke-width="0.79701" stroke-linecap="butt" stroke-linejoin="miter" stroke="rgb(0%, 0%, 0%)" stroke-opacity="1" stroke-dasharray="2.98883 2.98883" stroke-miterlimit="10" d="M 128.979406 0.0005 L 151.116125 27.645031 " transform="matrix(1, 0, 0, -1, 10.837, 200.563)"/>
<path fill="none" stroke-width="0.79701" stroke-linecap="butt" stroke-linejoin="miter" stroke="rgb(0%, 0%, 0%)" stroke-opacity="1" stroke-dasharray="2.98883 2.98883" stroke-miterlimit="10" d="M 22.108313 27.637219 L 77.401281 27.645031 " transform="matrix(1, 0, 0, -1, 10.837, 200.563)"/>
<path fill="none" stroke-width="0.79701" stroke-linecap="butt" stroke-linejoin="miter" stroke="rgb(0%, 0%, 0%)" stroke-opacity="1" stroke-dasharray="2.98883 2.98883" stroke-miterlimit="10" d="M 51.588781 64.488781 L 106.889562 64.5005 " transform="matrix(1, 0, 0, -1, 10.837, 200.563)"/>
<g fill="rgb(0%, 0%, 0%)" fill-opacity="1">
<use xlink:href="#glyph-0-3" x="63.48" y="208.372"/>
</g>
<g fill="rgb(0%, 0%, 0%)" fill-opacity="1">
<use xlink:href="#glyph-0-4" x="25.152" y="176.384"/>
</g>
<path fill="none" stroke-width="0.79701" stroke-linecap="butt" stroke-linejoin="miter" stroke="rgb(0%, 0%, 0%)" stroke-opacity="1" stroke-dasharray="0.79701 1.99255" stroke-miterlimit="10" d="M 77.401281 27.645031 L 77.385656 71.859875 " transform="matrix(1, 0, 0, -1, 10.837, 200.563)"/>
<path fill="none" stroke-width="0.79701" stroke-linecap="butt" stroke-linejoin="miter" stroke="rgb(0%, 0%, 0%)" stroke-opacity="1" stroke-dasharray="0.79701 1.99255" stroke-miterlimit="10" d="M 106.889562 64.5005 L 106.866125 127.137219 " transform="matrix(1, 0, 0, -1, 10.837, 200.563)"/>
<path fill="none" stroke-width="0.79701" stroke-linecap="butt" stroke-linejoin="miter" stroke="rgb(0%, 0%, 0%)" stroke-opacity="1" stroke-dasharray="0.79701 1.99255" stroke-miterlimit="10" d="M 180.604406 64.5005 L 180.56925 167.672375 " transform="matrix(1, 0, 0, -1, 10.837, 200.563)"/>
<path fill-rule="nonzero" fill="rgb(84.999084%, 84.999084%, 100%)" fill-opacity="0.6" stroke-width="0.79701" stroke-linecap="butt" stroke-linejoin="miter" stroke="rgb(0%, 0%, 100%)" stroke-opacity="1" stroke-miterlimit="10" d="M 77.401281 71.871594 L 151.116125 86.617687 L 180.604406 134.53175 L 106.889562 119.789562 Z M 77.401281 71.871594 " transform="matrix(1, 0, 0, -1, 10.837, 200.563)"/>
<path fill="none" stroke-width="0.79701" stroke-linecap="butt" stroke-linejoin="miter" stroke="rgb(0%, 0%, 0%)" stroke-opacity="1" stroke-dasharray="0.79701 1.99255" stroke-miterlimit="10" d="M 151.116125 27.645031 L 151.088781 97.652844 " transform="matrix(1, 0, 0, -1, 10.837, 200.563)"/>
<path fill="none" stroke-width="0.79701" stroke-linecap="butt" stroke-linejoin="miter" stroke="rgb(0%, 0%, 0%)" stroke-opacity="1" stroke-miterlimit="10" d="M 77.385656 71.859875 C 103.182531 77.020031 132.663 82.914562 151.088781 97.652844 " transform="matrix(1, 0, 0, -1, 10.837, 200.563)"/>
<path fill="none" stroke-width="0.79701" stroke-linecap="butt" stroke-linejoin="miter" stroke="rgb(0%, 0%, 0%)" stroke-opacity="1" stroke-miterlimit="10" d="M 77.385656 71.859875 C 87.705969 88.6255 99.495031 105.023937 106.866125 127.137219 " transform="matrix(1, 0, 0, -1, 10.837, 200.563)"/>
<path fill="none" stroke-width="0.79701" stroke-linecap="butt" stroke-linejoin="miter" stroke="rgb(0%, 0%, 0%)" stroke-opacity="1" stroke-miterlimit="10" d="M 106.866125 127.137219 C 132.663 130.820812 162.143469 149.246594 180.56925 167.672375 " transform="matrix(1, 0, 0, -1, 10.837, 200.563)"/>
<path fill="none" stroke-width="0.79701" stroke-linecap="butt" stroke-linejoin="miter" stroke="rgb(0%, 0%, 0%)" stroke-opacity="1" stroke-miterlimit="10" d="M 151.088781 97.652844 C 161.405188 114.238781 173.198156 143.71925 180.56925 167.672375 " transform="matrix(1, 0, 0, -1, 10.837, 200.563)"/>
<path fill-rule="nonzero" fill="rgb(0%, 0%, 0%)" fill-opacity="1" d="M 90.828125 128.691406 C 90.828125 127.257812 89.667969 126.097656 88.238281 126.097656 C 86.808594 126.097656 85.648438 127.257812 85.648438 128.691406 C 85.648438 130.121094 86.808594 131.28125 88.238281 131.28125 C 89.667969 131.28125 90.828125 130.121094 90.828125 128.691406 Z M 90.828125 128.691406 "/>
<g fill="rgb(0%, 0%, 0%)" fill-opacity="1">
<use xlink:href="#glyph-1-0" x="77.808" y="131.754"/>
</g>
<path fill-rule="nonzero" fill="rgb(0%, 0%, 100%)" fill-opacity="1" d="M 157.910156 87.777344 C 157.910156 86.347656 156.75 85.1875 155.320312 85.1875 C 153.890625 85.1875 152.730469 86.347656 152.730469 87.777344 C 152.730469 89.207031 153.890625 90.367188 155.320312 90.367188 C 156.75 90.367188 157.910156 89.207031 157.910156 87.777344 Z M 157.910156 87.777344 "/>
<g fill="rgb(0%, 0%, 100%)" fill-opacity="1">
<use xlink:href="#glyph-1-1" x="158.839" y="97.425"/>
</g>
<path fill="none" stroke-width="0.79701" stroke-linecap="butt" stroke-linejoin="miter" stroke="rgb(100%, 50%, 0%)" stroke-opacity="1" stroke-miterlimit="10" d="M 77.401281 71.871594 L 48.389562 140.902844 " transform="matrix(1, 0, 0, -1, 10.837, 200.563)"/>
<path fill-rule="nonzero" fill="rgb(100%, 50%, 0%)" fill-opacity="1" stroke-width="0.79701" stroke-linecap="butt" stroke-linejoin="miter" stroke="rgb(100%, 50%, 0%)" stroke-opacity="1" stroke-miterlimit="10" d="M 6.837015 0.000667917 L 1.287565 2.091511 L 3.116557 0.00072011 L 1.286678 -2.094716 Z M 6.837015 0.000667917 " transform="matrix(-0.38744, -0.92184, -0.92184, 0.38744, 60.35658, 62.34925)"/>
<g fill="rgb(100%, 50%, 0%)" fill-opacity="1">
<use xlink:href="#glyph-1-2" x="60.774" y="57.245"/>
</g>
<g fill="rgb(100%, 50%, 0%)" fill-opacity="1">
<use xlink:href="#glyph-1-3" x="60.988296" y="57.245"/>
</g>
<g fill="rgb(100%, 50%, 0%)" fill-opacity="1">
<use xlink:href="#glyph-2-0" x="69.106" y="57.245"/>
</g>
<g fill="rgb(100%, 50%, 0%)" fill-opacity="1">
<use xlink:href="#glyph-3-0" x="78.834" y="39.243"/>
</g>
<g fill="rgb(100%, 50%, 0%)" fill-opacity="1">
<use xlink:href="#glyph-3-1" x="78.834" y="55.382"/>
</g>
<g fill="rgb(100%, 50%, 0%)" fill-opacity="1">
<use xlink:href="#glyph-1-4" x="86.897" y="46.237"/>
</g>
<g fill="rgb(100%, 50%, 0%)" fill-opacity="1">
<use xlink:href="#glyph-1-5" x="86.991" y="57.195"/>
</g>
<g fill="rgb(100%, 50%, 0%)" fill-opacity="1">
<use xlink:href="#glyph-1-6" x="87.003" y="68.154"/>
</g>
<g fill="rgb(100%, 50%, 0%)" fill-opacity="1">
<use xlink:href="#glyph-3-2" x="91.523" y="39.243"/>
</g>
<g fill="rgb(100%, 50%, 0%)" fill-opacity="1">
<use xlink:href="#glyph-3-3" x="91.523" y="55.382"/>
</g>
<path fill-rule="nonzero" fill="rgb(100%, 50%, 0%)" fill-opacity="1" d="M 75.347656 91.832031 C 75.347656 90.402344 74.1875 89.242188 72.757812 89.242188 C 71.328125 89.242188 70.167969 90.402344 70.167969 91.832031 C 70.167969 93.261719 71.328125 94.421875 72.757812 94.421875 C 74.1875 94.421875 75.347656 93.261719 75.347656 91.832031 Z M 75.347656 91.832031 "/>
<g fill="rgb(100%, 50%, 0%)" fill-opacity="1">
<use xlink:href="#glyph-1-7" x="61.97" y="94.025"/>
</g>
</svg>
