<?xml version="1.0" encoding="UTF-8"?>
<svg xmlns="http://www.w3.org/2000/svg" xmlns:xlink="http://www.w3.org/1999/xlink" width="200.781pt" height="160.395pt" viewBox="0 0 200.781 160.395">
<defs>
<g>
<g id="glyph-0-0">
<path d="M 3.328125 -3.015625 C 3.390625 -3.265625 3.625 -4.1875 4.3125 -4.1875 C 4.359375 -4.1875 4.609375 -4.1875 4.8125 -4.0625 C 4.53125 -4 4.34375 -3.765625 4.34375 -3.515625 C 4.34375 -3.359375 4.453125 -3.171875 4.71875 -3.171875 C 4.9375 -3.171875 5.25 -3.34375 5.25 -3.75 C 5.25 -4.265625 4.671875 -4.40625 4.328125 -4.40625 C 3.75 -4.40625 3.40625 -3.875 3.28125 -3.65625 C 3.03125 -4.3125 2.5 -4.40625 2.203125 -4.40625 C 1.171875 -4.40625 0.59375 -3.125 0.59375 -2.875 C 0.59375 -2.765625 0.703125 -2.765625 0.71875 -2.765625 C 0.796875 -2.765625 0.828125 -2.796875 0.84375 -2.875 C 1.1875 -3.9375 1.84375 -4.1875 2.1875 -4.1875 C 2.375 -4.1875 2.71875 -4.09375 2.71875 -3.515625 C 2.71875 -3.203125 2.546875 -2.546875 2.1875 -1.140625 C 2.03125 -0.53125 1.671875 -0.109375 1.234375 -0.109375 C 1.171875 -0.109375 0.953125 -0.109375 0.734375 -0.234375 C 0.984375 -0.296875 1.203125 -0.5 1.203125 -0.78125 C 1.203125 -1.046875 0.984375 -1.125 0.84375 -1.125 C 0.53125 -1.125 0.296875 -0.875 0.296875 -0.546875 C 0.296875 -0.09375 0.78125 0.109375 1.21875 0.109375 C 1.890625 0.109375 2.25 -0.59375 2.265625 -0.640625 C 2.390625 -0.28125 2.75 0.109375 3.34375 0.109375 C 4.375 0.109375 4.9375 -1.171875 4.9375 -1.421875 C 4.9375 -1.53125 4.859375 -1.53125 4.828125 -1.53125 C 4.734375 -1.53125 4.71875 -1.484375 4.6875 -1.421875 C 4.359375 -0.34375 3.6875 -0.109375 3.375 -0.109375 C 2.984375 -0.109375 2.828125 -0.421875 2.828125 -0.765625 C 2.828125 -0.984375 2.875 -1.203125 2.984375 -1.640625 Z M 3.328125 -3.015625 "/>
</g>
<g id="glyph-0-1">
<path d="M 3.65625 -3.984375 L 4.515625 -3.984375 C 4.71875 -3.984375 4.8125 -3.984375 4.8125 -4.1875 C 4.8125 -4.296875 4.71875 -4.296875 4.546875 -4.296875 L 3.71875 -4.296875 L 3.921875 -5.4375 C 3.96875 -5.640625 4.109375 -6.34375 4.171875 -6.46875 C 4.25 -6.65625 4.421875 -6.8125 4.640625 -6.8125 C 4.671875 -6.8125 4.9375 -6.8125 5.125 -6.625 C 4.6875 -6.59375 4.578125 -6.234375 4.578125 -6.09375 C 4.578125 -5.859375 4.765625 -5.734375 4.953125 -5.734375 C 5.21875 -5.734375 5.5 -5.96875 5.5 -6.34375 C 5.5 -6.796875 5.046875 -7.03125 4.640625 -7.03125 C 4.296875 -7.03125 3.671875 -6.84375 3.375 -5.859375 C 3.3125 -5.65625 3.28125 -5.546875 3.046875 -4.296875 L 2.359375 -4.296875 C 2.15625 -4.296875 2.046875 -4.296875 2.046875 -4.109375 C 2.046875 -3.984375 2.140625 -3.984375 2.328125 -3.984375 L 2.984375 -3.984375 L 2.25 -0.046875 C 2.0625 0.921875 1.890625 1.828125 1.375 1.828125 C 1.328125 1.828125 1.09375 1.828125 0.890625 1.640625 C 1.359375 1.609375 1.453125 1.25 1.453125 1.109375 C 1.453125 0.875 1.265625 0.75 1.078125 0.75 C 0.8125 0.75 0.53125 0.984375 0.53125 1.359375 C 0.53125 1.796875 0.96875 2.046875 1.375 2.046875 C 1.921875 2.046875 2.328125 1.453125 2.5 1.078125 C 2.828125 0.453125 3.046875 -0.75 3.0625 -0.828125 Z M 3.65625 -3.984375 "/>
</g>
<g id="glyph-0-2">
<path d="M 3.71875 -3.765625 C 3.53125 -4.140625 3.25 -4.40625 2.796875 -4.40625 C 1.640625 -4.40625 0.40625 -2.9375 0.40625 -1.484375 C 0.40625 -0.546875 0.953125 0.109375 1.71875 0.109375 C 1.921875 0.109375 2.421875 0.0625 3.015625 -0.640625 C 3.09375 -0.21875 3.453125 0.109375 3.921875 0.109375 C 4.28125 0.109375 4.5 -0.125 4.671875 -0.4375 C 4.828125 -0.796875 4.96875 -1.40625 4.96875 -1.421875 C 4.96875 -1.53125 4.875 -1.53125 4.84375 -1.53125 C 4.75 -1.53125 4.734375 -1.484375 4.703125 -1.34375 C 4.53125 -0.703125 4.359375 -0.109375 3.953125 -0.109375 C 3.671875 -0.109375 3.65625 -0.375 3.65625 -0.5625 C 3.65625 -0.78125 3.671875 -0.875 3.78125 -1.3125 C 3.890625 -1.71875 3.90625 -1.828125 4 -2.203125 L 4.359375 -3.59375 C 4.421875 -3.875 4.421875 -3.890625 4.421875 -3.9375 C 4.421875 -4.109375 4.3125 -4.203125 4.140625 -4.203125 C 3.890625 -4.203125 3.75 -3.984375 3.71875 -3.765625 Z M 3.078125 -1.1875 C 3.015625 -1 3.015625 -0.984375 2.875 -0.8125 C 2.4375 -0.265625 2.03125 -0.109375 1.75 -0.109375 C 1.25 -0.109375 1.109375 -0.65625 1.109375 -1.046875 C 1.109375 -1.546875 1.421875 -2.765625 1.65625 -3.234375 C 1.96875 -3.8125 2.40625 -4.1875 2.8125 -4.1875 C 3.453125 -4.1875 3.59375 -3.375 3.59375 -3.3125 C 3.59375 -3.25 3.578125 -3.1875 3.5625 -3.140625 Z M 3.078125 -1.1875 "/>
</g>
<g id="glyph-0-3">
<path d="M 1.78125 -1.140625 C 1.390625 -0.484375 1 -0.34375 0.5625 -0.3125 C 0.4375 -0.296875 0.34375 -0.296875 0.34375 -0.109375 C 0.34375 -0.046875 0.40625 0 0.484375 0 C 0.75 0 1.0625 -0.03125 1.328125 -0.03125 C 1.671875 -0.03125 2.015625 0 2.328125 0 C 2.390625 0 2.515625 0 2.515625 -0.1875 C 2.515625 -0.296875 2.4375 -0.3125 2.359375 -0.3125 C 2.140625 -0.328125 1.890625 -0.40625 1.890625 -0.65625 C 1.890625 -0.78125 1.953125 -0.890625 2.03125 -1.03125 L 2.796875 -2.296875 L 5.296875 -2.296875 C 5.3125 -2.09375 5.453125 -0.734375 5.453125 -0.640625 C 5.453125 -0.34375 4.9375 -0.3125 4.734375 -0.3125 C 4.59375 -0.3125 4.5 -0.3125 4.5 -0.109375 C 4.5 0 4.609375 0 4.640625 0 C 5.046875 0 5.46875 -0.03125 5.875 -0.03125 C 6.125 -0.03125 6.765625 0 7.015625 0 C 7.0625 0 7.1875 0 7.1875 -0.203125 C 7.1875 -0.3125 7.09375 -0.3125 6.953125 -0.3125 C 6.34375 -0.3125 6.34375 -0.375 6.3125 -0.671875 L 5.703125 -6.890625 C 5.6875 -7.09375 5.6875 -7.140625 5.515625 -7.140625 C 5.359375 -7.140625 5.3125 -7.0625 5.25 -6.96875 Z M 2.984375 -2.609375 L 4.9375 -5.90625 L 5.265625 -2.609375 Z M 2.984375 -2.609375 "/>
</g>
<g id="glyph-1-0">
<path d="M 3.296875 2.390625 C 3.296875 2.359375 3.296875 2.34375 3.125 2.171875 C 1.890625 0.921875 1.5625 -0.96875 1.5625 -2.5 C 1.5625 -4.234375 1.9375 -5.96875 3.171875 -7.203125 C 3.296875 -7.328125 3.296875 -7.34375 3.296875 -7.375 C 3.296875 -7.453125 3.265625 -7.484375 3.203125 -7.484375 C 3.09375 -7.484375 2.203125 -6.796875 1.609375 -5.53125 C 1.109375 -4.4375 0.984375 -3.328125 0.984375 -2.5 C 0.984375 -1.71875 1.09375 -0.515625 1.640625 0.625 C 2.25 1.84375 3.09375 2.5 3.203125 2.5 C 3.265625 2.5 3.296875 2.46875 3.296875 2.390625 Z M 3.296875 2.390625 "/>
</g>
<g id="glyph-1-1">
<path d="M 2.875 -2.5 C 2.875 -3.265625 2.765625 -4.46875 2.21875 -5.609375 C 1.625 -6.828125 0.765625 -7.484375 0.671875 -7.484375 C 0.609375 -7.484375 0.5625 -7.4375 0.5625 -7.375 C 0.5625 -7.34375 0.5625 -7.328125 0.75 -7.140625 C 1.734375 -6.15625 2.296875 -4.578125 2.296875 -2.5 C 2.296875 -0.78125 1.9375 0.96875 0.703125 2.21875 C 0.5625 2.34375 0.5625 2.359375 0.5625 2.390625 C 0.5625 2.453125 0.609375 2.5 0.671875 2.5 C 0.765625 2.5 1.671875 1.8125 2.25 0.546875 C 2.765625 -0.546875 2.875 -1.65625 2.875 -2.5 Z M 2.875 -2.5 "/>
</g>
<g id="glyph-2-0">
<path d="M 3.59375 -5.515625 C 3.671875 -5.9375 3.703125 -6.15625 3.828125 -6.765625 C 4.109375 -6.828125 4.21875 -6.875 4.21875 -6.953125 C 4.21875 -7.03125 4.03125 -7.09375 3.15625 -7.28125 C 3.171875 -7.203125 3.171875 -7.140625 3.171875 -7.109375 C 3.171875 -6.78125 3.09375 -6.1875 2.953125 -5.515625 L 1.515625 -5.515625 C 1.15625 -5.515625 0.734375 -5.546875 0.5 -5.59375 L 0.5625 -5.265625 C 0.921875 -5.296875 1.203125 -5.3125 1.53125 -5.3125 L 2.90625 -5.3125 C 2.609375 -3.90625 2.140625 -2.671875 1.40625 -1.40625 C 1.015625 -0.75 0.765625 -0.390625 0.28125 0.1875 L 0.390625 0.296875 C 1.015625 -0.234375 1.34375 -0.59375 1.796875 -1.265625 C 2.203125 -1.859375 2.5 -2.390625 2.8125 -3.09375 L 4.515625 -3.09375 L 4.515625 0.03125 L 2.546875 0.03125 C 2.03125 0.03125 1.828125 0.015625 1.515625 -0.0625 L 1.5625 0.28125 C 1.90625 0.234375 2.234375 0.21875 2.5625 0.21875 L 8.265625 0.21875 C 8.328125 0.21875 8.375 0.203125 8.375 0.15625 C 8.375 0.140625 8.34375 0.109375 8.328125 0.078125 C 7.953125 -0.234375 7.828125 -0.328125 7.4375 -0.609375 C 7.203125 -0.328125 7.140625 -0.25 6.921875 0.03125 L 5.109375 0.03125 L 5.109375 -3.09375 L 7.484375 -3.09375 C 7.53125 -3.09375 7.578125 -3.109375 7.578125 -3.140625 C 7.578125 -3.15625 7.5625 -3.1875 7.53125 -3.203125 C 7.265625 -3.4375 6.984375 -3.640625 6.71875 -3.859375 C 6.5 -3.609375 6.421875 -3.546875 6.21875 -3.28125 L 2.890625 -3.28125 C 3.203125 -4 3.375 -4.546875 3.546875 -5.3125 L 8.15625 -5.3125 C 8.21875 -5.3125 8.265625 -5.34375 8.265625 -5.375 C 8.265625 -5.390625 8.265625 -5.40625 8.234375 -5.4375 C 7.859375 -5.765625 7.75 -5.875 7.359375 -6.1875 C 7.125 -5.90625 7.046875 -5.8125 6.828125 -5.515625 Z M 3.59375 -5.515625 "/>
</g>
<g id="glyph-2-1">
<path d="M 0.265625 -2.921875 C 0.71875 -3.546875 0.953125 -3.921875 1.296875 -4.609375 L 1.296875 -2.640625 C 1.296875 -2.09375 1.265625 -0.21875 1.234375 0.59375 C 1.25 0.671875 1.265625 0.6875 1.375 0.6875 C 1.53125 0.6875 1.703125 0.65625 1.78125 0.625 C 1.828125 0.609375 1.84375 0.578125 1.84375 0.515625 C 1.828125 -0.921875 1.828125 -1.0625 1.828125 -1.4375 L 1.828125 -4.5 C 2.046875 -4.5625 2.125 -4.59375 2.125 -4.671875 C 2.125 -4.71875 2.0625 -4.765625 1.921875 -4.796875 C 1.65625 -4.859375 1.59375 -4.875 1.453125 -4.921875 C 1.765625 -5.59375 1.921875 -5.96875 2.125 -6.625 C 2.390625 -6.671875 2.484375 -6.703125 2.484375 -6.78125 C 2.484375 -6.875 2.265625 -6.953125 1.546875 -7.15625 C 1.53125 -6.734375 1.40625 -6.171875 1.15625 -5.359375 C 0.890625 -4.53125 0.609375 -3.859375 0.15625 -2.984375 Z M 2.125 0.5625 C 2.546875 0.328125 2.765625 0.1875 3.078125 -0.109375 C 3.328125 -0.34375 3.4375 -0.46875 3.640625 -0.78125 C 3.9375 -0.8125 3.9375 -0.8125 3.96875 -0.84375 C 4 -0.859375 4.015625 -0.890625 4.015625 -0.921875 C 4.015625 -0.953125 3.984375 -0.984375 3.921875 -1 C 3.796875 -1.046875 3.484375 -1.140625 3.234375 -1.203125 C 3.171875 -1.015625 3.125 -0.890625 2.953125 -0.609375 C 2.71875 -0.21875 2.53125 0.015625 2.0625 0.484375 Z M 4.28125 -1.203125 C 4.6875 -0.75 4.921875 -0.375 5.09375 0.09375 C 5.140625 0.234375 5.1875 0.296875 5.25 0.296875 C 5.359375 0.296875 5.5 0 5.5 -0.234375 C 5.5 -0.515625 5.09375 -0.875 4.34375 -1.28125 Z M 6.53125 -6.109375 C 6.765625 -6.1875 6.8125 -6.21875 6.8125 -6.28125 C 6.8125 -6.3125 6.765625 -6.34375 6.703125 -6.359375 C 6.625 -6.390625 6.59375 -6.40625 5.96875 -6.53125 C 6 -5.78125 6 -5.765625 6 -5.28125 C 6 -4.0625 5.984375 -2.109375 5.953125 -1.234375 C 5.96875 -1.140625 6 -1.125 6.109375 -1.125 C 6.484375 -1.125 6.546875 -1.140625 6.546875 -1.28125 Z M 2.765625 -5.515625 C 2.765625 -4.21875 2.75 -2.15625 2.75 -1.5 C 2.75 -1.390625 2.78125 -1.359375 2.859375 -1.359375 C 3 -1.359375 3.25 -1.390625 3.265625 -1.421875 C 3.28125 -1.4375 3.296875 -1.453125 3.296875 -1.5 L 3.296875 -1.59375 L 4.6875 -1.59375 L 4.6875 -1.453125 C 4.703125 -1.390625 4.71875 -1.359375 4.78125 -1.359375 C 4.921875 -1.359375 5.15625 -1.40625 5.203125 -1.4375 C 5.234375 -1.453125 5.25 -1.484375 5.25 -1.53125 C 5.25 -1.546875 5.25 -1.5625 5.25 -1.578125 L 5.234375 -3.453125 L 5.234375 -6.15625 C 5.421875 -6.265625 5.5 -6.328125 5.5 -6.375 C 5.5 -6.421875 5.46875 -6.453125 5.375 -6.515625 C 5.1875 -6.640625 5.125 -6.6875 4.921875 -6.828125 C 4.796875 -6.6875 4.765625 -6.625 4.640625 -6.453125 L 3.34375 -6.453125 C 3.09375 -6.640625 3.015625 -6.6875 2.75 -6.828125 Z M 3.296875 -4.9375 L 3.296875 -6.265625 L 4.6875 -6.265625 L 4.6875 -4.9375 Z M 4.6875 -4.734375 L 4.6875 -3.390625 L 3.296875 -3.390625 L 3.296875 -4.734375 Z M 4.6875 -3.203125 L 4.6875 -1.78125 L 3.296875 -1.78125 L 3.296875 -3.203125 Z M 7.34375 -0.1875 C 7.34375 -0.078125 7.328125 -0.0625 7.25 -0.0625 C 7.25 -0.0625 7.234375 -0.0625 7.234375 -0.0625 C 6.703125 -0.0625 6.46875 -0.078125 5.8125 -0.125 L 5.8125 0 C 6.78125 0.15625 6.828125 0.171875 6.9375 0.578125 C 7.40625 0.515625 7.578125 0.46875 7.734375 0.375 C 7.859375 0.28125 7.9375 0.140625 7.9375 -0.015625 C 7.9375 -0.09375 7.9375 -0.09375 7.9375 -0.125 C 7.9375 -0.421875 7.9375 -0.4375 7.9375 -0.875 C 7.9375 -1.171875 7.9375 -1.515625 7.921875 -1.9375 L 7.921875 -6.546875 C 8.15625 -6.640625 8.21875 -6.671875 8.21875 -6.75 C 8.21875 -6.828125 8.109375 -6.859375 7.3125 -7 C 7.328125 -6.609375 7.34375 -6.484375 7.34375 -6.328125 Z M 7.34375 -0.1875 "/>
</g>
<g id="glyph-2-2">
<path d="M 6.515625 -4.6875 C 6.28125 -4.6875 6.140625 -4.6875 5.984375 -4.734375 L 6.015625 -4.453125 C 6.125 -4.46875 6.265625 -4.484375 6.515625 -4.484375 L 7.15625 -4.484375 C 7.109375 -3.921875 7.0625 -3.671875 6.828125 -2.953125 C 6.5625 -3.21875 6.4375 -3.328125 6.09375 -3.609375 L 6 -3.53125 C 6.5 -2.875 6.546875 -2.8125 6.703125 -2.59375 C 6.359375 -1.625 6.125 -1.171875 5.5625 -0.4375 L 5.625 -0.359375 C 6.1875 -0.875 6.53125 -1.34375 6.96875 -2.15625 C 7.171875 -1.796875 7.34375 -1.4375 7.40625 -1.25 C 7.53125 -0.921875 7.5625 -0.875 7.640625 -0.875 C 7.765625 -0.875 7.90625 -1.203125 7.90625 -1.46875 C 7.90625 -1.6875 7.71875 -1.984375 7.171875 -2.59375 C 7.421875 -3.171875 7.53125 -3.546875 7.703125 -4.375 C 7.921875 -4.453125 8 -4.515625 8 -4.59375 C 8 -4.625 7.984375 -4.671875 7.90625 -4.71875 C 7.703125 -4.890625 7.65625 -4.9375 7.4375 -5.078125 C 7.3125 -4.921875 7.265625 -4.859375 7.125 -4.6875 Z M 2.015625 -5.390625 L 2.015625 -6.78125 C 2.296875 -6.859375 2.375 -6.90625 2.375 -6.984375 C 2.375 -7.078125 2.3125 -7.09375 1.390625 -7.203125 C 1.421875 -6.671875 1.421875 -6.59375 1.421875 -6.421875 L 1.421875 -5.390625 L 0.9375 -5.390625 C 0.671875 -5.390625 0.59375 -5.40625 0.328125 -5.453125 L 0.359375 -5.15625 C 0.546875 -5.1875 0.65625 -5.1875 0.9375 -5.1875 L 1.390625 -5.1875 C 1.3125 -4.65625 1.234375 -4.34375 1.046875 -3.703125 C 0.71875 -2.640625 0.5 -2.078125 0.15625 -1.421875 L 0.25 -1.34375 C 0.59375 -1.796875 0.765625 -2.078125 1.03125 -2.65625 C 1.296875 -3.25 1.40625 -3.578125 1.59375 -4.21875 L 1.53125 -2.96875 L 1.484375 -1.140625 C 1.46875 -0.40625 1.453125 -0.203125 1.421875 0.546875 L 1.421875 0.5625 C 1.421875 0.640625 1.453125 0.671875 1.546875 0.671875 C 1.6875 0.671875 1.921875 0.640625 1.96875 0.625 C 2.015625 0.609375 2.03125 0.578125 2.03125 0.546875 C 2.03125 0.53125 2.03125 0.515625 2.03125 0.5 C 2.015625 -0.046875 2.015625 -0.234375 2.015625 -0.8125 L 2.015625 -4.4375 C 2.15625 -4.21875 2.296875 -3.75 2.375 -3.25 C 2.390625 -3.125 2.421875 -3.0625 2.484375 -3.0625 C 2.609375 -3.0625 2.78125 -3.34375 2.78125 -3.53125 C 2.78125 -3.8125 2.5 -4.203125 2.015625 -4.578125 L 2.015625 -5.1875 L 3.296875 -5.1875 C 3.34375 -5.1875 3.359375 -5.203125 3.359375 -5.234375 C 3.359375 -5.25 3.359375 -5.265625 3.34375 -5.28125 C 3.0625 -5.5625 2.96875 -5.640625 2.6875 -5.890625 C 2.5 -5.6875 2.453125 -5.609375 2.28125 -5.390625 Z M 8.171875 -6.484375 C 8.21875 -6.484375 8.25 -6.5 8.25 -6.53125 C 8.25 -6.53125 8.234375 -6.578125 8.21875 -6.59375 C 7.90625 -6.890625 7.796875 -6.984375 7.4375 -7.234375 C 7.234375 -7 7.171875 -6.921875 6.96875 -6.671875 L 3.5 -6.671875 C 3.328125 -6.671875 3.125 -6.6875 2.875 -6.734375 L 2.9375 -6.4375 C 3.0625 -6.453125 3.28125 -6.484375 3.5 -6.484375 L 4.546875 -6.484375 C 4.234375 -5.765625 4.21875 -5.765625 3.8125 -4.9375 C 3.78125 -4.890625 3.78125 -4.859375 3.78125 -4.84375 C 3.78125 -4.78125 3.890625 -4.765625 4.140625 -4.765625 C 4.25 -4.765625 4.28125 -4.78125 4.328125 -4.859375 L 4.4375 -5.078125 L 5.296875 -5.078125 C 5.296875 -4.265625 5.28125 -3.75 5.203125 -2.796875 C 5.125 -2.03125 5.015625 -1.171875 4.953125 -1.015625 C 4.90625 -0.921875 4.90625 -0.921875 4.53125 -0.921875 C 4.375 -0.921875 3.890625 -0.9375 3.5625 -0.96875 L 3.546875 -0.828125 C 4.34375 -0.71875 4.46875 -0.640625 4.515625 -0.265625 C 4.953125 -0.359375 5.046875 -0.375 5.171875 -0.453125 C 5.328125 -0.53125 5.40625 -0.703125 5.484375 -1.03125 C 5.65625 -1.921875 5.6875 -2.28125 5.828125 -4.9375 C 6.03125 -5.03125 6.109375 -5.09375 6.109375 -5.15625 C 6.109375 -5.1875 6.078125 -5.21875 6 -5.28125 C 5.8125 -5.4375 5.75 -5.484375 5.578125 -5.609375 C 5.421875 -5.484375 5.375 -5.4375 5.265625 -5.28125 L 4.53125 -5.28125 C 4.78125 -5.796875 4.78125 -5.796875 5.09375 -6.484375 Z M 3.5 -4.1875 C 3.265625 -4.34375 3.1875 -4.40625 2.9375 -4.546875 C 2.953125 -3.96875 2.953125 -3.953125 2.953125 -3.546875 C 2.953125 -2.921875 2.953125 -1.96875 2.9375 -1.421875 C 2.9375 -1.40625 2.9375 -1.390625 2.9375 -1.390625 C 2.9375 -1.34375 2.953125 -1.3125 3.015625 -1.3125 C 3.015625 -1.3125 3.03125 -1.3125 3.03125 -1.3125 C 3.078125 -1.3125 3.109375 -1.3125 3.171875 -1.3125 C 3.34375 -1.328125 3.390625 -1.359375 3.390625 -1.4375 C 3.390625 -1.4375 3.390625 -1.4375 3.390625 -1.453125 L 3.390625 -1.84375 L 4.109375 -1.84375 L 4.109375 -1.59375 C 4.109375 -1.59375 4.109375 -1.578125 4.109375 -1.578125 C 4.109375 -1.53125 4.125 -1.515625 4.171875 -1.515625 C 4.265625 -1.515625 4.484375 -1.546875 4.53125 -1.5625 C 4.5625 -1.578125 4.578125 -1.59375 4.578125 -1.625 C 4.578125 -1.625 4.578125 -1.640625 4.578125 -1.640625 C 4.578125 -2.125 4.578125 -2.1875 4.5625 -3.015625 C 4.5625 -3.203125 4.5625 -3.484375 4.5625 -3.859375 C 4.765625 -4.015625 4.78125 -4.03125 4.78125 -4.078125 C 4.78125 -4.109375 4.765625 -4.140625 4.703125 -4.1875 C 4.546875 -4.328125 4.5 -4.375 4.328125 -4.484375 C 4.203125 -4.359375 4.171875 -4.328125 4.078125 -4.1875 Z M 3.390625 -4 L 4.109375 -4 L 4.109375 -2.03125 L 3.390625 -2.03125 Z M 3.265625 0.0625 C 3.046875 0.0625 2.75 0.03125 2.5 -0.03125 L 2.53125 0.296875 C 2.671875 0.265625 2.671875 0.265625 3.265625 0.265625 L 8.390625 0.265625 C 8.421875 0.265625 8.4375 0.234375 8.4375 0.203125 C 8.4375 0.1875 8.4375 0.15625 8.40625 0.140625 C 8.09375 -0.1875 8 -0.265625 7.640625 -0.546875 C 7.421875 -0.296875 7.359375 -0.21875 7.15625 0.0625 Z M 3.265625 0.0625 "/>
</g>
<g id="glyph-2-3">
<path d="M 6.796875 -3.453125 L 6.796875 -3.3125 C 6.8125 -3.25 6.84375 -3.203125 6.921875 -3.203125 C 6.9375 -3.203125 7 -3.21875 7.09375 -3.21875 C 7.3125 -3.21875 7.375 -3.265625 7.375 -3.390625 C 7.359375 -4.328125 7.359375 -4.421875 7.359375 -4.515625 L 7.359375 -6.171875 C 7.515625 -6.265625 7.59375 -6.3125 7.59375 -6.328125 C 7.625 -6.34375 7.640625 -6.375 7.640625 -6.40625 C 7.640625 -6.4375 7.625 -6.453125 7.578125 -6.515625 C 7.359375 -6.6875 7.28125 -6.75 7.0625 -6.90625 C 6.921875 -6.765625 6.875 -6.703125 6.734375 -6.53125 L 4.40625 -6.53125 C 4.109375 -6.75 4.015625 -6.828125 3.6875 -7 C 3.71875 -6.5625 3.734375 -6.40625 3.734375 -5.90625 L 3.734375 -0.40625 C 3 -0.265625 2.90625 -0.25 2.671875 -0.234375 C 2.921875 0.609375 2.9375 0.6875 3.03125 0.6875 C 3.125 0.6875 3.140625 0.59375 3.140625 0.28125 C 4.21875 -0.03125 4.984375 -0.3125 6 -0.828125 L 5.953125 -0.9375 C 4.875 -0.625 4.6875 -0.5625 4.296875 -0.515625 L 4.296875 -3.453125 L 5.28125 -3.453125 C 5.375 -2.859375 5.53125 -2.328125 5.765625 -1.8125 C 6.15625 -0.9375 6.703125 -0.328125 7.75 0.40625 C 7.828125 0.203125 7.890625 0.125 8.03125 0.03125 C 8.15625 -0.0625 8.234375 -0.078125 8.421875 -0.09375 L 8.4375 -0.21875 C 8.171875 -0.28125 8.0625 -0.3125 7.921875 -0.390625 C 7.640625 -0.515625 7.234375 -0.765625 6.9375 -0.984375 C 6.625 -1.234375 6.40625 -1.46875 6.171875 -1.765625 C 7.109375 -2.296875 7.234375 -2.375 7.859375 -2.8125 C 8.015625 -2.78125 8.078125 -2.765625 8.109375 -2.765625 C 8.171875 -2.765625 8.21875 -2.8125 8.21875 -2.859375 C 8.21875 -2.9375 8.046875 -3.078125 7.5 -3.421875 C 7.3125 -3.109375 7.15625 -2.90625 6.75 -2.5 C 6.515625 -2.25 6.359375 -2.125 6.09375 -1.890625 C 5.75 -2.375 5.59375 -2.78125 5.453125 -3.453125 Z M 6.796875 -5.15625 L 4.296875 -5.15625 L 4.296875 -6.34375 L 6.796875 -6.34375 Z M 6.796875 -4.953125 L 6.796875 -3.65625 L 4.296875 -3.65625 L 4.296875 -4.953125 Z M 0.875 -5.9375 L 0.875 -2.90625 C 0.875 -1.609375 0.875 -1.078125 0.84375 0.5 C 0.84375 0.515625 0.84375 0.53125 0.84375 0.53125 C 0.84375 0.609375 0.890625 0.640625 1.03125 0.640625 C 1.109375 0.640625 1.234375 0.625 1.328125 0.609375 C 1.40625 0.59375 1.4375 0.578125 1.453125 0.5 C 1.453125 0.296875 1.4375 0.125 1.4375 0.03125 C 1.4375 -0.28125 1.4375 -0.515625 1.4375 -0.5625 C 1.4375 -0.828125 1.421875 -1.03125 1.421875 -1.046875 L 1.421875 -1.6875 C 1.953125 -1.5625 2 -1.515625 2.09375 -1.15625 C 2.421875 -1.1875 2.578125 -1.25 2.796875 -1.4375 C 3.03125 -1.640625 3.15625 -1.96875 3.15625 -2.421875 C 3.15625 -2.75 3.078125 -3.09375 2.921875 -3.4375 C 2.75 -3.8125 2.5625 -4.03125 2.09375 -4.40625 C 2.484375 -5 2.578125 -5.15625 2.703125 -5.375 C 3.109375 -6.125 3.109375 -6.125 3.25 -6.34375 C 3.453125 -6.359375 3.546875 -6.40625 3.546875 -6.484375 C 3.546875 -6.515625 3.515625 -6.546875 3.453125 -6.609375 L 2.90625 -7.0625 C 2.78125 -6.90625 2.75 -6.859375 2.609375 -6.703125 L 1.484375 -6.703125 C 1.21875 -6.921875 1.140625 -6.96875 0.84375 -7.140625 C 0.875 -6.828125 0.875 -6.703125 0.875 -6.421875 Z M 1.421875 -6.515625 L 2.609375 -6.515625 C 2.546875 -6.265625 2.546875 -6.265625 2.484375 -6.09375 C 2.359375 -5.75 2.25 -5.421875 2.125 -5.078125 C 2 -4.671875 2 -4.671875 1.84375 -4.34375 C 2.125 -4.140625 2.25 -4 2.375 -3.71875 C 2.546875 -3.375 2.640625 -2.96875 2.640625 -2.59375 C 2.640625 -2.328125 2.578125 -2.0625 2.484375 -1.890625 C 2.4375 -1.8125 2.390625 -1.78125 2.296875 -1.78125 C 2.140625 -1.78125 1.75 -1.8125 1.421875 -1.859375 Z M 1.421875 -6.515625 "/>
</g>
<g id="glyph-2-4">
<path d="M 1.421875 -5.375 C 1.046875 -5.375 0.859375 -5.40625 0.53125 -5.453125 L 0.609375 -5.140625 C 0.890625 -5.171875 1.1875 -5.1875 1.421875 -5.1875 L 2.890625 -5.1875 C 2.328125 -3.640625 1.53125 -2.421875 0.34375 -1.234375 L 0.4375 -1.140625 C 1.3125 -1.765625 1.875 -2.34375 2.453125 -3.171875 L 2.453125 -2.265625 C 2.453125 -1.0625 2.4375 -0.09375 2.390625 0.46875 C 2.390625 0.5625 2.4375 0.59375 2.59375 0.59375 C 2.9375 0.59375 3.015625 0.5625 3.03125 0.4375 L 3.03125 -0.15625 L 6.40625 -0.15625 L 6.40625 0.46875 C 6.40625 0.5625 6.4375 0.578125 6.578125 0.578125 C 6.9375 0.578125 7 0.546875 7.015625 0.40625 C 7 -0.140625 6.984375 -2.078125 6.984375 -2.375 C 6.984375 -2.5 6.984375 -2.53125 6.984375 -2.671875 C 7.28125 -2.84375 7.28125 -2.84375 7.28125 -2.890625 C 7.28125 -2.921875 7.265625 -2.953125 7.21875 -3.015625 C 7.015625 -3.203125 6.9375 -3.265625 6.703125 -3.4375 C 6.53125 -3.28125 6.484375 -3.21875 6.328125 -3.046875 L 3.140625 -3.046875 C 2.890625 -3.234375 2.828125 -3.28125 2.609375 -3.390625 C 2.953125 -3.9375 3.25 -4.5 3.53125 -5.1875 L 7.984375 -5.1875 C 8.046875 -5.1875 8.09375 -5.203125 8.09375 -5.25 C 8.09375 -5.265625 8.078125 -5.296875 8.0625 -5.328125 C 7.765625 -5.625 7.65625 -5.71875 7.3125 -6 C 7.0625 -5.734375 6.984375 -5.65625 6.75 -5.375 L 3.609375 -5.375 C 3.796875 -5.84375 3.859375 -6.046875 4.03125 -6.65625 C 4.34375 -6.671875 4.453125 -6.703125 4.453125 -6.8125 C 4.453125 -6.859375 4.40625 -6.90625 4.28125 -6.9375 C 4.265625 -6.9375 4.09375 -7 3.84375 -7.0625 C 3.734375 -7.09375 3.59375 -7.140625 3.390625 -7.1875 C 3.34375 -6.703125 3.21875 -6.171875 2.953125 -5.375 Z M 3.03125 -2.859375 L 6.390625 -2.859375 L 6.390625 -0.359375 L 3.03125 -0.359375 Z M 3.03125 -2.859375 "/>
</g>
</g>
</defs>
<path fill="none" stroke-width="0.79701" stroke-linecap="butt" stroke-linejoin="miter" stroke="rgb(0%, 0%, 0%)" stroke-opacity="1" stroke-miterlimit="10" d="M -28.347094 -0.00175 L 152.199781 -0.00175 " transform="matrix(1, 0, 0, -1, 33.726, 140.842)"/>
<path fill-rule="nonzero" fill="rgb(0%, 0%, 0%)" fill-opacity="1" stroke-width="0.79701" stroke-linecap="butt" stroke-linejoin="miter" stroke="rgb(0%, 0%, 0%)" stroke-opacity="1" stroke-miterlimit="10" d="M 4.84422 -0.00175 L 1.285626 1.345906 L 2.46922 -0.00175 L 1.285626 -1.3455 Z M 4.84422 -0.00175 " transform="matrix(1, 0, 0, -1, 183.65578, 140.842)"/>
<g fill="rgb(0%, 0%, 0%)" fill-opacity="1">
<use xlink:href="#glyph-0-0" x="186.785" y="148.85"/>
</g>
<path fill="none" stroke-width="0.79701" stroke-linecap="butt" stroke-linejoin="miter" stroke="rgb(0%, 0%, 0%)" stroke-opacity="1" stroke-miterlimit="10" d="M 0.0005625 -14.173625 L 0.0005625 123.853719 " transform="matrix(1, 0, 0, -1, 33.726, 140.842)"/>
<path fill-rule="nonzero" fill="rgb(0%, 0%, 0%)" fill-opacity="1" stroke-width="0.79701" stroke-linecap="butt" stroke-linejoin="miter" stroke="rgb(0%, 0%, 0%)" stroke-opacity="1" stroke-miterlimit="10" d="M 4.841071 -0.0005625 L 1.286384 1.347094 L 2.469978 -0.0005625 L 1.286384 -1.348219 Z M 4.841071 -0.0005625 " transform="matrix(0, -1, -1, 0, 33.726, 19.25904)"/>
<g fill="rgb(0%, 0%, 0%)" fill-opacity="1">
<use xlink:href="#glyph-0-1" x="10.615" y="15.774"/>
</g>
<g fill="rgb(0%, 0%, 0%)" fill-opacity="1">
<use xlink:href="#glyph-1-0" x="16.565" y="15.774"/>
</g>
<g fill="rgb(0%, 0%, 0%)" fill-opacity="1">
<use xlink:href="#glyph-0-0" x="20.439" y="15.774"/>
</g>
<g fill="rgb(0%, 0%, 0%)" fill-opacity="1">
<use xlink:href="#glyph-1-1" x="26.133" y="15.774"/>
</g>
<path fill="none" stroke-width="1.19553" stroke-linecap="butt" stroke-linejoin="miter" stroke="rgb(0%, 0%, 0%)" stroke-opacity="1" stroke-miterlimit="10" d="M 8.504469 36.967 L 10.191969 38.509969 L 11.875562 40.002156 L 13.563062 41.443563 L 15.246656 42.834188 L 16.934156 44.181844 L 18.621656 45.482625 L 20.30525 46.736531 L 21.99275 47.947469 L 23.68025 49.119344 L 25.363844 50.252156 L 27.051344 51.342 L 28.734937 52.396688 L 30.422437 53.416219 L 32.109937 54.400594 L 33.793531 55.353719 L 35.481031 56.275594 L 37.168531 57.166219 L 38.852125 58.0295 L 40.539625 58.861531 L 42.223219 59.670125 L 43.910719 60.455281 L 45.598219 61.217 L 47.281812 61.959188 L 48.969312 62.677938 L 50.656812 63.381063 L 52.340406 64.064656 L 54.027906 64.732625 L 55.7115 65.388875 L 57.399 66.0295 L 59.0865 66.658406 L 60.770094 67.2795 L 62.457594 67.888875 L 64.145094 68.494344 L 65.828688 69.092 L 67.516188 69.689656 L 69.199781 70.2795 L 72.574781 71.459188 L 74.258375 72.052938 L 75.945875 72.646688 L 77.633375 73.244344 L 79.316969 73.845906 L 81.004469 74.459188 L 82.688063 75.080281 L 84.375563 75.713094 L 86.063063 76.353719 L 87.746656 77.006063 L 89.434156 77.677938 L 91.121656 78.361531 L 92.80525 79.06075 L 94.49275 79.7795 L 96.176344 80.521688 L 97.863844 81.283406 L 99.551344 82.068563 L 101.234938 82.877156 L 102.922438 83.713094 L 104.609938 84.576375 L 106.293531 85.467 L 107.981031 86.388875 L 109.664625 87.334188 L 111.352125 88.322469 L 113.039625 89.342 L 114.723219 90.400594 L 116.410719 91.490438 L 118.098219 92.62325 L 119.781813 93.795125 L 121.469313 95.009969 L 123.152906 96.267781 L 124.840406 97.56075 L 126.527906 98.9045 L 128.2115 100.299031 L 129.899 101.740438 L 131.582594 103.232625 L 133.270094 104.7795 L 134.957594 106.377156 L 136.641188 108.0295 L 138.328688 109.736531 L 140.016188 111.502156 L 141.699781 113.314656 " transform="matrix(1, 0, 0, -1, 33.726, 140.842)"/>
<path fill="none" stroke-width="0.59776" stroke-linecap="butt" stroke-linejoin="miter" stroke="rgb(0%, 0%, 0%)" stroke-opacity="1" stroke-dasharray="2.98883 2.98883" stroke-miterlimit="10" d="M 70.86775 -0.00175 L 70.86775 70.861531 " transform="matrix(1, 0, 0, -1, 33.726, 140.842)"/>
<path fill="none" stroke-width="0.59776" stroke-linecap="butt" stroke-linejoin="miter" stroke="rgb(0%, 0%, 0%)" stroke-opacity="1" stroke-dasharray="2.98883 2.98883" stroke-miterlimit="10" d="M 0.0005625 70.861531 L 70.86775 70.861531 " transform="matrix(1, 0, 0, -1, 33.726, 140.842)"/>
<path fill-rule="nonzero" fill="rgb(100%, 100%, 100%)" fill-opacity="1" stroke-width="0.3985" stroke-linecap="butt" stroke-linejoin="miter" stroke="rgb(0%, 0%, 0%)" stroke-opacity="1" stroke-miterlimit="10" d="M 73.856031 70.861531 C 73.856031 72.513875 72.516188 73.853719 70.86775 73.853719 C 69.215406 73.853719 67.879469 72.513875 67.879469 70.861531 C 67.879469 69.213094 69.215406 67.87325 70.86775 67.87325 C 72.516188 67.87325 73.856031 69.213094 73.856031 70.861531 Z M 73.856031 70.861531 " transform="matrix(1, 0, 0, -1, 33.726, 140.842)"/>
<g fill="rgb(0%, 0%, 0%)" fill-opacity="1">
<use xlink:href="#glyph-0-2" x="101.959" y="148.651"/>
</g>
<g fill="rgb(0%, 0%, 0%)" fill-opacity="1">
<use xlink:href="#glyph-0-3" x="22.734" y="73.384"/>
</g>
<path fill="none" stroke-width="1.19553" stroke-linecap="butt" stroke-linejoin="miter" stroke="rgb(100%, 0%, 0%)" stroke-opacity="1" stroke-miterlimit="10" d="M 22.676344 48.427938 L 24.047437 49.369344 L 25.414625 50.283406 L 26.781812 51.170125 L 28.149 52.033406 L 29.516187 52.87325 L 30.887281 53.689656 L 32.254469 54.486531 L 33.621656 55.259969 L 34.988844 56.009969 L 36.359937 56.744344 L 37.727125 57.455281 L 39.094312 58.150594 L 40.4615 58.826375 L 41.832594 59.482625 L 43.199781 60.127156 L 44.566969 60.756063 L 45.934156 61.369344 L 47.30525 61.967 L 48.672437 62.552938 L 50.039625 63.127156 L 51.406812 63.689656 L 52.777906 64.236531 L 54.145094 64.7795 L 55.512281 65.31075 L 56.879469 65.834188 L 58.246656 66.345906 L 59.61775 66.857625 L 60.984937 67.357625 L 58.949781 66.619344 " transform="matrix(1, 0, 0, -1, 33.726, 140.842)"/>
<path fill-rule="nonzero" fill="rgb(100%, 0%, 0%)" fill-opacity="1" stroke-width="1.00871" stroke-linecap="butt" stroke-linejoin="miter" stroke="rgb(100%, 0%, 0%)" stroke-opacity="1" stroke-miterlimit="10" d="M 4.542503 -0.00202874 L 1.629308 1.108312 L 2.611172 0.000207227 L 1.627001 -1.109698 Z M 4.542503 -0.00202874 " transform="matrix(0.9401, -0.34088, -0.34088, -0.9401, 90.45937, 75.02701)"/>
<g fill="rgb(100%, 0%, 0%)" fill-opacity="1">
<use xlink:href="#glyph-2-0" x="53.321" y="103.765"/>
<use xlink:href="#glyph-2-1" x="61.94862" y="103.765"/>
<use xlink:href="#glyph-2-2" x="70.57624" y="103.765"/>
<use xlink:href="#glyph-2-3" x="79.20386" y="103.765"/>
</g>
<path fill="none" stroke-width="1.19553" stroke-linecap="butt" stroke-linejoin="miter" stroke="rgb(0%, 0%, 100%)" stroke-opacity="1" stroke-miterlimit="10" d="M 127.559156 99.759969 L 125.899 98.396688 L 124.238844 97.095906 L 122.574781 95.826375 L 120.914625 94.607625 L 119.254469 93.424031 L 117.594313 92.2795 L 115.93025 91.177938 L 114.270094 90.107625 L 112.609938 89.076375 L 110.945875 88.084188 L 109.285719 87.119344 L 107.625563 86.193563 L 105.9615 85.287313 L 104.301344 84.412313 L 102.641188 83.576375 L 100.977125 82.752156 L 99.316969 81.959188 L 97.656813 81.189656 L 95.99275 80.439656 L 94.332594 79.713094 L 92.672438 79.006063 L 91.008375 78.314656 L 89.348219 77.642781 L 87.688063 76.982625 L 86.027906 76.338094 L 84.363844 75.705281 L 82.703688 75.084188 L 81.043531 74.474813 L 82.781813 75.107625 " transform="matrix(1, 0, 0, -1, 33.726, 140.842)"/>
<path fill-rule="nonzero" fill="rgb(0%, 0%, 100%)" fill-opacity="1" stroke-width="1.00871" stroke-linecap="butt" stroke-linejoin="miter" stroke="rgb(0%, 0%, 100%)" stroke-opacity="1" stroke-miterlimit="10" d="M 4.540636 0.000613812 L 1.630136 1.106908 L 2.611604 0.000898124 L 1.629327 -1.108809 Z M 4.540636 0.000613812 " transform="matrix(-0.93954, 0.34236, 0.34236, 0.93954, 118.72293, 64.92536)"/>
<g fill="rgb(0%, 0%, 100%)" fill-opacity="1">
<use xlink:href="#glyph-2-4" x="129.857" y="37.074"/>
<use xlink:href="#glyph-2-1" x="138.48462" y="37.074"/>
<use xlink:href="#glyph-2-2" x="147.11224" y="37.074"/>
<use xlink:href="#glyph-2-3" x="155.73986" y="37.074"/>
</g>
</svg>
