<?xml version="1.0" encoding="UTF-8"?>
<svg xmlns="http://www.w3.org/2000/svg" xmlns:xlink="http://www.w3.org/1999/xlink" width="332.843pt" height="447.095pt" viewBox="0 0 332.843 447.095">
<defs>
<g>
<g id="glyph-0-0">
<path d="M 3.328125 -3.015625 C 3.390625 -3.265625 3.625 -4.1875 4.3125 -4.1875 C 4.359375 -4.1875 4.609375 -4.1875 4.8125 -4.0625 C 4.53125 -4 4.34375 -3.765625 4.34375 -3.515625 C 4.34375 -3.359375 4.453125 -3.171875 4.71875 -3.171875 C 4.9375 -3.171875 5.25 -3.34375 5.25 -3.75 C 5.25 -4.265625 4.671875 -4.40625 4.328125 -4.40625 C 3.75 -4.40625 3.40625 -3.875 3.28125 -3.65625 C 3.03125 -4.3125 2.5 -4.40625 2.203125 -4.40625 C 1.171875 -4.40625 0.59375 -3.125 0.59375 -2.875 C 0.59375 -2.765625 0.703125 -2.765625 0.71875 -2.765625 C 0.796875 -2.765625 0.828125 -2.796875 0.84375 -2.875 C 1.1875 -3.9375 1.84375 -4.1875 2.1875 -4.1875 C 2.375 -4.1875 2.71875 -4.09375 2.71875 -3.515625 C 2.71875 -3.203125 2.546875 -2.546875 2.1875 -1.140625 C 2.03125 -0.53125 1.671875 -0.109375 1.234375 -0.109375 C 1.171875 -0.109375 0.953125 -0.109375 0.734375 -0.234375 C 0.984375 -0.296875 1.203125 -0.5 1.203125 -0.78125 C 1.203125 -1.046875 0.984375 -1.125 0.84375 -1.125 C 0.53125 -1.125 0.296875 -0.875 0.296875 -0.546875 C 0.296875 -0.09375 0.78125 0.109375 1.21875 0.109375 C 1.890625 0.109375 2.25 -0.59375 2.265625 -0.640625 C 2.390625 -0.28125 2.75 0.109375 3.34375 0.109375 C 4.375 0.109375 4.9375 -1.171875 4.9375 -1.421875 C 4.9375 -1.53125 4.859375 -1.53125 4.828125 -1.53125 C 4.734375 -1.53125 4.71875 -1.484375 4.6875 -1.421875 C 4.359375 -0.34375 3.6875 -0.109375 3.375 -0.109375 C 2.984375 -0.109375 2.828125 -0.421875 2.828125 -0.765625 C 2.828125 -0.984375 2.875 -1.203125 2.984375 -1.640625 Z M 3.328125 -3.015625 "/>
</g>
<g id="glyph-0-1">
<path d="M 4.84375 -3.796875 C 4.890625 -3.9375 4.890625 -3.953125 4.890625 -4.03125 C 4.890625 -4.203125 4.75 -4.296875 4.59375 -4.296875 C 4.5 -4.296875 4.34375 -4.234375 4.25 -4.09375 C 4.234375 -4.03125 4.140625 -3.734375 4.109375 -3.546875 C 4.03125 -3.296875 3.96875 -3.015625 3.90625 -2.75 L 3.453125 -0.953125 C 3.421875 -0.8125 2.984375 -0.109375 2.328125 -0.109375 C 1.828125 -0.109375 1.71875 -0.546875 1.71875 -0.921875 C 1.71875 -1.375 1.890625 -2 2.21875 -2.875 C 2.375 -3.28125 2.421875 -3.390625 2.421875 -3.59375 C 2.421875 -4.03125 2.109375 -4.40625 1.609375 -4.40625 C 0.65625 -4.40625 0.296875 -2.953125 0.296875 -2.875 C 0.296875 -2.765625 0.390625 -2.765625 0.40625 -2.765625 C 0.515625 -2.765625 0.515625 -2.796875 0.5625 -2.953125 C 0.84375 -3.890625 1.234375 -4.1875 1.578125 -4.1875 C 1.65625 -4.1875 1.828125 -4.1875 1.828125 -3.875 C 1.828125 -3.625 1.71875 -3.359375 1.65625 -3.171875 C 1.25 -2.109375 1.078125 -1.546875 1.078125 -1.078125 C 1.078125 -0.1875 1.703125 0.109375 2.296875 0.109375 C 2.6875 0.109375 3.015625 -0.0625 3.296875 -0.34375 C 3.171875 0.171875 3.046875 0.671875 2.65625 1.203125 C 2.390625 1.53125 2.015625 1.828125 1.5625 1.828125 C 1.421875 1.828125 0.96875 1.796875 0.796875 1.40625 C 0.953125 1.40625 1.09375 1.40625 1.21875 1.28125 C 1.328125 1.203125 1.421875 1.0625 1.421875 0.875 C 1.421875 0.5625 1.15625 0.53125 1.0625 0.53125 C 0.828125 0.53125 0.5 0.6875 0.5 1.171875 C 0.5 1.671875 0.9375 2.046875 1.5625 2.046875 C 2.578125 2.046875 3.609375 1.140625 3.890625 0.015625 Z M 4.84375 -3.796875 "/>
</g>
<g id="glyph-0-2">
<path d="M 1.328125 -0.828125 C 1.859375 -1.40625 2.15625 -1.65625 2.515625 -1.96875 C 2.515625 -1.96875 3.125 -2.5 3.484375 -2.859375 C 4.4375 -3.78125 4.65625 -4.265625 4.65625 -4.3125 C 4.65625 -4.40625 4.5625 -4.40625 4.546875 -4.40625 C 4.46875 -4.40625 4.453125 -4.390625 4.390625 -4.296875 C 4.09375 -3.8125 3.890625 -3.65625 3.65625 -3.65625 C 3.40625 -3.65625 3.296875 -3.8125 3.140625 -3.984375 C 2.953125 -4.203125 2.78125 -4.40625 2.453125 -4.40625 C 1.703125 -4.40625 1.25 -3.484375 1.25 -3.265625 C 1.25 -3.21875 1.28125 -3.15625 1.359375 -3.15625 C 1.453125 -3.15625 1.46875 -3.203125 1.5 -3.265625 C 1.6875 -3.734375 2.265625 -3.734375 2.34375 -3.734375 C 2.546875 -3.734375 2.734375 -3.671875 2.96875 -3.59375 C 3.375 -3.4375 3.484375 -3.4375 3.734375 -3.4375 C 3.375 -3.015625 2.546875 -2.296875 2.359375 -2.140625 L 1.453125 -1.296875 C 0.78125 -0.625 0.421875 -0.0625 0.421875 0.015625 C 0.421875 0.109375 0.53125 0.109375 0.546875 0.109375 C 0.625 0.109375 0.640625 0.09375 0.703125 -0.015625 C 0.9375 -0.375 1.234375 -0.640625 1.5625 -0.640625 C 1.78125 -0.640625 1.890625 -0.546875 2.140625 -0.265625 C 2.296875 -0.046875 2.484375 0.109375 2.765625 0.109375 C 3.765625 0.109375 4.34375 -1.15625 4.34375 -1.421875 C 4.34375 -1.46875 4.296875 -1.53125 4.21875 -1.53125 C 4.125 -1.53125 4.109375 -1.46875 4.078125 -1.390625 C 3.84375 -0.75 3.203125 -0.5625 2.875 -0.5625 C 2.6875 -0.5625 2.5 -0.625 2.296875 -0.6875 C 1.953125 -0.8125 1.796875 -0.859375 1.59375 -0.859375 C 1.578125 -0.859375 1.421875 -0.859375 1.328125 -0.828125 Z M 1.328125 -0.828125 "/>
</g>
<g id="glyph-1-0">
<path d="M 1.25 -0.765625 C 1.4375 -0.984375 1.921875 -1.4375 2.3125 -1.765625 C 2.984375 -2.328125 3.1875 -2.515625 3.296875 -2.640625 C 4.03125 -3.359375 4.28125 -3.8125 4.28125 -3.859375 C 4.28125 -3.875 4.28125 -3.96875 4.15625 -3.96875 C 4.078125 -3.96875 4.0625 -3.9375 4.015625 -3.859375 C 3.90625 -3.6875 3.65625 -3.296875 3.359375 -3.296875 C 3.171875 -3.296875 3.0625 -3.40625 2.859375 -3.625 C 2.640625 -3.859375 2.46875 -3.96875 2.234375 -3.96875 C 1.546875 -3.96875 1.125 -3.140625 1.125 -2.921875 C 1.125 -2.890625 1.140625 -2.8125 1.234375 -2.8125 C 1.328125 -2.8125 1.359375 -2.875 1.359375 -2.890625 C 1.53125 -3.328125 2.0625 -3.328125 2.140625 -3.328125 C 2.34375 -3.328125 2.5625 -3.265625 2.75 -3.1875 C 3.109375 -3.078125 3.265625 -3.078125 3.40625 -3.078125 C 3.125 -2.765625 2.625 -2.328125 2.046875 -1.84375 C 1.609375 -1.46875 1.328125 -1.1875 1.125 -1 C 0.796875 -0.640625 0.390625 -0.09375 0.390625 0 C 0.390625 0.0625 0.4375 0.09375 0.515625 0.09375 C 0.59375 0.09375 0.609375 0.0625 0.65625 0.015625 C 1 -0.53125 1.34375 -0.5625 1.4375 -0.5625 C 1.65625 -0.5625 1.78125 -0.4375 1.984375 -0.203125 C 2.1875 0.03125 2.390625 0.09375 2.5625 0.09375 C 3.484375 0.09375 4.03125 -1.046875 4.03125 -1.296875 C 4.03125 -1.375 3.96875 -1.40625 3.90625 -1.40625 C 3.8125 -1.40625 3.796875 -1.34375 3.78125 -1.296875 C 3.53125 -0.640625 2.890625 -0.53125 2.65625 -0.53125 C 2.5 -0.53125 2.3125 -0.578125 2.046875 -0.671875 C 1.859375 -0.71875 1.65625 -0.796875 1.46875 -0.796875 C 1.375 -0.796875 1.28125 -0.765625 1.25 -0.765625 Z M 1.25 -0.765625 "/>
</g>
<g id="glyph-1-1">
<path d="M 3.359375 -3.59375 L 4.15625 -3.59375 C 4.34375 -3.59375 4.4375 -3.59375 4.4375 -3.75 C 4.4375 -3.859375 4.34375 -3.859375 4.171875 -3.859375 L 3.40625 -3.859375 C 3.5 -4.40625 3.625 -5.140625 3.75 -5.625 C 3.828125 -5.96875 4.046875 -6.09375 4.21875 -6.09375 C 4.28125 -6.09375 4.484375 -6.078125 4.640625 -5.96875 C 4.453125 -5.9375 4.203125 -5.78125 4.203125 -5.484375 C 4.203125 -5.25 4.375 -5.15625 4.53125 -5.15625 C 4.78125 -5.15625 5.03125 -5.359375 5.03125 -5.6875 C 5.03125 -6.09375 4.640625 -6.328125 4.21875 -6.328125 C 3.8125 -6.328125 3.40625 -6.03125 3.21875 -5.671875 C 3.015625 -5.28125 2.953125 -4.9375 2.765625 -3.859375 L 2.125 -3.859375 C 1.953125 -3.859375 1.84375 -3.859375 1.84375 -3.703125 C 1.84375 -3.59375 1.953125 -3.59375 2.109375 -3.59375 L 2.71875 -3.59375 C 2.46875 -2.28125 2.15625 -0.5 1.953125 0.4375 C 1.84375 0.9375 1.703125 1.609375 1.28125 1.609375 C 1.140625 1.609375 0.953125 1.5625 0.875 1.484375 C 1.09375 1.453125 1.3125 1.265625 1.3125 1 C 1.3125 0.765625 1.140625 0.671875 0.984375 0.671875 C 0.734375 0.671875 0.484375 0.875 0.484375 1.203125 C 0.484375 1.625 0.890625 1.84375 1.28125 1.84375 C 2.1875 1.84375 2.609375 0.34375 2.75 -0.421875 Z M 3.359375 -3.59375 "/>
</g>
<g id="glyph-1-2">
<path d="M 4.40625 -3.625 C 4.078125 -3.5625 3.984375 -3.28125 3.984375 -3.140625 C 3.984375 -2.96875 4.109375 -2.8125 4.328125 -2.8125 C 4.578125 -2.8125 4.828125 -3.03125 4.828125 -3.34375 C 4.828125 -3.765625 4.375 -3.96875 3.953125 -3.96875 C 3.421875 -3.96875 3.109375 -3.484375 3 -3.296875 C 2.828125 -3.734375 2.4375 -3.96875 2 -3.96875 C 1.046875 -3.96875 0.515625 -2.8125 0.515625 -2.578125 C 0.515625 -2.5 0.578125 -2.46875 0.640625 -2.46875 C 0.71875 -2.46875 0.75 -2.515625 0.765625 -2.578125 C 1.046875 -3.46875 1.640625 -3.734375 1.984375 -3.734375 C 2.25 -3.734375 2.46875 -3.5625 2.46875 -3.140625 C 2.46875 -2.828125 2.09375 -1.390625 1.96875 -0.953125 C 1.90625 -0.6875 1.625 -0.125 1.140625 -0.125 C 0.953125 -0.125 0.765625 -0.1875 0.6875 -0.234375 C 0.921875 -0.28125 1.109375 -0.5 1.109375 -0.71875 C 1.109375 -0.953125 0.9375 -1.046875 0.765625 -1.046875 C 0.5 -1.046875 0.265625 -0.828125 0.265625 -0.515625 C 0.265625 -0.078125 0.75 0.09375 1.125 0.09375 C 1.65625 0.09375 1.953125 -0.328125 2.09375 -0.578125 C 2.3125 0.015625 2.84375 0.09375 3.078125 0.09375 C 4.046875 0.09375 4.5625 -1.0625 4.5625 -1.28125 C 4.5625 -1.328125 4.53125 -1.390625 4.453125 -1.390625 C 4.34375 -1.390625 4.34375 -1.359375 4.296875 -1.21875 C 4.09375 -0.578125 3.578125 -0.125 3.109375 -0.125 C 2.859375 -0.125 2.609375 -0.28125 2.609375 -0.71875 C 2.609375 -0.921875 2.734375 -1.40625 2.8125 -1.75 C 2.859375 -1.90625 3.09375 -2.875 3.109375 -2.9375 C 3.21875 -3.265625 3.484375 -3.734375 3.953125 -3.734375 C 4.109375 -3.734375 4.28125 -3.71875 4.40625 -3.625 Z M 4.40625 -3.625 "/>
</g>
<g id="glyph-1-3">
<path d="M 1.625 -0.140625 C 1.625 0.15625 1.625 0.890625 0.96875 1.53125 C 0.921875 1.578125 0.921875 1.59375 0.921875 1.625 C 0.921875 1.6875 0.984375 1.734375 1.03125 1.734375 C 1.125 1.734375 1.859375 1.03125 1.859375 -0.015625 C 1.859375 -0.578125 1.65625 -0.96875 1.28125 -0.96875 C 0.96875 -0.96875 0.796875 -0.734375 0.796875 -0.484375 C 0.796875 -0.234375 0.96875 0 1.28125 0 C 1.40625 0 1.546875 -0.046875 1.625 -0.140625 Z M 1.625 -0.140625 "/>
</g>
<g id="glyph-1-4">
<path d="M 4.5 -3.453125 C 4.515625 -3.5 4.53125 -3.546875 4.53125 -3.609375 C 4.53125 -3.71875 4.453125 -3.859375 4.25 -3.859375 C 4.140625 -3.859375 3.96875 -3.796875 3.90625 -3.625 C 3.890625 -3.59375 3.796875 -3.21875 3.75 -3.015625 L 3.296875 -1.234375 C 3.234375 -0.96875 3.234375 -0.953125 3.203125 -0.875 C 3.203125 -0.828125 2.828125 -0.125 2.171875 -0.125 C 1.625 -0.125 1.625 -0.6875 1.625 -0.859375 C 1.625 -1.265625 1.734375 -1.703125 2.125 -2.703125 C 2.203125 -2.921875 2.25 -3.046875 2.25 -3.203125 C 2.25 -3.65625 1.921875 -3.96875 1.484375 -3.96875 C 0.625 -3.96875 0.265625 -2.6875 0.265625 -2.578125 C 0.265625 -2.5 0.328125 -2.46875 0.390625 -2.46875 C 0.484375 -2.46875 0.5 -2.53125 0.53125 -2.640625 C 0.71875 -3.3125 1.078125 -3.734375 1.453125 -3.734375 C 1.671875 -3.734375 1.671875 -3.5625 1.671875 -3.4375 C 1.671875 -3.296875 1.625 -3.125 1.546875 -2.921875 C 1.125 -1.796875 1.015625 -1.421875 1.015625 -1 C 1.015625 0 1.828125 0.09375 2.15625 0.09375 C 2.59375 0.09375 2.90625 -0.140625 3.0625 -0.296875 C 2.953125 0.15625 2.859375 0.5625 2.5 1.015625 C 2.234375 1.375 1.875 1.609375 1.484375 1.609375 C 1.234375 1.609375 0.9375 1.53125 0.8125 1.28125 C 1.28125 1.28125 1.34375 0.875 1.34375 0.796875 C 1.34375 0.59375 1.203125 0.46875 1 0.46875 C 0.796875 0.46875 0.5 0.640625 0.5 1.046875 C 0.5 1.515625 0.921875 1.84375 1.484375 1.84375 C 2.390625 1.84375 3.375 1.0625 3.625 0.015625 Z M 4.5 -3.453125 "/>
</g>
<g id="glyph-1-5">
<path d="M 2.140625 -5.921875 C 2.171875 -6.046875 2.171875 -6.0625 2.171875 -6.09375 C 2.171875 -6.171875 2.125 -6.21875 2.046875 -6.21875 C 1.921875 -6.21875 1.125 -6.15625 0.953125 -6.140625 C 0.859375 -6.125 0.765625 -6.109375 0.765625 -5.96875 C 0.765625 -5.84375 0.859375 -5.84375 1 -5.84375 C 1.421875 -5.84375 1.421875 -5.78125 1.421875 -5.703125 C 1.421875 -5.65625 1.421875 -5.625 1.359375 -5.390625 L 0.890625 -3.5 C 0.765625 -3 0.640625 -2.53125 0.546875 -2.109375 C 0.484375 -1.890625 0.421875 -1.625 0.421875 -1.34375 C 0.421875 -0.5625 0.859375 0.09375 1.625 0.09375 C 2.671875 0.09375 3.828125 -1.171875 3.828125 -2.515625 C 3.828125 -3.421875 3.25 -3.96875 2.578125 -3.96875 C 2.125 -3.96875 1.734375 -3.65625 1.53125 -3.453125 Z M 1.40625 -2.9375 C 1.65625 -3.296875 2.109375 -3.734375 2.5625 -3.734375 C 2.984375 -3.734375 3.15625 -3.3125 3.15625 -2.890625 C 3.15625 -2.5 2.90625 -1.375 2.625 -0.90625 C 2.296875 -0.328125 1.90625 -0.125 1.625 -0.125 C 1.171875 -0.125 1 -0.578125 1 -1.03125 C 1 -1.34375 1.0625 -1.59375 1.265625 -2.40625 Z M 1.40625 -2.9375 "/>
</g>
<g id="glyph-1-6">
<path d="M 3.421875 -3.40625 C 3.25 -3.734375 2.984375 -3.96875 2.578125 -3.96875 C 1.53125 -3.96875 0.375 -2.71875 0.375 -1.359375 C 0.375 -0.375 1 0.09375 1.609375 0.09375 C 2.1875 0.09375 2.65625 -0.390625 2.8125 -0.5625 C 2.90625 -0.0625 3.359375 0.09375 3.640625 0.09375 C 3.90625 0.09375 4.125 -0.015625 4.328125 -0.390625 C 4.484375 -0.6875 4.609375 -1.25 4.609375 -1.28125 C 4.609375 -1.328125 4.578125 -1.390625 4.5 -1.390625 C 4.390625 -1.390625 4.375 -1.34375 4.34375 -1.171875 C 4.140625 -0.390625 3.953125 -0.125 3.671875 -0.125 C 3.4375 -0.125 3.390625 -0.34375 3.390625 -0.53125 C 3.390625 -0.703125 3.4375 -0.890625 3.515625 -1.203125 L 3.734375 -2.125 C 3.796875 -2.34375 3.96875 -3.015625 4 -3.15625 C 4.03125 -3.28125 4.09375 -3.5 4.09375 -3.53125 C 4.09375 -3.671875 3.96875 -3.78125 3.8125 -3.78125 C 3.6875 -3.78125 3.46875 -3.71875 3.421875 -3.40625 Z M 2.84375 -1.09375 C 2.796875 -0.921875 2.796875 -0.921875 2.65625 -0.75 C 2.328125 -0.359375 1.96875 -0.125 1.625 -0.125 C 1.1875 -0.125 1.046875 -0.578125 1.046875 -0.96875 C 1.046875 -1.40625 1.296875 -2.4375 1.515625 -2.875 C 1.796875 -3.40625 2.21875 -3.734375 2.578125 -3.734375 C 3.171875 -3.734375 3.3125 -3.015625 3.3125 -2.953125 C 3.3125 -2.921875 3.296875 -2.859375 3.28125 -2.828125 Z M 2.84375 -1.09375 "/>
</g>
<g id="glyph-1-7">
<path d="M 4.703125 -5.921875 C 4.734375 -6.046875 4.734375 -6.0625 4.734375 -6.09375 C 4.734375 -6.171875 4.6875 -6.21875 4.59375 -6.21875 C 4.46875 -6.21875 3.6875 -6.15625 3.5 -6.140625 C 3.421875 -6.125 3.3125 -6.109375 3.3125 -5.96875 C 3.3125 -5.84375 3.421875 -5.84375 3.5625 -5.84375 C 3.984375 -5.84375 3.984375 -5.78125 3.984375 -5.703125 C 3.984375 -5.640625 3.90625 -5.328125 3.859375 -5.140625 L 3.6875 -4.453125 C 3.59375 -4.109375 3.5 -3.765625 3.421875 -3.40625 C 3.25 -3.734375 2.984375 -3.96875 2.578125 -3.96875 C 1.53125 -3.96875 0.375 -2.71875 0.375 -1.359375 C 0.375 -0.375 1 0.09375 1.609375 0.09375 C 2.1875 0.09375 2.65625 -0.390625 2.8125 -0.5625 C 2.90625 -0.0625 3.359375 0.09375 3.640625 0.09375 C 3.90625 0.09375 4.125 -0.015625 4.328125 -0.390625 C 4.484375 -0.6875 4.609375 -1.25 4.609375 -1.28125 C 4.609375 -1.328125 4.578125 -1.390625 4.5 -1.390625 C 4.390625 -1.390625 4.375 -1.34375 4.34375 -1.171875 C 4.140625 -0.390625 3.953125 -0.125 3.671875 -0.125 C 3.4375 -0.125 3.390625 -0.34375 3.390625 -0.53125 C 3.390625 -0.65625 3.4375 -0.90625 3.4375 -0.9375 Z M 2.84375 -1.078125 C 2.8125 -0.9375 2.796875 -0.921875 2.65625 -0.75 C 2.328125 -0.359375 1.96875 -0.125 1.625 -0.125 C 1.1875 -0.125 1.046875 -0.578125 1.046875 -0.96875 C 1.046875 -1.40625 1.296875 -2.4375 1.515625 -2.875 C 1.796875 -3.40625 2.21875 -3.734375 2.578125 -3.734375 C 3.171875 -3.734375 3.3125 -3.015625 3.3125 -2.96875 C 3.3125 -2.921875 3.296875 -2.875 3.28125 -2.828125 Z M 2.84375 -1.078125 "/>
</g>
<g id="glyph-2-0">
<path d="M 6.34375 -2.96875 C 6.46875 -2.96875 6.640625 -2.96875 6.640625 -3.15625 C 6.640625 -3.359375 6.453125 -3.359375 6.3125 -3.359375 L 0.84375 -3.359375 C 0.703125 -3.359375 0.515625 -3.359375 0.515625 -3.15625 C 0.515625 -2.96875 0.6875 -2.96875 0.8125 -2.96875 Z M 6.3125 -1.140625 C 6.453125 -1.140625 6.640625 -1.140625 6.640625 -1.34375 C 6.640625 -1.53125 6.46875 -1.53125 6.34375 -1.53125 L 0.8125 -1.53125 C 0.6875 -1.53125 0.515625 -1.53125 0.515625 -1.34375 C 0.515625 -1.140625 0.703125 -1.140625 0.84375 -1.140625 Z M 6.3125 -1.140625 "/>
</g>
<g id="glyph-2-1">
<path d="M 3.0625 2.140625 C 3.0625 2.09375 3.03125 2.0625 2.984375 2 C 1.828125 0.9375 1.46875 -0.671875 1.46875 -2.25 C 1.46875 -3.625 1.734375 -5.3125 3 -6.515625 C 3.046875 -6.5625 3.0625 -6.578125 3.0625 -6.625 C 3.0625 -6.6875 3.015625 -6.734375 2.953125 -6.734375 C 2.84375 -6.734375 2.03125 -6.078125 1.546875 -5.109375 C 1.125 -4.25 0.90625 -3.3125 0.90625 -2.25 C 0.90625 -1.609375 0.984375 -0.578125 1.484375 0.46875 C 2.015625 1.578125 2.84375 2.234375 2.953125 2.234375 C 3.015625 2.234375 3.0625 2.203125 3.0625 2.140625 Z M 3.0625 2.140625 "/>
</g>
<g id="glyph-2-2">
<path d="M 2.671875 -2.25 C 2.671875 -2.984375 2.5625 -3.96875 2.09375 -4.96875 C 1.5625 -6.078125 0.734375 -6.734375 0.625 -6.734375 C 0.53125 -6.734375 0.515625 -6.65625 0.515625 -6.625 C 0.515625 -6.578125 0.53125 -6.5625 0.59375 -6.5 C 1.125 -6.03125 2.109375 -4.8125 2.109375 -2.25 C 2.109375 -0.96875 1.875 0.8125 0.578125 2.03125 C 0.5625 2.046875 0.515625 2.09375 0.515625 2.140625 C 0.515625 2.15625 0.53125 2.234375 0.625 2.234375 C 0.734375 2.234375 1.546875 1.59375 2.03125 0.609375 C 2.453125 -0.25 2.671875 -1.171875 2.671875 -2.25 Z M 2.671875 -2.25 "/>
</g>
<g id="glyph-3-0">
<path d="M 2.3125 -6.078125 C 2.5625 -5.8125 2.703125 -5.6875 2.921875 -5.578125 C 3.1875 -5.4375 3.59375 -5.34375 3.90625 -5.34375 C 4.0625 -5.34375 4.359375 -5.34375 4.546875 -5.359375 C 4.421875 -5.28125 4.421875 -5.28125 3.828125 -4.953125 C 3.609375 -4.84375 3.46875 -4.75 3.203125 -4.59375 L 3.265625 -4.46875 C 3.421875 -4.53125 3.421875 -4.53125 3.59375 -4.609375 C 4.09375 -4.828125 4.09375 -4.828125 4.296875 -4.90625 C 5.15625 -5.21875 5.234375 -5.25 5.5625 -5.328125 C 6.140625 -5.453125 6.1875 -5.484375 6.1875 -5.625 C 6.1875 -5.8125 5.90625 -6.078125 5.671875 -6.078125 C 5.65625 -6.078125 5.578125 -6.0625 5.515625 -6.03125 C 5.015625 -5.875 4.296875 -5.78125 3.71875 -5.78125 C 3.140625 -5.78125 2.84375 -5.859375 2.40625 -6.15625 Z M 2 -2.78125 C 1.890625 -2.5 1.859375 -2.265625 1.859375 -2.0625 C 1.859375 -1.515625 2.140625 -0.96875 2.5625 -0.703125 C 3 -0.40625 3.609375 -0.28125 4.578125 -0.28125 C 5.34375 -0.28125 6.1875 -0.359375 6.59375 -0.453125 C 6.765625 -0.5 6.859375 -0.59375 6.859375 -0.71875 C 6.859375 -0.828125 6.796875 -0.9375 6.671875 -1.03125 C 6.53125 -1.125 6.328125 -1.203125 6.203125 -1.203125 C 6.15625 -1.203125 6.109375 -1.1875 6.0625 -1.171875 C 5.546875 -0.96875 4.828125 -0.859375 4.15625 -0.859375 C 2.765625 -0.859375 2.109375 -1.34375 2.109375 -2.359375 C 2.109375 -2.484375 2.125 -2.5625 2.140625 -2.75 Z M 2 -2.78125 "/>
</g>
<g id="glyph-3-1">
<path d="M 4.296875 -0.03125 C 5.03125 -0.15625 5.484375 -0.296875 5.984375 -0.5625 C 7.078125 -1.140625 7.703125 -2.09375 7.703125 -3.171875 C 7.703125 -4.015625 7.421875 -4.6875 6.875 -5.203125 C 6.328125 -5.703125 5.515625 -6 4.65625 -6 C 3.515625 -6 2.375 -5.53125 1.6875 -4.78125 C 1.203125 -4.265625 0.90625 -3.625 0.90625 -3.078125 C 0.90625 -2.796875 0.96875 -2.5625 1.109375 -2.296875 C 1.359375 -1.8125 1.40625 -1.703125 1.484375 -1.484375 C 1.625 -1.0625 1.640625 -1.03125 1.71875 -0.9375 C 1.8125 -0.8125 1.953125 -0.75 2.109375 -0.75 C 2.421875 -0.75 2.84375 -1.171875 3.390625 -2.03125 C 4.046875 -3.09375 4.53125 -4.34375 4.53125 -5.015625 C 4.53125 -5.265625 4.46875 -5.4375 4.265625 -5.734375 C 4.40625 -5.75 4.453125 -5.75 4.5625 -5.75 C 5.109375 -5.75 5.671875 -5.609375 6.0625 -5.359375 C 6.6875 -4.953125 7.03125 -4.28125 7.03125 -3.453125 C 7.03125 -2.65625 6.765625 -1.953125 6.265625 -1.375 C 5.765625 -0.796875 5.171875 -0.453125 4.25 -0.171875 Z M 4.078125 -5.703125 C 4.171875 -5.484375 4.203125 -5.40625 4.203125 -5.265625 C 4.203125 -4.734375 3.75 -3.625 3.109375 -2.609375 C 2.6875 -1.9375 2.265625 -1.46875 2.078125 -1.46875 C 1.984375 -1.46875 1.875 -1.5625 1.75 -1.71875 C 1.53125 -2.015625 1.40625 -2.4375 1.40625 -2.859375 C 1.40625 -4.1875 2.578125 -5.4375 4.078125 -5.703125 Z M 4.078125 -5.703125 "/>
</g>
<g id="glyph-3-2">
<path d="M 0.21875 -3.1875 C 0.6875 -3.703125 0.890625 -3.984375 1.1875 -4.4375 L 1.1875 -1.765625 C 1.1875 -1.234375 1.1875 -0.859375 1.1875 -0.609375 C 1.171875 0.109375 1.171875 0.109375 1.171875 0.53125 C 1.171875 0.59375 1.203125 0.625 1.28125 0.625 C 1.421875 0.625 1.59375 0.609375 1.6875 0.578125 C 1.75 0.5625 1.765625 0.53125 1.765625 0.46875 C 1.765625 0.46875 1.765625 0.46875 1.765625 0.453125 C 1.75 -0.515625 1.75 -0.546875 1.75 -0.875 L 1.75 -4.484375 C 1.890625 -4.546875 1.96875 -4.59375 1.96875 -4.65625 C 1.96875 -4.703125 1.84375 -4.75 1.578125 -4.78125 C 1.546875 -4.78125 1.484375 -4.78125 1.40625 -4.796875 C 1.875 -5.578125 2.1875 -6.171875 2.4375 -6.78125 C 2.640625 -6.84375 2.78125 -6.875 2.796875 -6.90625 C 2.84375 -6.921875 2.859375 -6.953125 2.859375 -6.984375 C 2.859375 -7.03125 2.59375 -7.140625 1.875 -7.3125 C 1.828125 -6.90625 1.6875 -6.453125 1.3125 -5.546875 C 0.953125 -4.671875 0.78125 -4.3125 0.125 -3.25 Z M 2.953125 -3.828125 C 3.578125 -4.203125 3.6875 -4.265625 4.09375 -4.59375 C 4.1875 -4.578125 4.25 -4.578125 4.28125 -4.578125 C 4.34375 -4.578125 4.390625 -4.59375 4.390625 -4.640625 C 4.390625 -4.6875 4.359375 -4.71875 4.28125 -4.78125 C 4.28125 -4.78125 4.1875 -4.859375 4.078125 -4.9375 C 4.015625 -5 3.90625 -5.078125 3.765625 -5.1875 C 3.625 -4.859375 3.328125 -4.421875 2.953125 -4 L 2.953125 -5.703125 C 3.125 -5.765625 3.25 -5.828125 3.25 -5.890625 C 3.25 -5.953125 3.140625 -5.984375 2.78125 -6.03125 C 2.703125 -6.046875 2.578125 -6.0625 2.421875 -6.09375 C 2.4375 -5.828125 2.4375 -5.78125 2.4375 -5.3125 L 2.4375 -1.34375 C 2.453125 -0.96875 2.53125 -0.921875 3.109375 -0.921875 C 3.953125 -0.921875 4.25 -1 4.25 -1.234375 C 4.25 -1.3125 4.21875 -1.375 4.171875 -1.40625 C 4.046875 -1.484375 4.046875 -1.484375 4.046875 -1.515625 L 4.046875 -1.703125 L 4.09375 -2.953125 L 3.96875 -2.953125 C 3.78125 -2.0625 3.703125 -1.671875 3.640625 -1.53125 C 3.59375 -1.421875 3.53125 -1.390625 3.265625 -1.390625 C 3 -1.390625 2.953125 -1.40625 2.953125 -1.53125 Z M 8.34375 -6.484375 C 8.390625 -6.484375 8.4375 -6.5 8.4375 -6.53125 C 8.4375 -6.5625 8.421875 -6.578125 8.390625 -6.609375 C 8.03125 -6.875 7.921875 -6.953125 7.578125 -7.21875 C 7.390625 -7 7.328125 -6.921875 7.125 -6.671875 L 4.46875 -6.671875 C 4.15625 -6.671875 3.96875 -6.6875 3.703125 -6.75 L 3.78125 -6.421875 C 4.078125 -6.453125 4.21875 -6.484375 4.46875 -6.484375 L 5.765625 -6.484375 C 5.734375 -6.03125 5.703125 -5.875 5.578125 -5.3125 L 5.078125 -5.3125 C 4.828125 -5.453125 4.734375 -5.484375 4.46875 -5.609375 C 4.5 -4.890625 4.5 -4.8125 4.5 -4.71875 C 4.5 -3.25 4.46875 -1.796875 4.453125 -1.15625 C 4.453125 -1.140625 4.453125 -1.125 4.453125 -1.125 C 4.453125 -1.046875 4.515625 -1.015625 4.609375 -1.015625 C 4.671875 -1.015625 4.859375 -1.03125 4.9375 -1.046875 C 5 -1.046875 5.015625 -1.09375 5.015625 -1.15625 L 5.015625 -1.34375 L 7.1875 -1.34375 L 7.1875 -1.09375 C 7.1875 -1.09375 7.1875 -1.0625 7.1875 -1.0625 C 7.1875 -1 7.21875 -0.96875 7.296875 -0.96875 C 7.390625 -0.96875 7.671875 -0.984375 7.6875 -1 C 7.75 -1.015625 7.765625 -1.03125 7.765625 -1.109375 C 7.75 -1.75 7.75 -2.046875 7.75 -2.578125 L 7.75 -5.046875 C 7.90625 -5.109375 7.96875 -5.171875 7.96875 -5.234375 C 7.96875 -5.25 7.953125 -5.28125 7.90625 -5.328125 C 7.6875 -5.484375 7.625 -5.53125 7.40625 -5.671875 C 7.265625 -5.515625 7.234375 -5.46875 7.109375 -5.3125 L 5.78125 -5.3125 C 6.078125 -5.703125 6.171875 -5.859375 6.46875 -6.484375 Z M 7.1875 -4.140625 L 5.015625 -4.140625 L 5.015625 -5.109375 L 7.1875 -5.109375 Z M 7.1875 -3.9375 L 7.1875 -2.859375 L 5.015625 -2.859375 L 5.015625 -3.9375 Z M 7.1875 -2.671875 L 7.1875 -1.53125 L 5.015625 -1.53125 L 5.015625 -2.671875 Z M 6.15625 -0.953125 C 6.796875 -0.546875 7.390625 -0.0625 7.78125 0.359375 C 7.9375 0.53125 8 0.5625 8.0625 0.5625 C 8.171875 0.5625 8.234375 0.390625 8.234375 0.15625 C 8.234375 -0.109375 8.125 -0.296875 7.90625 -0.40625 C 7.5625 -0.609375 6.984375 -0.8125 6.1875 -1.0625 Z M 2.953125 0.59375 C 4.078125 0.296875 4.59375 0.0625 5.4375 -0.453125 C 5.75 -0.453125 5.828125 -0.46875 5.828125 -0.546875 C 5.828125 -0.609375 5.671875 -0.703125 5.078125 -1.015625 C 4.9375 -0.84375 4.8125 -0.71875 4.453125 -0.453125 C 4.03125 -0.125 3.890625 -0.03125 2.875 0.484375 Z M 2.953125 0.59375 "/>
</g>
<g id="glyph-3-3">
<path d="M 1.484375 -5.421875 C 1.875 -5 2.28125 -4.796875 2.75 -4.796875 C 3.203125 -4.796875 3.78125 -4.890625 4.359375 -5.078125 C 4.546875 -4.765625 4.78125 -4.375 4.953125 -4.03125 C 4.25 -3.828125 3.609375 -3.703125 3.109375 -3.703125 C 2.65625 -3.703125 2.375 -3.84375 2.09375 -4.21875 L 2 -4.140625 C 2.140625 -3.859375 2.234375 -3.75 2.40625 -3.625 C 2.65625 -3.453125 2.9375 -3.375 3.296875 -3.375 C 3.828125 -3.375 4.5625 -3.5 5.140625 -3.703125 C 5.453125 -3.09375 5.6875 -2.578125 5.78125 -2.234375 C 5.15625 -2.375 4.671875 -2.421875 4.171875 -2.421875 C 2.796875 -2.421875 1.890625 -1.90625 1.890625 -1.125 C 1.890625 -0.6875 2.203125 -0.28125 2.71875 -0.046875 C 3.109375 0.125 3.703125 0.21875 4.375 0.21875 C 4.875 0.21875 5.40625 0.15625 5.5625 0.09375 C 5.65625 0.046875 5.6875 -0.015625 5.6875 -0.078125 C 5.6875 -0.296875 5.375 -0.53125 5.125 -0.53125 C 5.09375 -0.53125 5.0625 -0.53125 5.015625 -0.515625 C 4.609375 -0.421875 4.359375 -0.390625 3.9375 -0.390625 C 2.875 -0.390625 2.296875 -0.6875 2.296875 -1.21875 C 2.296875 -1.515625 2.46875 -1.734375 2.828125 -1.921875 C 3.109375 -2.0625 3.5 -2.15625 3.90625 -2.15625 C 4.65625 -2.15625 5.453125 -1.921875 5.90625 -1.5625 C 6.03125 -1.453125 6.0625 -1.4375 6.140625 -1.4375 C 6.3125 -1.4375 6.421875 -1.65625 6.421875 -2 C 6.421875 -2.15625 6.375 -2.296875 6.28125 -2.453125 C 6.078125 -2.78125 6.078125 -2.78125 5.875 -3.140625 C 5.796875 -3.28125 5.765625 -3.359375 5.5 -3.8125 C 6.671875 -4.21875 7.171875 -4.5 7.171875 -4.703125 C 7.171875 -4.828125 7.078125 -4.921875 6.9375 -4.921875 C 6.921875 -4.921875 6.890625 -4.921875 6.859375 -4.90625 C 6.703125 -4.890625 6.703125 -4.890625 6.703125 -4.890625 C 6.53125 -4.890625 6.3125 -4.96875 5.984375 -5.125 L 5.921875 -5.046875 C 6.125 -4.875 6.1875 -4.828125 6.375 -4.640625 C 6.15625 -4.5 5.984375 -4.4375 5.296875 -4.171875 C 5.078125 -4.546875 4.9375 -4.78125 4.875 -4.875 C 4.78125 -5.046875 4.78125 -5.046875 4.6875 -5.1875 C 5.40625 -5.421875 5.828125 -5.5625 5.953125 -5.625 C 6.40625 -5.8125 6.515625 -5.875 6.515625 -6 C 6.515625 -6.15625 6.34375 -6.234375 6.015625 -6.234375 C 5.875 -6.234375 5.796875 -6.203125 5.734375 -6.140625 C 5.5 -5.90625 5.296875 -5.796875 4.5 -5.5 C 4.15625 -6.1875 4.15625 -6.1875 4.15625 -6.359375 C 4.125 -6.59375 4.125 -6.625 4.046875 -6.6875 C 3.96875 -6.765625 3.765625 -6.8125 3.453125 -6.8125 C 3.296875 -6.8125 3.203125 -6.796875 3.0625 -6.765625 C 2.828125 -6.703125 2.78125 -6.6875 2.71875 -6.53125 C 3.03125 -6.5 3.265625 -6.4375 3.375 -6.359375 C 3.578125 -6.203125 3.921875 -5.765625 4.125 -5.390625 C 3.75 -5.25 3.109375 -5.125 2.703125 -5.125 C 2.25 -5.125 1.96875 -5.234375 1.5625 -5.515625 Z M 1.484375 -5.421875 "/>
</g>
<g id="glyph-3-4">
<path d="M 2.171875 -1.171875 C 3.078125 -0.421875 3.109375 -0.375 3.125 -0.15625 C 3.140625 -0.015625 3.21875 0.046875 3.359375 0.046875 C 3.640625 0.046875 3.96875 -0.125 4.1875 -0.34375 C 4.6875 -0.890625 5.125 -2.328125 5.125 -3.4375 C 5.125 -4.34375 4.78125 -4.78125 4.03125 -4.78125 C 3.828125 -4.78125 3.671875 -4.765625 3.28125 -4.6875 C 3.53125 -5.28125 3.671875 -5.5625 3.84375 -5.84375 C 3.9375 -6 3.953125 -6.03125 3.953125 -6.09375 C 3.953125 -6.28125 3.75 -6.4375 3.359375 -6.5625 C 3.125 -6.625 2.890625 -6.671875 2.765625 -6.671875 C 2.671875 -6.671875 2.625 -6.65625 2.515625 -6.578125 C 3.015625 -6.421875 3.1875 -6.265625 3.1875 -6 C 3.1875 -5.703125 3.03125 -5.078125 2.828125 -4.578125 C 2.1875 -4.40625 1.546875 -4.28125 1.359375 -4.28125 C 1.046875 -4.28125 0.890625 -4.40625 0.703125 -4.75 C 0.671875 -4.671875 0.65625 -4.609375 0.65625 -4.5625 C 0.65625 -4.40625 0.78125 -4.109375 0.9375 -3.90625 C 1.046875 -3.765625 1.21875 -3.640625 1.3125 -3.640625 C 1.390625 -3.640625 1.4375 -3.671875 1.5625 -3.75 C 1.75 -3.859375 2.109375 -4 2.6875 -4.1875 C 1.859375 -2.375 1.484375 -1.671875 1.109375 -1.1875 C 0.9375 -0.984375 0.90625 -0.921875 0.90625 -0.703125 C 0.90625 -0.34375 1 -0.109375 1.15625 -0.109375 C 1.234375 -0.109375 1.296875 -0.15625 1.359375 -0.28125 C 1.5 -0.515625 1.78125 -1.140625 2.125 -1.953125 C 2.421875 -2.640625 2.59375 -3.046875 2.640625 -3.15625 C 3.015625 -4.03125 3.015625 -4.03125 3.140625 -4.328125 C 3.625 -4.46875 3.796875 -4.5 4.03125 -4.5 C 4.21875 -4.5 4.34375 -4.46875 4.421875 -4.421875 C 4.578125 -4.3125 4.65625 -4.078125 4.65625 -3.71875 C 4.65625 -3.0625 4.453125 -2.109375 4.15625 -1.40625 C 3.921875 -0.859375 3.78125 -0.6875 3.59375 -0.6875 C 3.40625 -0.6875 2.90625 -0.890625 2.25 -1.265625 Z M 5.984375 -4.625 C 6.75 -4.28125 7.328125 -3.484375 7.4375 -2.640625 C 7.1875 -2.546875 6.96875 -2.46875 6.109375 -2.203125 L 6.15625 -2.09375 C 6.875 -2.171875 6.921875 -2.171875 7.234375 -2.171875 C 7.390625 -2.171875 7.4375 -2.171875 7.578125 -2.078125 C 7.671875 -2.03125 7.703125 -2.015625 7.78125 -2.015625 C 8 -2.015625 8.125 -2.1875 8.125 -2.5 C 8.125 -2.875 7.953125 -3.28125 7.640625 -3.703125 C 7.25 -4.203125 6.734375 -4.546875 6.0625 -4.75 Z M 6.234375 -6.359375 C 6.46875 -6.125 6.75 -5.75 6.90625 -5.453125 C 7.171875 -4.890625 7.171875 -4.890625 7.28125 -4.890625 C 7.421875 -4.890625 7.546875 -5.046875 7.546875 -5.25 C 7.546875 -5.453125 7.421875 -5.65625 7.109375 -5.9375 C 6.90625 -6.125 6.671875 -6.296875 6.34375 -6.46875 Z M 7.140625 -6.859375 C 7.609375 -6.390625 7.78125 -6.171875 8.09375 -5.625 C 8.15625 -5.5 8.21875 -5.453125 8.28125 -5.453125 C 8.421875 -5.453125 8.5 -5.609375 8.5 -5.8125 C 8.5 -6.0625 8.390625 -6.234375 8.0625 -6.484375 C 7.796875 -6.6875 7.546875 -6.828125 7.234375 -6.96875 Z M 7.140625 -6.859375 "/>
</g>
<g id="glyph-4-0">
<path d="M 1.734375 0.125 C 1.734375 -0.015625 1.734375 -0.203125 1.546875 -0.203125 C 1.34375 -0.203125 1.34375 -0.015625 1.34375 0.125 L 1.34375 5.25 C 1.34375 5.390625 1.34375 5.59375 1.53125 5.59375 C 1.734375 5.59375 1.734375 5.40625 1.734375 5.25 Z M 1.734375 0.125 "/>
</g>
<g id="glyph-5-0">
<path d="M 3.375 -2.359375 C 3.15625 -2.296875 3.109375 -2.125 3.109375 -2.03125 C 3.109375 -1.84375 3.265625 -1.796875 3.34375 -1.796875 C 3.53125 -1.796875 3.703125 -1.9375 3.703125 -2.171875 C 3.703125 -2.5 3.34375 -2.640625 3.046875 -2.640625 C 2.640625 -2.640625 2.40625 -2.328125 2.34375 -2.21875 C 2.265625 -2.375 2.03125 -2.640625 1.578125 -2.640625 C 0.890625 -2.640625 0.484375 -1.921875 0.484375 -1.71875 C 0.484375 -1.6875 0.515625 -1.640625 0.59375 -1.640625 C 0.6875 -1.640625 0.703125 -1.671875 0.71875 -1.71875 C 0.875 -2.203125 1.28125 -2.4375 1.5625 -2.4375 C 1.859375 -2.4375 1.953125 -2.25 1.953125 -2.046875 C 1.953125 -1.984375 1.953125 -1.921875 1.90625 -1.734375 C 1.765625 -1.1875 1.640625 -0.640625 1.609375 -0.5625 C 1.515625 -0.34375 1.296875 -0.140625 1.046875 -0.140625 C 1.015625 -0.140625 0.84375 -0.140625 0.703125 -0.234375 C 0.9375 -0.3125 0.96875 -0.5 0.96875 -0.546875 C 0.96875 -0.703125 0.84375 -0.78125 0.71875 -0.78125 C 0.5625 -0.78125 0.375 -0.65625 0.375 -0.40625 C 0.375 -0.0625 0.75 0.0625 1.03125 0.0625 C 1.375 0.0625 1.625 -0.171875 1.734375 -0.359375 C 1.859375 -0.109375 2.140625 0.0625 2.484375 0.0625 C 3.1875 0.0625 3.578125 -0.671875 3.578125 -0.859375 C 3.578125 -0.875 3.578125 -0.953125 3.46875 -0.953125 C 3.390625 -0.953125 3.375 -0.90625 3.359375 -0.84375 C 3.1875 -0.328125 2.765625 -0.140625 2.5 -0.140625 C 2.28125 -0.140625 2.125 -0.265625 2.125 -0.515625 C 2.125 -0.640625 2.140625 -0.765625 2.203125 -0.96875 L 2.390625 -1.75 C 2.453125 -1.984375 2.484375 -2.09375 2.609375 -2.234375 C 2.6875 -2.328125 2.84375 -2.4375 3.03125 -2.4375 C 3.0625 -2.4375 3.234375 -2.4375 3.375 -2.359375 Z M 3.375 -2.359375 "/>
</g>
<g id="glyph-5-1">
<path d="M 3.109375 -1.921875 C 3.140625 -2.0625 3.203125 -2.28125 3.203125 -2.328125 C 3.203125 -2.453125 3.09375 -2.53125 2.984375 -2.53125 C 2.8125 -2.53125 2.71875 -2.375 2.703125 -2.28125 C 2.609375 -2.421875 2.40625 -2.640625 2.046875 -2.640625 C 1.28125 -2.640625 0.453125 -1.84375 0.453125 -0.953125 C 0.453125 -0.3125 0.90625 0.0625 1.40625 0.0625 C 1.8125 0.0625 2.15625 -0.21875 2.296875 -0.359375 C 2.421875 0.015625 2.8125 0.0625 2.953125 0.0625 C 3.171875 0.0625 3.328125 -0.0625 3.4375 -0.25 C 3.578125 -0.484375 3.671875 -0.828125 3.671875 -0.859375 C 3.671875 -0.875 3.65625 -0.953125 3.546875 -0.953125 C 3.46875 -0.953125 3.453125 -0.90625 3.421875 -0.8125 C 3.328125 -0.4375 3.203125 -0.140625 2.96875 -0.140625 C 2.765625 -0.140625 2.75 -0.359375 2.75 -0.4375 C 2.75 -0.515625 2.8125 -0.765625 2.859375 -0.921875 Z M 2.328125 -0.78125 C 2.296875 -0.671875 2.296875 -0.671875 2.21875 -0.578125 C 1.890625 -0.203125 1.578125 -0.140625 1.4375 -0.140625 C 1.1875 -0.140625 0.953125 -0.296875 0.953125 -0.71875 C 0.953125 -0.96875 1.078125 -1.5625 1.28125 -1.890625 C 1.453125 -2.21875 1.765625 -2.4375 2.046875 -2.4375 C 2.5 -2.4375 2.609375 -1.96875 2.609375 -1.921875 L 2.59375 -1.84375 Z M 2.328125 -0.78125 "/>
</g>
<g id="glyph-6-0">
<path d="M 4.890625 -2.03125 C 4.984375 -2.03125 5.109375 -2.03125 5.109375 -2.1875 C 5.109375 -2.34375 4.953125 -2.34375 4.859375 -2.34375 L 0.71875 -2.34375 C 0.640625 -2.34375 0.46875 -2.34375 0.46875 -2.1875 C 0.46875 -2.03125 0.609375 -2.03125 0.6875 -2.03125 Z M 4.859375 -0.65625 C 4.953125 -0.65625 5.109375 -0.65625 5.109375 -0.8125 C 5.109375 -0.96875 4.984375 -0.96875 4.890625 -0.96875 L 0.6875 -0.96875 C 0.609375 -0.96875 0.46875 -0.96875 0.46875 -0.8125 C 0.46875 -0.65625 0.640625 -0.65625 0.71875 -0.65625 Z M 4.859375 -0.65625 "/>
</g>
</g>
</defs>
<path fill="none" stroke-width="0.79701" stroke-linecap="butt" stroke-linejoin="miter" stroke="rgb(0%, 0%, 0%)" stroke-opacity="1" stroke-miterlimit="10" d="M 0.00103125 226.776375 L -67.690375 186.163094 " transform="matrix(1, 0, 0, -1, 88.581, 427.542)"/>
<path fill-rule="nonzero" fill="rgb(0%, 0%, 0%)" fill-opacity="1" stroke-width="0.79701" stroke-linecap="butt" stroke-linejoin="miter" stroke="rgb(0%, 0%, 0%)" stroke-opacity="1" stroke-miterlimit="10" d="M 4.842058 -0.000428172 L 1.285371 1.345465 L 2.469819 0.00157756 L 1.286716 -1.347673 Z M 4.842058 -0.000428172 " transform="matrix(-0.85747, 0.51448, 0.51448, 0.85747, 22.83964, 240.21235)"/>
<g fill="rgb(0%, 0%, 0%)" fill-opacity="1">
<use xlink:href="#glyph-0-0" x="8.302" y="251.299"/>
</g>
<path fill="none" stroke-width="0.79701" stroke-linecap="butt" stroke-linejoin="miter" stroke="rgb(0%, 0%, 0%)" stroke-opacity="1" stroke-miterlimit="10" d="M 0.00103125 226.776375 L 217.399469 226.776375 " transform="matrix(1, 0, 0, -1, 88.581, 427.542)"/>
<path fill-rule="nonzero" fill="rgb(0%, 0%, 0%)" fill-opacity="1" stroke-width="0.79701" stroke-linecap="butt" stroke-linejoin="miter" stroke="rgb(0%, 0%, 0%)" stroke-opacity="1" stroke-miterlimit="10" d="M 4.842261 0.001895 L 1.287574 1.345645 L 2.471167 0.001895 L 1.287574 -1.345761 Z M 4.842261 0.001895 " transform="matrix(1, 0, 0, -1, 303.70852, 200.76752)"/>
<g fill="rgb(0%, 0%, 0%)" fill-opacity="1">
<use xlink:href="#glyph-0-1" x="307.062" y="208.779"/>
</g>
<path fill="none" stroke-width="0.79701" stroke-linecap="butt" stroke-linejoin="miter" stroke="rgb(0%, 0%, 0%)" stroke-opacity="1" stroke-miterlimit="10" d="M 0.00103125 226.776375 L 0.00103125 407.32325 " transform="matrix(1, 0, 0, -1, 88.581, 427.542)"/>
<path fill-rule="nonzero" fill="rgb(0%, 0%, 0%)" fill-opacity="1" stroke-width="0.79701" stroke-linecap="butt" stroke-linejoin="miter" stroke="rgb(0%, 0%, 0%)" stroke-opacity="1" stroke-miterlimit="10" d="M 4.842492 -0.00103125 L 1.287805 1.346625 L 2.471399 -0.00103125 L 1.287805 -1.344781 Z M 4.842492 -0.00103125 " transform="matrix(0, -1, -1, 0, 88.581, 22.49093)"/>
<g fill="rgb(0%, 0%, 0%)" fill-opacity="1">
<use xlink:href="#glyph-0-2" x="79.791" y="18.663"/>
</g>
<path fill-rule="nonzero" fill="rgb(89.99939%, 89.99939%, 100%)" fill-opacity="0.5" stroke-width="0.3985" stroke-linecap="butt" stroke-linejoin="miter" stroke="rgb(0%, 0%, 0%)" stroke-opacity="1" stroke-dasharray="2.98883 2.98883" stroke-miterlimit="10" d="M 164.411187 235.280281 L 56.692437 172.917 L 56.692437 357.170906 L 164.411187 422.366219 Z M 164.411187 235.280281 " transform="matrix(1, 0, 0, -1, 88.581, 427.542)"/>
<path fill="none" stroke-width="0.79701" stroke-linecap="butt" stroke-linejoin="miter" stroke="rgb(0%, 0%, 0%)" stroke-opacity="1" stroke-miterlimit="10" d="M 14.172906 297.639656 C 46.489312 296.225594 78.235406 270.995125 99.782281 249.452156 C 121.32525 276.663094 170.079156 302.745125 198.426812 306.147469 C 184.254937 335.057625 119.622125 383.534187 85.040094 392.038094 C 51.305719 369.358406 19.840875 318.049812 14.172906 297.639656 Z M 14.172906 297.639656 " transform="matrix(1, 0, 0, -1, 88.581, 427.542)"/>
<g fill="rgb(0%, 0%, 0%)" fill-opacity="1">
<use xlink:href="#glyph-1-0" x="259.459" y="83.957"/>
</g>
<g fill="rgb(0%, 0%, 0%)" fill-opacity="1">
<use xlink:href="#glyph-2-0" x="266.692" y="83.957"/>
</g>
<g fill="rgb(0%, 0%, 0%)" fill-opacity="1">
<use xlink:href="#glyph-1-1" x="276.419" y="83.957"/>
</g>
<g fill="rgb(0%, 0%, 0%)" fill-opacity="1">
<use xlink:href="#glyph-2-1" x="281.868" y="83.957"/>
</g>
<g fill="rgb(0%, 0%, 0%)" fill-opacity="1">
<use xlink:href="#glyph-1-2" x="285.452" y="83.957"/>
<use xlink:href="#glyph-1-3" x="290.675813" y="83.957"/>
</g>
<g fill="rgb(0%, 0%, 0%)" fill-opacity="1">
<use xlink:href="#glyph-1-4" x="294.768965" y="83.957"/>
</g>
<g fill="rgb(0%, 0%, 0%)" fill-opacity="1">
<use xlink:href="#glyph-2-2" x="299.631" y="83.957"/>
</g>
<path fill="none" stroke-width="1.19553" stroke-linecap="butt" stroke-linejoin="miter" stroke="rgb(100%, 0%, 0%)" stroke-opacity="1" stroke-miterlimit="10" d="M 56.692437 283.467781 C 76.536187 311.815437 133.2315 342.995125 164.411187 345.831062 " transform="matrix(1, 0, 0, -1, 88.581, 427.542)"/>
<path fill-rule="nonzero" fill="rgb(100%, 0%, 0%)" fill-opacity="1" d="M 199.289062 101.554688 C 199.289062 99.902344 197.949219 98.566406 196.300781 98.566406 C 194.648438 98.566406 193.308594 99.902344 193.308594 101.554688 C 193.308594 103.203125 194.648438 104.542969 196.300781 104.542969 C 197.949219 104.542969 199.289062 103.203125 199.289062 101.554688 Z M 199.289062 101.554688 "/>
<path fill="none" stroke-width="0.3985" stroke-linecap="butt" stroke-linejoin="miter" stroke="rgb(0%, 0%, 0%)" stroke-opacity="1" stroke-dasharray="2.98883 2.98883" stroke-miterlimit="10" d="M 107.719781 325.987312 L 107.719781 204.096687 " transform="matrix(1, 0, 0, -1, 88.581, 427.542)"/>
<g fill="rgb(0%, 0%, 100%)" fill-opacity="1">
<use xlink:href="#glyph-1-4" x="219.765" y="38.603"/>
</g>
<g fill="rgb(0%, 0%, 100%)" fill-opacity="1">
<use xlink:href="#glyph-2-0" x="227.185" y="38.603"/>
</g>
<g fill="rgb(0%, 0%, 100%)" fill-opacity="1">
<use xlink:href="#glyph-1-5" x="236.912" y="38.603"/>
</g>
<path fill="none" stroke-width="0.79701" stroke-linecap="butt" stroke-linejoin="miter" stroke="rgb(0%, 0%, 0%)" stroke-opacity="1" stroke-miterlimit="10" d="M -14.17475 -0.00096875 L 180.547906 -0.00096875 " transform="matrix(1, 0, 0, -1, 88.581, 427.542)"/>
<path fill-rule="nonzero" fill="rgb(0%, 0%, 0%)" fill-opacity="1" stroke-width="0.79701" stroke-linecap="butt" stroke-linejoin="miter" stroke="rgb(0%, 0%, 0%)" stroke-opacity="1" stroke-miterlimit="10" d="M 4.841639 -0.00096875 L 1.286951 1.346687 L 2.470545 -0.00096875 L 1.286951 -1.344719 Z M 4.841639 -0.00096875 " transform="matrix(1, 0, 0, -1, 266.85758, 427.542)"/>
<g fill="rgb(0%, 0%, 0%)" fill-opacity="1">
<use xlink:href="#glyph-0-0" x="269.986" y="435.55"/>
</g>
<path fill="none" stroke-width="0.79701" stroke-linecap="butt" stroke-linejoin="miter" stroke="rgb(0%, 0%, 0%)" stroke-opacity="1" stroke-miterlimit="10" d="M 0.00103125 -14.172844 L 0.00103125 123.8545 " transform="matrix(1, 0, 0, -1, 88.581, 427.542)"/>
<path fill-rule="nonzero" fill="rgb(0%, 0%, 0%)" fill-opacity="1" stroke-width="0.79701" stroke-linecap="butt" stroke-linejoin="miter" stroke="rgb(0%, 0%, 0%)" stroke-opacity="1" stroke-miterlimit="10" d="M 4.841852 -0.00103125 L 1.287165 1.346625 L 2.470759 -0.00103125 L 1.287165 -1.344781 Z M 4.841852 -0.00103125 " transform="matrix(0, -1, -1, 0, 88.581, 305.95904)"/>
<g fill="rgb(0%, 0%, 0%)" fill-opacity="1">
<use xlink:href="#glyph-0-2" x="79.791" y="302.128"/>
</g>
<path fill="none" stroke-width="1.19553" stroke-linecap="butt" stroke-linejoin="miter" stroke="rgb(100%, 0%, 0%)" stroke-opacity="1" stroke-miterlimit="10" d="M 14.172906 42.167 L 16.57525 44.299812 L 18.977594 46.370125 L 21.379937 48.377937 L 23.782281 50.327156 L 26.184625 52.213875 L 28.583062 54.038094 L 30.985406 55.803719 L 33.38775 57.506844 L 35.790094 59.151375 L 38.192437 60.733406 L 40.594781 62.252937 L 42.997125 63.709969 L 45.399469 65.108406 L 47.797906 66.44825 L 50.20025 67.721687 L 52.602594 68.940437 L 55.004937 70.092781 L 57.407281 71.182625 L 59.809625 72.217781 L 62.211969 73.186531 L 64.614312 74.096687 L 67.016656 74.94825 L 69.415094 75.733406 L 71.817437 76.459969 L 74.219781 77.127937 L 76.622125 77.733406 L 79.024469 78.276375 L 81.426812 78.756844 L 83.829156 79.178719 L 86.2315 79.542 L 88.629937 79.838875 L 91.032281 80.081062 L 93.434625 80.256844 L 95.836969 80.374031 L 98.239312 80.428719 L 100.641656 80.420906 L 103.044 80.3545 L 105.446344 80.2295 L 107.848687 80.038094 L 110.247125 79.788094 L 112.649469 79.4795 L 115.051812 79.1045 L 117.454156 78.670906 L 119.8565 78.178719 L 122.258844 77.624031 L 124.661187 77.006844 L 127.063531 76.331062 L 129.461969 75.592781 L 131.864312 74.792 L 134.266656 73.932625 L 136.669 73.01075 L 139.071344 72.026375 L 141.473687 70.983406 L 143.876031 69.877937 L 146.278375 68.713875 L 148.680719 67.487312 L 151.079156 66.19825 L 153.4815 64.850594 L 155.883844 63.440437 " transform="matrix(1, 0, 0, -1, 88.581, 427.542)"/>
<path fill-rule="nonzero" fill="rgb(0%, 0%, 0%)" fill-opacity="1" d="M 176.609375 348.171875 C 176.609375 346.519531 175.273438 345.183594 173.621094 345.183594 C 171.972656 345.183594 170.632812 346.519531 170.632812 348.171875 C 170.632812 349.820312 171.972656 351.160156 173.621094 351.160156 C 175.273438 351.160156 176.609375 349.820312 176.609375 348.171875 Z M 176.609375 348.171875 "/>
<path fill="none" stroke-width="0.79701" stroke-linecap="butt" stroke-linejoin="miter" stroke="rgb(0%, 0%, 100%)" stroke-opacity="1" stroke-miterlimit="10" d="M 42.520562 72.991219 L 46.063531 73.526375 L 63.778375 76.182625 L 67.32525 76.713875 L 99.211969 81.495125 L 102.758844 82.026375 L 106.301812 82.557625 L 109.844781 83.092781 L 127.559625 85.749031 " transform="matrix(1, 0, 0, -1, 88.581, 427.542)"/>
<path fill="none" stroke-width="0.3985" stroke-linecap="butt" stroke-linejoin="miter" stroke="rgb(0%, 0%, 0%)" stroke-opacity="1" stroke-dasharray="2.98883 2.98883" stroke-miterlimit="10" d="M 85.040094 -0.00096875 L 85.040094 79.370125 " transform="matrix(1, 0, 0, -1, 88.581, 427.542)"/>
<path fill="none" stroke-width="0.3985" stroke-linecap="butt" stroke-linejoin="miter" stroke="rgb(0%, 0%, 0%)" stroke-opacity="1" stroke-dasharray="2.98883 2.98883" stroke-miterlimit="10" d="M 0.00103125 79.370125 L 85.040094 79.370125 " transform="matrix(1, 0, 0, -1, 88.581, 427.542)"/>
<g fill="rgb(0%, 0%, 0%)" fill-opacity="1">
<use xlink:href="#glyph-1-6" x="171.179" y="434.922"/>
</g>
<g fill="rgb(100%, 0%, 0%)" fill-opacity="1">
<use xlink:href="#glyph-1-0" x="203.222" y="395.267"/>
</g>
<g fill="rgb(100%, 0%, 0%)" fill-opacity="1">
<use xlink:href="#glyph-2-0" x="210.455" y="395.267"/>
</g>
<g fill="rgb(100%, 0%, 0%)" fill-opacity="1">
<use xlink:href="#glyph-1-1" x="220.182" y="395.267"/>
</g>
<g fill="rgb(100%, 0%, 0%)" fill-opacity="1">
<use xlink:href="#glyph-2-1" x="225.63" y="395.267"/>
</g>
<g fill="rgb(100%, 0%, 0%)" fill-opacity="1">
<use xlink:href="#glyph-1-2" x="229.214" y="395.267"/>
<use xlink:href="#glyph-1-3" x="234.437813" y="395.267"/>
</g>
<g fill="rgb(100%, 0%, 0%)" fill-opacity="1">
<use xlink:href="#glyph-1-5" x="238.530965" y="395.267"/>
</g>
<g fill="rgb(100%, 0%, 0%)" fill-opacity="1">
<use xlink:href="#glyph-2-2" x="242.482" y="395.267"/>
</g>
<path fill="none" stroke-width="0.59776" stroke-linecap="butt" stroke-linejoin="miter" stroke="rgb(0%, 0%, 0%)" stroke-opacity="1" stroke-miterlimit="10" d="M 155.907281 99.213875 C 141.735406 90.709969 141.735406 90.709969 130.454156 86.19825 " transform="matrix(1, 0, 0, -1, 88.581, 427.542)"/>
<path fill-rule="nonzero" fill="rgb(0%, 0%, 0%)" fill-opacity="1" stroke-width="0.59776" stroke-linecap="butt" stroke-linejoin="miter" stroke="rgb(0%, 0%, 0%)" stroke-opacity="1" stroke-miterlimit="10" d="M 4.127914 -0.00111977 L 0.963701 1.197228 L 2.015541 -0.00185694 L 0.965165 -1.197326 Z M 4.127914 -0.00111977 " transform="matrix(-0.92844, 0.37137, 0.37137, 0.92844, 220.76653, 340.65165)"/>
<g fill="rgb(0%, 0%, 0%)" fill-opacity="1">
<use xlink:href="#glyph-3-0" x="239.502" y="311.597"/>
</g>
<g fill="rgb(0%, 0%, 0%)" fill-opacity="1">
<use xlink:href="#glyph-3-1" x="248.983754" y="311.597"/>
</g>
<g fill="rgb(0%, 0%, 0%)" fill-opacity="1">
<use xlink:href="#glyph-3-2" x="258.465509" y="311.597"/>
</g>
<g fill="rgb(0%, 0%, 0%)" fill-opacity="1">
<use xlink:href="#glyph-3-3" x="267.947263" y="311.597"/>
</g>
<g fill="rgb(0%, 0%, 0%)" fill-opacity="1">
<use xlink:href="#glyph-3-4" x="277.429018" y="311.597"/>
</g>
<g fill="rgb(0%, 0%, 0%)" fill-opacity="1">
<use xlink:href="#glyph-1-7" x="241.893" y="320.822"/>
</g>
<g fill="rgb(0%, 0%, 0%)" fill-opacity="1">
<use xlink:href="#glyph-1-1" x="245.134346" y="320.822"/>
</g>
<g fill="rgb(0%, 0%, 0%)" fill-opacity="1">
<use xlink:href="#glyph-2-1" x="250.58" y="320.822"/>
</g>
<g fill="rgb(0%, 0%, 0%)" fill-opacity="1">
<use xlink:href="#glyph-1-2" x="254.164" y="320.822"/>
<use xlink:href="#glyph-1-3" x="259.387813" y="320.822"/>
</g>
<g fill="rgb(0%, 0%, 0%)" fill-opacity="1">
<use xlink:href="#glyph-1-5" x="263.480965" y="320.822"/>
</g>
<g fill="rgb(0%, 0%, 0%)" fill-opacity="1">
<use xlink:href="#glyph-2-2" x="267.432" y="320.822"/>
</g>
<path fill="none" stroke-width="0.379" stroke-linecap="butt" stroke-linejoin="miter" stroke="rgb(0%, 0%, 0%)" stroke-opacity="1" stroke-miterlimit="10" d="M 0.00153125 0.00128125 L 29.122625 0.00128125 " transform="matrix(1, 0, 0, -1, 241.893, 324.388)"/>
<g fill="rgb(0%, 0%, 0%)" fill-opacity="1">
<use xlink:href="#glyph-1-7" x="251.455" y="332.711"/>
<use xlink:href="#glyph-1-2" x="256.229597" y="332.711"/>
</g>
<g fill="rgb(0%, 0%, 0%)" fill-opacity="1">
<use xlink:href="#glyph-4-0" x="272.212" y="313.629"/>
</g>
<g fill="rgb(0%, 0%, 0%)" fill-opacity="1">
<use xlink:href="#glyph-4-0" x="272.212" y="319.008"/>
</g>
<g fill="rgb(0%, 0%, 0%)" fill-opacity="1">
<use xlink:href="#glyph-4-0" x="272.212" y="324.388"/>
</g>
<g fill="rgb(0%, 0%, 0%)" fill-opacity="1">
<use xlink:href="#glyph-4-0" x="272.212" y="329.768"/>
</g>
<g fill="rgb(0%, 0%, 0%)" fill-opacity="1">
<use xlink:href="#glyph-5-0" x="275.283" y="335.646"/>
</g>
<g fill="rgb(0%, 0%, 0%)" fill-opacity="1">
<use xlink:href="#glyph-6-0" x="279.455" y="335.646"/>
</g>
<g fill="rgb(0%, 0%, 0%)" fill-opacity="1">
<use xlink:href="#glyph-5-1" x="285.045" y="335.646"/>
</g>
<path fill="none" stroke-width="1.19553" stroke-linecap="butt" stroke-linejoin="miter" stroke="rgb(50%, 50%, 50%)" stroke-opacity="1" stroke-miterlimit="10" d="M 56.692437 212.600594 C 0.00103125 198.428719 -14.17475 164.413094 13.055719 144.608406 " transform="matrix(1, 0, 0, -1, 88.581, 427.542)"/>
<path fill-rule="nonzero" fill="rgb(50%, 50%, 50%)" fill-opacity="1" stroke-width="1.19553" stroke-linecap="butt" stroke-linejoin="miter" stroke="rgb(50%, 50%, 50%)" stroke-opacity="1" stroke-miterlimit="10" d="M 6.267708 -0.00242494 L 1.930463 1.644431 L 3.382227 0.000200157 L 1.931278 -1.644277 Z M 6.267708 -0.00242494 " transform="matrix(0.80873, 0.58815, 0.58815, -0.80873, 99.14348, 281.12028)"/>
</svg>
