<?xml version="1.0" encoding="UTF-8"?>
<svg xmlns="http://www.w3.org/2000/svg" xmlns:xlink="http://www.w3.org/1999/xlink" width="463.897pt" height="165.095pt" viewBox="0 0 463.897 165.095">
<defs>
<g>
<g id="glyph-0-0">
<path d="M 3.359375 -3.59375 L 4.15625 -3.59375 C 4.34375 -3.59375 4.4375 -3.59375 4.4375 -3.75 C 4.4375 -3.859375 4.34375 -3.859375 4.171875 -3.859375 L 3.40625 -3.859375 C 3.5 -4.40625 3.625 -5.140625 3.75 -5.625 C 3.828125 -5.96875 4.046875 -6.09375 4.21875 -6.09375 C 4.28125 -6.09375 4.484375 -6.078125 4.640625 -5.96875 C 4.453125 -5.9375 4.203125 -5.78125 4.203125 -5.484375 C 4.203125 -5.25 4.375 -5.15625 4.53125 -5.15625 C 4.78125 -5.15625 5.03125 -5.359375 5.03125 -5.6875 C 5.03125 -6.09375 4.640625 -6.328125 4.21875 -6.328125 C 3.8125 -6.328125 3.40625 -6.03125 3.21875 -5.671875 C 3.015625 -5.28125 2.953125 -4.9375 2.765625 -3.859375 L 2.125 -3.859375 C 1.953125 -3.859375 1.84375 -3.859375 1.84375 -3.703125 C 1.84375 -3.59375 1.953125 -3.59375 2.109375 -3.59375 L 2.71875 -3.59375 C 2.46875 -2.28125 2.15625 -0.5 1.953125 0.4375 C 1.84375 0.9375 1.703125 1.609375 1.28125 1.609375 C 1.140625 1.609375 0.953125 1.5625 0.875 1.484375 C 1.09375 1.453125 1.3125 1.265625 1.3125 1 C 1.3125 0.765625 1.140625 0.671875 0.984375 0.671875 C 0.734375 0.671875 0.484375 0.875 0.484375 1.203125 C 0.484375 1.625 0.890625 1.84375 1.28125 1.84375 C 2.1875 1.84375 2.609375 0.34375 2.75 -0.421875 Z M 3.359375 -3.59375 "/>
</g>
<g id="glyph-0-1">
<path d="M 4.40625 -3.625 C 4.078125 -3.5625 3.984375 -3.28125 3.984375 -3.140625 C 3.984375 -2.96875 4.109375 -2.8125 4.328125 -2.8125 C 4.578125 -2.8125 4.828125 -3.03125 4.828125 -3.34375 C 4.828125 -3.765625 4.375 -3.96875 3.953125 -3.96875 C 3.421875 -3.96875 3.109375 -3.484375 3 -3.296875 C 2.828125 -3.734375 2.4375 -3.96875 2 -3.96875 C 1.046875 -3.96875 0.515625 -2.8125 0.515625 -2.578125 C 0.515625 -2.5 0.578125 -2.46875 0.640625 -2.46875 C 0.71875 -2.46875 0.75 -2.515625 0.765625 -2.578125 C 1.046875 -3.46875 1.640625 -3.734375 1.984375 -3.734375 C 2.25 -3.734375 2.46875 -3.5625 2.46875 -3.140625 C 2.46875 -2.828125 2.09375 -1.390625 1.96875 -0.953125 C 1.90625 -0.6875 1.625 -0.125 1.140625 -0.125 C 0.953125 -0.125 0.765625 -0.1875 0.6875 -0.234375 C 0.921875 -0.28125 1.109375 -0.5 1.109375 -0.71875 C 1.109375 -0.953125 0.9375 -1.046875 0.765625 -1.046875 C 0.5 -1.046875 0.265625 -0.828125 0.265625 -0.515625 C 0.265625 -0.078125 0.75 0.09375 1.125 0.09375 C 1.65625 0.09375 1.953125 -0.328125 2.09375 -0.578125 C 2.3125 0.015625 2.84375 0.09375 3.078125 0.09375 C 4.046875 0.09375 4.5625 -1.0625 4.5625 -1.28125 C 4.5625 -1.328125 4.53125 -1.390625 4.453125 -1.390625 C 4.34375 -1.390625 4.34375 -1.359375 4.296875 -1.21875 C 4.09375 -0.578125 3.578125 -0.125 3.109375 -0.125 C 2.859375 -0.125 2.609375 -0.28125 2.609375 -0.71875 C 2.609375 -0.921875 2.734375 -1.40625 2.8125 -1.75 C 2.859375 -1.90625 3.09375 -2.875 3.109375 -2.9375 C 3.21875 -3.265625 3.484375 -3.734375 3.953125 -3.734375 C 4.109375 -3.734375 4.28125 -3.71875 4.40625 -3.625 Z M 4.40625 -3.625 "/>
</g>
<g id="glyph-0-2">
<path d="M 1.625 -0.140625 C 1.625 0.15625 1.625 0.890625 0.96875 1.53125 C 0.921875 1.578125 0.921875 1.59375 0.921875 1.625 C 0.921875 1.6875 0.984375 1.734375 1.03125 1.734375 C 1.125 1.734375 1.859375 1.03125 1.859375 -0.015625 C 1.859375 -0.578125 1.65625 -0.96875 1.28125 -0.96875 C 0.96875 -0.96875 0.796875 -0.734375 0.796875 -0.484375 C 0.796875 -0.234375 0.96875 0 1.28125 0 C 1.40625 0 1.546875 -0.046875 1.625 -0.140625 Z M 1.625 -0.140625 "/>
</g>
<g id="glyph-0-3">
<path d="M 4.5 -3.453125 C 4.515625 -3.5 4.53125 -3.546875 4.53125 -3.609375 C 4.53125 -3.71875 4.453125 -3.859375 4.25 -3.859375 C 4.140625 -3.859375 3.96875 -3.796875 3.90625 -3.625 C 3.890625 -3.59375 3.796875 -3.21875 3.75 -3.015625 L 3.296875 -1.234375 C 3.234375 -0.96875 3.234375 -0.953125 3.203125 -0.875 C 3.203125 -0.828125 2.828125 -0.125 2.171875 -0.125 C 1.625 -0.125 1.625 -0.6875 1.625 -0.859375 C 1.625 -1.265625 1.734375 -1.703125 2.125 -2.703125 C 2.203125 -2.921875 2.25 -3.046875 2.25 -3.203125 C 2.25 -3.65625 1.921875 -3.96875 1.484375 -3.96875 C 0.625 -3.96875 0.265625 -2.6875 0.265625 -2.578125 C 0.265625 -2.5 0.328125 -2.46875 0.390625 -2.46875 C 0.484375 -2.46875 0.5 -2.53125 0.53125 -2.640625 C 0.71875 -3.3125 1.078125 -3.734375 1.453125 -3.734375 C 1.671875 -3.734375 1.671875 -3.5625 1.671875 -3.4375 C 1.671875 -3.296875 1.625 -3.125 1.546875 -2.921875 C 1.125 -1.796875 1.015625 -1.421875 1.015625 -1 C 1.015625 0 1.828125 0.09375 2.15625 0.09375 C 2.59375 0.09375 2.90625 -0.140625 3.0625 -0.296875 C 2.953125 0.15625 2.859375 0.5625 2.5 1.015625 C 2.234375 1.375 1.875 1.609375 1.484375 1.609375 C 1.234375 1.609375 0.9375 1.53125 0.8125 1.28125 C 1.28125 1.28125 1.34375 0.875 1.34375 0.796875 C 1.34375 0.59375 1.203125 0.46875 1 0.46875 C 0.796875 0.46875 0.5 0.640625 0.5 1.046875 C 0.5 1.515625 0.921875 1.84375 1.484375 1.84375 C 2.390625 1.84375 3.375 1.0625 3.625 0.015625 Z M 4.5 -3.453125 "/>
</g>
<g id="glyph-0-4">
<path d="M 4.375 -3.53125 C 4.375 -3.671875 4.25 -3.78125 4.09375 -3.78125 C 3.9375 -3.78125 3.75 -3.671875 3.703125 -3.421875 C 3.5 -3.765625 3.21875 -3.96875 2.859375 -3.96875 C 1.765625 -3.96875 0.65625 -2.6875 0.65625 -1.4375 C 0.65625 -0.59375 1.1875 0 1.90625 0 C 2.3125 0 2.671875 -0.21875 2.96875 -0.5 C 2.859375 0 2.703125 0.59375 2.640625 0.765625 C 2.59375 0.859375 2.265625 1.609375 1.359375 1.609375 C 1.1875 1.609375 0.890625 1.609375 0.671875 1.546875 C 0.84375 1.46875 1 1.28125 1 1.078125 C 1 0.890625 0.84375 0.765625 0.65625 0.765625 C 0.453125 0.765625 0.15625 0.921875 0.15625 1.296875 C 0.15625 1.734375 0.65625 1.84375 1.375 1.84375 C 2.53125 1.84375 3.203125 1.171875 3.34375 0.59375 Z M 3.140625 -1.171875 C 3.109375 -1 3.09375 -0.984375 2.953125 -0.8125 C 2.5 -0.296875 2.109375 -0.21875 1.9375 -0.21875 C 1.5 -0.21875 1.34375 -0.65625 1.34375 -1.0625 C 1.34375 -1.40625 1.546875 -2.40625 1.828125 -2.9375 C 2.046875 -3.359375 2.453125 -3.734375 2.859375 -3.734375 C 3.4375 -3.734375 3.59375 -3.0625 3.59375 -2.984375 C 3.59375 -2.953125 3.5625 -2.890625 3.5625 -2.84375 Z M 3.140625 -1.171875 "/>
</g>
<g id="glyph-1-0">
<path d="M 3.828125 10.28125 C 3.828125 10.234375 3.796875 10.203125 3.78125 10.203125 C 3.34375 9.734375 2.75 9 2.40625 7.734375 C 2.21875 7.046875 2.078125 6.203125 2.078125 5 C 2.078125 2.265625 2.84375 0.796875 3.796875 -0.203125 C 3.828125 -0.21875 3.828125 -0.25 3.828125 -0.28125 C 3.828125 -0.34375 3.78125 -0.375 3.703125 -0.375 C 3.546875 -0.375 3 0.234375 2.984375 0.25 C 1.921875 1.4375 1.40625 3.140625 1.40625 5 C 1.40625 6.8125 1.90625 8.859375 3.46875 10.234375 C 3.625 10.375 3.640625 10.375 3.703125 10.375 C 3.78125 10.375 3.828125 10.34375 3.828125 10.28125 Z M 3.828125 10.28125 "/>
</g>
<g id="glyph-1-1">
<path d="M 2.8125 5 C 2.8125 3.1875 2.3125 1.140625 0.75 -0.234375 C 0.59375 -0.375 0.578125 -0.375 0.515625 -0.375 C 0.390625 -0.375 0.390625 -0.296875 0.390625 -0.28125 C 0.390625 -0.25 0.390625 -0.234375 0.4375 -0.171875 C 0.9375 0.34375 1.484375 1.09375 1.796875 2.265625 C 1.984375 2.953125 2.140625 3.796875 2.140625 5 C 2.140625 7.65625 1.421875 9.171875 0.421875 10.203125 C 0.40625 10.21875 0.390625 10.25 0.390625 10.28125 C 0.390625 10.296875 0.390625 10.375 0.515625 10.375 C 0.671875 10.375 1.21875 9.765625 1.234375 9.75 C 2.28125 8.5625 2.8125 6.859375 2.8125 5 Z M 2.8125 5 "/>
</g>
<g id="glyph-2-0">
<path d="M 6.046875 -2.046875 C 6.21875 -2.046875 6.390625 -2.046875 6.390625 -2.25 C 6.390625 -2.4375 6.203125 -2.4375 6.046875 -2.4375 L 1.109375 -2.4375 C 0.953125 -2.4375 0.765625 -2.4375 0.765625 -2.25 C 0.765625 -2.046875 0.9375 -2.046875 1.109375 -2.046875 Z M 6.046875 -2.046875 "/>
</g>
<g id="glyph-3-0">
<path d="M 3.203125 -4.140625 C 3.140625 -4.25 3.09375 -4.265625 2.984375 -4.265625 C 2.875 -4.265625 2.828125 -4.234375 2.78125 -4.140625 L 0.453125 -0.15625 C 0.453125 -0.140625 0.421875 -0.09375 0.421875 -0.0625 C 0.421875 0 0.484375 0 0.578125 0 L 5.40625 0 C 5.5 0 5.546875 0 5.546875 -0.0625 C 5.546875 -0.078125 5.546875 -0.109375 5.53125 -0.140625 Z M 2.78125 -3.671875 L 4.609375 -0.515625 L 0.953125 -0.515625 Z M 2.78125 -3.671875 "/>
</g>
<g id="glyph-3-1">
<path d="M 3.21875 -1.125 L 3 -1.125 C 2.984375 -1.03125 2.921875 -0.640625 2.84375 -0.578125 C 2.796875 -0.53125 2.3125 -0.53125 2.21875 -0.53125 L 1.109375 -0.53125 L 1.875 -1.15625 C 2.078125 -1.328125 2.609375 -1.703125 2.796875 -1.890625 C 2.96875 -2.0625 3.21875 -2.375 3.21875 -2.796875 C 3.21875 -3.546875 2.546875 -3.984375 1.734375 -3.984375 C 0.96875 -3.984375 0.4375 -3.46875 0.4375 -2.90625 C 0.4375 -2.609375 0.6875 -2.5625 0.75 -2.5625 C 0.90625 -2.5625 1.078125 -2.671875 1.078125 -2.890625 C 1.078125 -3.015625 1 -3.21875 0.734375 -3.21875 C 0.875 -3.515625 1.234375 -3.75 1.65625 -3.75 C 2.28125 -3.75 2.609375 -3.28125 2.609375 -2.796875 C 2.609375 -2.375 2.328125 -1.9375 1.921875 -1.546875 L 0.5 -0.25 C 0.4375 -0.1875 0.4375 -0.1875 0.4375 0 L 3.03125 0 Z M 3.21875 -1.125 "/>
</g>
<g id="glyph-4-0">
<path d="M 3.5625 -2.296875 C 3.578125 -2.34375 3.578125 -2.359375 3.578125 -2.375 C 3.578125 -2.453125 3.53125 -2.578125 3.375 -2.578125 C 3.265625 -2.578125 3.171875 -2.515625 3.125 -2.421875 C 3.09375 -2.390625 3.0625 -2.203125 3.03125 -2.09375 L 2.71875 -0.84375 C 2.671875 -0.671875 2.65625 -0.578125 2.40625 -0.359375 C 2.34375 -0.296875 2.15625 -0.140625 1.890625 -0.140625 C 1.453125 -0.140625 1.453125 -0.53125 1.453125 -0.640625 C 1.453125 -0.890625 1.53125 -1.171875 1.796875 -1.828125 C 1.84375 -1.96875 1.859375 -2.015625 1.859375 -2.125 C 1.859375 -2.453125 1.5625 -2.640625 1.265625 -2.640625 C 0.65625 -2.640625 0.359375 -1.84375 0.359375 -1.71875 C 0.359375 -1.6875 0.390625 -1.640625 0.46875 -1.640625 C 0.5625 -1.640625 0.578125 -1.671875 0.59375 -1.71875 C 0.765625 -2.296875 1.078125 -2.4375 1.25 -2.4375 C 1.359375 -2.4375 1.40625 -2.359375 1.40625 -2.21875 C 1.40625 -2.09375 1.328125 -1.890625 1.265625 -1.734375 C 1.046875 -1.203125 0.984375 -0.9375 0.984375 -0.71875 C 0.984375 -0.15625 1.40625 0.0625 1.875 0.0625 C 1.953125 0.0625 2.234375 0.0625 2.5625 -0.21875 C 2.484375 0.109375 2.421875 0.34375 2.140625 0.65625 C 2.03125 0.78125 1.765625 1.015625 1.40625 1.015625 C 1.34375 1.015625 1.09375 1.015625 0.953125 0.859375 C 1.21875 0.8125 1.25 0.578125 1.25 0.53125 C 1.25 0.359375 1.125 0.296875 1 0.296875 C 0.859375 0.296875 0.65625 0.421875 0.65625 0.6875 C 0.65625 0.984375 0.9375 1.21875 1.40625 1.21875 C 2.046875 1.21875 2.8125 0.75 2.984375 0 Z M 3.5625 -2.296875 "/>
</g>
<g id="glyph-4-1">
<path d="M 3.375 -2.359375 C 3.15625 -2.296875 3.109375 -2.125 3.109375 -2.03125 C 3.109375 -1.84375 3.265625 -1.796875 3.34375 -1.796875 C 3.53125 -1.796875 3.703125 -1.9375 3.703125 -2.171875 C 3.703125 -2.5 3.34375 -2.640625 3.046875 -2.640625 C 2.640625 -2.640625 2.40625 -2.328125 2.34375 -2.21875 C 2.265625 -2.375 2.03125 -2.640625 1.578125 -2.640625 C 0.890625 -2.640625 0.484375 -1.921875 0.484375 -1.71875 C 0.484375 -1.6875 0.515625 -1.640625 0.59375 -1.640625 C 0.6875 -1.640625 0.703125 -1.671875 0.71875 -1.71875 C 0.875 -2.203125 1.28125 -2.4375 1.5625 -2.4375 C 1.859375 -2.4375 1.953125 -2.25 1.953125 -2.046875 C 1.953125 -1.984375 1.953125 -1.921875 1.90625 -1.734375 C 1.765625 -1.1875 1.640625 -0.640625 1.609375 -0.5625 C 1.515625 -0.34375 1.296875 -0.140625 1.046875 -0.140625 C 1.015625 -0.140625 0.84375 -0.140625 0.703125 -0.234375 C 0.9375 -0.3125 0.96875 -0.5 0.96875 -0.546875 C 0.96875 -0.703125 0.84375 -0.78125 0.71875 -0.78125 C 0.5625 -0.78125 0.375 -0.65625 0.375 -0.40625 C 0.375 -0.0625 0.75 0.0625 1.03125 0.0625 C 1.375 0.0625 1.625 -0.171875 1.734375 -0.359375 C 1.859375 -0.109375 2.140625 0.0625 2.484375 0.0625 C 3.1875 0.0625 3.578125 -0.671875 3.578125 -0.859375 C 3.578125 -0.875 3.578125 -0.953125 3.46875 -0.953125 C 3.390625 -0.953125 3.375 -0.90625 3.359375 -0.84375 C 3.1875 -0.328125 2.765625 -0.140625 2.5 -0.140625 C 2.28125 -0.140625 2.125 -0.265625 2.125 -0.515625 C 2.125 -0.640625 2.140625 -0.765625 2.203125 -0.96875 L 2.390625 -1.75 C 2.453125 -1.984375 2.484375 -2.09375 2.609375 -2.234375 C 2.6875 -2.328125 2.84375 -2.4375 3.03125 -2.4375 C 3.0625 -2.4375 3.234375 -2.4375 3.375 -2.359375 Z M 3.375 -2.359375 "/>
</g>
<g id="glyph-5-0">
<path d="M 6.328125 -2.046875 C 6.453125 -2.046875 6.640625 -2.046875 6.640625 -2.25 C 6.640625 -2.4375 6.46875 -2.4375 6.328125 -2.4375 L 3.78125 -2.4375 L 3.78125 -5 C 3.78125 -5.140625 3.78125 -5.3125 3.578125 -5.3125 C 3.390625 -5.3125 3.390625 -5.125 3.390625 -5 L 3.390625 -2.4375 L 0.828125 -2.4375 C 0.703125 -2.4375 0.515625 -2.4375 0.515625 -2.25 C 0.515625 -2.046875 0.6875 -2.046875 0.828125 -2.046875 L 3.390625 -2.046875 L 3.390625 0.515625 C 3.390625 0.65625 3.390625 0.828125 3.59375 0.828125 C 3.78125 0.828125 3.78125 0.640625 3.78125 0.515625 L 3.78125 -2.046875 Z M 6.328125 -2.046875 "/>
</g>
<g id="glyph-6-0">
<path d="M 3.296875 2.390625 C 3.296875 2.359375 3.296875 2.34375 3.125 2.171875 C 1.890625 0.921875 1.5625 -0.96875 1.5625 -2.5 C 1.5625 -4.234375 1.9375 -5.96875 3.171875 -7.203125 C 3.296875 -7.328125 3.296875 -7.34375 3.296875 -7.375 C 3.296875 -7.453125 3.265625 -7.484375 3.203125 -7.484375 C 3.09375 -7.484375 2.203125 -6.796875 1.609375 -5.53125 C 1.109375 -4.4375 0.984375 -3.328125 0.984375 -2.5 C 0.984375 -1.71875 1.09375 -0.515625 1.640625 0.625 C 2.25 1.84375 3.09375 2.5 3.203125 2.5 C 3.265625 2.5 3.296875 2.46875 3.296875 2.390625 Z M 3.296875 2.390625 "/>
</g>
<g id="glyph-6-1">
<path d="M 2.875 -2.5 C 2.875 -3.265625 2.765625 -4.46875 2.21875 -5.609375 C 1.625 -6.828125 0.765625 -7.484375 0.671875 -7.484375 C 0.609375 -7.484375 0.5625 -7.4375 0.5625 -7.375 C 0.5625 -7.34375 0.5625 -7.328125 0.75 -7.140625 C 1.734375 -6.15625 2.296875 -4.578125 2.296875 -2.5 C 2.296875 -0.78125 1.9375 0.96875 0.703125 2.21875 C 0.5625 2.34375 0.5625 2.359375 0.5625 2.390625 C 0.5625 2.453125 0.609375 2.5 0.671875 2.5 C 0.765625 2.5 1.671875 1.8125 2.25 0.546875 C 2.765625 -0.546875 2.875 -1.65625 2.875 -2.5 Z M 2.875 -2.5 "/>
</g>
<g id="glyph-6-2">
<path d="M 4.40625 -6.953125 C 4.34375 -7.09375 4.3125 -7.140625 4.140625 -7.140625 C 3.984375 -7.140625 3.953125 -7.09375 3.890625 -6.953125 L 0.515625 -0.203125 C 0.46875 -0.109375 0.46875 -0.09375 0.46875 -0.078125 C 0.46875 0 0.53125 0 0.6875 0 L 7.609375 0 C 7.765625 0 7.828125 0 7.828125 -0.078125 C 7.828125 -0.09375 7.828125 -0.109375 7.78125 -0.203125 Z M 3.828125 -6.140625 L 6.515625 -0.75 L 1.140625 -0.75 Z M 3.828125 -6.140625 "/>
</g>
<g id="glyph-7-0">
<path d="M 3.328125 -3.015625 C 3.390625 -3.265625 3.625 -4.1875 4.3125 -4.1875 C 4.359375 -4.1875 4.609375 -4.1875 4.8125 -4.0625 C 4.53125 -4 4.34375 -3.765625 4.34375 -3.515625 C 4.34375 -3.359375 4.453125 -3.171875 4.71875 -3.171875 C 4.9375 -3.171875 5.25 -3.34375 5.25 -3.75 C 5.25 -4.265625 4.671875 -4.40625 4.328125 -4.40625 C 3.75 -4.40625 3.40625 -3.875 3.28125 -3.65625 C 3.03125 -4.3125 2.5 -4.40625 2.203125 -4.40625 C 1.171875 -4.40625 0.59375 -3.125 0.59375 -2.875 C 0.59375 -2.765625 0.703125 -2.765625 0.71875 -2.765625 C 0.796875 -2.765625 0.828125 -2.796875 0.84375 -2.875 C 1.1875 -3.9375 1.84375 -4.1875 2.1875 -4.1875 C 2.375 -4.1875 2.71875 -4.09375 2.71875 -3.515625 C 2.71875 -3.203125 2.546875 -2.546875 2.1875 -1.140625 C 2.03125 -0.53125 1.671875 -0.109375 1.234375 -0.109375 C 1.171875 -0.109375 0.953125 -0.109375 0.734375 -0.234375 C 0.984375 -0.296875 1.203125 -0.5 1.203125 -0.78125 C 1.203125 -1.046875 0.984375 -1.125 0.84375 -1.125 C 0.53125 -1.125 0.296875 -0.875 0.296875 -0.546875 C 0.296875 -0.09375 0.78125 0.109375 1.21875 0.109375 C 1.890625 0.109375 2.25 -0.59375 2.265625 -0.640625 C 2.390625 -0.28125 2.75 0.109375 3.34375 0.109375 C 4.375 0.109375 4.9375 -1.171875 4.9375 -1.421875 C 4.9375 -1.53125 4.859375 -1.53125 4.828125 -1.53125 C 4.734375 -1.53125 4.71875 -1.484375 4.6875 -1.421875 C 4.359375 -0.34375 3.6875 -0.109375 3.375 -0.109375 C 2.984375 -0.109375 2.828125 -0.421875 2.828125 -0.765625 C 2.828125 -0.984375 2.875 -1.203125 2.984375 -1.640625 Z M 3.328125 -3.015625 "/>
</g>
<g id="glyph-7-1">
<path d="M 2.03125 -0.015625 C 2.03125 -0.671875 1.78125 -1.0625 1.390625 -1.0625 C 1.0625 -1.0625 0.859375 -0.8125 0.859375 -0.53125 C 0.859375 -0.265625 1.0625 0 1.390625 0 C 1.5 0 1.640625 -0.046875 1.734375 -0.125 C 1.765625 -0.15625 1.78125 -0.15625 1.78125 -0.15625 C 1.796875 -0.15625 1.796875 -0.15625 1.796875 -0.015625 C 1.796875 0.734375 1.453125 1.328125 1.125 1.65625 C 1.015625 1.765625 1.015625 1.78125 1.015625 1.8125 C 1.015625 1.890625 1.0625 1.921875 1.109375 1.921875 C 1.21875 1.921875 2.03125 1.15625 2.03125 -0.015625 Z M 2.03125 -0.015625 "/>
</g>
<g id="glyph-7-2">
<path d="M 4.84375 -3.796875 C 4.890625 -3.9375 4.890625 -3.953125 4.890625 -4.03125 C 4.890625 -4.203125 4.75 -4.296875 4.59375 -4.296875 C 4.5 -4.296875 4.34375 -4.234375 4.25 -4.09375 C 4.234375 -4.03125 4.140625 -3.734375 4.109375 -3.546875 C 4.03125 -3.296875 3.96875 -3.015625 3.90625 -2.75 L 3.453125 -0.953125 C 3.421875 -0.8125 2.984375 -0.109375 2.328125 -0.109375 C 1.828125 -0.109375 1.71875 -0.546875 1.71875 -0.921875 C 1.71875 -1.375 1.890625 -2 2.21875 -2.875 C 2.375 -3.28125 2.421875 -3.390625 2.421875 -3.59375 C 2.421875 -4.03125 2.109375 -4.40625 1.609375 -4.40625 C 0.65625 -4.40625 0.296875 -2.953125 0.296875 -2.875 C 0.296875 -2.765625 0.390625 -2.765625 0.40625 -2.765625 C 0.515625 -2.765625 0.515625 -2.796875 0.5625 -2.953125 C 0.84375 -3.890625 1.234375 -4.1875 1.578125 -4.1875 C 1.65625 -4.1875 1.828125 -4.1875 1.828125 -3.875 C 1.828125 -3.625 1.71875 -3.359375 1.65625 -3.171875 C 1.25 -2.109375 1.078125 -1.546875 1.078125 -1.078125 C 1.078125 -0.1875 1.703125 0.109375 2.296875 0.109375 C 2.6875 0.109375 3.015625 -0.0625 3.296875 -0.34375 C 3.171875 0.171875 3.046875 0.671875 2.65625 1.203125 C 2.390625 1.53125 2.015625 1.828125 1.5625 1.828125 C 1.421875 1.828125 0.96875 1.796875 0.796875 1.40625 C 0.953125 1.40625 1.09375 1.40625 1.21875 1.28125 C 1.328125 1.203125 1.421875 1.0625 1.421875 0.875 C 1.421875 0.5625 1.15625 0.53125 1.0625 0.53125 C 0.828125 0.53125 0.5 0.6875 0.5 1.171875 C 0.5 1.671875 0.9375 2.046875 1.5625 2.046875 C 2.578125 2.046875 3.609375 1.140625 3.890625 0.015625 Z M 4.84375 -3.796875 "/>
</g>
<g id="glyph-8-0">
<path d="M 6.609375 0 L 6.609375 -0.5625 C 5.875 -0.5625 5.78125 -0.5625 5.78125 -1.03125 L 5.78125 -5.375 L 3.59375 -5.28125 L 3.59375 -4.71875 C 4.34375 -4.71875 4.421875 -4.71875 4.421875 -4.25 L 4.421875 -1.953125 C 4.421875 -1.09375 4 -0.359375 3.234375 -0.359375 C 2.484375 -0.359375 2.46875 -0.625 2.46875 -1.25 L 2.46875 -5.375 L 0.28125 -5.28125 L 0.28125 -4.71875 C 1.03125 -4.71875 1.109375 -4.71875 1.109375 -4.25 L 1.109375 -1.453125 C 1.109375 -0.265625 1.90625 0.078125 3.078125 0.078125 C 3.375 0.078125 4.03125 0.078125 4.484375 -0.734375 L 4.5 -0.734375 L 4.5 0.078125 Z M 6.609375 0 "/>
</g>
<g id="glyph-9-0">
<path d="M 3.890625 2.90625 C 3.890625 2.875 3.890625 2.84375 3.6875 2.640625 C 2.484375 1.4375 1.8125 -0.53125 1.8125 -2.96875 C 1.8125 -5.296875 2.375 -7.296875 3.765625 -8.703125 C 3.890625 -8.8125 3.890625 -8.828125 3.890625 -8.875 C 3.890625 -8.9375 3.828125 -8.96875 3.78125 -8.96875 C 3.625 -8.96875 2.640625 -8.109375 2.0625 -6.9375 C 1.453125 -5.71875 1.171875 -4.453125 1.171875 -2.96875 C 1.171875 -1.90625 1.34375 -0.484375 1.953125 0.78125 C 2.671875 2.21875 3.640625 3 3.78125 3 C 3.828125 3 3.890625 2.96875 3.890625 2.90625 Z M 3.890625 2.90625 "/>
</g>
<g id="glyph-9-1">
<path d="M 3.375 -2.96875 C 3.375 -3.890625 3.25 -5.359375 2.578125 -6.75 C 1.875 -8.1875 0.890625 -8.96875 0.765625 -8.96875 C 0.71875 -8.96875 0.65625 -8.9375 0.65625 -8.875 C 0.65625 -8.828125 0.65625 -8.8125 0.859375 -8.609375 C 2.0625 -7.40625 2.71875 -5.421875 2.71875 -2.984375 C 2.71875 -0.671875 2.15625 1.328125 0.78125 2.734375 C 0.65625 2.84375 0.65625 2.875 0.65625 2.90625 C 0.65625 2.96875 0.71875 3 0.765625 3 C 0.921875 3 1.90625 2.140625 2.484375 0.96875 C 3.09375 -0.25 3.375 -1.546875 3.375 -2.96875 Z M 3.375 -2.96875 "/>
</g>
<g id="glyph-10-0">
<path d="M 5.671875 -4.875 C 5.28125 -4.8125 5.140625 -4.515625 5.140625 -4.296875 C 5.140625 -4 5.359375 -3.90625 5.53125 -3.90625 C 5.890625 -3.90625 6.140625 -4.21875 6.140625 -4.546875 C 6.140625 -5.046875 5.5625 -5.265625 5.0625 -5.265625 C 4.34375 -5.265625 3.9375 -4.546875 3.828125 -4.328125 C 3.546875 -5.21875 2.8125 -5.265625 2.59375 -5.265625 C 1.375 -5.265625 0.734375 -3.703125 0.734375 -3.4375 C 0.734375 -3.390625 0.78125 -3.328125 0.859375 -3.328125 C 0.953125 -3.328125 0.984375 -3.40625 1 -3.453125 C 1.40625 -4.78125 2.21875 -5.03125 2.5625 -5.03125 C 3.09375 -5.03125 3.203125 -4.53125 3.203125 -4.25 C 3.203125 -3.984375 3.125 -3.703125 2.984375 -3.125 L 2.578125 -1.5 C 2.40625 -0.78125 2.0625 -0.125 1.421875 -0.125 C 1.359375 -0.125 1.0625 -0.125 0.8125 -0.28125 C 1.25 -0.359375 1.34375 -0.71875 1.34375 -0.859375 C 1.34375 -1.09375 1.15625 -1.25 0.9375 -1.25 C 0.640625 -1.25 0.328125 -0.984375 0.328125 -0.609375 C 0.328125 -0.109375 0.890625 0.125 1.40625 0.125 C 1.984375 0.125 2.390625 -0.328125 2.640625 -0.828125 C 2.828125 -0.125 3.4375 0.125 3.875 0.125 C 5.09375 0.125 5.734375 -1.453125 5.734375 -1.703125 C 5.734375 -1.765625 5.6875 -1.8125 5.625 -1.8125 C 5.515625 -1.8125 5.5 -1.75 5.46875 -1.65625 C 5.140625 -0.609375 4.453125 -0.125 3.90625 -0.125 C 3.484375 -0.125 3.265625 -0.4375 3.265625 -0.921875 C 3.265625 -1.1875 3.3125 -1.375 3.5 -2.15625 L 3.921875 -3.796875 C 4.09375 -4.5 4.5 -5.03125 5.0625 -5.03125 C 5.078125 -5.03125 5.421875 -5.03125 5.671875 -4.875 Z M 5.671875 -4.875 "/>
</g>
<g id="glyph-10-1">
<path d="M 2.328125 0.046875 C 2.328125 -0.640625 2.109375 -1.15625 1.609375 -1.15625 C 1.234375 -1.15625 1.046875 -0.84375 1.046875 -0.578125 C 1.046875 -0.328125 1.21875 0 1.625 0 C 1.78125 0 1.90625 -0.046875 2.015625 -0.15625 C 2.046875 -0.171875 2.0625 -0.171875 2.0625 -0.171875 C 2.09375 -0.171875 2.09375 -0.015625 2.09375 0.046875 C 2.09375 0.4375 2.015625 1.21875 1.328125 2 C 1.1875 2.140625 1.1875 2.15625 1.1875 2.1875 C 1.1875 2.25 1.25 2.3125 1.3125 2.3125 C 1.40625 2.3125 2.328125 1.421875 2.328125 0.046875 Z M 2.328125 0.046875 "/>
</g>
<g id="glyph-10-2">
<path d="M 3.140625 1.34375 C 2.828125 1.796875 2.359375 2.203125 1.765625 2.203125 C 1.625 2.203125 1.046875 2.171875 0.875 1.625 C 0.90625 1.640625 0.96875 1.640625 0.984375 1.640625 C 1.34375 1.640625 1.59375 1.328125 1.59375 1.046875 C 1.59375 0.78125 1.359375 0.6875 1.1875 0.6875 C 0.984375 0.6875 0.578125 0.828125 0.578125 1.40625 C 0.578125 2.015625 1.09375 2.4375 1.765625 2.4375 C 2.96875 2.4375 4.171875 1.34375 4.5 0.015625 L 5.671875 -4.65625 C 5.6875 -4.703125 5.71875 -4.78125 5.71875 -4.859375 C 5.71875 -5.03125 5.5625 -5.15625 5.390625 -5.15625 C 5.28125 -5.15625 5.03125 -5.109375 4.9375 -4.75 L 4.046875 -1.234375 C 4 -1.015625 4 -0.984375 3.890625 -0.859375 C 3.65625 -0.53125 3.265625 -0.125 2.6875 -0.125 C 2.015625 -0.125 1.953125 -0.78125 1.953125 -1.09375 C 1.953125 -1.78125 2.28125 -2.703125 2.609375 -3.5625 C 2.734375 -3.90625 2.8125 -4.078125 2.8125 -4.3125 C 2.8125 -4.8125 2.453125 -5.265625 1.859375 -5.265625 C 0.765625 -5.265625 0.328125 -3.53125 0.328125 -3.4375 C 0.328125 -3.390625 0.375 -3.328125 0.453125 -3.328125 C 0.5625 -3.328125 0.578125 -3.375 0.625 -3.546875 C 0.90625 -4.546875 1.359375 -5.03125 1.828125 -5.03125 C 1.9375 -5.03125 2.140625 -5.03125 2.140625 -4.640625 C 2.140625 -4.328125 2.015625 -3.984375 1.828125 -3.53125 C 1.25 -1.953125 1.25 -1.5625 1.25 -1.28125 C 1.25 -0.140625 2.0625 0.125 2.65625 0.125 C 3 0.125 3.4375 0.015625 3.84375 -0.4375 L 3.859375 -0.421875 C 3.6875 0.28125 3.5625 0.75 3.140625 1.34375 Z M 3.140625 1.34375 "/>
</g>
<g id="glyph-10-3">
<path d="M 1.515625 -0.96875 C 2.03125 -1.546875 2.453125 -1.921875 3.046875 -2.46875 C 3.765625 -3.078125 4.078125 -3.375 4.25 -3.5625 C 5.078125 -4.390625 5.5 -5.078125 5.5 -5.171875 C 5.5 -5.265625 5.40625 -5.265625 5.375 -5.265625 C 5.296875 -5.265625 5.265625 -5.21875 5.21875 -5.140625 C 4.90625 -4.625 4.625 -4.375 4.3125 -4.375 C 4.0625 -4.375 3.9375 -4.484375 3.703125 -4.765625 C 3.453125 -5.0625 3.25 -5.265625 2.90625 -5.265625 C 2.03125 -5.265625 1.5 -4.1875 1.5 -3.9375 C 1.5 -3.890625 1.515625 -3.828125 1.625 -3.828125 C 1.71875 -3.828125 1.734375 -3.875 1.765625 -3.953125 C 1.96875 -4.4375 2.546875 -4.515625 2.765625 -4.515625 C 3.03125 -4.515625 3.265625 -4.4375 3.515625 -4.328125 C 3.96875 -4.140625 4.15625 -4.140625 4.28125 -4.140625 C 4.359375 -4.140625 4.40625 -4.140625 4.46875 -4.140625 C 4.078125 -3.6875 3.4375 -3.109375 2.890625 -2.625 L 1.6875 -1.5 C 0.953125 -0.765625 0.515625 -0.0625 0.515625 0.03125 C 0.515625 0.09375 0.578125 0.125 0.640625 0.125 C 0.71875 0.125 0.734375 0.109375 0.8125 -0.03125 C 1 -0.328125 1.390625 -0.78125 1.828125 -0.78125 C 2.078125 -0.78125 2.203125 -0.6875 2.4375 -0.390625 C 2.671875 -0.125 2.875 0.125 3.25 0.125 C 4.421875 0.125 5.09375 -1.40625 5.09375 -1.671875 C 5.09375 -1.71875 5.078125 -1.796875 4.953125 -1.796875 C 4.859375 -1.796875 4.859375 -1.75 4.8125 -1.625 C 4.546875 -0.921875 3.84375 -0.640625 3.375 -0.640625 C 3.125 -0.640625 2.890625 -0.71875 2.640625 -0.828125 C 2.15625 -1.015625 2.03125 -1.015625 1.875 -1.015625 C 1.75 -1.015625 1.625 -1.015625 1.515625 -0.96875 Z M 1.515625 -0.96875 "/>
</g>
</g>
</defs>
<path fill="none" stroke-width="0.79701" stroke-linecap="butt" stroke-linejoin="miter" stroke="rgb(0%, 0%, 0%)" stroke-opacity="1" stroke-miterlimit="10" d="M -185.731094 -38.692031 C -167.9225 -10.317031 -178.488906 25.968125 -209.332656 42.350938 C -240.176406 58.73375 -279.617813 49.011094 -297.426406 20.636094 C -315.235 -7.738906 -304.664688 -44.024062 -273.820938 -60.410781 C -250.348281 -72.879531 -220.89125 -70.504531 -203.059219 -56.742812 " transform="matrix(1, 0, 0, -1, 320.61, 72.765)"/>
<path fill-rule="nonzero" fill="rgb(0%, 0%, 0%)" fill-opacity="1" stroke-width="0.79701" stroke-linecap="butt" stroke-linejoin="miter" stroke="rgb(0%, 0%, 0%)" stroke-opacity="1" stroke-miterlimit="10" d="M 4.843833 0.00104519 L 1.286971 1.345166 L 2.468451 -0.00112683 L 1.287896 -1.345089 Z M 4.843833 0.00104519 " transform="matrix(0.79155, -0.61102, -0.61102, -0.79155, 115.75244, 130.8941)"/>
<path fill="none" stroke-width="0.79701" stroke-linecap="butt" stroke-linejoin="miter" stroke="rgb(0%, 0%, 0%)" stroke-opacity="1" stroke-miterlimit="10" d="M -211.524063 -20.637344 C -200.840469 -4.598281 -207.180313 15.913438 -225.688125 25.17125 C -244.195938 34.432969 -267.86 28.936875 -278.543594 12.897813 C -289.227188 -3.14125 -282.887344 -23.649062 -264.379531 -32.910781 C -250.2975 -39.957656 -232.621719 -38.617812 -223.160781 -31.738906 " transform="matrix(1, 0, 0, -1, 320.61, 72.765)"/>
<path fill-rule="nonzero" fill="rgb(0%, 0%, 0%)" fill-opacity="1" stroke-width="0.79701" stroke-linecap="butt" stroke-linejoin="miter" stroke="rgb(0%, 0%, 0%)" stroke-opacity="1" stroke-miterlimit="10" d="M 4.845267 0.000305637 L 1.28818 1.345612 L 2.468383 -0.000426048 L 1.285774 -1.347769 Z M 4.845267 0.000305637 " transform="matrix(0.80875, -0.5881, -0.5881, -0.80875, 95.61282, 105.83803)"/>
<path fill="none" stroke-width="0.79701" stroke-linecap="butt" stroke-linejoin="miter" stroke="rgb(0%, 0%, 0%)" stroke-opacity="1" stroke-miterlimit="10" d="M -237.320938 -5.160781 C -233.910781 2.874375 -238.742813 11.753281 -248.113906 14.679063 C -257.485 17.600938 -267.844375 13.460313 -271.254531 5.429063 C -274.664688 -2.602187 -269.836563 -11.485 -260.465469 -14.410781 C -257.485 -15.336562 -254.274063 -15.57875 -254.817031 -15.660781 " transform="matrix(1, 0, 0, -1, 320.61, 72.765)"/>
<path fill-rule="nonzero" fill="rgb(0%, 0%, 0%)" fill-opacity="1" stroke-width="0.79701" stroke-linecap="butt" stroke-linejoin="miter" stroke="rgb(0%, 0%, 0%)" stroke-opacity="1" stroke-miterlimit="10" d="M 4.843378 -0.000889444 L 1.285812 1.346592 L 2.468829 -0.00160874 L 1.285607 -1.347833 Z M 4.843378 -0.000889444 " transform="matrix(0.98872, -0.1494, -0.1494, -0.98872, 63.54706, 88.76569)"/>
<path fill="none" stroke-width="0.79701" stroke-linecap="butt" stroke-linejoin="miter" stroke="rgb(0%, 0%, 100%)" stroke-opacity="1" stroke-miterlimit="10" d="M -288.910781 -30.95375 L -288.910781 30.9525 L -227.000625 30.9525 L -227.000625 -30.95375 Z M -288.910781 -30.95375 " transform="matrix(1, 0, 0, -1, 320.61, 72.765)"/>
<path fill="none" stroke-width="0.79701" stroke-linecap="butt" stroke-linejoin="miter" stroke="rgb(0%, 0%, 100%)" stroke-opacity="1" stroke-miterlimit="10" d="M -55.277969 -44.219375 L -55.277969 44.222031 L 55.276719 44.222031 L 55.276719 -44.219375 Z M -55.277969 -44.219375 " transform="matrix(1, 0, 0, -1, 320.61, 72.765)"/>
<path fill="none" stroke-width="1.19553" stroke-linecap="butt" stroke-linejoin="miter" stroke="rgb(0%, 0%, 100%)" stroke-opacity="1" stroke-miterlimit="10" d="M -55.277969 -44.219375 L 51.655625 -44.219375 " transform="matrix(1, 0, 0, -1, 320.61, 72.765)"/>
<path fill-rule="nonzero" fill="rgb(0%, 0%, 100%)" fill-opacity="1" stroke-width="1.00871" stroke-linecap="butt" stroke-linejoin="miter" stroke="rgb(0%, 0%, 100%)" stroke-opacity="1" stroke-miterlimit="10" d="M 4.540499 0.001625 L 1.630342 1.107094 L 2.610811 0.001625 L 1.630342 -1.10775 Z M 4.540499 0.001625 " transform="matrix(1, 0, 0, -1, 369.90872, 116.986)"/>
<g fill="rgb(0%, 0%, 100%)" fill-opacity="1">
<use xlink:href="#glyph-0-0" x="296.037" y="134.089"/>
</g>
<g fill="rgb(0%, 0%, 100%)" fill-opacity="1">
<use xlink:href="#glyph-1-0" x="301.486" y="126.846"/>
</g>
<g fill="rgb(0%, 0%, 100%)" fill-opacity="1">
<use xlink:href="#glyph-0-1" x="305.709" y="134.089"/>
<use xlink:href="#glyph-0-2" x="310.932813" y="134.089"/>
</g>
<g fill="rgb(0%, 0%, 100%)" fill-opacity="1">
<use xlink:href="#glyph-0-3" x="316.559216" y="134.089"/>
</g>
<g fill="rgb(0%, 0%, 100%)" fill-opacity="1">
<use xlink:href="#glyph-2-0" x="321.425" y="134.089"/>
</g>
<g fill="rgb(0%, 0%, 100%)" fill-opacity="1">
<use xlink:href="#glyph-3-0" x="329.788" y="130.117"/>
</g>
<g fill="rgb(0%, 0%, 100%)" fill-opacity="1">
<use xlink:href="#glyph-4-0" x="335.765" y="130.117"/>
</g>
<path fill="none" stroke-width="0.379" stroke-linecap="butt" stroke-linejoin="miter" stroke="rgb(0%, 0%, 100%)" stroke-opacity="1" stroke-miterlimit="10" d="M 0.0010625 0.00034375 L 9.977625 0.00034375 " transform="matrix(1, 0, 0, -1, 329.788, 131.848)"/>
<g fill="rgb(0%, 0%, 100%)" fill-opacity="1">
<use xlink:href="#glyph-3-1" x="332.949" y="137.132"/>
</g>
<g fill="rgb(0%, 0%, 100%)" fill-opacity="1">
<use xlink:href="#glyph-1-1" x="340.96" y="126.846"/>
</g>
<path fill="none" stroke-width="1.19553" stroke-linecap="butt" stroke-linejoin="miter" stroke="rgb(0%, 0%, 100%)" stroke-opacity="1" stroke-miterlimit="10" d="M -55.277969 44.222031 L 51.655625 44.222031 " transform="matrix(1, 0, 0, -1, 320.61, 72.765)"/>
<path fill-rule="nonzero" fill="rgb(0%, 0%, 100%)" fill-opacity="1" stroke-width="1.00871" stroke-linecap="butt" stroke-linejoin="miter" stroke="rgb(0%, 0%, 100%)" stroke-opacity="1" stroke-miterlimit="10" d="M 4.540499 0.00103125 L 1.630342 1.110406 L 2.610811 0.00103125 L 1.630342 -1.108344 Z M 4.540499 0.00103125 " transform="matrix(1, 0, 0, -1, 369.90872, 28.544)"/>
<g fill="rgb(0%, 0%, 100%)" fill-opacity="1">
<use xlink:href="#glyph-0-0" x="296.037" y="16.358"/>
</g>
<g fill="rgb(0%, 0%, 100%)" fill-opacity="1">
<use xlink:href="#glyph-1-0" x="301.486" y="9.115"/>
</g>
<g fill="rgb(0%, 0%, 100%)" fill-opacity="1">
<use xlink:href="#glyph-0-1" x="305.709" y="16.358"/>
<use xlink:href="#glyph-0-2" x="310.932813" y="16.358"/>
</g>
<g fill="rgb(0%, 0%, 100%)" fill-opacity="1">
<use xlink:href="#glyph-0-3" x="316.559216" y="16.358"/>
</g>
<g fill="rgb(0%, 0%, 100%)" fill-opacity="1">
<use xlink:href="#glyph-5-0" x="321.425" y="16.358"/>
</g>
<g fill="rgb(0%, 0%, 100%)" fill-opacity="1">
<use xlink:href="#glyph-3-0" x="329.788" y="12.386"/>
</g>
<g fill="rgb(0%, 0%, 100%)" fill-opacity="1">
<use xlink:href="#glyph-4-0" x="335.765" y="12.386"/>
</g>
<path fill="none" stroke-width="0.379" stroke-linecap="butt" stroke-linejoin="miter" stroke="rgb(0%, 0%, 100%)" stroke-opacity="1" stroke-miterlimit="10" d="M 0.0010625 -0.0001875 L 9.977625 -0.0001875 " transform="matrix(1, 0, 0, -1, 329.788, 14.117)"/>
<g fill="rgb(0%, 0%, 100%)" fill-opacity="1">
<use xlink:href="#glyph-3-1" x="332.949" y="19.401"/>
</g>
<g fill="rgb(0%, 0%, 100%)" fill-opacity="1">
<use xlink:href="#glyph-1-1" x="340.96" y="9.115"/>
</g>
<path fill="none" stroke-width="1.19553" stroke-linecap="butt" stroke-linejoin="miter" stroke="rgb(100%, 0%, 0%)" stroke-opacity="1" stroke-miterlimit="10" d="M 55.276719 -44.219375 L 55.276719 40.600938 " transform="matrix(1, 0, 0, -1, 320.61, 72.765)"/>
<path fill-rule="nonzero" fill="rgb(100%, 0%, 0%)" fill-opacity="1" stroke-width="1.00871" stroke-linecap="butt" stroke-linejoin="miter" stroke="rgb(100%, 0%, 0%)" stroke-opacity="1" stroke-miterlimit="10" d="M 4.541201 -0.00033875 L 1.627139 1.109036 L 2.611514 -0.00033875 L 1.627139 -1.109714 Z M 4.541201 -0.00033875 " transform="matrix(0, -1, -1, 0, 375.88638, 34.52167)"/>
<g fill="rgb(100%, 0%, 0%)" fill-opacity="1">
<use xlink:href="#glyph-0-4" x="384.933" y="75.075"/>
</g>
<g fill="rgb(100%, 0%, 0%)" fill-opacity="1">
<use xlink:href="#glyph-1-0" x="389.649" y="67.832"/>
</g>
<g fill="rgb(100%, 0%, 0%)" fill-opacity="1">
<use xlink:href="#glyph-0-1" x="393.873" y="75.075"/>
</g>
<g fill="rgb(100%, 0%, 0%)" fill-opacity="1">
<use xlink:href="#glyph-5-0" x="399.096" y="75.075"/>
</g>
<g fill="rgb(100%, 0%, 0%)" fill-opacity="1">
<use xlink:href="#glyph-3-0" x="407.459" y="71.401"/>
</g>
<g fill="rgb(100%, 0%, 0%)" fill-opacity="1">
<use xlink:href="#glyph-4-1" x="413.437" y="71.401"/>
</g>
<path fill="none" stroke-width="0.379" stroke-linecap="butt" stroke-linejoin="miter" stroke="rgb(100%, 0%, 0%)" stroke-opacity="1" stroke-miterlimit="10" d="M 0.0019375 0.00096875 L 10.150375 0.00096875 " transform="matrix(1, 0, 0, -1, 407.459, 72.833)"/>
<g fill="rgb(100%, 0%, 0%)" fill-opacity="1">
<use xlink:href="#glyph-3-1" x="410.707" y="78.117"/>
</g>
<g fill="rgb(100%, 0%, 0%)" fill-opacity="1">
<use xlink:href="#glyph-0-2" x="418.804" y="75.075"/>
</g>
<g fill="rgb(100%, 0%, 0%)" fill-opacity="1">
<use xlink:href="#glyph-0-3" x="424.430403" y="75.075"/>
</g>
<g fill="rgb(100%, 0%, 0%)" fill-opacity="1">
<use xlink:href="#glyph-1-1" x="429.296" y="67.832"/>
</g>
<path fill="none" stroke-width="1.19553" stroke-linecap="butt" stroke-linejoin="miter" stroke="rgb(100%, 0%, 0%)" stroke-opacity="1" stroke-miterlimit="10" d="M -55.277969 -44.219375 L -55.277969 40.600938 " transform="matrix(1, 0, 0, -1, 320.61, 72.765)"/>
<path fill-rule="nonzero" fill="rgb(100%, 0%, 0%)" fill-opacity="1" stroke-width="1.00871" stroke-linecap="butt" stroke-linejoin="miter" stroke="rgb(100%, 0%, 0%)" stroke-opacity="1" stroke-miterlimit="10" d="M 4.541201 0.00158875 L 1.627139 1.107057 L 2.611514 0.00158875 L 1.627139 -1.107786 Z M 4.541201 0.00158875 " transform="matrix(0, -1, -1, 0, 265.33362, 34.52167)"/>
<g fill="rgb(100%, 0%, 0%)" fill-opacity="1">
<use xlink:href="#glyph-0-4" x="207.701" y="75.075"/>
</g>
<g fill="rgb(100%, 0%, 0%)" fill-opacity="1">
<use xlink:href="#glyph-1-0" x="212.417" y="67.832"/>
</g>
<g fill="rgb(100%, 0%, 0%)" fill-opacity="1">
<use xlink:href="#glyph-0-1" x="216.641" y="75.075"/>
</g>
<g fill="rgb(100%, 0%, 0%)" fill-opacity="1">
<use xlink:href="#glyph-2-0" x="221.864" y="75.075"/>
</g>
<g fill="rgb(100%, 0%, 0%)" fill-opacity="1">
<use xlink:href="#glyph-3-0" x="230.227" y="71.401"/>
</g>
<g fill="rgb(100%, 0%, 0%)" fill-opacity="1">
<use xlink:href="#glyph-4-1" x="236.205" y="71.401"/>
</g>
<path fill="none" stroke-width="0.379" stroke-linecap="butt" stroke-linejoin="miter" stroke="rgb(100%, 0%, 0%)" stroke-opacity="1" stroke-miterlimit="10" d="M -0.0004375 0.00096875 L 10.148 0.00096875 " transform="matrix(1, 0, 0, -1, 230.227, 72.833)"/>
<g fill="rgb(100%, 0%, 0%)" fill-opacity="1">
<use xlink:href="#glyph-3-1" x="233.475" y="78.117"/>
</g>
<g fill="rgb(100%, 0%, 0%)" fill-opacity="1">
<use xlink:href="#glyph-0-2" x="241.572" y="75.075"/>
</g>
<g fill="rgb(100%, 0%, 0%)" fill-opacity="1">
<use xlink:href="#glyph-0-3" x="247.198403" y="75.075"/>
</g>
<g fill="rgb(100%, 0%, 0%)" fill-opacity="1">
<use xlink:href="#glyph-1-1" x="252.064" y="67.832"/>
</g>
<path fill-rule="nonzero" fill="rgb(0%, 0%, 0%)" fill-opacity="1" d="M 323.199219 72.765625 C 323.199219 71.335938 322.039062 70.175781 320.609375 70.175781 C 319.179688 70.175781 318.019531 71.335938 318.019531 72.765625 C 318.019531 74.195312 319.179688 75.355469 320.609375 75.355469 C 322.039062 75.355469 323.199219 74.195312 323.199219 72.765625 Z M 323.199219 72.765625 "/>
<g fill="rgb(0%, 0%, 0%)" fill-opacity="1">
<use xlink:href="#glyph-6-0" x="309.39" y="100.339"/>
</g>
<g fill="rgb(0%, 0%, 0%)" fill-opacity="1">
<use xlink:href="#glyph-7-0" x="313.265" y="100.339"/>
<use xlink:href="#glyph-7-1" x="318.958649" y="100.339"/>
</g>
<g fill="rgb(0%, 0%, 0%)" fill-opacity="1">
<use xlink:href="#glyph-7-2" x="323.380068" y="100.339"/>
</g>
<g fill="rgb(0%, 0%, 0%)" fill-opacity="1">
<use xlink:href="#glyph-6-1" x="328.628" y="100.339"/>
</g>
<path fill="none" stroke-width="0.3985" stroke-linecap="butt" stroke-linejoin="miter" stroke="rgb(0%, 0%, 0%)" stroke-opacity="1" stroke-miterlimit="10" d="M -52.750625 -73.70375 L 52.749375 -73.70375 " transform="matrix(1, 0, 0, -1, 320.61, 72.765)"/>
<path fill-rule="nonzero" fill="rgb(0%, 0%, 0%)" fill-opacity="1" stroke-width="0.3985" stroke-linecap="butt" stroke-linejoin="miter" stroke="rgb(0%, 0%, 0%)" stroke-opacity="1" stroke-miterlimit="10" d="M 3.416376 0.00189 L 0.642939 1.048765 L 1.557001 0.00189 L 0.642939 -1.044985 Z M 3.416376 0.00189 " transform="matrix(-1, 0, 0, 1, 269.31872, 146.46686)"/>
<path fill-rule="nonzero" fill="rgb(0%, 0%, 0%)" fill-opacity="1" stroke-width="0.3985" stroke-linecap="butt" stroke-linejoin="miter" stroke="rgb(0%, 0%, 0%)" stroke-opacity="1" stroke-miterlimit="10" d="M 3.419032 -0.00189 L 0.641689 1.044985 L 1.559657 -0.00189 L 0.641689 -1.048765 Z M 3.419032 -0.00189 " transform="matrix(1, 0, 0, -1, 371.90128, 146.46686)"/>
<g fill="rgb(0%, 0%, 0%)" fill-opacity="1">
<use xlink:href="#glyph-6-2" x="313.612" y="156.793"/>
</g>
<g fill="rgb(0%, 0%, 0%)" fill-opacity="1">
<use xlink:href="#glyph-7-0" x="321.914" y="156.793"/>
</g>
<path fill="none" stroke-width="0.3985" stroke-linecap="butt" stroke-linejoin="miter" stroke="rgb(0%, 0%, 0%)" stroke-opacity="1" stroke-miterlimit="10" d="M 117.92125 -41.695937 L 117.92125 41.694688 " transform="matrix(1, 0, 0, -1, 320.61, 72.765)"/>
<path fill-rule="nonzero" fill="rgb(0%, 0%, 0%)" fill-opacity="1" stroke-width="0.3985" stroke-linecap="butt" stroke-linejoin="miter" stroke="rgb(0%, 0%, 0%)" stroke-opacity="1" stroke-miterlimit="10" d="M 3.417079 -0.00163 L 0.643641 1.045245 L 1.557704 -0.00163 L 0.643641 -1.048505 Z M 3.417079 -0.00163 " transform="matrix(0, 1, 1, 0, 438.53288, 113.00089)"/>
<path fill-rule="nonzero" fill="rgb(0%, 0%, 0%)" fill-opacity="1" stroke-width="0.3985" stroke-linecap="butt" stroke-linejoin="miter" stroke="rgb(0%, 0%, 0%)" stroke-opacity="1" stroke-miterlimit="10" d="M 3.415829 0.00163 L 0.642391 1.048505 L 1.56036 0.00163 L 0.642391 -1.045245 Z M 3.415829 0.00163 " transform="matrix(0, -1, -1, 0, 438.53288, 32.52911)"/>
<g fill="rgb(0%, 0%, 0%)" fill-opacity="1">
<use xlink:href="#glyph-6-2" x="442.051" y="75.2"/>
</g>
<g fill="rgb(0%, 0%, 0%)" fill-opacity="1">
<use xlink:href="#glyph-7-2" x="450.354" y="75.2"/>
</g>
<path fill="none" stroke-width="1.59404" stroke-linecap="butt" stroke-linejoin="miter" stroke="rgb(0%, 0%, 0%)" stroke-opacity="1" stroke-miterlimit="10" d="M -0.000625 -0.000625 L 33.554062 26.843125 " transform="matrix(1, 0, 0, -1, 320.61, 72.765)"/>
<path fill-rule="nonzero" fill="rgb(0%, 0%, 0%)" fill-opacity="1" stroke-width="1.17683" stroke-linecap="butt" stroke-linejoin="miter" stroke="rgb(0%, 0%, 0%)" stroke-opacity="1" stroke-miterlimit="10" d="M 5.29745 -0.000750803 L 1.89925 1.292041 L 3.046216 -0.000743771 L 1.900463 -1.295352 Z M 5.29745 -0.000750803 " transform="matrix(0.78082, -0.62466, -0.62466, -0.78082, 352.01552, 47.64055)"/>
<g fill="rgb(0%, 0%, 0%)" fill-opacity="1">
<use xlink:href="#glyph-8-0" x="316.536" y="38.618"/>
</g>
<g fill="rgb(0%, 0%, 0%)" fill-opacity="1">
<use xlink:href="#glyph-9-0" x="323.183" y="38.618"/>
</g>
<g fill="rgb(0%, 0%, 0%)" fill-opacity="1">
<use xlink:href="#glyph-10-0" x="327.735" y="38.618"/>
<use xlink:href="#glyph-10-1" x="334.386857" y="38.618"/>
</g>
<g fill="rgb(0%, 0%, 0%)" fill-opacity="1">
<use xlink:href="#glyph-10-2" x="339.623221" y="38.618"/>
</g>
<g fill="rgb(0%, 0%, 0%)" fill-opacity="1">
<use xlink:href="#glyph-10-1" x="345.761005" y="38.618"/>
</g>
<g fill="rgb(0%, 0%, 0%)" fill-opacity="1">
<use xlink:href="#glyph-10-3" x="351.009325" y="38.618"/>
</g>
<g fill="rgb(0%, 0%, 0%)" fill-opacity="1">
<use xlink:href="#glyph-9-1" x="356.983" y="38.618"/>
</g>
<path fill="none" stroke-width="0.79701" stroke-linecap="butt" stroke-linejoin="miter" stroke="rgb(50%, 50%, 50%)" stroke-opacity="1" stroke-dasharray="2.98883 2.98883" stroke-miterlimit="10" d="M 15.956406 9.214219 C 10.870469 18.026719 -0.399063 21.04625 -9.211563 15.956406 C -18.024063 10.870469 -21.043594 -0.399062 -15.957656 -9.211562 C -10.867813 -18.024062 0.401719 -21.043594 9.214219 -15.957656 C 12.011094 -14.340469 14.339219 -12.012344 14.440781 -11.840469 " transform="matrix(1, 0, 0, -1, 320.61, 72.765)"/>
<path fill-rule="nonzero" fill="rgb(50%, 50%, 50%)" fill-opacity="1" stroke-width="0.79701" stroke-linecap="butt" stroke-linejoin="miter" stroke="rgb(50%, 50%, 50%)" stroke-opacity="1" stroke-miterlimit="10" d="M 3.846425 -0.000640171 L 1.287198 0.971094 L 2.145246 0.000522852 L 1.286631 -0.973315 Z M 3.846425 -0.000640171 " transform="matrix(0.49998, -0.86601, -0.86601, -0.49998, 334.07631, 86.29166)"/>
</svg>
