<?xml version="1.0" encoding="UTF-8"?>
<svg xmlns="http://www.w3.org/2000/svg" xmlns:xlink="http://www.w3.org/1999/xlink" width="532.368pt" height="155.776pt" viewBox="0 0 532.368 155.776">
<defs>
<g>
<g id="glyph-0-0">
<path d="M 10.046875 33.6875 C 10.046875 33.640625 10.015625 33.609375 9.984375 33.5625 C 9.453125 33.03125 8.484375 32.078125 7.53125 30.53125 C 5.21875 26.828125 4.171875 22.15625 4.171875 16.640625 C 4.171875 12.78125 4.6875 7.796875 7.0625 3.53125 C 8.1875 1.484375 9.359375 0.3125 10 -0.3125 C 10.046875 -0.359375 10.046875 -0.390625 10.046875 -0.4375 C 10.046875 -0.578125 9.9375 -0.578125 9.734375 -0.578125 C 9.53125 -0.578125 9.515625 -0.578125 9.296875 -0.359375 C 4.484375 4.015625 2.984375 10.578125 2.984375 16.625 C 2.984375 22.265625 4.28125 27.9375 7.921875 32.234375 C 8.203125 32.5625 8.75 33.140625 9.34375 33.671875 C 9.515625 33.84375 9.53125 33.84375 9.734375 33.84375 C 9.9375 33.84375 10.046875 33.84375 10.046875 33.6875 Z M 10.046875 33.6875 "/>
</g>
<g id="glyph-0-1">
<path d="M 7.5625 16.640625 C 7.5625 11 6.265625 5.328125 2.625 1.03125 C 2.34375 0.703125 1.796875 0.109375 1.203125 -0.40625 C 1.03125 -0.578125 1 -0.578125 0.796875 -0.578125 C 0.625 -0.578125 0.5 -0.578125 0.5 -0.4375 C 0.5 -0.375 0.5625 -0.3125 0.59375 -0.28125 C 1.09375 0.234375 2.046875 1.1875 3.015625 2.734375 C 5.328125 6.4375 6.375 11.109375 6.375 16.625 C 6.375 20.484375 5.859375 25.453125 3.484375 29.734375 C 2.359375 31.765625 1.15625 32.96875 0.5625 33.5625 C 0.53125 33.609375 0.5 33.65625 0.5 33.6875 C 0.5 33.84375 0.625 33.84375 0.796875 33.84375 C 1 33.84375 1.03125 33.84375 1.25 33.625 C 6.046875 29.25 7.5625 22.671875 7.5625 16.640625 Z M 7.5625 16.640625 "/>
</g>
<g id="glyph-1-0">
<path d="M 6.515625 -4.796875 C 6.421875 -5.59375 5.921875 -6.5625 4.640625 -6.5625 C 2.609375 -6.5625 0.546875 -4.5 0.546875 -2.21875 C 0.546875 -1.34375 1.140625 0.296875 3.09375 0.296875 C 6.484375 0.296875 7.9375 -4.640625 7.9375 -6.59375 C 7.9375 -8.65625 6.765625 -10.25 4.9375 -10.25 C 2.859375 -10.25 2.234375 -8.4375 2.234375 -8.046875 C 2.234375 -7.921875 2.328125 -7.609375 2.71875 -7.609375 C 3.234375 -7.609375 3.4375 -8.0625 3.4375 -8.3125 C 3.4375 -8.75 3 -8.75 2.8125 -8.75 C 3.40625 -9.8125 4.484375 -9.90625 4.875 -9.90625 C 6.140625 -9.90625 6.9375 -8.90625 6.9375 -7.296875 C 6.9375 -6.390625 6.671875 -5.328125 6.53125 -4.796875 Z M 3.140625 -0.09375 C 1.796875 -0.09375 1.5625 -1.140625 1.5625 -1.75 C 1.5625 -2.375 1.96875 -3.859375 2.1875 -4.390625 C 2.359375 -4.8125 3.1875 -6.265625 4.671875 -6.265625 C 5.984375 -6.265625 6.28125 -5.140625 6.28125 -4.359375 C 6.28125 -3.296875 5.34375 -0.09375 3.140625 -0.09375 Z M 3.140625 -0.09375 "/>
</g>
<g id="glyph-1-1">
<path d="M 6.390625 -5.765625 C 6.6875 -5.765625 6.796875 -5.765625 6.796875 -6.03125 C 6.796875 -6.1875 6.6875 -6.1875 6.421875 -6.1875 L 5.265625 -6.1875 C 5.53125 -7.65625 5.734375 -8.671875 5.859375 -9.140625 C 5.9375 -9.484375 6.234375 -9.8125 6.609375 -9.8125 C 6.90625 -9.8125 7.21875 -9.6875 7.359375 -9.546875 C 6.796875 -9.5 6.625 -9.078125 6.625 -8.828125 C 6.625 -8.546875 6.84375 -8.375 7.109375 -8.375 C 7.40625 -8.375 7.828125 -8.625 7.828125 -9.171875 C 7.828125 -9.765625 7.234375 -10.09375 6.59375 -10.09375 C 5.984375 -10.09375 5.375 -9.640625 5.09375 -9.078125 C 4.828125 -8.578125 4.6875 -8.0625 4.359375 -6.1875 L 3.40625 -6.1875 C 3.125 -6.1875 2.984375 -6.1875 2.984375 -5.921875 C 2.984375 -5.765625 3.0625 -5.765625 3.359375 -5.765625 L 4.28125 -5.765625 C 4.015625 -4.4375 3.421875 -1.1875 3.09375 0.34375 C 2.859375 1.59375 2.640625 2.640625 1.921875 2.640625 C 1.875 2.640625 1.46875 2.640625 1.203125 2.359375 C 1.9375 2.3125 1.9375 1.671875 1.9375 1.65625 C 1.9375 1.375 1.71875 1.203125 1.453125 1.203125 C 1.15625 1.203125 0.734375 1.453125 0.734375 2 C 0.734375 2.609375 1.359375 2.921875 1.921875 2.921875 C 3.390625 2.921875 3.984375 0.296875 4.140625 -0.421875 C 4.40625 -1.515625 5.109375 -5.328125 5.171875 -5.765625 Z M 6.390625 -5.765625 "/>
</g>
<g id="glyph-1-2">
<path d="M 1.828125 -1.15625 C 2.4375 -1.859375 2.9375 -2.3125 3.65625 -2.953125 C 4.515625 -3.703125 4.890625 -4.0625 5.09375 -4.28125 C 6.09375 -5.265625 6.59375 -6.09375 6.59375 -6.203125 C 6.59375 -6.328125 6.484375 -6.328125 6.453125 -6.328125 C 6.359375 -6.328125 6.328125 -6.265625 6.25 -6.171875 C 5.890625 -5.546875 5.546875 -5.25 5.171875 -5.25 C 4.875 -5.25 4.71875 -5.375 4.453125 -5.71875 C 4.140625 -6.078125 3.90625 -6.328125 3.484375 -6.328125 C 2.4375 -6.328125 1.8125 -5.015625 1.8125 -4.71875 C 1.8125 -4.671875 1.828125 -4.59375 1.953125 -4.59375 C 2.0625 -4.59375 2.078125 -4.640625 2.125 -4.75 C 2.359375 -5.328125 3.0625 -5.421875 3.328125 -5.421875 C 3.625 -5.421875 3.921875 -5.328125 4.21875 -5.1875 C 4.765625 -4.96875 4.984375 -4.96875 5.140625 -4.96875 C 5.234375 -4.96875 5.296875 -4.96875 5.359375 -4.984375 C 4.890625 -4.421875 4.109375 -3.734375 3.46875 -3.140625 L 2.015625 -1.8125 C 1.140625 -0.921875 0.609375 -0.078125 0.609375 0.03125 C 0.609375 0.109375 0.6875 0.140625 0.78125 0.140625 C 0.859375 0.140625 0.875 0.125 0.96875 -0.046875 C 1.203125 -0.40625 1.65625 -0.9375 2.1875 -0.9375 C 2.5 -0.9375 2.640625 -0.828125 2.921875 -0.46875 C 3.203125 -0.15625 3.4375 0.140625 3.90625 0.140625 C 5.3125 0.140625 6.109375 -1.671875 6.109375 -2.015625 C 6.109375 -2.0625 6.09375 -2.15625 5.953125 -2.15625 C 5.84375 -2.15625 5.828125 -2.09375 5.78125 -1.953125 C 5.46875 -1.109375 4.625 -0.765625 4.0625 -0.765625 C 3.765625 -0.765625 3.46875 -0.859375 3.171875 -0.984375 C 2.59375 -1.21875 2.4375 -1.21875 2.25 -1.21875 C 2.109375 -1.21875 1.953125 -1.21875 1.828125 -1.15625 Z M 1.828125 -1.15625 "/>
</g>
<g id="glyph-1-3">
<path d="M 4.03125 -9.59375 C 4.046875 -9.65625 4.078125 -9.734375 4.078125 -9.8125 C 4.078125 -9.953125 3.9375 -9.953125 3.90625 -9.953125 C 3.890625 -9.953125 3.1875 -9.890625 3.109375 -9.890625 C 2.875 -9.875 2.65625 -9.84375 2.390625 -9.828125 C 2.03125 -9.796875 1.9375 -9.78125 1.9375 -9.53125 C 1.9375 -9.375 2.046875 -9.375 2.25 -9.375 C 2.953125 -9.375 2.96875 -9.25 2.96875 -9.109375 C 2.96875 -9.015625 2.9375 -8.90625 2.921875 -8.859375 L 0.84375 -0.5625 C 0.78125 -0.34375 0.78125 -0.3125 0.78125 -0.234375 C 0.78125 0.09375 1.03125 0.140625 1.171875 0.140625 C 1.421875 0.140625 1.609375 -0.046875 1.671875 -0.203125 L 2.328125 -2.796875 C 2.390625 -3.109375 2.484375 -3.40625 2.546875 -3.734375 C 2.71875 -4.328125 2.71875 -4.34375 2.984375 -4.765625 C 3.25 -5.171875 3.90625 -6.03125 5 -6.03125 C 5.578125 -6.03125 5.78125 -5.609375 5.78125 -5.03125 C 5.78125 -4.234375 5.21875 -2.671875 4.90625 -1.8125 C 4.78125 -1.46875 4.703125 -1.28125 4.703125 -1.015625 C 4.703125 -0.375 5.15625 0.140625 5.84375 0.140625 C 7.171875 0.140625 7.671875 -1.96875 7.671875 -2.046875 C 7.671875 -2.125 7.609375 -2.1875 7.53125 -2.1875 C 7.40625 -2.1875 7.390625 -2.140625 7.3125 -1.890625 C 6.984375 -0.75 6.453125 -0.140625 5.875 -0.140625 C 5.734375 -0.140625 5.515625 -0.15625 5.515625 -0.609375 C 5.515625 -0.984375 5.6875 -1.453125 5.734375 -1.609375 C 6 -2.296875 6.640625 -3.984375 6.640625 -4.8125 C 6.640625 -5.6875 6.140625 -6.328125 5.046875 -6.328125 C 4.234375 -6.328125 3.515625 -5.9375 2.921875 -5.1875 Z M 4.03125 -9.59375 "/>
</g>
<g id="glyph-1-4">
<path d="M 6.796875 -5.859375 C 6.34375 -5.765625 6.171875 -5.421875 6.171875 -5.15625 C 6.171875 -4.8125 6.4375 -4.6875 6.640625 -4.6875 C 7.078125 -4.6875 7.375 -5.0625 7.375 -5.453125 C 7.375 -6.046875 6.6875 -6.328125 6.078125 -6.328125 C 5.203125 -6.328125 4.71875 -5.46875 4.59375 -5.1875 C 4.265625 -6.265625 3.375 -6.328125 3.109375 -6.328125 C 1.65625 -6.328125 0.875 -4.453125 0.875 -4.125 C 0.875 -4.078125 0.9375 -4 1.03125 -4 C 1.140625 -4 1.171875 -4.09375 1.203125 -4.140625 C 1.6875 -5.734375 2.65625 -6.03125 3.0625 -6.03125 C 3.71875 -6.03125 3.84375 -5.4375 3.84375 -5.09375 C 3.84375 -4.78125 3.765625 -4.453125 3.578125 -3.765625 L 3.09375 -1.796875 C 2.890625 -0.9375 2.46875 -0.140625 1.703125 -0.140625 C 1.640625 -0.140625 1.28125 -0.140625 0.96875 -0.328125 C 1.484375 -0.4375 1.609375 -0.859375 1.609375 -1.03125 C 1.609375 -1.3125 1.390625 -1.484375 1.125 -1.484375 C 0.78125 -1.484375 0.40625 -1.1875 0.40625 -0.734375 C 0.40625 -0.125 1.078125 0.140625 1.6875 0.140625 C 2.375 0.140625 2.875 -0.40625 3.171875 -0.984375 C 3.40625 -0.140625 4.109375 0.140625 4.640625 0.140625 C 6.109375 0.140625 6.890625 -1.734375 6.890625 -2.046875 C 6.890625 -2.125 6.828125 -2.1875 6.734375 -2.1875 C 6.609375 -2.1875 6.59375 -2.109375 6.5625 -2 C 6.171875 -0.734375 5.328125 -0.140625 4.6875 -0.140625 C 4.1875 -0.140625 3.921875 -0.515625 3.921875 -1.109375 C 3.921875 -1.421875 3.96875 -1.65625 4.203125 -2.59375 L 4.703125 -4.546875 C 4.921875 -5.40625 5.40625 -6.03125 6.0625 -6.03125 C 6.09375 -6.03125 6.5 -6.03125 6.796875 -5.859375 Z M 6.796875 -5.859375 "/>
</g>
<g id="glyph-2-0">
<path d="M 9.453125 -3.296875 C 9.703125 -3.296875 9.953125 -3.296875 9.953125 -3.578125 C 9.953125 -3.875 9.703125 -3.875 9.453125 -3.875 L 1.6875 -3.875 C 1.453125 -3.875 1.1875 -3.875 1.1875 -3.578125 C 1.1875 -3.296875 1.453125 -3.296875 1.6875 -3.296875 Z M 9.453125 -3.296875 "/>
</g>
<g id="glyph-2-1">
<path d="M 11.1875 -9.484375 C 11.21875 -9.53125 11.265625 -9.625 11.265625 -9.6875 C 11.265625 -9.78125 11.25 -9.796875 10.921875 -9.796875 L 1.015625 -9.796875 C 0.6875 -9.796875 0.671875 -9.78125 0.671875 -9.6875 C 0.671875 -9.625 0.71875 -9.53125 0.75 -9.484375 L 5.578125 0.203125 C 5.6875 0.390625 5.71875 0.46875 5.96875 0.46875 C 6.203125 0.46875 6.25 0.390625 6.359375 0.203125 Z M 2.453125 -8.765625 L 10.328125 -8.765625 L 6.390625 -0.875 Z M 2.453125 -8.765625 "/>
</g>
<g id="glyph-2-2">
<path d="M 5.578125 -3.984375 L 2.71875 -6.84375 C 2.53125 -7.015625 2.515625 -7.046875 2.390625 -7.046875 C 2.25 -7.046875 2.109375 -6.90625 2.109375 -6.75 C 2.109375 -6.65625 2.140625 -6.625 2.296875 -6.46875 L 5.15625 -3.578125 L 2.296875 -0.703125 C 2.140625 -0.546875 2.109375 -0.515625 2.109375 -0.421875 C 2.109375 -0.265625 2.25 -0.125 2.390625 -0.125 C 2.515625 -0.125 2.53125 -0.15625 2.71875 -0.328125 L 5.5625 -3.1875 L 8.53125 -0.21875 C 8.5625 -0.203125 8.65625 -0.125 8.75 -0.125 C 8.921875 -0.125 9.03125 -0.265625 9.03125 -0.421875 C 9.03125 -0.4375 9.03125 -0.5 9 -0.578125 C 8.984375 -0.609375 6.703125 -2.859375 5.984375 -3.578125 L 8.609375 -6.203125 C 8.671875 -6.296875 8.890625 -6.484375 8.96875 -6.5625 C 8.984375 -6.59375 9.03125 -6.65625 9.03125 -6.75 C 9.03125 -6.90625 8.921875 -7.046875 8.75 -7.046875 C 8.640625 -7.046875 8.578125 -6.984375 8.421875 -6.828125 Z M 5.578125 -3.984375 "/>
</g>
<g id="glyph-3-0">
<path d="M 6.1875 -9.984375 C 6.078125 -10.1875 6.046875 -10.234375 5.859375 -10.234375 C 5.640625 -10.234375 5.609375 -10.1875 5.515625 -9.984375 L 0.71875 -0.28125 C 0.6875 -0.25 0.65625 -0.15625 0.65625 -0.09375 C 0.65625 -0.015625 0.671875 0 0.96875 0 L 10.734375 0 C 11.015625 0 11.03125 -0.015625 11.03125 -0.09375 C 11.03125 -0.15625 11 -0.25 10.96875 -0.28125 Z M 5.40625 -8.921875 L 9.328125 -0.984375 L 1.5 -0.984375 Z M 5.40625 -8.921875 "/>
</g>
<g id="glyph-3-1">
<path d="M 9.6875 -4.640625 C 9.890625 -4.640625 10.140625 -4.640625 10.140625 -4.90625 C 10.140625 -5.171875 9.890625 -5.171875 9.6875 -5.171875 L 1.234375 -5.171875 C 1.03125 -5.171875 0.78125 -5.171875 0.78125 -4.921875 C 0.78125 -4.640625 1.015625 -4.640625 1.234375 -4.640625 Z M 9.6875 -1.984375 C 9.890625 -1.984375 10.140625 -1.984375 10.140625 -2.234375 C 10.140625 -2.515625 9.890625 -2.515625 9.6875 -2.515625 L 1.234375 -2.515625 C 1.03125 -2.515625 0.78125 -2.515625 0.78125 -2.25 C 0.78125 -1.984375 1.015625 -1.984375 1.234375 -1.984375 Z M 9.6875 -1.984375 "/>
</g>
<g id="glyph-3-2">
<path d="M 4.65625 3.484375 C 4.65625 3.4375 4.65625 3.40625 4.421875 3.171875 C 2.984375 1.71875 2.1875 -0.640625 2.1875 -3.578125 C 2.1875 -6.359375 2.859375 -8.75 4.515625 -10.4375 C 4.65625 -10.578125 4.65625 -10.59375 4.65625 -10.640625 C 4.65625 -10.734375 4.59375 -10.75 4.53125 -10.75 C 4.34375 -10.75 3.171875 -9.71875 2.46875 -8.3125 C 1.734375 -6.875 1.40625 -5.328125 1.40625 -3.578125 C 1.40625 -2.296875 1.609375 -0.59375 2.359375 0.953125 C 3.203125 2.671875 4.375 3.59375 4.53125 3.59375 C 4.59375 3.59375 4.65625 3.578125 4.65625 3.484375 Z M 4.65625 3.484375 "/>
</g>
<g id="glyph-3-3">
<path d="M 4.046875 -3.578125 C 4.046875 -4.65625 3.90625 -6.4375 3.09375 -8.109375 C 2.25 -9.828125 1.078125 -10.75 0.921875 -10.75 C 0.859375 -10.75 0.78125 -10.734375 0.78125 -10.640625 C 0.78125 -10.59375 0.78125 -10.578125 1.03125 -10.328125 C 2.46875 -8.875 3.265625 -6.515625 3.265625 -3.578125 C 3.265625 -0.796875 2.59375 1.59375 0.9375 3.28125 C 0.78125 3.40625 0.78125 3.4375 0.78125 3.484375 C 0.78125 3.578125 0.859375 3.59375 0.921875 3.59375 C 1.109375 3.59375 2.28125 2.5625 2.984375 1.15625 C 3.71875 -0.296875 4.046875 -1.84375 4.046875 -3.578125 Z M 4.046875 -3.578125 "/>
</g>
<g id="glyph-4-0">
<path d="M 8.078125 -4.546875 C 8.171875 -4.953125 8.34375 -5.640625 8.34375 -5.734375 C 8.34375 -6.03125 8.125 -6.375 7.671875 -6.375 C 7.4375 -6.375 6.90625 -6.234375 6.734375 -5.609375 C 6.671875 -5.40625 6.03125 -2.8125 5.90625 -2.34375 C 5.828125 -2.015625 5.71875 -1.59375 5.6875 -1.328125 C 5.4375 -0.984375 4.875 -0.40625 4.140625 -0.40625 C 3.296875 -0.40625 3.28125 -1.125 3.28125 -1.453125 C 3.28125 -2.328125 3.734375 -3.4375 4.125 -4.46875 C 4.28125 -4.84375 4.3125 -4.953125 4.3125 -5.1875 C 4.3125 -6.03125 3.484375 -6.484375 2.703125 -6.484375 C 1.171875 -6.484375 0.453125 -4.53125 0.453125 -4.25 C 0.453125 -4.046875 0.671875 -4.046875 0.796875 -4.046875 C 0.96875 -4.046875 1.078125 -4.046875 1.140625 -4.234375 C 1.609375 -5.828125 2.375 -5.96875 2.609375 -5.96875 C 2.71875 -5.96875 2.859375 -5.96875 2.859375 -5.671875 C 2.859375 -5.328125 2.6875 -4.9375 2.625 -4.765625 C 2.015625 -3.25 1.75 -2.453125 1.75 -1.75 C 1.75 -0.109375 3.1875 0.109375 4.03125 0.109375 C 4.453125 0.109375 5.078125 0.0625 5.859375 -0.671875 C 6.3125 0.03125 7.140625 0.109375 7.484375 0.109375 C 8.015625 0.109375 8.4375 -0.1875 8.734375 -0.703125 C 9.09375 -1.28125 9.28125 -2.046875 9.28125 -2.125 C 9.28125 -2.328125 9.0625 -2.328125 8.9375 -2.328125 C 8.78125 -2.328125 8.71875 -2.328125 8.65625 -2.25 C 8.625 -2.21875 8.625 -2.1875 8.53125 -1.84375 C 8.25 -0.71875 7.9375 -0.40625 7.5625 -0.40625 C 7.34375 -0.40625 7.234375 -0.546875 7.234375 -0.9375 C 7.234375 -1.171875 7.28125 -1.40625 7.4375 -1.984375 C 7.53125 -2.375 7.671875 -2.953125 7.75 -3.265625 Z M 8.078125 -4.546875 "/>
</g>
<g id="glyph-5-0">
<path d="M 4.84375 -3.796875 C 4.890625 -3.9375 4.890625 -3.953125 4.890625 -4.03125 C 4.890625 -4.203125 4.75 -4.296875 4.59375 -4.296875 C 4.5 -4.296875 4.34375 -4.234375 4.25 -4.09375 C 4.234375 -4.03125 4.140625 -3.734375 4.109375 -3.546875 C 4.03125 -3.296875 3.96875 -3.015625 3.90625 -2.75 L 3.453125 -0.953125 C 3.421875 -0.8125 2.984375 -0.109375 2.328125 -0.109375 C 1.828125 -0.109375 1.71875 -0.546875 1.71875 -0.921875 C 1.71875 -1.375 1.890625 -2 2.21875 -2.875 C 2.375 -3.28125 2.421875 -3.390625 2.421875 -3.59375 C 2.421875 -4.03125 2.109375 -4.40625 1.609375 -4.40625 C 0.65625 -4.40625 0.296875 -2.953125 0.296875 -2.875 C 0.296875 -2.765625 0.390625 -2.765625 0.40625 -2.765625 C 0.515625 -2.765625 0.515625 -2.796875 0.5625 -2.953125 C 0.84375 -3.890625 1.234375 -4.1875 1.578125 -4.1875 C 1.65625 -4.1875 1.828125 -4.1875 1.828125 -3.875 C 1.828125 -3.625 1.71875 -3.359375 1.65625 -3.171875 C 1.25 -2.109375 1.078125 -1.546875 1.078125 -1.078125 C 1.078125 -0.1875 1.703125 0.109375 2.296875 0.109375 C 2.6875 0.109375 3.015625 -0.0625 3.296875 -0.34375 C 3.171875 0.171875 3.046875 0.671875 2.65625 1.203125 C 2.390625 1.53125 2.015625 1.828125 1.5625 1.828125 C 1.421875 1.828125 0.96875 1.796875 0.796875 1.40625 C 0.953125 1.40625 1.09375 1.40625 1.21875 1.28125 C 1.328125 1.203125 1.421875 1.0625 1.421875 0.875 C 1.421875 0.5625 1.15625 0.53125 1.0625 0.53125 C 0.828125 0.53125 0.5 0.6875 0.5 1.171875 C 0.5 1.671875 0.9375 2.046875 1.5625 2.046875 C 2.578125 2.046875 3.609375 1.140625 3.890625 0.015625 Z M 4.84375 -3.796875 "/>
</g>
<g id="glyph-6-0">
<path d="M 1.515625 -0.96875 C 2.03125 -1.546875 2.453125 -1.921875 3.046875 -2.46875 C 3.765625 -3.078125 4.078125 -3.375 4.25 -3.5625 C 5.078125 -4.390625 5.5 -5.078125 5.5 -5.171875 C 5.5 -5.265625 5.40625 -5.265625 5.375 -5.265625 C 5.296875 -5.265625 5.265625 -5.21875 5.21875 -5.140625 C 4.90625 -4.625 4.625 -4.375 4.3125 -4.375 C 4.0625 -4.375 3.9375 -4.484375 3.703125 -4.765625 C 3.453125 -5.0625 3.25 -5.265625 2.90625 -5.265625 C 2.03125 -5.265625 1.5 -4.1875 1.5 -3.9375 C 1.5 -3.890625 1.515625 -3.828125 1.625 -3.828125 C 1.71875 -3.828125 1.734375 -3.875 1.765625 -3.953125 C 1.96875 -4.4375 2.546875 -4.515625 2.765625 -4.515625 C 3.03125 -4.515625 3.265625 -4.4375 3.515625 -4.328125 C 3.96875 -4.140625 4.15625 -4.140625 4.28125 -4.140625 C 4.359375 -4.140625 4.40625 -4.140625 4.46875 -4.140625 C 4.078125 -3.6875 3.4375 -3.109375 2.890625 -2.625 L 1.6875 -1.5 C 0.953125 -0.765625 0.515625 -0.0625 0.515625 0.03125 C 0.515625 0.09375 0.578125 0.125 0.640625 0.125 C 0.71875 0.125 0.734375 0.109375 0.8125 -0.03125 C 1 -0.328125 1.390625 -0.78125 1.828125 -0.78125 C 2.078125 -0.78125 2.203125 -0.6875 2.4375 -0.390625 C 2.671875 -0.125 2.875 0.125 3.25 0.125 C 4.421875 0.125 5.09375 -1.40625 5.09375 -1.671875 C 5.09375 -1.71875 5.078125 -1.796875 4.953125 -1.796875 C 4.859375 -1.796875 4.859375 -1.75 4.8125 -1.625 C 4.546875 -0.921875 3.84375 -0.640625 3.375 -0.640625 C 3.125 -0.640625 2.890625 -0.71875 2.640625 -0.828125 C 2.15625 -1.015625 2.03125 -1.015625 1.875 -1.015625 C 1.75 -1.015625 1.625 -1.015625 1.515625 -0.96875 Z M 1.515625 -0.96875 "/>
</g>
<g id="glyph-6-1">
<path d="M 3.140625 1.34375 C 2.828125 1.796875 2.359375 2.203125 1.765625 2.203125 C 1.625 2.203125 1.046875 2.171875 0.875 1.625 C 0.90625 1.640625 0.96875 1.640625 0.984375 1.640625 C 1.34375 1.640625 1.59375 1.328125 1.59375 1.046875 C 1.59375 0.78125 1.359375 0.6875 1.1875 0.6875 C 0.984375 0.6875 0.578125 0.828125 0.578125 1.40625 C 0.578125 2.015625 1.09375 2.4375 1.765625 2.4375 C 2.96875 2.4375 4.171875 1.34375 4.5 0.015625 L 5.671875 -4.65625 C 5.6875 -4.703125 5.71875 -4.78125 5.71875 -4.859375 C 5.71875 -5.03125 5.5625 -5.15625 5.390625 -5.15625 C 5.28125 -5.15625 5.03125 -5.109375 4.9375 -4.75 L 4.046875 -1.234375 C 4 -1.015625 4 -0.984375 3.890625 -0.859375 C 3.65625 -0.53125 3.265625 -0.125 2.6875 -0.125 C 2.015625 -0.125 1.953125 -0.78125 1.953125 -1.09375 C 1.953125 -1.78125 2.28125 -2.703125 2.609375 -3.5625 C 2.734375 -3.90625 2.8125 -4.078125 2.8125 -4.3125 C 2.8125 -4.8125 2.453125 -5.265625 1.859375 -5.265625 C 0.765625 -5.265625 0.328125 -3.53125 0.328125 -3.4375 C 0.328125 -3.390625 0.375 -3.328125 0.453125 -3.328125 C 0.5625 -3.328125 0.578125 -3.375 0.625 -3.546875 C 0.90625 -4.546875 1.359375 -5.03125 1.828125 -5.03125 C 1.9375 -5.03125 2.140625 -5.03125 2.140625 -4.640625 C 2.140625 -4.328125 2.015625 -3.984375 1.828125 -3.53125 C 1.25 -1.953125 1.25 -1.5625 1.25 -1.28125 C 1.25 -0.140625 2.0625 0.125 2.65625 0.125 C 3 0.125 3.4375 0.015625 3.84375 -0.4375 L 3.859375 -0.421875 C 3.6875 0.28125 3.5625 0.75 3.140625 1.34375 Z M 3.140625 1.34375 "/>
</g>
<g id="glyph-6-2">
<path d="M 5.671875 -4.875 C 5.28125 -4.8125 5.140625 -4.515625 5.140625 -4.296875 C 5.140625 -4 5.359375 -3.90625 5.53125 -3.90625 C 5.890625 -3.90625 6.140625 -4.21875 6.140625 -4.546875 C 6.140625 -5.046875 5.5625 -5.265625 5.0625 -5.265625 C 4.34375 -5.265625 3.9375 -4.546875 3.828125 -4.328125 C 3.546875 -5.21875 2.8125 -5.265625 2.59375 -5.265625 C 1.375 -5.265625 0.734375 -3.703125 0.734375 -3.4375 C 0.734375 -3.390625 0.78125 -3.328125 0.859375 -3.328125 C 0.953125 -3.328125 0.984375 -3.40625 1 -3.453125 C 1.40625 -4.78125 2.21875 -5.03125 2.5625 -5.03125 C 3.09375 -5.03125 3.203125 -4.53125 3.203125 -4.25 C 3.203125 -3.984375 3.125 -3.703125 2.984375 -3.125 L 2.578125 -1.5 C 2.40625 -0.78125 2.0625 -0.125 1.421875 -0.125 C 1.359375 -0.125 1.0625 -0.125 0.8125 -0.28125 C 1.25 -0.359375 1.34375 -0.71875 1.34375 -0.859375 C 1.34375 -1.09375 1.15625 -1.25 0.9375 -1.25 C 0.640625 -1.25 0.328125 -0.984375 0.328125 -0.609375 C 0.328125 -0.109375 0.890625 0.125 1.40625 0.125 C 1.984375 0.125 2.390625 -0.328125 2.640625 -0.828125 C 2.828125 -0.125 3.4375 0.125 3.875 0.125 C 5.09375 0.125 5.734375 -1.453125 5.734375 -1.703125 C 5.734375 -1.765625 5.6875 -1.8125 5.625 -1.8125 C 5.515625 -1.8125 5.5 -1.75 5.46875 -1.65625 C 5.140625 -0.609375 4.453125 -0.125 3.90625 -0.125 C 3.484375 -0.125 3.265625 -0.4375 3.265625 -0.921875 C 3.265625 -1.1875 3.3125 -1.375 3.5 -2.15625 L 3.921875 -3.796875 C 4.09375 -4.5 4.5 -5.03125 5.0625 -5.03125 C 5.078125 -5.03125 5.421875 -5.03125 5.671875 -4.875 Z M 5.671875 -4.875 "/>
</g>
</g>
<clipPath id="clip-0">
<path clip-rule="nonzero" d="M 176 25 L 313 25 L 313 155.777344 L 176 155.777344 Z M 176 25 "/>
</clipPath>
</defs>
<g fill="rgb(100%, 0%, 0%)" fill-opacity="1">
<use xlink:href="#glyph-0-0" x="8.302" y="34.542"/>
</g>
<g fill="rgb(100%, 0%, 0%)" fill-opacity="1">
<use xlink:href="#glyph-1-0" x="20.058" y="45.065"/>
</g>
<g fill="rgb(100%, 0%, 0%)" fill-opacity="1">
<use xlink:href="#glyph-1-1" x="28.248246" y="45.065"/>
</g>
<path fill="none" stroke-width="0.574" stroke-linecap="butt" stroke-linejoin="miter" stroke="rgb(100%, 0%, 0%)" stroke-opacity="1" stroke-miterlimit="10" d="M 0.00059375 0.00040625 L 16.652938 0.00040625 " transform="matrix(1, 0, 0, -1, 20.058, 51.184)"/>
<g fill="rgb(100%, 0%, 0%)" fill-opacity="1">
<use xlink:href="#glyph-1-0" x="20.703" y="64.611"/>
</g>
<g fill="rgb(100%, 0%, 0%)" fill-opacity="1">
<use xlink:href="#glyph-1-2" x="28.893246" y="64.611"/>
</g>
<g fill="rgb(100%, 0%, 0%)" fill-opacity="1">
<use xlink:href="#glyph-2-0" x="41.093" y="54.77"/>
</g>
<g fill="rgb(100%, 0%, 0%)" fill-opacity="1">
<use xlink:href="#glyph-1-0" x="56.634" y="45.065"/>
</g>
<g fill="rgb(100%, 0%, 0%)" fill-opacity="1">
<use xlink:href="#glyph-1-3" x="64.824246" y="45.065"/>
</g>
<path fill="none" stroke-width="0.574" stroke-linecap="butt" stroke-linejoin="miter" stroke="rgb(100%, 0%, 0%)" stroke-opacity="1" stroke-miterlimit="10" d="M -0.0011875 0.00040625 L 16.280063 0.00040625 " transform="matrix(1, 0, 0, -1, 56.634, 51.184)"/>
<g fill="rgb(100%, 0%, 0%)" fill-opacity="1">
<use xlink:href="#glyph-1-0" x="56.686" y="64.611"/>
</g>
<g fill="rgb(100%, 0%, 0%)" fill-opacity="1">
<use xlink:href="#glyph-1-4" x="64.876246" y="64.611"/>
</g>
<g fill="rgb(100%, 0%, 0%)" fill-opacity="1">
<use xlink:href="#glyph-0-1" x="74.112" y="34.542"/>
</g>
<g fill="rgb(100%, 0%, 0%)" fill-opacity="1">
<use xlink:href="#glyph-3-0" x="87.064" y="54.77"/>
</g>
<g fill="rgb(100%, 0%, 0%)" fill-opacity="1">
<use xlink:href="#glyph-1-4" x="98.769" y="54.77"/>
</g>
<g fill="rgb(100%, 0%, 0%)" fill-opacity="1">
<use xlink:href="#glyph-3-0" x="109.143" y="54.77"/>
</g>
<g fill="rgb(100%, 0%, 0%)" fill-opacity="1">
<use xlink:href="#glyph-1-2" x="120.849" y="54.77"/>
</g>
<g fill="rgb(100%, 0%, 0%)" fill-opacity="1">
<use xlink:href="#glyph-3-1" x="13.837" y="111.212"/>
</g>
<g fill="rgb(100%, 0%, 0%)" fill-opacity="1">
<use xlink:href="#glyph-3-2" x="28.736963" y="111.212"/>
</g>
<g fill="rgb(100%, 0%, 0%)" fill-opacity="1">
<use xlink:href="#glyph-2-1" x="34.21" y="111.212"/>
</g>
<g fill="rgb(100%, 0%, 0%)" fill-opacity="1">
<use xlink:href="#glyph-2-2" x="49.349545" y="111.212"/>
</g>
<g fill="rgb(100%, 0%, 0%)" fill-opacity="1">
<use xlink:href="#glyph-4-0" x="63.7" y="111.212"/>
</g>
<g fill="rgb(100%, 0%, 0%)" fill-opacity="1">
<use xlink:href="#glyph-3-3" x="73.47" y="111.212"/>
</g>
<g fill="rgb(100%, 0%, 0%)" fill-opacity="1">
<use xlink:href="#glyph-5-0" x="78.932" y="113.364"/>
</g>
<g fill="rgb(100%, 0%, 0%)" fill-opacity="1">
<use xlink:href="#glyph-3-0" x="87.064" y="111.212"/>
</g>
<g fill="rgb(100%, 0%, 0%)" fill-opacity="1">
<use xlink:href="#glyph-1-4" x="98.769" y="111.212"/>
</g>
<g fill="rgb(100%, 0%, 0%)" fill-opacity="1">
<use xlink:href="#glyph-3-0" x="109.143" y="111.212"/>
</g>
<g fill="rgb(100%, 0%, 0%)" fill-opacity="1">
<use xlink:href="#glyph-1-2" x="120.849" y="111.212"/>
</g>
<path fill-rule="nonzero" fill="rgb(91.999817%, 91.999817%, 91.999817%)" fill-opacity="1" d="M 188.226562 150.398438 L 273.265625 150.398438 L 301.613281 37.007812 L 216.574219 37.007812 Z M 188.226562 150.398438 "/>
<g clip-path="url(#clip-0)">
<path fill="none" stroke-width="0.79701" stroke-linecap="butt" stroke-linejoin="miter" stroke="rgb(0%, 0%, 0%)" stroke-opacity="1" stroke-miterlimit="10" d="M 56.693563 -56.695438 L 141.732625 -56.695438 L 170.080281 56.695187 L 85.041219 56.695187 Z M 56.693563 -56.695438 " transform="matrix(1, 0, 0, -1, 131.533, 93.703)"/>
</g>
<path fill="none" stroke-width="1.19553" stroke-linecap="butt" stroke-linejoin="miter" stroke="rgb(100%, 0%, 0%)" stroke-opacity="1" stroke-miterlimit="10" d="M 100.674031 -34.01575 L 117.599813 -34.01575 C 123.099813 -34.01575 128.470906 -29.648563 129.592 -24.261844 L 139.701375 24.261594 C 140.826375 29.648312 137.275594 34.0155 131.771688 34.0155 L 114.845906 34.0155 C 109.342 34.0155 103.974813 29.648312 102.849813 24.261594 L 92.740438 -24.261844 C 91.619344 -29.648563 95.170125 -34.01575 100.674031 -34.01575 Z M 100.674031 -34.01575 " transform="matrix(1, 0, 0, -1, 131.533, 93.703)"/>
<path fill="none" stroke-width="1.19553" stroke-linecap="butt" stroke-linejoin="miter" stroke="rgb(100%, 0%, 0%)" stroke-opacity="1" stroke-miterlimit="10" d="M 97.795125 -0.000125 L 98.318563 2.093625 " transform="matrix(1, 0, 0, -1, 131.533, 93.703)"/>
<path fill-rule="nonzero" fill="rgb(100%, 0%, 0%)" fill-opacity="1" stroke-width="1.00871" stroke-linecap="butt" stroke-linejoin="miter" stroke="rgb(100%, 0%, 0%)" stroke-opacity="1" stroke-miterlimit="10" d="M 4.540762 0.000665555 L 1.630459 1.109446 L 2.608058 0.000876492 L 1.629269 -1.109374 Z M 4.540762 0.000665555 " transform="matrix(-0.24243, 0.97017, 0.97017, 0.24243, 230.42439, 89.32109)"/>
<path fill="none" stroke-width="1.59404" stroke-linecap="butt" stroke-linejoin="miter" stroke="rgb(100%, 0%, 0%)" stroke-opacity="1" stroke-miterlimit="10" d="M 116.220906 -0.000125 L 193.599813 -0.000125 " transform="matrix(1, 0, 0, -1, 131.533, 93.703)"/>
<path fill-rule="nonzero" fill="rgb(100%, 0%, 0%)" fill-opacity="1" stroke-width="1.34497" stroke-linecap="butt" stroke-linejoin="miter" stroke="rgb(100%, 0%, 0%)" stroke-opacity="1" stroke-miterlimit="10" d="M 6.056385 -0.000125 L 2.173572 1.476437 L 3.47826 -0.000125 L 2.173572 -1.476688 Z M 6.056385 -0.000125 " transform="matrix(1, 0, 0, -1, 321.99049, 93.703)"/>
<path fill="none" stroke-width="0.79701" stroke-linecap="butt" stroke-linejoin="miter" stroke="rgb(0%, 0%, 0%)" stroke-opacity="1" stroke-miterlimit="10" d="M 325.986531 14.17175 L 325.986531 72.828 " transform="matrix(1, 0, 0, -1, 131.533, 93.703)"/>
<path fill-rule="nonzero" fill="rgb(0%, 0%, 0%)" fill-opacity="1" stroke-width="0.79701" stroke-linecap="butt" stroke-linejoin="miter" stroke="rgb(0%, 0%, 0%)" stroke-opacity="1" stroke-miterlimit="10" d="M 4.843599 0.00189875 L 1.285005 1.345649 L 2.468599 0.00189875 L 1.285005 -1.345758 Z M 4.843599 0.00189875 " transform="matrix(0, -1, -1, 0, 457.52143, 23.14438)"/>
<g fill="rgb(0%, 0%, 0%)" fill-opacity="1">
<use xlink:href="#glyph-6-0" x="454.532" y="13.449"/>
</g>
<path fill="none" stroke-width="0.79701" stroke-linecap="butt" stroke-linejoin="miter" stroke="rgb(0%, 0%, 0%)" stroke-opacity="1" stroke-miterlimit="10" d="M 325.986531 14.17175 L 378.974812 14.17175 " transform="matrix(1, 0, 0, -1, 131.533, 93.703)"/>
<path fill-rule="nonzero" fill="rgb(0%, 0%, 0%)" fill-opacity="1" stroke-width="0.79701" stroke-linecap="butt" stroke-linejoin="miter" stroke="rgb(0%, 0%, 0%)" stroke-opacity="1" stroke-miterlimit="10" d="M 4.840735 -0.00164 L 1.286047 1.346016 L 2.469641 -0.00164 L 1.286047 -1.34539 Z M 4.840735 -0.00164 " transform="matrix(1, 0, 0, -1, 508.23739, 79.52961)"/>
<g fill="rgb(0%, 0%, 0%)" fill-opacity="1">
<use xlink:href="#glyph-6-1" x="517.93" y="80.941"/>
</g>
<path fill="none" stroke-width="0.79701" stroke-linecap="butt" stroke-linejoin="miter" stroke="rgb(0%, 0%, 0%)" stroke-opacity="1" stroke-miterlimit="10" d="M 325.986531 14.17175 L 294.592 -17.222781 " transform="matrix(1, 0, 0, -1, 131.533, 93.703)"/>
<path fill-rule="nonzero" fill="rgb(0%, 0%, 0%)" fill-opacity="1" stroke-width="0.79701" stroke-linecap="butt" stroke-linejoin="miter" stroke="rgb(0%, 0%, 0%)" stroke-opacity="1" stroke-miterlimit="10" d="M 4.841581 -0.000175894 L 1.286678 1.344997 L 2.471646 -0.000175894 L 1.286678 -1.345349 Z M 4.841581 -0.000175894 " transform="matrix(-0.7071, 0.7071, 0.7071, 0.7071, 427.7322, 109.31883)"/>
<g fill="rgb(0%, 0%, 0%)" fill-opacity="1">
<use xlink:href="#glyph-6-2" x="420.176" y="122.412"/>
</g>
</svg>
