<?xml version="1.0" encoding="UTF-8"?>
<svg xmlns="http://www.w3.org/2000/svg" xmlns:xlink="http://www.w3.org/1999/xlink" width="404.89pt" height="148.212pt" viewBox="0 0 404.89 148.212">
<defs>
<g>
<g id="glyph-0-0">
<path d="M 3.4375 -7.65625 C 3.4375 -7.9375 3.4375 -7.953125 3.203125 -7.953125 C 2.921875 -7.625 2.3125 -7.1875 1.09375 -7.1875 L 1.09375 -6.84375 C 1.359375 -6.84375 1.953125 -6.84375 2.625 -7.140625 L 2.625 -0.921875 C 2.625 -0.484375 2.578125 -0.34375 1.53125 -0.34375 L 1.15625 -0.34375 L 1.15625 0 C 1.484375 -0.03125 2.640625 -0.03125 3.03125 -0.03125 C 3.4375 -0.03125 4.578125 -0.03125 4.90625 0 L 4.90625 -0.34375 L 4.53125 -0.34375 C 3.484375 -0.34375 3.4375 -0.484375 3.4375 -0.921875 Z M 3.4375 -7.65625 "/>
</g>
<g id="glyph-0-1">
<path d="M 5.265625 -2.015625 L 5 -2.015625 C 4.953125 -1.8125 4.859375 -1.140625 4.75 -0.953125 C 4.65625 -0.84375 3.984375 -0.84375 3.625 -0.84375 L 1.40625 -0.84375 C 1.734375 -1.125 2.46875 -1.890625 2.765625 -2.171875 C 4.59375 -3.84375 5.265625 -4.46875 5.265625 -5.65625 C 5.265625 -7.03125 4.171875 -7.953125 2.78125 -7.953125 C 1.40625 -7.953125 0.578125 -6.765625 0.578125 -5.734375 C 0.578125 -5.125 1.109375 -5.125 1.140625 -5.125 C 1.40625 -5.125 1.703125 -5.3125 1.703125 -5.6875 C 1.703125 -6.03125 1.484375 -6.25 1.140625 -6.25 C 1.046875 -6.25 1.015625 -6.25 0.984375 -6.234375 C 1.203125 -7.046875 1.859375 -7.609375 2.625 -7.609375 C 3.640625 -7.609375 4.265625 -6.75 4.265625 -5.65625 C 4.265625 -4.640625 3.6875 -3.75 3 -2.984375 L 0.578125 -0.28125 L 0.578125 0 L 4.953125 0 Z M 5.265625 -2.015625 "/>
</g>
<g id="glyph-0-2">
<path d="M 2.203125 -4.296875 C 2 -4.28125 1.953125 -4.265625 1.953125 -4.15625 C 1.953125 -4.046875 2.015625 -4.046875 2.21875 -4.046875 L 2.765625 -4.046875 C 3.796875 -4.046875 4.25 -3.203125 4.25 -2.0625 C 4.25 -0.484375 3.4375 -0.078125 2.84375 -0.078125 C 2.265625 -0.078125 1.296875 -0.34375 0.9375 -1.140625 C 1.328125 -1.078125 1.671875 -1.296875 1.671875 -1.71875 C 1.671875 -2.0625 1.421875 -2.3125 1.09375 -2.3125 C 0.796875 -2.3125 0.484375 -2.140625 0.484375 -1.6875 C 0.484375 -0.625 1.546875 0.25 2.875 0.25 C 4.296875 0.25 5.359375 -0.84375 5.359375 -2.046875 C 5.359375 -3.140625 4.46875 -4 3.328125 -4.203125 C 4.359375 -4.5 5.03125 -5.375 5.03125 -6.3125 C 5.03125 -7.25 4.046875 -7.953125 2.890625 -7.953125 C 1.703125 -7.953125 0.8125 -7.21875 0.8125 -6.34375 C 0.8125 -5.875 1.1875 -5.765625 1.359375 -5.765625 C 1.609375 -5.765625 1.90625 -5.953125 1.90625 -6.3125 C 1.90625 -6.6875 1.609375 -6.859375 1.34375 -6.859375 C 1.28125 -6.859375 1.25 -6.859375 1.21875 -6.84375 C 1.671875 -7.65625 2.796875 -7.65625 2.859375 -7.65625 C 3.25 -7.65625 4.03125 -7.484375 4.03125 -6.3125 C 4.03125 -6.078125 4 -5.421875 3.640625 -4.90625 C 3.28125 -4.375 2.875 -4.34375 2.5625 -4.328125 Z M 2.203125 -4.296875 "/>
</g>
<g id="glyph-0-3">
<path d="M 4.3125 -7.78125 C 4.3125 -8.015625 4.3125 -8.0625 4.140625 -8.0625 C 4.046875 -8.0625 4.015625 -8.0625 3.921875 -7.921875 L 0.328125 -2.34375 L 0.328125 -2 L 3.46875 -2 L 3.46875 -0.90625 C 3.46875 -0.46875 3.4375 -0.34375 2.5625 -0.34375 L 2.328125 -0.34375 L 2.328125 0 C 2.609375 -0.03125 3.546875 -0.03125 3.890625 -0.03125 C 4.21875 -0.03125 5.171875 -0.03125 5.453125 0 L 5.453125 -0.34375 L 5.21875 -0.34375 C 4.34375 -0.34375 4.3125 -0.46875 4.3125 -0.90625 L 4.3125 -2 L 5.515625 -2 L 5.515625 -2.34375 L 4.3125 -2.34375 Z M 3.53125 -6.84375 L 3.53125 -2.34375 L 0.625 -2.34375 Z M 3.53125 -6.84375 "/>
</g>
<g id="glyph-0-4">
<path d="M 8.0625 -3.875 C 8.234375 -3.875 8.453125 -3.875 8.453125 -4.09375 C 8.453125 -4.3125 8.25 -4.3125 8.0625 -4.3125 L 1.03125 -4.3125 C 0.859375 -4.3125 0.640625 -4.3125 0.640625 -4.09375 C 0.640625 -3.875 0.84375 -3.875 1.03125 -3.875 Z M 8.0625 -1.65625 C 8.234375 -1.65625 8.453125 -1.65625 8.453125 -1.859375 C 8.453125 -2.09375 8.25 -2.09375 8.0625 -2.09375 L 1.03125 -2.09375 C 0.859375 -2.09375 0.640625 -2.09375 0.640625 -1.875 C 0.640625 -1.65625 0.84375 -1.65625 1.03125 -1.65625 Z M 8.0625 -1.65625 "/>
</g>
<g id="glyph-0-5">
<path d="M 3.890625 2.90625 C 3.890625 2.875 3.890625 2.84375 3.6875 2.640625 C 2.484375 1.4375 1.8125 -0.53125 1.8125 -2.96875 C 1.8125 -5.296875 2.375 -7.296875 3.765625 -8.703125 C 3.890625 -8.8125 3.890625 -8.828125 3.890625 -8.875 C 3.890625 -8.9375 3.828125 -8.96875 3.78125 -8.96875 C 3.625 -8.96875 2.640625 -8.109375 2.0625 -6.9375 C 1.453125 -5.71875 1.171875 -4.453125 1.171875 -2.96875 C 1.171875 -1.90625 1.34375 -0.484375 1.953125 0.78125 C 2.671875 2.21875 3.640625 3 3.78125 3 C 3.828125 3 3.890625 2.96875 3.890625 2.90625 Z M 3.890625 2.90625 "/>
</g>
<g id="glyph-0-6">
<path d="M 3.375 -2.96875 C 3.375 -3.890625 3.25 -5.359375 2.578125 -6.75 C 1.875 -8.1875 0.890625 -8.96875 0.765625 -8.96875 C 0.71875 -8.96875 0.65625 -8.9375 0.65625 -8.875 C 0.65625 -8.828125 0.65625 -8.8125 0.859375 -8.609375 C 2.0625 -7.40625 2.71875 -5.421875 2.71875 -2.984375 C 2.71875 -0.671875 2.15625 1.328125 0.78125 2.734375 C 0.65625 2.84375 0.65625 2.875 0.65625 2.90625 C 0.65625 2.96875 0.71875 3 0.765625 3 C 0.921875 3 1.90625 2.140625 2.484375 0.96875 C 3.09375 -0.25 3.375 -1.546875 3.375 -2.96875 Z M 3.375 -2.96875 "/>
</g>
<g id="glyph-1-0">
<path d="M 2.40625 -4.8125 L 3.5 -4.8125 C 3.734375 -4.8125 3.84375 -4.8125 3.84375 -5.015625 C 3.84375 -5.15625 3.78125 -5.15625 3.53125 -5.15625 L 2.484375 -5.15625 L 2.921875 -6.890625 C 2.96875 -7.0625 2.96875 -7.09375 2.96875 -7.171875 C 2.96875 -7.359375 2.828125 -7.46875 2.671875 -7.46875 C 2.5625 -7.46875 2.296875 -7.4375 2.203125 -7.046875 L 1.734375 -5.15625 L 0.609375 -5.15625 C 0.375 -5.15625 0.265625 -5.15625 0.265625 -4.921875 C 0.265625 -4.8125 0.34375 -4.8125 0.578125 -4.8125 L 1.640625 -4.8125 L 0.84375 -1.65625 C 0.75 -1.234375 0.71875 -1.109375 0.71875 -0.953125 C 0.71875 -0.390625 1.109375 0.125 1.78125 0.125 C 2.984375 0.125 3.640625 -1.625 3.640625 -1.703125 C 3.640625 -1.78125 3.578125 -1.8125 3.515625 -1.8125 C 3.484375 -1.8125 3.4375 -1.8125 3.421875 -1.765625 C 3.40625 -1.75 3.390625 -1.75 3.3125 -1.546875 C 3.0625 -0.953125 2.515625 -0.125 1.8125 -0.125 C 1.453125 -0.125 1.4375 -0.421875 1.4375 -0.6875 C 1.4375 -0.6875 1.4375 -0.921875 1.46875 -1.0625 Z M 2.40625 -4.8125 "/>
</g>
<g id="glyph-1-1">
<path d="M 5.671875 -4.875 C 5.28125 -4.8125 5.140625 -4.515625 5.140625 -4.296875 C 5.140625 -4 5.359375 -3.90625 5.53125 -3.90625 C 5.890625 -3.90625 6.140625 -4.21875 6.140625 -4.546875 C 6.140625 -5.046875 5.5625 -5.265625 5.0625 -5.265625 C 4.34375 -5.265625 3.9375 -4.546875 3.828125 -4.328125 C 3.546875 -5.21875 2.8125 -5.265625 2.59375 -5.265625 C 1.375 -5.265625 0.734375 -3.703125 0.734375 -3.4375 C 0.734375 -3.390625 0.78125 -3.328125 0.859375 -3.328125 C 0.953125 -3.328125 0.984375 -3.40625 1 -3.453125 C 1.40625 -4.78125 2.21875 -5.03125 2.5625 -5.03125 C 3.09375 -5.03125 3.203125 -4.53125 3.203125 -4.25 C 3.203125 -3.984375 3.125 -3.703125 2.984375 -3.125 L 2.578125 -1.5 C 2.40625 -0.78125 2.0625 -0.125 1.421875 -0.125 C 1.359375 -0.125 1.0625 -0.125 0.8125 -0.28125 C 1.25 -0.359375 1.34375 -0.71875 1.34375 -0.859375 C 1.34375 -1.09375 1.15625 -1.25 0.9375 -1.25 C 0.640625 -1.25 0.328125 -0.984375 0.328125 -0.609375 C 0.328125 -0.109375 0.890625 0.125 1.40625 0.125 C 1.984375 0.125 2.390625 -0.328125 2.640625 -0.828125 C 2.828125 -0.125 3.4375 0.125 3.875 0.125 C 5.09375 0.125 5.734375 -1.453125 5.734375 -1.703125 C 5.734375 -1.765625 5.6875 -1.8125 5.625 -1.8125 C 5.515625 -1.8125 5.5 -1.75 5.46875 -1.65625 C 5.140625 -0.609375 4.453125 -0.125 3.90625 -0.125 C 3.484375 -0.125 3.265625 -0.4375 3.265625 -0.921875 C 3.265625 -1.1875 3.3125 -1.375 3.5 -2.15625 L 3.921875 -3.796875 C 4.09375 -4.5 4.5 -5.03125 5.0625 -5.03125 C 5.078125 -5.03125 5.421875 -5.03125 5.671875 -4.875 Z M 5.671875 -4.875 "/>
</g>
<g id="glyph-1-2">
<path d="M 3.140625 1.34375 C 2.828125 1.796875 2.359375 2.203125 1.765625 2.203125 C 1.625 2.203125 1.046875 2.171875 0.875 1.625 C 0.90625 1.640625 0.96875 1.640625 0.984375 1.640625 C 1.34375 1.640625 1.59375 1.328125 1.59375 1.046875 C 1.59375 0.78125 1.359375 0.6875 1.1875 0.6875 C 0.984375 0.6875 0.578125 0.828125 0.578125 1.40625 C 0.578125 2.015625 1.09375 2.4375 1.765625 2.4375 C 2.96875 2.4375 4.171875 1.34375 4.5 0.015625 L 5.671875 -4.65625 C 5.6875 -4.703125 5.71875 -4.78125 5.71875 -4.859375 C 5.71875 -5.03125 5.5625 -5.15625 5.390625 -5.15625 C 5.28125 -5.15625 5.03125 -5.109375 4.9375 -4.75 L 4.046875 -1.234375 C 4 -1.015625 4 -0.984375 3.890625 -0.859375 C 3.65625 -0.53125 3.265625 -0.125 2.6875 -0.125 C 2.015625 -0.125 1.953125 -0.78125 1.953125 -1.09375 C 1.953125 -1.78125 2.28125 -2.703125 2.609375 -3.5625 C 2.734375 -3.90625 2.8125 -4.078125 2.8125 -4.3125 C 2.8125 -4.8125 2.453125 -5.265625 1.859375 -5.265625 C 0.765625 -5.265625 0.328125 -3.53125 0.328125 -3.4375 C 0.328125 -3.390625 0.375 -3.328125 0.453125 -3.328125 C 0.5625 -3.328125 0.578125 -3.375 0.625 -3.546875 C 0.90625 -4.546875 1.359375 -5.03125 1.828125 -5.03125 C 1.9375 -5.03125 2.140625 -5.03125 2.140625 -4.640625 C 2.140625 -4.328125 2.015625 -3.984375 1.828125 -3.53125 C 1.25 -1.953125 1.25 -1.5625 1.25 -1.28125 C 1.25 -0.140625 2.0625 0.125 2.65625 0.125 C 3 0.125 3.4375 0.015625 3.84375 -0.4375 L 3.859375 -0.421875 C 3.6875 0.28125 3.5625 0.75 3.140625 1.34375 Z M 3.140625 1.34375 "/>
</g>
<g id="glyph-2-0">
<path d="M 2.5 -5.078125 C 2.5 -5.296875 2.484375 -5.296875 2.265625 -5.296875 C 1.9375 -4.984375 1.515625 -4.796875 0.765625 -4.796875 L 0.765625 -4.53125 C 0.984375 -4.53125 1.40625 -4.53125 1.875 -4.734375 L 1.875 -0.65625 C 1.875 -0.359375 1.84375 -0.265625 1.09375 -0.265625 L 0.8125 -0.265625 L 0.8125 0 C 1.140625 -0.03125 1.828125 -0.03125 2.1875 -0.03125 C 2.546875 -0.03125 3.234375 -0.03125 3.5625 0 L 3.5625 -0.265625 L 3.28125 -0.265625 C 2.53125 -0.265625 2.5 -0.359375 2.5 -0.65625 Z M 2.5 -5.078125 "/>
</g>
<g id="glyph-2-1">
<path d="M 2.25 -1.625 C 2.375 -1.75 2.703125 -2.015625 2.84375 -2.125 C 3.328125 -2.578125 3.796875 -3.015625 3.796875 -3.734375 C 3.796875 -4.6875 3 -5.296875 2.015625 -5.296875 C 1.046875 -5.296875 0.421875 -4.578125 0.421875 -3.859375 C 0.421875 -3.46875 0.734375 -3.421875 0.84375 -3.421875 C 1.015625 -3.421875 1.265625 -3.53125 1.265625 -3.84375 C 1.265625 -4.25 0.859375 -4.25 0.765625 -4.25 C 1 -4.84375 1.53125 -5.03125 1.921875 -5.03125 C 2.65625 -5.03125 3.046875 -4.40625 3.046875 -3.734375 C 3.046875 -2.90625 2.46875 -2.296875 1.515625 -1.34375 L 0.515625 -0.296875 C 0.421875 -0.21875 0.421875 -0.203125 0.421875 0 L 3.5625 0 L 3.796875 -1.421875 L 3.546875 -1.421875 C 3.53125 -1.265625 3.46875 -0.875 3.375 -0.71875 C 3.328125 -0.65625 2.71875 -0.65625 2.59375 -0.65625 L 1.171875 -0.65625 Z M 2.25 -1.625 "/>
</g>
</g>
</defs>
<path fill="none" stroke-width="0.79701" stroke-linecap="butt" stroke-linejoin="miter" stroke="rgb(0%, 0%, 0%)" stroke-opacity="1" stroke-miterlimit="10" d="M -14.173969 -0.00075 L 152.201031 -0.00075 " transform="matrix(1, 0, 0, -1, 31.006, 104.593)"/>
<path fill-rule="nonzero" fill="rgb(0%, 0%, 0%)" fill-opacity="1" stroke-width="0.79701" stroke-linecap="butt" stroke-linejoin="miter" stroke="rgb(0%, 0%, 0%)" stroke-opacity="1" stroke-miterlimit="10" d="M 4.841564 -0.00075 L 1.286876 1.346906 L 2.47047 -0.00075 L 1.286876 -1.348406 Z M 4.841564 -0.00075 " transform="matrix(1, 0, 0, -1, 180.93578, 104.593)"/>
<path fill="none" stroke-width="0.79701" stroke-linecap="butt" stroke-linejoin="miter" stroke="rgb(0%, 0%, 0%)" stroke-opacity="1" stroke-miterlimit="10" d="M 0.0018125 -8.504656 L 0.0018125 87.003156 " transform="matrix(1, 0, 0, -1, 31.006, 104.593)"/>
<path fill-rule="nonzero" fill="rgb(0%, 0%, 0%)" fill-opacity="1" stroke-width="0.79701" stroke-linecap="butt" stroke-linejoin="miter" stroke="rgb(0%, 0%, 0%)" stroke-opacity="1" stroke-miterlimit="10" d="M 4.841429 -0.0018125 L 1.286741 1.345844 L 2.470335 -0.0018125 L 1.286741 -1.345562 Z M 4.841429 -0.0018125 " transform="matrix(0, -1, -1, 0, 31.006, 19.86096)"/>
<path fill="none" stroke-width="0.3985" stroke-linecap="butt" stroke-linejoin="miter" stroke="rgb(0%, 0%, 0%)" stroke-opacity="1" stroke-miterlimit="10" d="M 28.345562 2.268781 L 28.345562 -2.266375 " transform="matrix(1, 0, 0, -1, 31.006, 104.593)"/>
<g fill="rgb(0%, 0%, 0%)" fill-opacity="1">
<use xlink:href="#glyph-0-0" x="56.426" y="115.817"/>
</g>
<path fill="none" stroke-width="0.3985" stroke-linecap="butt" stroke-linejoin="miter" stroke="rgb(0%, 0%, 0%)" stroke-opacity="1" stroke-miterlimit="10" d="M 56.693219 2.268781 L 56.693219 -2.266375 " transform="matrix(1, 0, 0, -1, 31.006, 104.593)"/>
<g fill="rgb(0%, 0%, 0%)" fill-opacity="1">
<use xlink:href="#glyph-0-1" x="84.773" y="115.817"/>
</g>
<path fill="none" stroke-width="0.3985" stroke-linecap="butt" stroke-linejoin="miter" stroke="rgb(0%, 0%, 0%)" stroke-opacity="1" stroke-miterlimit="10" d="M 85.040875 2.268781 L 85.040875 -2.266375 " transform="matrix(1, 0, 0, -1, 31.006, 104.593)"/>
<g fill="rgb(0%, 0%, 0%)" fill-opacity="1">
<use xlink:href="#glyph-0-2" x="113.119" y="115.817"/>
</g>
<path fill="none" stroke-width="0.3985" stroke-linecap="butt" stroke-linejoin="miter" stroke="rgb(0%, 0%, 0%)" stroke-opacity="1" stroke-miterlimit="10" d="M 113.388531 2.268781 L 113.388531 -2.266375 " transform="matrix(1, 0, 0, -1, 31.006, 104.593)"/>
<g fill="rgb(0%, 0%, 0%)" fill-opacity="1">
<use xlink:href="#glyph-0-3" x="141.466" y="115.817"/>
</g>
<path fill="none" stroke-width="0.3985" stroke-linecap="butt" stroke-linejoin="miter" stroke="rgb(0%, 0%, 0%)" stroke-opacity="1" stroke-miterlimit="10" d="M 2.267437 28.346906 L -2.267719 28.346906 " transform="matrix(1, 0, 0, -1, 31.006, 104.593)"/>
<g fill="rgb(0%, 0%, 0%)" fill-opacity="1">
<use xlink:href="#glyph-0-0" x="21.634" y="80.099"/>
</g>
<path fill="none" stroke-width="0.3985" stroke-linecap="butt" stroke-linejoin="miter" stroke="rgb(0%, 0%, 0%)" stroke-opacity="1" stroke-miterlimit="10" d="M 2.267437 56.694562 L -2.267719 56.694562 " transform="matrix(1, 0, 0, -1, 31.006, 104.593)"/>
<g fill="rgb(0%, 0%, 0%)" fill-opacity="1">
<use xlink:href="#glyph-0-1" x="21.634" y="51.752"/>
</g>
<path fill="none" stroke-width="0.3985" stroke-linecap="butt" stroke-linejoin="miter" stroke="rgb(50%, 50%, 50%)" stroke-opacity="1" stroke-dasharray="2.98883 2.98883" stroke-miterlimit="10" d="M 28.345562 -0.00075 L 28.345562 28.346906 L 0.0018125 28.346906 " transform="matrix(1, 0, 0, -1, 31.006, 104.593)"/>
<path fill="none" stroke-width="0.3985" stroke-linecap="butt" stroke-linejoin="miter" stroke="rgb(50%, 50%, 50%)" stroke-opacity="1" stroke-dasharray="2.98883 2.98883" stroke-miterlimit="10" d="M 113.388531 -0.00075 L 113.388531 56.694562 L 0.0018125 56.694562 " transform="matrix(1, 0, 0, -1, 31.006, 104.593)"/>
<path fill="none" stroke-width="1.19553" stroke-linecap="butt" stroke-linejoin="miter" stroke="rgb(100%, 0%, 0%)" stroke-opacity="1" stroke-miterlimit="10" d="M 0.0018125 -0.00075 L 25.361187 25.362531 " transform="matrix(1, 0, 0, -1, 31.006, 104.593)"/>
<path fill-rule="nonzero" fill="rgb(100%, 0%, 0%)" fill-opacity="1" stroke-width="1.17683" stroke-linecap="butt" stroke-linejoin="miter" stroke="rgb(100%, 0%, 0%)" stroke-opacity="1" stroke-miterlimit="10" d="M 5.299336 0.000950184 L 1.901877 1.293642 L 3.045412 0.000950184 L 1.899114 -1.294504 Z M 5.299336 0.000950184 " transform="matrix(0.7071, -0.7071, -0.7071, -0.7071, 54.42148, 81.17752)"/>
<g fill="rgb(100%, 0%, 0%)" fill-opacity="1">
<use xlink:href="#glyph-1-0" x="8.302" y="115.817"/>
</g>
<g fill="rgb(100%, 0%, 0%)" fill-opacity="1">
<use xlink:href="#glyph-0-4" x="12.529" y="115.817"/>
<use xlink:href="#glyph-0-0" x="21.634057" y="115.817"/>
</g>
<path fill="none" stroke-width="1.19553" stroke-linecap="butt" stroke-linejoin="miter" stroke="rgb(0%, 0%, 100%)" stroke-opacity="1" stroke-miterlimit="10" d="M 0.0018125 -0.00075 L 109.611187 54.803937 " transform="matrix(1, 0, 0, -1, 31.006, 104.593)"/>
<path fill-rule="nonzero" fill="rgb(0%, 0%, 100%)" fill-opacity="1" stroke-width="1.17683" stroke-linecap="butt" stroke-linejoin="miter" stroke="rgb(0%, 0%, 100%)" stroke-opacity="1" stroke-miterlimit="10" d="M 5.298376 0.000277168 L 1.900318 1.293076 L 3.044659 0.000257009 L 1.900342 -1.292583 Z M 5.298376 0.000277168 " transform="matrix(0.89436, -0.44717, -0.44717, -0.89436, 138.156, 51.01796)"/>
<g fill="rgb(0%, 0%, 100%)" fill-opacity="1">
<use xlink:href="#glyph-1-0" x="106.453" y="38.711"/>
</g>
<g fill="rgb(0%, 0%, 100%)" fill-opacity="1">
<use xlink:href="#glyph-0-4" x="110.68" y="38.711"/>
<use xlink:href="#glyph-0-1" x="119.785057" y="38.711"/>
</g>
<path fill="none" stroke-width="0.79701" stroke-linecap="butt" stroke-linejoin="miter" stroke="rgb(0%, 0%, 0%)" stroke-opacity="1" stroke-miterlimit="10" d="M 212.599469 -14.172625 L 212.599469 99.214094 L 368.509625 99.214094 L 368.509625 -14.172625 Z M 212.599469 -14.172625 " transform="matrix(1, 0, 0, -1, 31.006, 104.593)"/>
<g fill="rgb(0%, 0%, 0%)" fill-opacity="1">
<use xlink:href="#glyph-1-1" x="302.113" y="136.921"/>
</g>
<g fill="rgb(0%, 0%, 0%)" fill-opacity="1">
<use xlink:href="#glyph-0-5" x="308.765" y="136.921"/>
</g>
<g fill="rgb(0%, 0%, 0%)" fill-opacity="1">
<use xlink:href="#glyph-1-0" x="313.317" y="136.921"/>
</g>
<g fill="rgb(0%, 0%, 0%)" fill-opacity="1">
<use xlink:href="#glyph-2-0" x="317.544" y="138.715"/>
</g>
<g fill="rgb(0%, 0%, 0%)" fill-opacity="1">
<use xlink:href="#glyph-0-6" x="322.277" y="136.921"/>
</g>
<g fill="rgb(0%, 0%, 0%)" fill-opacity="1">
<use xlink:href="#glyph-1-1" x="364.475" y="136.921"/>
</g>
<g fill="rgb(0%, 0%, 0%)" fill-opacity="1">
<use xlink:href="#glyph-0-5" x="371.127" y="136.921"/>
</g>
<g fill="rgb(0%, 0%, 0%)" fill-opacity="1">
<use xlink:href="#glyph-1-0" x="375.679" y="136.921"/>
</g>
<g fill="rgb(0%, 0%, 0%)" fill-opacity="1">
<use xlink:href="#glyph-2-1" x="379.906" y="138.715"/>
</g>
<g fill="rgb(0%, 0%, 0%)" fill-opacity="1">
<use xlink:href="#glyph-0-6" x="384.639" y="136.921"/>
</g>
<g fill="rgb(0%, 0%, 0%)" fill-opacity="1">
<use xlink:href="#glyph-1-2" x="210.215" y="93.408"/>
</g>
<g fill="rgb(0%, 0%, 0%)" fill-opacity="1">
<use xlink:href="#glyph-0-5" x="216.352" y="93.408"/>
</g>
<g fill="rgb(0%, 0%, 0%)" fill-opacity="1">
<use xlink:href="#glyph-1-0" x="220.904" y="93.408"/>
</g>
<g fill="rgb(0%, 0%, 0%)" fill-opacity="1">
<use xlink:href="#glyph-2-0" x="225.131" y="95.202"/>
</g>
<g fill="rgb(0%, 0%, 0%)" fill-opacity="1">
<use xlink:href="#glyph-0-6" x="229.864" y="93.408"/>
</g>
<g fill="rgb(0%, 0%, 0%)" fill-opacity="1">
<use xlink:href="#glyph-1-2" x="210.215" y="31.046"/>
</g>
<g fill="rgb(0%, 0%, 0%)" fill-opacity="1">
<use xlink:href="#glyph-0-5" x="216.352" y="31.046"/>
</g>
<g fill="rgb(0%, 0%, 0%)" fill-opacity="1">
<use xlink:href="#glyph-1-0" x="220.904" y="31.046"/>
</g>
<g fill="rgb(0%, 0%, 0%)" fill-opacity="1">
<use xlink:href="#glyph-2-1" x="225.131" y="32.84"/>
</g>
<g fill="rgb(0%, 0%, 0%)" fill-opacity="1">
<use xlink:href="#glyph-0-6" x="229.864" y="31.046"/>
</g>
<path fill="none" stroke-width="0.3985" stroke-linecap="butt" stroke-linejoin="miter" stroke="rgb(50%, 50%, 50%)" stroke-opacity="1" stroke-dasharray="2.98883 2.98883" stroke-miterlimit="10" d="M 283.466656 -14.172625 L 283.466656 14.175031 L 212.599469 14.175031 " transform="matrix(1, 0, 0, -1, 31.006, 104.593)"/>
<path fill="none" stroke-width="0.3985" stroke-linecap="butt" stroke-linejoin="miter" stroke="rgb(50%, 50%, 50%)" stroke-opacity="1" stroke-dasharray="2.98883 2.98883" stroke-miterlimit="10" d="M 345.829938 -14.172625 L 345.829938 76.534406 L 212.599469 76.534406 " transform="matrix(1, 0, 0, -1, 31.006, 104.593)"/>
<path fill="none" stroke-width="0.79701" stroke-linecap="butt" stroke-linejoin="miter" stroke="rgb(0%, 0%, 0%)" stroke-opacity="1" stroke-miterlimit="10" d="M 283.466656 14.175031 C 289.138531 22.678937 283.466656 42.518781 297.642438 51.022687 C 311.814313 59.526594 325.990094 65.198469 345.829938 76.534406 " transform="matrix(1, 0, 0, -1, 31.006, 104.593)"/>
<path fill-rule="nonzero" fill="rgb(0%, 0%, 0%)" fill-opacity="1" d="M 317.464844 90.417969 C 317.464844 88.769531 316.125 87.429688 314.472656 87.429688 C 312.824219 87.429688 311.484375 88.769531 311.484375 90.417969 C 311.484375 92.070312 312.824219 93.410156 314.472656 93.410156 C 316.125 93.410156 317.464844 92.070312 317.464844 90.417969 Z M 317.464844 90.417969 "/>
<g fill="rgb(0%, 0%, 0%)" fill-opacity="1">
<use xlink:href="#glyph-1-0" x="288.66" y="76.603"/>
</g>
<g fill="rgb(0%, 0%, 0%)" fill-opacity="1">
<use xlink:href="#glyph-0-4" x="292.887" y="76.603"/>
</g>
<g fill="rgb(0%, 0%, 0%)" fill-opacity="1">
<use xlink:href="#glyph-1-0" x="301.992" y="76.603"/>
</g>
<g fill="rgb(0%, 0%, 0%)" fill-opacity="1">
<use xlink:href="#glyph-2-0" x="306.219" y="78.396"/>
</g>
<path fill-rule="nonzero" fill="rgb(0%, 0%, 0%)" fill-opacity="1" d="M 379.824219 28.058594 C 379.824219 26.40625 378.488281 25.066406 376.835938 25.066406 C 375.1875 25.066406 373.847656 26.40625 373.847656 28.058594 C 373.847656 29.707031 375.1875 31.046875 376.835938 31.046875 C 378.488281 31.046875 379.824219 29.707031 379.824219 28.058594 Z M 379.824219 28.058594 "/>
<g fill="rgb(0%, 0%, 0%)" fill-opacity="1">
<use xlink:href="#glyph-1-0" x="351.022" y="17.075"/>
</g>
<g fill="rgb(0%, 0%, 0%)" fill-opacity="1">
<use xlink:href="#glyph-0-4" x="355.249" y="17.075"/>
</g>
<g fill="rgb(0%, 0%, 0%)" fill-opacity="1">
<use xlink:href="#glyph-1-0" x="364.354" y="17.075"/>
</g>
<g fill="rgb(0%, 0%, 0%)" fill-opacity="1">
<use xlink:href="#glyph-2-1" x="368.581" y="18.869"/>
</g>
</svg>
