<?xml version="1.0" encoding="UTF-8"?>
<svg xmlns="http://www.w3.org/2000/svg" xmlns:xlink="http://www.w3.org/1999/xlink" width="237.336pt" height="128.608pt" viewBox="0 0 237.336 128.608">
<defs>
<g>
<g id="glyph-0-0">
<path d="M 3.65625 -3.984375 L 4.515625 -3.984375 C 4.71875 -3.984375 4.8125 -3.984375 4.8125 -4.1875 C 4.8125 -4.296875 4.71875 -4.296875 4.546875 -4.296875 L 3.71875 -4.296875 L 3.921875 -5.4375 C 3.96875 -5.640625 4.109375 -6.34375 4.171875 -6.46875 C 4.25 -6.65625 4.421875 -6.8125 4.640625 -6.8125 C 4.671875 -6.8125 4.9375 -6.8125 5.125 -6.625 C 4.6875 -6.59375 4.578125 -6.234375 4.578125 -6.09375 C 4.578125 -5.859375 4.765625 -5.734375 4.953125 -5.734375 C 5.21875 -5.734375 5.5 -5.96875 5.5 -6.34375 C 5.5 -6.796875 5.046875 -7.03125 4.640625 -7.03125 C 4.296875 -7.03125 3.671875 -6.84375 3.375 -5.859375 C 3.3125 -5.65625 3.28125 -5.546875 3.046875 -4.296875 L 2.359375 -4.296875 C 2.15625 -4.296875 2.046875 -4.296875 2.046875 -4.109375 C 2.046875 -3.984375 2.140625 -3.984375 2.328125 -3.984375 L 2.984375 -3.984375 L 2.25 -0.046875 C 2.0625 0.921875 1.890625 1.828125 1.375 1.828125 C 1.328125 1.828125 1.09375 1.828125 0.890625 1.640625 C 1.359375 1.609375 1.453125 1.25 1.453125 1.109375 C 1.453125 0.875 1.265625 0.75 1.078125 0.75 C 0.8125 0.75 0.53125 0.984375 0.53125 1.359375 C 0.53125 1.796875 0.96875 2.046875 1.375 2.046875 C 1.921875 2.046875 2.328125 1.453125 2.5 1.078125 C 2.828125 0.453125 3.046875 -0.75 3.0625 -0.828125 Z M 3.65625 -3.984375 "/>
</g>
<g id="glyph-0-1">
<path d="M 3.328125 -3.015625 C 3.390625 -3.265625 3.625 -4.1875 4.3125 -4.1875 C 4.359375 -4.1875 4.609375 -4.1875 4.8125 -4.0625 C 4.53125 -4 4.34375 -3.765625 4.34375 -3.515625 C 4.34375 -3.359375 4.453125 -3.171875 4.71875 -3.171875 C 4.9375 -3.171875 5.25 -3.34375 5.25 -3.75 C 5.25 -4.265625 4.671875 -4.40625 4.328125 -4.40625 C 3.75 -4.40625 3.40625 -3.875 3.28125 -3.65625 C 3.03125 -4.3125 2.5 -4.40625 2.203125 -4.40625 C 1.171875 -4.40625 0.59375 -3.125 0.59375 -2.875 C 0.59375 -2.765625 0.703125 -2.765625 0.71875 -2.765625 C 0.796875 -2.765625 0.828125 -2.796875 0.84375 -2.875 C 1.1875 -3.9375 1.84375 -4.1875 2.1875 -4.1875 C 2.375 -4.1875 2.71875 -4.09375 2.71875 -3.515625 C 2.71875 -3.203125 2.546875 -2.546875 2.1875 -1.140625 C 2.03125 -0.53125 1.671875 -0.109375 1.234375 -0.109375 C 1.171875 -0.109375 0.953125 -0.109375 0.734375 -0.234375 C 0.984375 -0.296875 1.203125 -0.5 1.203125 -0.78125 C 1.203125 -1.046875 0.984375 -1.125 0.84375 -1.125 C 0.53125 -1.125 0.296875 -0.875 0.296875 -0.546875 C 0.296875 -0.09375 0.78125 0.109375 1.21875 0.109375 C 1.890625 0.109375 2.25 -0.59375 2.265625 -0.640625 C 2.390625 -0.28125 2.75 0.109375 3.34375 0.109375 C 4.375 0.109375 4.9375 -1.171875 4.9375 -1.421875 C 4.9375 -1.53125 4.859375 -1.53125 4.828125 -1.53125 C 4.734375 -1.53125 4.71875 -1.484375 4.6875 -1.421875 C 4.359375 -0.34375 3.6875 -0.109375 3.375 -0.109375 C 2.984375 -0.109375 2.828125 -0.421875 2.828125 -0.765625 C 2.828125 -0.984375 2.875 -1.203125 2.984375 -1.640625 Z M 3.328125 -3.015625 "/>
</g>
<g id="glyph-0-2">
<path d="M 2.03125 -0.015625 C 2.03125 -0.671875 1.78125 -1.0625 1.390625 -1.0625 C 1.0625 -1.0625 0.859375 -0.8125 0.859375 -0.53125 C 0.859375 -0.265625 1.0625 0 1.390625 0 C 1.5 0 1.640625 -0.046875 1.734375 -0.125 C 1.765625 -0.15625 1.78125 -0.15625 1.78125 -0.15625 C 1.796875 -0.15625 1.796875 -0.15625 1.796875 -0.015625 C 1.796875 0.734375 1.453125 1.328125 1.125 1.65625 C 1.015625 1.765625 1.015625 1.78125 1.015625 1.8125 C 1.015625 1.890625 1.0625 1.921875 1.109375 1.921875 C 1.21875 1.921875 2.03125 1.15625 2.03125 -0.015625 Z M 2.03125 -0.015625 "/>
</g>
<g id="glyph-0-3">
<path d="M 2.046875 -3.984375 L 2.984375 -3.984375 C 3.1875 -3.984375 3.296875 -3.984375 3.296875 -4.1875 C 3.296875 -4.296875 3.1875 -4.296875 3.015625 -4.296875 L 2.140625 -4.296875 C 2.5 -5.71875 2.546875 -5.90625 2.546875 -5.96875 C 2.546875 -6.140625 2.421875 -6.234375 2.25 -6.234375 C 2.21875 -6.234375 1.9375 -6.234375 1.859375 -5.875 L 1.46875 -4.296875 L 0.53125 -4.296875 C 0.328125 -4.296875 0.234375 -4.296875 0.234375 -4.109375 C 0.234375 -3.984375 0.3125 -3.984375 0.515625 -3.984375 L 1.390625 -3.984375 C 0.671875 -1.15625 0.625 -0.984375 0.625 -0.8125 C 0.625 -0.265625 1 0.109375 1.546875 0.109375 C 2.5625 0.109375 3.125 -1.34375 3.125 -1.421875 C 3.125 -1.53125 3.046875 -1.53125 3.015625 -1.53125 C 2.921875 -1.53125 2.90625 -1.5 2.859375 -1.390625 C 2.4375 -0.34375 1.90625 -0.109375 1.5625 -0.109375 C 1.359375 -0.109375 1.25 -0.234375 1.25 -0.5625 C 1.25 -0.8125 1.28125 -0.875 1.3125 -1.046875 Z M 2.046875 -3.984375 "/>
</g>
<g id="glyph-0-4">
<path d="M 3.734375 -6.03125 C 3.8125 -6.390625 3.84375 -6.5 4.78125 -6.5 C 5.078125 -6.5 5.15625 -6.5 5.15625 -6.6875 C 5.15625 -6.8125 5.046875 -6.8125 5 -6.8125 C 4.671875 -6.8125 3.859375 -6.78125 3.53125 -6.78125 C 3.234375 -6.78125 2.5 -6.8125 2.203125 -6.8125 C 2.140625 -6.8125 2.015625 -6.8125 2.015625 -6.609375 C 2.015625 -6.5 2.109375 -6.5 2.296875 -6.5 C 2.3125 -6.5 2.5 -6.5 2.671875 -6.484375 C 2.84375 -6.453125 2.9375 -6.453125 2.9375 -6.3125 C 2.9375 -6.28125 2.9375 -6.25 2.90625 -6.125 L 1.5625 -0.78125 C 1.46875 -0.390625 1.453125 -0.3125 0.65625 -0.3125 C 0.484375 -0.3125 0.390625 -0.3125 0.390625 -0.109375 C 0.390625 0 0.484375 0 0.65625 0 L 5.28125 0 C 5.515625 0 5.515625 0 5.578125 -0.171875 L 6.375 -2.328125 C 6.40625 -2.4375 6.40625 -2.453125 6.40625 -2.46875 C 6.40625 -2.5 6.375 -2.578125 6.296875 -2.578125 C 6.203125 -2.578125 6.1875 -2.515625 6.125 -2.359375 C 5.78125 -1.453125 5.34375 -0.3125 3.625 -0.3125 L 2.6875 -0.3125 C 2.546875 -0.3125 2.515625 -0.3125 2.46875 -0.3125 C 2.359375 -0.328125 2.328125 -0.34375 2.328125 -0.421875 C 2.328125 -0.453125 2.328125 -0.46875 2.375 -0.640625 Z M 3.734375 -6.03125 "/>
</g>
<g id="glyph-1-0">
<path d="M 3.296875 2.390625 C 3.296875 2.359375 3.296875 2.34375 3.125 2.171875 C 1.890625 0.921875 1.5625 -0.96875 1.5625 -2.5 C 1.5625 -4.234375 1.9375 -5.96875 3.171875 -7.203125 C 3.296875 -7.328125 3.296875 -7.34375 3.296875 -7.375 C 3.296875 -7.453125 3.265625 -7.484375 3.203125 -7.484375 C 3.09375 -7.484375 2.203125 -6.796875 1.609375 -5.53125 C 1.109375 -4.4375 0.984375 -3.328125 0.984375 -2.5 C 0.984375 -1.71875 1.09375 -0.515625 1.640625 0.625 C 2.25 1.84375 3.09375 2.5 3.203125 2.5 C 3.265625 2.5 3.296875 2.46875 3.296875 2.390625 Z M 3.296875 2.390625 "/>
</g>
<g id="glyph-1-1">
<path d="M 6.84375 -3.265625 C 7 -3.265625 7.1875 -3.265625 7.1875 -3.453125 C 7.1875 -3.65625 7 -3.65625 6.859375 -3.65625 L 0.890625 -3.65625 C 0.75 -3.65625 0.5625 -3.65625 0.5625 -3.453125 C 0.5625 -3.265625 0.75 -3.265625 0.890625 -3.265625 Z M 6.859375 -1.328125 C 7 -1.328125 7.1875 -1.328125 7.1875 -1.53125 C 7.1875 -1.71875 7 -1.71875 6.84375 -1.71875 L 0.890625 -1.71875 C 0.75 -1.71875 0.5625 -1.71875 0.5625 -1.53125 C 0.5625 -1.328125 0.75 -1.328125 0.890625 -1.328125 Z M 6.859375 -1.328125 "/>
</g>
<g id="glyph-1-2">
<path d="M 4.578125 -3.1875 C 4.578125 -3.984375 4.53125 -4.78125 4.1875 -5.515625 C 3.734375 -6.484375 2.90625 -6.640625 2.5 -6.640625 C 1.890625 -6.640625 1.171875 -6.375 0.75 -5.453125 C 0.4375 -4.765625 0.390625 -3.984375 0.390625 -3.1875 C 0.390625 -2.4375 0.421875 -1.546875 0.84375 -0.78125 C 1.265625 0.015625 2 0.21875 2.484375 0.21875 C 3.015625 0.21875 3.78125 0.015625 4.21875 -0.9375 C 4.53125 -1.625 4.578125 -2.40625 4.578125 -3.1875 Z M 2.484375 0 C 2.09375 0 1.5 -0.25 1.328125 -1.203125 C 1.21875 -1.796875 1.21875 -2.71875 1.21875 -3.3125 C 1.21875 -3.953125 1.21875 -4.609375 1.296875 -5.140625 C 1.484375 -6.328125 2.234375 -6.421875 2.484375 -6.421875 C 2.8125 -6.421875 3.46875 -6.234375 3.65625 -5.25 C 3.765625 -4.6875 3.765625 -3.9375 3.765625 -3.3125 C 3.765625 -2.5625 3.765625 -1.890625 3.65625 -1.25 C 3.5 -0.296875 2.9375 0 2.484375 0 Z M 2.484375 0 "/>
</g>
<g id="glyph-1-3">
<path d="M 2.875 -2.5 C 2.875 -3.265625 2.765625 -4.46875 2.21875 -5.609375 C 1.625 -6.828125 0.765625 -7.484375 0.671875 -7.484375 C 0.609375 -7.484375 0.5625 -7.4375 0.5625 -7.375 C 0.5625 -7.34375 0.5625 -7.328125 0.75 -7.140625 C 1.734375 -6.15625 2.296875 -4.578125 2.296875 -2.5 C 2.296875 -0.78125 1.9375 0.96875 0.703125 2.21875 C 0.5625 2.34375 0.5625 2.359375 0.5625 2.390625 C 0.5625 2.453125 0.609375 2.5 0.671875 2.5 C 0.765625 2.5 1.671875 1.8125 2.25 0.546875 C 2.765625 -0.546875 2.875 -1.65625 2.875 -2.5 Z M 2.875 -2.5 "/>
</g>
<g id="glyph-1-4">
<path d="M 2.9375 -6.375 C 2.9375 -6.625 2.9375 -6.640625 2.703125 -6.640625 C 2.078125 -6 1.203125 -6 0.890625 -6 L 0.890625 -5.6875 C 1.09375 -5.6875 1.671875 -5.6875 2.1875 -5.953125 L 2.1875 -0.78125 C 2.1875 -0.421875 2.15625 -0.3125 1.265625 -0.3125 L 0.953125 -0.3125 L 0.953125 0 C 1.296875 -0.03125 2.15625 -0.03125 2.5625 -0.03125 C 2.953125 -0.03125 3.828125 -0.03125 4.171875 0 L 4.171875 -0.3125 L 3.859375 -0.3125 C 2.953125 -0.3125 2.9375 -0.421875 2.9375 -0.78125 Z M 2.9375 -6.375 "/>
</g>
<g id="glyph-1-5">
<path d="M 1.265625 -0.765625 L 2.328125 -1.796875 C 3.875 -3.171875 4.46875 -3.703125 4.46875 -4.703125 C 4.46875 -5.84375 3.578125 -6.640625 2.359375 -6.640625 C 1.234375 -6.640625 0.5 -5.71875 0.5 -4.828125 C 0.5 -4.28125 1 -4.28125 1.03125 -4.28125 C 1.203125 -4.28125 1.546875 -4.390625 1.546875 -4.8125 C 1.546875 -5.0625 1.359375 -5.328125 1.015625 -5.328125 C 0.9375 -5.328125 0.921875 -5.328125 0.890625 -5.3125 C 1.109375 -5.96875 1.65625 -6.328125 2.234375 -6.328125 C 3.140625 -6.328125 3.5625 -5.515625 3.5625 -4.703125 C 3.5625 -3.90625 3.078125 -3.125 2.515625 -2.5 L 0.609375 -0.375 C 0.5 -0.265625 0.5 -0.234375 0.5 0 L 4.203125 0 L 4.46875 -1.734375 L 4.234375 -1.734375 C 4.171875 -1.4375 4.109375 -1 4 -0.84375 C 3.9375 -0.765625 3.28125 -0.765625 3.0625 -0.765625 Z M 1.265625 -0.765625 "/>
</g>
</g>
</defs>
<path fill-rule="nonzero" fill="rgb(0%, 0%, 0%)" fill-opacity="1" d="M 13.78125 64.304688 C 13.78125 62.652344 12.441406 61.316406 10.792969 61.316406 C 9.140625 61.316406 7.804688 62.652344 7.804688 64.304688 C 7.804688 65.953125 9.140625 67.292969 10.792969 67.292969 C 12.441406 67.292969 13.78125 65.953125 13.78125 64.304688 Z M 13.78125 64.304688 "/>
<path fill-rule="nonzero" fill="rgb(0%, 0%, 0%)" fill-opacity="1" d="M 183.863281 64.304688 C 183.863281 62.652344 182.523438 61.316406 180.871094 61.316406 C 179.222656 61.316406 177.882812 62.652344 177.882812 64.304688 C 177.882812 65.953125 179.222656 67.292969 180.871094 67.292969 C 182.523438 67.292969 183.863281 65.953125 183.863281 64.304688 Z M 183.863281 64.304688 "/>
<path fill="none" stroke-width="0.79701" stroke-linecap="butt" stroke-linejoin="miter" stroke="rgb(50%, 50%, 50%)" stroke-opacity="1" stroke-dasharray="2.98883 2.98883" stroke-miterlimit="10" d="M 0.00096875 -0.0006875 L 170.079094 -0.0006875 " transform="matrix(1, 0, 0, -1, 10.792, 64.304)"/>
<path fill="none" stroke-width="1.19553" stroke-linecap="butt" stroke-linejoin="miter" stroke="rgb(0%, 0%, 0%)" stroke-opacity="1" stroke-miterlimit="10" d="M 0.00096875 -0.0006875 C 0.00096875 -0.0006875 0.618156 1.452438 0.852531 2.011031 C 1.090813 2.569625 1.469719 3.46025 1.708 4.018844 C 1.946281 4.573531 2.325188 5.464156 2.563469 6.018844 C 2.80175 6.569625 3.180656 7.452438 3.418938 8.003219 C 3.653313 8.550094 4.036125 9.425094 4.2705 9.968063 C 4.508781 10.511031 4.887688 11.378219 5.125969 11.913375 C 5.36425 12.448531 5.743156 13.304 5.981438 13.831344 C 6.215813 14.362594 6.598625 15.202438 6.833 15.718063 C 7.071281 16.237594 7.450188 17.061813 7.688469 17.569625 C 7.92675 18.077438 8.305656 18.886031 8.543938 19.382125 C 8.778313 19.882125 9.161125 20.667281 9.3955 21.151656 C 9.633781 21.636031 10.012688 22.401656 10.250969 22.874313 C 10.48925 23.343063 10.868156 24.089156 11.106438 24.546188 C 11.340813 24.999313 11.723625 25.721969 11.958 26.159469 C 12.196281 26.600875 12.575188 27.292281 12.813469 27.718063 C 13.05175 28.139938 13.430656 28.804 13.668938 29.21025 C 13.903313 29.6165 14.286125 30.253219 14.5205 30.639938 C 14.758781 31.026656 15.141594 31.636031 15.375969 32.003219 C 15.61425 32.370406 15.993156 32.940719 16.231437 33.288375 C 16.469719 33.636031 16.848625 34.179 17.086906 34.503219 C 17.321281 34.831344 17.704094 35.339156 17.938469 35.643844 C 18.17675 35.944625 18.555656 36.417281 18.793937 36.698531 C 19.032219 36.979781 19.411125 37.413375 19.649406 37.671188 C 19.883781 37.932906 20.266594 38.331344 20.500969 38.565719 C 20.73925 38.800094 21.118156 39.159469 21.356437 39.3665 C 21.594719 39.577438 21.973625 39.89775 22.211906 40.08525 C 22.446281 40.268844 22.829094 40.550094 23.063469 40.71025 C 23.30175 40.870406 23.680656 41.108688 23.918937 41.245406 C 24.157219 41.382125 24.536125 41.577438 24.774406 41.686813 C 25.008781 41.796188 25.391594 41.952438 25.625969 42.034469 C 25.86425 42.120406 26.243156 42.233688 26.481437 42.292281 C 26.719719 42.350875 27.098625 42.421188 27.336906 42.452438 C 27.575187 42.483688 27.954094 42.511031 28.192375 42.514938 C 28.42675 42.52275 28.809562 42.507125 29.043937 42.487594 C 29.282219 42.464156 29.661125 42.409469 29.899406 42.362594 C 30.137687 42.311813 30.516594 42.214156 30.754875 42.139938 C 30.98925 42.065719 31.372062 41.925094 31.606437 41.827438 C 31.844719 41.725875 32.223625 41.546188 32.461906 41.417281 C 32.700187 41.292281 33.079094 41.069625 33.317375 40.917281 C 33.55175 40.764938 33.934562 40.499313 34.168937 40.323531 C 34.407219 40.14775 34.786125 39.843063 35.024406 39.639938 C 35.262687 39.440719 35.641594 39.096969 35.879875 38.870406 C 36.11425 38.643844 36.497062 38.261031 36.731437 38.007125 C 36.969719 37.757125 37.348625 37.339156 37.586906 37.065719 C 37.825187 36.792281 38.204094 36.33525 38.442375 36.038375 C 38.680656 35.7415 39.059562 35.249313 39.297844 34.929 C 39.532219 34.612594 39.915031 34.081344 40.149406 33.7415 C 40.387687 33.401656 40.766594 32.843063 41.004875 32.479781 C 41.243156 32.120406 41.622062 31.526656 41.860344 31.14775 C 42.094719 30.768844 42.477531 30.139938 42.711906 29.7415 C 42.950187 29.343063 43.329094 28.686813 43.567375 28.268844 C 43.805656 27.854781 44.184562 27.171188 44.422844 26.737594 C 44.657219 26.304 45.040031 25.593063 45.274406 25.139938 C 45.512687 24.690719 45.891594 23.956344 46.129875 23.4915 C 46.368156 23.026656 46.747062 22.268844 46.985344 21.788375 C 47.219719 21.307906 47.602531 20.530563 47.836906 20.038375 C 48.075187 19.542281 48.454094 18.7415 48.692375 18.237594 C 48.930656 17.733688 49.309562 16.917281 49.547844 16.401656 C 49.786125 15.886031 50.165031 15.050094 50.403312 14.526656 C 50.637687 14.003219 51.0205 13.151656 51.254875 12.620406 C 51.493156 12.08525 51.872062 11.221969 52.110344 10.682906 C 52.348625 10.143844 52.727531 9.27275 52.965812 8.725875 C 53.200187 8.179 53.583 7.296188 53.817375 6.745406 C 54.055656 6.194625 54.434562 5.304 54.672844 4.749313 C 54.911125 4.194625 55.290031 3.304 55.528312 2.745406 C 55.762687 2.190719 56.1455 1.296188 56.379875 0.737594 C 56.618156 0.179 56.997062 -0.719437 57.235344 -1.274125 C 57.473625 -1.832719 57.852531 -2.72725 58.090812 -3.285844 C 58.325187 -3.840531 58.708 -4.735062 58.942375 -5.285844 C 59.180656 -5.840531 59.559562 -6.72725 59.797844 -7.278031 C 60.036125 -7.828812 60.415031 -8.707719 60.653312 -9.250687 C 60.891594 -9.797562 61.2705 -10.66475 61.508781 -11.203812 C 61.743156 -11.742875 62.125969 -12.60225 62.360344 -13.1335 C 62.598625 -13.66475 62.977531 -14.5085 63.215812 -15.031937 C 63.454094 -15.555375 63.833 -16.3835 64.071281 -16.899125 C 64.305656 -17.410844 64.688469 -18.223344 64.922844 -18.72725 C 65.161125 -19.22725 65.540031 -20.020219 65.778312 -20.512406 C 66.016594 -21.000687 66.3955 -21.774125 66.633781 -22.250687 C 66.868156 -22.723344 67.250969 -23.47725 67.485344 -23.938187 C 67.723625 -24.403031 68.102531 -25.129594 68.340812 -25.574906 C 68.579094 -26.024125 68.958 -26.723344 69.196281 -27.153031 C 69.430656 -27.582719 69.813469 -28.2585 70.047844 -28.672562 C 70.286125 -29.082719 70.665031 -29.731156 70.903312 -30.125687 C 71.141594 -30.520219 71.5205 -31.137406 71.758781 -31.512406 C 71.993156 -31.887406 72.375969 -32.469437 72.61425 -32.824906 C 72.848625 -33.180375 73.231437 -33.735062 73.465812 -34.071 C 73.704094 -34.403031 74.083 -34.922562 74.321281 -35.235062 C 74.559562 -35.547562 74.938469 -36.031937 75.17675 -36.321 C 75.411125 -36.610062 75.793937 -37.059281 76.028312 -37.324906 C 76.266594 -37.594437 76.6455 -38.004594 76.883781 -38.246781 C 77.122062 -38.492875 77.500969 -38.863969 77.73925 -39.082719 C 77.973625 -39.305375 78.356437 -39.637406 78.590812 -39.832719 C 78.829094 -40.028031 79.208 -40.321 79.446281 -40.492875 C 79.684562 -40.660844 80.063469 -40.91475 80.30175 -41.059281 C 80.536125 -41.203812 80.918937 -41.418656 81.153312 -41.535844 C 81.391594 -41.656937 81.7705 -41.824906 82.008781 -41.918656 C 82.247062 -42.012406 82.625969 -42.141312 82.86425 -42.211625 C 83.098625 -42.278031 83.481437 -42.363969 83.715812 -42.403031 C 83.954094 -42.446 84.333 -42.488969 84.571281 -42.504594 C 84.809562 -42.516312 85.188469 -42.520219 85.42675 -42.5085 C 85.665031 -42.496781 86.043937 -42.457719 86.282219 -42.418656 C 86.516594 -42.379594 86.899406 -42.297562 87.133781 -42.231156 C 87.372062 -42.168656 87.750969 -42.043656 87.98925 -41.953812 C 88.227531 -41.860062 88.606437 -41.696 88.844719 -41.578812 C 89.079094 -41.461625 89.461906 -41.254594 89.696281 -41.110062 C 89.934562 -40.969437 90.313469 -40.719437 90.55175 -40.551469 C 90.790031 -40.3835 91.168937 -40.094437 91.407219 -39.899125 C 91.641594 -39.707719 92.024406 -39.379594 92.258781 -39.160844 C 92.497062 -38.942094 92.875969 -38.574906 93.11425 -38.332719 C 93.352531 -38.090531 93.731437 -37.684281 93.969719 -37.418656 C 94.204094 -37.153031 94.586906 -36.711625 94.821281 -36.422562 C 95.059562 -36.1335 95.438469 -35.653031 95.67675 -35.344437 C 95.915031 -35.035844 96.293937 -34.516312 96.532219 -34.184281 C 96.7705 -33.85225 97.149406 -33.305375 97.387687 -32.949906 C 97.622062 -32.598344 98.004875 -32.016312 98.23925 -31.641312 C 98.477531 -31.270219 98.856437 -30.656937 99.094719 -30.262406 C 99.333 -29.871781 99.711906 -29.22725 99.950187 -28.817094 C 100.184562 -28.406937 100.567375 -27.735062 100.80175 -27.305375 C 101.040031 -26.879594 101.418937 -26.176469 101.657219 -25.731156 C 101.8955 -25.285844 102.274406 -24.559281 102.512687 -24.10225 C 102.747062 -23.641312 103.129875 -22.891312 103.36425 -22.41475 C 103.602531 -21.942094 103.981437 -21.172562 104.219719 -20.684281 C 104.458 -20.196 104.836906 -19.403031 105.075187 -18.903031 C 105.309562 -18.403031 105.692375 -17.586625 105.92675 -17.078812 C 106.165031 -16.567094 106.543937 -15.738969 106.782219 -15.215531 C 107.0205 -14.696 107.399406 -13.85225 107.637687 -13.321 C 107.875969 -12.78975 108.254875 -11.930375 108.493156 -11.395219 C 108.727531 -10.856156 109.110344 -9.988969 109.344719 -9.442094 C 109.583 -8.899125 109.961906 -8.020219 110.200187 -7.469437 C 110.438469 -6.922562 110.817375 -6.035844 111.055656 -5.481156 C 111.290031 -4.930375 111.672844 -4.035844 111.907219 -3.481156 C 112.1455 -2.922562 112.524406 -2.028031 112.762687 -1.473344 C 113.000969 -0.91475 113.379875 -0.0163125 113.618156 0.538375 C 113.852531 1.096969 114.235344 1.995406 114.469719 2.550094 C 114.708 3.108688 115.086906 3.999313 115.325187 4.554 C 115.563469 5.112594 115.942375 5.999313 116.180656 6.550094 C 116.415031 7.104781 116.797844 7.983688 117.032219 8.530563 C 117.2705 9.077438 117.649406 9.952438 117.887687 10.4915 C 118.125969 11.034469 118.504875 11.89775 118.743156 12.432906 C 118.981437 12.964156 119.360344 13.815719 119.598625 14.343063 C 119.833 14.8665 120.215812 15.702438 120.450187 16.218063 C 120.688469 16.733688 121.067375 17.557906 121.305656 18.061813 C 121.543937 18.565719 121.922844 19.370406 122.161125 19.862594 C 122.3955 20.354781 122.778312 21.139938 123.012687 21.620406 C 123.250969 22.100875 123.629875 22.858688 123.868156 23.327438 C 124.106437 23.792281 124.485344 24.530563 124.723625 24.983688 C 124.958 25.436813 125.340812 26.14775 125.575187 26.58525 C 125.813469 27.018844 126.192375 27.706344 126.430656 28.124313 C 126.668937 28.542281 127.047844 29.202438 127.286125 29.600875 C 127.5205 30.003219 127.903312 30.632125 128.137687 31.011031 C 128.375969 31.393844 128.754875 31.9915 128.993156 32.354781 C 129.231437 32.714156 129.610344 33.280563 129.848625 33.624313 C 130.083 33.964156 130.465812 34.499313 130.704094 34.819625 C 130.938469 35.139938 131.321281 35.636031 131.555656 35.932906 C 131.793937 36.229781 132.172844 36.690719 132.411125 36.968063 C 132.649406 37.245406 133.028312 37.667281 133.266594 37.921188 C 133.500969 38.175094 133.883781 38.561813 134.118156 38.788375 C 134.356437 39.018844 134.735344 39.362594 134.973625 39.569625 C 135.211906 39.77275 135.590812 40.081344 135.829094 40.261031 C 136.063469 40.440719 136.446281 40.71025 136.680656 40.862594 C 136.918937 41.018844 137.297844 41.245406 137.536125 41.370406 C 137.774406 41.499313 138.153312 41.686813 138.391594 41.788375 C 138.625969 41.893844 139.008781 42.038375 139.243156 42.112594 C 139.481437 42.190719 139.860344 42.292281 140.098625 42.343063 C 140.336906 42.393844 140.715812 42.452438 140.954094 42.475875 C 141.188469 42.503219 141.571281 42.518844 141.805656 42.518844 C 142.043937 42.514938 142.422844 42.4915 142.661125 42.464156 C 142.899406 42.432906 143.278312 42.3665 143.516594 42.311813 C 143.754875 42.257125 144.133781 42.14775 144.372062 42.065719 C 144.606437 41.983688 144.98925 41.83525 145.223625 41.725875 C 145.461906 41.620406 145.840812 41.425094 146.079094 41.292281 C 146.317375 41.159469 146.696281 40.925094 146.934562 40.764938 C 147.168937 40.604781 147.55175 40.331344 147.786125 40.14775 C 148.024406 39.964156 148.403312 39.651656 148.641594 39.444625 C 148.879875 39.233688 149.258781 38.878219 149.497062 38.643844 C 149.731437 38.413375 150.11425 38.018844 150.348625 37.764938 C 150.586906 37.507125 150.965812 37.077438 151.204094 36.796188 C 151.442375 36.518844 151.821281 36.050094 152.059562 35.745406 C 152.293937 35.444625 152.67675 34.940719 152.911125 34.6165 C 153.149406 34.292281 153.528312 33.757125 153.766594 33.409469 C 154.004875 33.065719 154.383781 32.495406 154.622062 32.132125 C 154.860344 31.764938 155.23925 31.159469 155.477531 30.776656 C 155.711906 30.389938 156.094719 29.757125 156.329094 29.354781 C 156.567375 28.948531 156.946281 28.288375 157.184562 27.8665 C 157.422844 27.444625 157.80175 26.753219 158.040031 26.315719 C 158.274406 25.874313 158.657219 25.159469 158.891594 24.702438 C 159.129875 24.249313 159.508781 23.507125 159.747062 23.038375 C 159.985344 22.569625 160.36425 21.804 160.602531 21.323531 C 160.836906 20.839156 161.219719 20.054 161.454094 19.557906 C 161.692375 19.061813 162.071281 18.257125 162.309562 17.749313 C 162.547844 17.2415 162.92675 16.417281 163.165031 15.901656 C 163.399406 15.382125 163.782219 14.546188 164.016594 14.018844 C 164.254875 13.4915 164.633781 12.636031 164.872062 12.100875 C 165.110344 11.565719 165.48925 10.702438 165.727531 10.159469 C 165.965812 9.6165 166.344719 8.7415 166.583 8.194625 C 166.817375 7.64775 167.200187 6.761031 167.434562 6.21025 C 167.672844 5.659469 168.05175 4.768844 168.290031 4.214156 C 168.528312 3.659469 168.907219 2.764938 169.1455 2.206344 C 169.379875 1.651656 169.997062 0.194625 169.997062 0.194625 " transform="matrix(1, 0, 0, -1, 10.792, 64.304)"/>
<g fill="rgb(0%, 0%, 0%)" fill-opacity="1">
<use xlink:href="#glyph-0-0" x="42.659" y="15.774"/>
</g>
<g fill="rgb(0%, 0%, 0%)" fill-opacity="1">
<use xlink:href="#glyph-1-0" x="48.609" y="15.774"/>
</g>
<g fill="rgb(0%, 0%, 0%)" fill-opacity="1">
<use xlink:href="#glyph-0-1" x="52.483" y="15.774"/>
<use xlink:href="#glyph-0-2" x="58.176649" y="15.774"/>
</g>
<g fill="rgb(0%, 0%, 0%)" fill-opacity="1">
<use xlink:href="#glyph-0-3" x="64.261829" y="15.774"/>
</g>
<g fill="rgb(0%, 0%, 0%)" fill-opacity="1">
<use xlink:href="#glyph-1-1" x="67.863" y="15.774"/>
<use xlink:href="#glyph-1-2" x="75.611941" y="15.774"/>
<use xlink:href="#glyph-1-3" x="80.593261" y="15.774"/>
</g>
<path fill="none" stroke-width="1.19553" stroke-linecap="butt" stroke-linejoin="miter" stroke="rgb(0%, 0%, 100%)" stroke-opacity="1" stroke-miterlimit="10" d="M 0.00096875 -0.0006875 L 170.079094 -0.0006875 " transform="matrix(1, 0, 0, -1, 10.792, 64.304)"/>
<g fill="rgb(0%, 0%, 100%)" fill-opacity="1">
<use xlink:href="#glyph-0-0" x="187.226" y="62.543"/>
</g>
<g fill="rgb(0%, 0%, 100%)" fill-opacity="1">
<use xlink:href="#glyph-1-0" x="193.176" y="62.543"/>
</g>
<g fill="rgb(0%, 0%, 100%)" fill-opacity="1">
<use xlink:href="#glyph-0-1" x="197.05" y="62.543"/>
<use xlink:href="#glyph-0-2" x="202.743649" y="62.543"/>
</g>
<g fill="rgb(0%, 0%, 100%)" fill-opacity="1">
<use xlink:href="#glyph-0-3" x="208.828829" y="62.543"/>
</g>
<g fill="rgb(0%, 0%, 100%)" fill-opacity="1">
<use xlink:href="#glyph-1-1" x="212.43" y="62.543"/>
<use xlink:href="#glyph-1-4" x="220.178941" y="62.543"/>
<use xlink:href="#glyph-1-3" x="225.160261" y="62.543"/>
</g>
<path fill="none" stroke-width="1.19553" stroke-linecap="butt" stroke-linejoin="miter" stroke="rgb(100%, 0%, 0%)" stroke-opacity="1" stroke-miterlimit="10" d="M 0.00096875 -0.0006875 C 0.00096875 -0.0006875 0.618156 -1.453812 0.852531 -2.012406 C 1.090813 -2.567094 1.469719 -3.461625 1.708 -4.016312 C 1.946281 -4.574906 2.325188 -5.465531 2.563469 -6.016312 C 2.80175 -6.571 3.180656 -7.453812 3.418938 -8.000687 C 3.653313 -8.551469 4.036125 -9.426469 4.2705 -9.969437 C 4.508781 -10.512406 4.887688 -11.375687 5.125969 -11.91475 C 5.36425 -12.449906 5.743156 -13.305375 5.981438 -13.832719 C 6.215813 -14.360062 6.598625 -15.199906 6.833 -15.719437 C 7.071281 -16.238969 7.450188 -17.063187 7.688469 -17.571 C 7.92675 -18.078812 8.305656 -18.887406 8.543938 -19.3835 C 8.778313 -19.879594 9.161125 -20.668656 9.3955 -21.153031 C 9.633781 -21.637406 10.012688 -22.403031 10.250969 -22.871781 C 10.48925 -23.344437 10.868156 -24.086625 11.106438 -24.543656 C 11.340813 -25.000687 11.723625 -25.719437 11.958 -26.160844 C 12.196281 -26.60225 12.575188 -27.293656 12.813469 -27.715531 C 13.05175 -28.141312 13.430656 -28.805375 13.668938 -29.211625 C 13.903313 -29.617875 14.286125 -30.254594 14.5205 -30.641312 C 14.758781 -31.028031 15.141594 -31.6335 15.375969 -32.000687 C 15.61425 -32.367875 15.993156 -32.942094 16.231437 -33.28975 C 16.469719 -33.637406 16.848625 -34.180375 17.086906 -34.504594 C 17.321281 -34.832719 17.704094 -35.336625 17.938469 -35.641312 C 18.17675 -35.946 18.555656 -36.41475 18.793937 -36.696 C 19.032219 -36.981156 19.411125 -37.41475 19.649406 -37.672562 C 19.883781 -37.930375 20.266594 -38.328812 20.500969 -38.563187 C 20.73925 -38.801469 21.118156 -39.156937 21.356437 -39.367875 C 21.594719 -39.578812 21.973625 -39.899125 22.211906 -40.082719 C 22.446281 -40.270219 22.829094 -40.547562 23.063469 -40.711625 C 23.30175 -40.871781 23.680656 -41.110062 23.918937 -41.246781 C 24.157219 -41.379594 24.536125 -41.578812 24.774406 -41.688187 C 25.008781 -41.797562 25.391594 -41.953812 25.625969 -42.035844 C 25.86425 -42.121781 26.243156 -42.235062 26.481437 -42.293656 C 26.719719 -42.348344 27.098625 -42.418656 27.336906 -42.449906 C 27.575187 -42.481156 27.954094 -42.512406 28.192375 -42.516312 C 28.42675 -42.520219 28.809562 -42.5085 29.043937 -42.485062 C 29.282219 -42.465531 29.661125 -42.410844 29.899406 -42.360062 C 30.137687 -42.313187 30.516594 -42.215531 30.754875 -42.141312 C 30.98925 -42.067094 31.372062 -41.926469 31.606437 -41.824906 C 31.844719 -41.72725 32.223625 -41.543656 32.461906 -41.418656 C 32.700187 -41.293656 33.079094 -41.067094 33.317375 -40.91475 C 33.55175 -40.766312 33.934562 -40.500687 34.168937 -40.324906 C 34.407219 -40.145219 34.786125 -39.844437 35.024406 -39.641312 C 35.262687 -39.438187 35.641594 -39.094437 35.879875 -38.867875 C 36.11425 -38.641312 36.497062 -38.2585 36.731437 -38.0085 C 36.969719 -37.7585 37.348625 -37.336625 37.586906 -37.063187 C 37.825187 -36.78975 38.204094 -36.336625 38.442375 -36.03975 C 38.680656 -35.742875 39.059562 -35.246781 39.297844 -34.930375 C 39.532219 -34.610062 39.915031 -34.082719 40.149406 -33.742875 C 40.387687 -33.403031 40.766594 -32.840531 41.004875 -32.481156 C 41.243156 -32.121781 41.622062 -31.528031 41.860344 -31.145219 C 42.094719 -30.766312 42.477531 -30.141312 42.711906 -29.742875 C 42.950187 -29.344437 43.329094 -28.688187 43.567375 -28.270219 C 43.805656 -27.85225 44.184562 -27.172562 44.422844 -26.738969 C 44.657219 -26.301469 45.040031 -25.590531 45.274406 -25.141312 C 45.512687 -24.692094 45.891594 -23.957719 46.129875 -23.492875 C 46.368156 -23.024125 46.747062 -22.266312 46.985344 -21.78975 C 47.219719 -21.309281 47.602531 -20.528031 47.836906 -20.035844 C 48.075187 -19.543656 48.454094 -18.742875 48.692375 -18.238969 C 48.930656 -17.735062 49.309562 -16.91475 49.547844 -16.399125 C 49.786125 -15.887406 50.165031 -15.051469 50.403312 -14.528031 C 50.637687 -14.000687 51.0205 -13.153031 51.254875 -12.617875 C 51.493156 -12.086625 51.872062 -11.223344 52.110344 -10.684281 C 52.348625 -10.141312 52.727531 -9.270219 52.965812 -8.723344 C 53.200187 -8.180375 53.583 -7.297562 53.817375 -6.746781 C 54.055656 -6.192094 54.434562 -5.305375 54.672844 -4.750687 C 54.911125 -4.196 55.290031 -3.305375 55.528312 -2.746781 C 55.762687 -2.188187 56.1455 -1.293656 56.379875 -0.735062 C 56.618156 -0.176469 56.997062 0.718063 57.235344 1.276656 C 57.473625 1.83525 57.852531 2.729781 58.090812 3.284469 C 58.325187 3.843063 58.708 4.733688 58.942375 5.288375 C 59.180656 5.843063 59.559562 6.729781 59.797844 7.276656 C 60.036125 7.827438 60.415031 8.706344 60.653312 9.253219 C 60.891594 9.796188 61.2705 10.667281 61.508781 11.206344 C 61.743156 11.745406 62.125969 12.604781 62.360344 13.136031 C 62.598625 13.667281 62.977531 14.511031 63.215812 15.030563 C 63.454094 15.554 63.833 16.386031 64.071281 16.89775 C 64.305656 17.409469 64.688469 18.225875 64.922844 18.725875 C 65.161125 19.225875 65.540031 20.02275 65.778312 20.511031 C 66.016594 20.999313 66.3955 21.77275 66.633781 22.249313 C 66.868156 22.725875 67.250969 23.479781 67.485344 23.940719 C 67.723625 24.401656 68.102531 25.132125 68.340812 25.577438 C 68.579094 26.02275 68.958 26.725875 69.196281 27.155563 C 69.430656 27.581344 69.813469 28.257125 70.047844 28.671188 C 70.286125 29.08525 70.665031 29.733688 70.903312 30.124313 C 71.141594 30.518844 71.5205 31.136031 71.758781 31.511031 C 71.993156 31.886031 72.375969 32.471969 72.61425 32.827438 C 72.848625 33.182906 73.231437 33.733688 73.465812 34.069625 C 73.704094 34.401656 74.083 34.921188 74.321281 35.233688 C 74.559562 35.546188 74.938469 36.030563 75.17675 36.319625 C 75.411125 36.612594 75.793937 37.057906 76.028312 37.327438 C 76.266594 37.593063 76.6455 38.003219 76.883781 38.249313 C 77.122062 38.4915 77.500969 38.862594 77.73925 39.08525 C 77.973625 39.304 78.356437 39.636031 78.590812 39.831344 C 78.829094 40.026656 79.208 40.319625 79.446281 40.4915 C 79.684562 40.663375 80.063469 40.917281 80.30175 41.061813 C 80.536125 41.206344 80.918937 41.417281 81.153312 41.538375 C 81.391594 41.655563 81.7705 41.827438 82.008781 41.921188 C 82.247062 42.014938 82.625969 42.143844 82.86425 42.21025 C 83.098625 42.276656 83.481437 42.362594 83.715812 42.405563 C 83.954094 42.444625 84.333 42.487594 84.571281 42.503219 C 84.809562 42.518844 85.188469 42.518844 85.42675 42.507125 C 85.665031 42.495406 86.043937 42.456344 86.282219 42.417281 C 86.516594 42.382125 86.899406 42.296188 87.133781 42.233688 C 87.372062 42.167281 87.750969 42.042281 87.98925 41.952438 C 88.227531 41.862594 88.606437 41.694625 88.844719 41.577438 C 89.079094 41.46025 89.461906 41.253219 89.696281 41.112594 C 89.934562 40.968063 90.313469 40.718063 90.55175 40.550094 C 90.790031 40.382125 91.168937 40.093063 91.407219 39.901656 C 91.641594 39.706344 92.024406 39.378219 92.258781 39.159469 C 92.497062 38.944625 92.875969 38.573531 93.11425 38.331344 C 93.352531 38.093063 93.731437 37.682906 93.969719 37.421188 C 94.204094 37.155563 94.586906 36.71025 94.821281 36.421188 C 95.059562 36.136031 95.438469 35.655563 95.67675 35.343063 C 95.915031 35.034469 96.293937 34.518844 96.532219 34.186813 C 96.7705 33.854781 97.149406 33.304 97.387687 32.952438 C 97.622062 32.596969 98.004875 32.014938 98.23925 31.643844 C 98.477531 31.268844 98.856437 30.655563 99.094719 30.264938 C 99.333 29.870406 99.711906 29.225875 99.950187 28.815719 C 100.184562 28.405563 100.567375 27.733688 100.80175 27.304 C 101.040031 26.878219 101.418937 26.175094 101.657219 25.729781 C 101.8955 25.288375 102.274406 24.561813 102.512687 24.100875 C 102.747062 23.639938 103.129875 22.889938 103.36425 22.417281 C 103.602531 21.940719 103.981437 21.171188 104.219719 20.682906 C 104.458 20.194625 104.836906 19.401656 105.075187 18.901656 C 105.309562 18.401656 105.692375 17.589156 105.92675 17.077438 C 106.165031 16.565719 106.543937 15.737594 106.782219 15.218063 C 107.0205 14.694625 107.399406 13.850875 107.637687 13.319625 C 107.875969 12.788375 108.254875 11.932906 108.493156 11.393844 C 108.727531 10.854781 109.110344 9.987594 109.344719 9.444625 C 109.583 8.89775 109.961906 8.018844 110.200187 7.471969 C 110.438469 6.921188 110.817375 6.034469 111.055656 5.483688 C 111.290031 4.929 111.672844 4.038375 111.907219 3.479781 C 112.1455 2.925094 112.524406 2.030563 112.762687 1.471969 C 113.000969 0.913375 113.379875 0.0188438 113.618156 -0.53975 C 113.852531 -1.098344 114.235344 -1.992875 114.469719 -2.551469 C 114.708 -3.110062 115.086906 -4.000687 115.325187 -4.555375 C 115.563469 -5.110062 115.942375 -6.000687 116.180656 -6.551469 C 116.415031 -7.10225 116.797844 -7.985062 117.032219 -8.531937 C 117.2705 -9.078812 117.649406 -9.953812 117.887687 -10.492875 C 118.125969 -11.035844 118.504875 -11.899125 118.743156 -12.430375 C 118.981437 -12.965531 119.360344 -13.817094 119.598625 -14.344437 C 119.833 -14.867875 120.215812 -15.703812 120.450187 -16.219437 C 120.688469 -16.735062 121.067375 -17.555375 121.305656 -18.063187 C 121.543937 -18.567094 121.922844 -19.367875 122.161125 -19.863969 C 122.3955 -20.356156 122.778312 -21.137406 123.012687 -21.617875 C 123.250969 -22.098344 123.629875 -22.860062 123.868156 -23.328812 C 124.106437 -23.793656 124.485344 -24.531937 124.723625 -24.985062 C 124.958 -25.434281 125.340812 -26.149125 125.575187 -26.582719 C 125.813469 -27.020219 126.192375 -27.703812 126.430656 -28.121781 C 126.668937 -28.543656 127.047844 -29.199906 127.286125 -29.60225 C 127.5205 -30.004594 127.903312 -30.629594 128.137687 -31.012406 C 128.375969 -31.395219 128.754875 -31.992875 128.993156 -32.35225 C 129.231437 -32.715531 129.610344 -33.281937 129.848625 -33.625687 C 130.083 -33.965531 130.465812 -34.496781 130.704094 -34.817094 C 130.938469 -35.137406 131.321281 -35.6335 131.555656 -35.934281 C 131.793937 -36.231156 132.172844 -36.692094 132.411125 -36.969437 C 132.649406 -37.242875 133.028312 -37.668656 133.266594 -37.918656 C 133.500969 -38.172562 133.883781 -38.559281 134.118156 -38.78975 C 134.356437 -39.016312 134.735344 -39.363969 134.973625 -39.567094 C 135.211906 -39.774125 135.590812 -40.082719 135.829094 -40.262406 C 136.063469 -40.442094 136.446281 -40.707719 136.680656 -40.863969 C 136.918937 -41.016312 137.297844 -41.242875 137.536125 -41.371781 C 137.774406 -41.500687 138.153312 -41.688187 138.391594 -41.78975 C 138.625969 -41.891312 139.008781 -42.035844 139.243156 -42.113969 C 139.481437 -42.192094 139.860344 -42.293656 140.098625 -42.344437 C 140.336906 -42.395219 140.715812 -42.453812 140.954094 -42.47725 C 141.188469 -42.500687 141.571281 -42.520219 141.805656 -42.516312 C 142.043937 -42.516312 142.422844 -42.492875 142.661125 -42.461625 C 142.899406 -42.434281 143.278312 -42.367875 143.516594 -42.313187 C 143.754875 -42.254594 144.133781 -42.145219 144.372062 -42.067094 C 144.606437 -41.985062 144.98925 -41.832719 145.223625 -41.72725 C 145.461906 -41.617875 145.840812 -41.426469 146.079094 -41.293656 C 146.317375 -41.160844 146.696281 -40.922562 146.934562 -40.766312 C 147.168937 -40.606156 147.55175 -40.332719 147.786125 -40.149125 C 148.024406 -39.965531 148.403312 -39.653031 148.641594 -39.442094 C 148.879875 -39.235062 149.258781 -38.879594 149.497062 -38.645219 C 149.731437 -38.410844 150.11425 -38.020219 150.348625 -37.762406 C 150.586906 -37.5085 150.965812 -37.078812 151.204094 -36.797562 C 151.442375 -36.516312 151.821281 -36.047562 152.059562 -35.746781 C 152.293937 -35.446 152.67675 -34.942094 152.911125 -34.617875 C 153.149406 -34.293656 153.528312 -33.754594 153.766594 -33.410844 C 154.004875 -33.067094 154.383781 -32.496781 154.622062 -32.129594 C 154.860344 -31.766312 155.23925 -31.160844 155.477531 -30.774125 C 155.711906 -30.391312 156.094719 -29.7585 156.329094 -29.35225 C 156.567375 -28.949906 156.946281 -28.285844 157.184562 -27.863969 C 157.422844 -27.442094 157.80175 -26.754594 158.040031 -26.313187 C 158.274406 -25.875687 158.657219 -25.156937 158.891594 -24.703812 C 159.129875 -24.250687 159.508781 -23.5085 159.747062 -23.03975 C 159.985344 -22.571 160.36425 -21.805375 160.602531 -21.321 C 160.836906 -20.840531 161.219719 -20.055375 161.454094 -19.559281 C 161.692375 -19.063187 162.071281 -18.254594 162.309562 -17.750687 C 162.547844 -17.242875 162.92675 -16.418656 163.165031 -15.899125 C 163.399406 -15.3835 163.782219 -14.543656 164.016594 -14.016312 C 164.254875 -13.488969 164.633781 -12.637406 164.872062 -12.10225 C 165.110344 -11.567094 165.48925 -10.699906 165.727531 -10.160844 C 165.965812 -9.617875 166.344719 -8.742875 166.583 -8.196 C 166.817375 -7.645219 167.200187 -6.762406 167.434562 -6.211625 C 167.672844 -5.656937 168.05175 -4.770219 168.290031 -4.211625 C 168.528312 -3.656937 168.907219 -2.766312 169.1455 -2.207719 C 169.379875 -1.649125 169.997062 -0.196 169.997062 -0.196 " transform="matrix(1, 0, 0, -1, 10.792, 64.304)"/>
<g fill="rgb(100%, 0%, 0%)" fill-opacity="1">
<use xlink:href="#glyph-0-0" x="42.659" y="117.815"/>
</g>
<g fill="rgb(100%, 0%, 0%)" fill-opacity="1">
<use xlink:href="#glyph-1-0" x="48.609" y="117.815"/>
</g>
<g fill="rgb(100%, 0%, 0%)" fill-opacity="1">
<use xlink:href="#glyph-0-1" x="52.483" y="117.815"/>
<use xlink:href="#glyph-0-2" x="58.176649" y="117.815"/>
</g>
<g fill="rgb(100%, 0%, 0%)" fill-opacity="1">
<use xlink:href="#glyph-0-3" x="64.261829" y="117.815"/>
</g>
<g fill="rgb(100%, 0%, 0%)" fill-opacity="1">
<use xlink:href="#glyph-1-1" x="67.863" y="117.815"/>
<use xlink:href="#glyph-1-5" x="75.611941" y="117.815"/>
<use xlink:href="#glyph-1-3" x="80.593261" y="117.815"/>
</g>
<g fill="rgb(0%, 0%, 0%)" fill-opacity="1">
<use xlink:href="#glyph-1-2" x="8.302" y="78.496"/>
</g>
<g fill="rgb(0%, 0%, 0%)" fill-opacity="1">
<use xlink:href="#glyph-0-4" x="177.481" y="78.883"/>
</g>
</svg>
