<?xml version="1.0" encoding="UTF-8"?>
<svg id="Layer_1" xmlns="http://www.w3.org/2000/svg" xmlns:xlink="http://www.w3.org/1999/xlink" version="1.1" viewBox="0 0 289.13 181.97">
  <!-- Generator: Adobe Illustrator 29.5.1, SVG Export Plug-In . SVG Version: 2.1.0 Build 141)  -->
  <defs>
    <style>
      .st0, .st1, .st2, .st3, .st4, .st5, .st6, .st7, .st8, .st9 {
        fill: none;
      }

      .st1, .st2, .st3, .st4, .st5, .st6, .st7, .st8, .st9 {
        stroke-miterlimit: 10;
      }

      .st1, .st2, .st4, .st5, .st7, .st9 {
        stroke: #000;
      }

      .st1, .st3, .st4, .st6, .st9 {
        stroke-linecap: round;
      }

      .st1, .st9 {
        stroke-width: .75px;
      }

      .st2 {
        opacity: 0;
      }

      .st3, .st8 {
        stroke: blue;
      }

      .st5 {
        stroke-opacity: 0;
      }

      .st10 {
        clip-path: url(#clippath-1);
      }

      .st11 {
        clip-path: url(#clippath-3);
      }

      .st12 {
        clip-path: url(#clippath-4);
      }

      .st13 {
        clip-path: url(#clippath-2);
      }

      .st14 {
        clip-path: url(#clippath-5);
      }

      .st6 {
        stroke: #231f20;
      }

      .st15 {
        fill: #0001ff;
      }

      .st8 {
        stroke-width: 1.64px;
      }

      .st9 {
        stroke-dasharray: 1.98 1.98;
      }

      .st16 {
        clip-path: url(#clippath);
      }

      .st17 {
        fill: blue;
        isolation: isolate;
        opacity: .2;
      }
    </style>
    <clipPath id="clippath">
      <rect class="st0" x="78.57" y="139.24" width="10.31" height="11.11"/>
    </clipPath>
    <clipPath id="clippath-1">
      <rect class="st0" x="272.5" y="167.54" width="7.93" height="7.54"/>
    </clipPath>
    <clipPath id="clippath-2">
      <rect class="st0" x="63.91" y="90.65" width="7.54" height="10.31"/>
    </clipPath>
    <clipPath id="clippath-3">
      <rect class="st0" x="7.64" y="24.1" width="6.35" height="8.33"/>
    </clipPath>
    <clipPath id="clippath-4">
      <rect class="st0" x="109.98" y="16.77" width="43.23" height="14.68"/>
    </clipPath>
    <clipPath id="clippath-5">
      <rect class="st0" x="120.01" y="145.37" width="14.28" height="11.5"/>
    </clipPath>
  </defs>
  <g>
    <line class="st7" x1="10.81" y1="171.31" x2="10.81" y2="40.92"/>
    <polygon points="10.81 36.83 13.17 42.6 10.81 41.23 8.45 42.6 10.81 36.83"/>
  </g>
  <g>
    <line class="st7" x1="10.81" y1="171.31" x2="263.61" y2="171.31"/>
    <polygon points="267.7 171.31 261.93 173.67 263.3 171.31 261.93 168.95 267.7 171.31"/>
  </g>
  <g>
    <line class="st7" x1="10.81" y1="171.31" x2="63.38" y2="107.23"/>
    <polygon points="65.98 104.07 64.14 110.02 63.19 107.47 60.5 107.03 65.98 104.07"/>
  </g>
  <path class="st4" d="M272.5,41.61C196.64,56.27,172.5-4.08,103.54,12.3l-51.11,59.12c46.31,33.21,100.28,12.69,159.94,39.75l60.14-69.56h-.01Z"/>
  <path class="st3" d="M244.91,73.53c-93.43,2.7-96.32-35.19-166.34-32.35"/>
  <path class="st6" d="M244.91,73.53"/>
  <path class="st4" d="M244.91,144.79"/>
  <path class="st6" d="M78.57,137.09"/>
  <path class="st6" d="M78.57,41.18"/>
  <path class="st1" d="M244.91,144.79v-71.26"/>
  <g>
    <line class="st1" x1="78.57" y1="41.18" x2="78.57" y2="42.18"/>
    <line class="st9" x1="78.57" y1="44.17" x2="78.57" y2="82.87"/>
    <line class="st1" x1="78.57" y1="83.86" x2="78.57" y2="84.86"/>
  </g>
  <path class="st1" d="M78.57,84.86v51.65"/>
  <path class="st3" d="M78.57,137.09c69.3-5.77,83.17,25.34,166.34,7.7"/>
  <path class="st17" d="M78.57,137.24c69.3-5.77,83.17,25.34,166.34,7.7v-71.26c-93.43,2.7-96.32-35.19-166.34-32.35v95.33"/>
  <path class="st6" d="M-189.56,187.38"/>
  <polygon class="st5" points="-55.23 134.95 -55.23 134.95 -55.23 134.95 -55.23 134.95 -55.23 134.95 -55.23 134.95 -55.23 134.95 -55.23 134.95 -55.23 134.95 -55.23 134.95 -55.23 134.95 -55.23 134.95 -55.23 134.95 -55.23 134.95 -55.23 134.95 -55.23 134.95 -55.23 134.95 -55.23 134.95 -55.23 134.95 -55.23 134.95 -55.23 134.95 -55.23 134.95 -55.23 134.95 -55.23 134.95 -55.23 134.95 -55.23 134.95 -55.23 134.95 -55.23 134.95 -55.23 134.95 -55.23 134.95 -55.23 134.95 -55.23 134.95 -55.23 134.95 -55.23 134.95 -55.23 134.95 -55.23 134.95 -55.23 134.95 -55.23 134.95 -55.23 134.95 -55.23 134.95 -55.23 134.95 -55.23 134.95 -55.23 134.95 -55.23 134.95 -55.23 134.95 -55.23 134.95 -55.23 134.95 -55.23 134.95 -55.23 134.95 -55.23 134.95 -55.23 134.95 -55.23 134.95 -55.23 134.95 -55.23 134.95 -55.23 134.95 -55.23 134.95 -55.23 134.95 -55.23 134.95 -55.23 134.95 -55.23 134.95 -55.23 134.95 -55.23 134.95 -55.23 134.95 -55.23 134.95 -55.23 134.95 -55.23 134.95 -55.23 134.95 -55.23 134.95 -55.23 134.95 -55.23 134.95 -55.23 134.95 -55.23 134.95 -55.23 134.95 -55.23 134.95 -55.23 134.95 -55.23 134.95 -55.23 134.95 -55.23 134.95 -55.23 134.95 -55.23 134.95 -55.23 134.95 -55.23 134.95 -55.23 134.95 -55.23 134.95 -55.23 134.95 -55.23 134.95 -55.23 134.95 -55.23 134.95 -55.23 134.95 -55.23 134.95 -55.23 134.95 -55.23 134.95 -55.23 134.95 -55.23 134.95 -55.23 134.95 -55.23 134.95 -55.23 134.95 -55.23 134.95 -55.23 134.95 -55.23 134.95 -55.23 134.95 -55.23 134.95 -55.23 134.95 -55.23 134.95 -55.23 134.95 -55.23 134.95 -55.23 134.95 -55.23 134.95 -55.23 134.95 -55.23 134.95 -55.23 134.95 -55.23 134.95 -55.23 134.95 -55.23 134.95 -55.23 134.95 -55.23 134.95 -55.23 134.95 -55.23 134.95 -55.23 134.95 -55.23 134.95 -55.23 134.95 -55.23 134.95 -55.23 134.95 -55.23 134.95 -55.23 134.95 -55.23 134.95 -55.23 134.95 -55.23 134.95 -55.23 134.95 -55.23 134.95 -55.23 134.95 -55.23 134.95 -55.23 134.95 -55.23 134.95 -55.23 134.95 -55.23 134.95 -55.23 134.95 -55.23 134.95 -55.23 134.95 -55.23 134.95 -55.23 134.95 -55.23 134.95 -55.23 134.95 -55.23 134.95 -55.23 134.95 -55.23 134.95 -55.23 134.95 -55.23 134.95 -55.23 134.95 -55.23 134.95 -55.23 134.95 -55.23 134.95 -55.23 134.95 -55.23 134.95 -55.23 134.95 -55.23 134.95 -55.23 134.95 -55.23 134.95 -55.23 134.95 -55.23 134.95 -55.23 134.95 -55.23 134.95 -55.23 134.95 -55.23 134.95 -55.23 134.95 -55.23 134.95 -55.23 134.95 -55.23 134.95 -55.23 134.95 -55.23 134.95 -55.23 134.95 -55.23 134.95 -55.23 134.95 -55.23 134.95 -55.23 134.95 -55.23 134.95 -55.23 134.95 -55.23 134.95 -55.23 134.95 -55.23 134.95 -55.23 134.95 -55.23 134.95 -55.23 134.95 -55.23 134.95 -55.23 134.95 -55.23 134.95 -55.23 134.95 -55.23 134.95 -55.23 134.95 -55.23 134.95 -55.23 134.95 -55.23 134.95 -55.23 134.95 -55.23 134.95 -55.23 134.95 -55.23 134.95 -55.23 134.95 -55.23 134.95 -55.23 134.95 -55.23 134.95 -55.23 134.95 -55.23 134.95 -55.23 134.95 -55.23 134.95 -55.23 134.95 -55.23 134.95 -55.23 134.95 -55.23 134.95 -55.23 134.95 -55.23 134.95 -55.23 134.95 -55.23 134.95 -55.23 134.95 -55.23 134.95 -55.23 134.95 -55.23 134.95 -55.23 134.95 -55.23 134.95 -55.23 134.95 -55.23 134.95 -55.23 134.95 -55.23 134.95 -55.23 134.95 -55.23 134.95 -55.23 134.95 -55.23 134.95 -55.23 134.95 -55.23 134.95 -55.23 134.95 -55.23 134.95 -55.23 134.95 -55.23 134.95 -55.23 134.95 -55.23 134.95 -55.23 134.95 -55.23 134.95 -55.23 134.95 -55.23 134.95 -55.23 134.95 -55.23 134.95 -55.23 134.95 -55.23 134.95 -55.23 134.95 -55.23 134.95 -55.23 134.95 -55.23 134.95 -55.23 134.95 -55.23 134.95 -55.23 134.95 -55.23 134.95 -55.23 134.95 -55.23 134.95 -55.23 134.95 -55.23 134.95 -55.23 134.95 -55.23 134.95 -55.23 134.95 -55.23 134.95 -55.23 134.95 -55.23 134.95 -55.23 134.95 -55.23 134.95 -55.23 134.95 -55.23 134.95 -55.23 134.95 -55.23 134.95 -55.23 134.95 -55.23 134.95 -55.23 134.95 -55.23 134.95 -55.23 134.95 -55.23 134.95 -55.23 134.95 -55.23 134.95 -55.23 134.95 -55.23 134.95 -55.23 134.95 -55.23 134.95 -55.23 134.95 -55.23 134.95 -55.23 134.95 -55.23 134.95 -55.23 134.95 -55.23 134.95 -55.23 134.95 -55.23 134.95 -55.23 134.95 -55.23 134.95 -55.23 134.95 -55.23 134.95 -55.23 134.95 -55.23 134.95 -55.23 134.95 -55.23 134.95 -55.23 134.95 -55.23 134.95 -55.23 134.95 -55.23 134.95 -55.23 134.95 -55.23 134.95 -55.23 134.95 -55.23 134.95 -55.23 134.95 -55.23 134.95 -55.23 134.95 -55.23 134.95 -55.23 134.95 -55.23 134.95 -55.23 134.95 -55.23 134.95 -55.23 134.95 -55.23 134.95 -55.23 134.95 -55.23 134.95 -55.23 134.95 -55.23 134.95 -55.23 134.95 -55.23 134.95 -55.23 134.95 -55.23 134.95 -55.23 134.95 -55.23 134.95 -55.23 134.95 -55.23 134.95 -55.23 134.95 -55.23 134.95 -55.23 134.95 -55.23 134.95 -55.23 134.95 -55.23 134.95 -55.23 134.95 -55.23 134.95 -55.23 134.95 -55.23 134.95 -55.23 134.95 -55.23 134.95 -55.23 134.95 -55.23 134.95 -55.23 134.95 -55.23 134.95 -55.23 134.95 -55.23 134.95 -55.23 134.95 -55.23 134.95 -55.23 134.95 -55.23 134.95 -55.23 134.95 -55.23 134.95 -55.23 134.95 -55.23 134.95 -55.23 134.95 -55.23 134.95 -55.23 134.95 -55.23 134.95 -55.23 134.95 -55.23 134.95 -55.23 134.95 -55.23 134.95 -55.23 134.95 -55.23 134.95 -55.23 134.95 -55.23 134.95 -55.23 134.95 -55.23 134.95 -55.23 134.95 -55.23 134.95 -55.23 134.95 -55.23 134.95 -55.23 134.95 -55.23 134.95 -55.23 134.95 -55.23 134.95 -55.23 134.95 -55.23 134.95 -55.23 134.95 -55.23 134.95 -55.23 134.95 -55.23 134.95 -55.23 134.95 -55.23 134.95 -55.23 134.95 -55.23 134.95 -55.23 134.95 -55.23 134.95 -55.23 134.95 -55.23 134.95 -55.23 134.95 -55.23 134.95 -55.23 134.95 -55.23 134.95 -55.23 134.95 -55.23 134.95 -55.23 134.95 -55.23 134.95 -55.23 134.95 -55.23 134.95 -55.23 134.95 -55.23 134.95 -55.23 134.95 -55.23 134.95 -55.23 134.95 -55.23 134.95 -55.23 134.95 -55.23 134.95 -55.23 134.95 -55.23 134.95 -55.23 134.95 -55.23 134.95 -55.23 134.95 -55.23 134.95 -55.23 134.95 -55.23 134.95 -55.23 134.95 -55.23 134.95 -55.23 134.95 -55.23 134.95 -55.23 134.95 -55.23 134.95 -55.23 134.95 -55.23 134.95 -55.23 134.95 -55.23 134.95 -55.23 134.95 -55.23 134.95 -55.23 134.95 -55.23 134.95 -55.23 134.95 -55.23 134.95 -55.23 134.95 -55.23 134.95 -55.23 134.95 -55.23 134.95 -55.23 134.95 -55.23 134.95 -55.23 134.95 -55.23 134.95 -55.23 134.95 -55.23 134.95 -55.23 134.95 -55.23 134.95 -55.23 134.95 -55.23 134.95 -55.23 134.95 -55.23 134.95 -55.23 134.95 -55.23 134.95 -55.23 134.95 -55.23 134.95 -55.23 134.95 -55.23 134.95 -55.23 134.95 -55.23 134.95 -55.23 134.95 -55.23 134.95 -55.23 134.95 -55.23 134.95 -55.23 134.95 -55.23 134.95 -55.23 134.95 -55.23 134.95 -55.23 134.95 -55.23 134.95 -55.23 134.95 -55.23 134.95 -55.23 134.95 -55.23 134.95 -55.23 134.95 -55.23 134.95 -55.23 134.95 -55.23 134.95 -55.23 134.95 -55.23 134.95 -55.23 134.95 -55.23 134.95 -55.23 134.95 -55.23 134.95 -55.23 134.95 -55.23 134.95 -55.23 134.95 -55.23 134.95 -55.23 134.95 -55.23 134.95 -55.23 134.95 -55.23 134.95 -55.23 134.95 -55.23 134.95 -55.23 134.95 -55.23 134.95 -55.23 134.95 -55.23 134.95 -55.23 134.95 -55.23 134.95 -55.23 134.95 -55.23 134.95 -55.23 134.95 -55.23 134.95 -55.23 134.95 -55.23 134.95 -55.23 134.95 -55.23 134.95 -55.23 134.95 -55.23 134.95 -55.23 134.95 -55.23 134.95 -55.23 134.95 -55.23 134.95 -55.23 134.95 -55.23 134.95 -55.23 134.95 -55.23 134.95 -55.23 134.95 -55.23 134.95 -55.23 134.95 -55.23 134.95 -55.23 134.95 -55.23 134.95 -55.23 134.95 -55.23 134.95 -55.23 134.95 -55.23 134.95 -55.23 134.95 -55.23 134.95 -55.23 134.95 -55.23 134.95 -55.23 134.95 -55.23 134.95 -55.23 134.95 -55.23 134.95 -55.23 134.95 -55.23 134.95 -55.23 134.95 -55.23 134.95 -55.23 134.95 -55.23 134.95 -55.23 134.95 -55.23 134.95 -55.23 134.95 -55.23 134.95 -55.23 134.95 -55.23 134.95 -55.23 134.95 -55.23 134.95 -55.23 134.95 -55.23 134.95 -55.23 134.95 -55.23 134.95 -55.23 134.95 -55.23 134.95 -55.23 134.95 -55.23 134.95 -55.23 134.95 -55.23 134.95 -55.23 134.95 -55.23 134.95 -55.23 134.95 -55.23 134.95 -55.23 134.95 -55.23 134.95 -55.23 134.95 -55.23 134.95 -55.23 134.95 -55.23 134.95 -55.23 134.95 -55.23 134.95 -55.23 134.95 -55.23 134.95 -55.23 134.95 -55.23 134.95 -55.23 134.95 -55.23 134.95 -55.23 134.95 -55.23 134.95 -55.23 134.95 -55.23 134.95 -55.23 134.95 -55.23 134.95 -55.23 134.95 -55.23 134.95 -55.23 134.95 -55.23 134.95 -55.23 134.95 -55.23 134.95 -55.23 134.95 -55.23 134.95 -55.23 134.95 -55.23 134.95 -55.23 134.95 -55.23 134.95 -55.23 134.95 -55.23 134.95 -55.23 134.95 -55.23 134.95 -55.23 134.95 -55.23 134.95 -55.23 134.95 -55.23 134.95 -55.23 134.95 -55.23 134.95 -55.23 134.95 -55.23 134.95 -55.23 134.95 -55.23 134.95 -55.23 134.95 -55.23 134.95 -55.23 134.95 -55.23 134.95 -55.23 134.95 -55.23 134.95 -55.23 134.95 -55.23 134.95 -55.23 134.95 -55.23 134.95 -55.23 134.95 -55.23 134.95 -55.23 134.95 -55.23 134.95 -55.23 134.95 -55.23 134.95 -55.23 134.95 -55.23 134.95 -55.23 134.95 -55.23 134.95 -55.23 134.95 -55.23 134.95 -55.23 134.95 -55.23 134.95 -55.23 134.95 -55.23 134.95 -55.23 134.95 -55.23 134.95 -55.23 134.95 -55.23 134.95 -55.23 134.95 -55.23 134.95 -55.23 134.95 -55.23 134.95 -55.23 134.95 -55.23 134.95 -55.23 134.95 -55.23 134.95 -55.23 134.95 -55.23 134.95 -55.23 134.95 -55.23 134.95 -55.23 134.95 -55.23 134.95 -55.23 134.95 -55.23 134.95 -55.23 134.95 -55.23 134.95 -55.23 134.95 -55.23 134.95 -55.23 134.95 -55.23 134.95 -55.23 134.95 -55.23 134.95 -55.23 134.95 -55.23 134.95 -55.23 134.95 -55.23 134.95 -55.23 134.95 -55.23 134.95 -55.23 134.95 -55.23 134.95 -55.23 134.95 -55.23 134.95 -55.23 134.95 -55.23 134.95 -55.23 134.95 -55.23 134.95 -55.23 134.95 -55.23 134.95 -55.23 134.95 -55.23 134.95 -55.23 134.95 -55.23 134.95 -55.23 134.95 -55.23 134.95 -55.23 134.95 -55.23 134.95 -55.23 134.95 -55.23 134.95 -55.23 134.95 -55.23 134.95 -55.23 134.95 -55.23 134.95 -55.23 134.95 -55.23 134.95 -55.23 134.95 -55.23 134.95 -55.23 134.95 -55.23 134.95 -55.23 134.95 -55.23 134.95 -55.23 134.95 -55.23 134.95 -55.23 134.95 -55.23 134.95 -55.23 134.95 -55.23 134.95 -55.23 134.95 -55.23 134.95 -55.23 134.95 -55.23 134.95 -55.23 134.95 -55.23 134.95 -55.23 134.95 -55.23 134.95 -55.23 134.95 -55.23 134.95 -55.23 134.95 -55.23 134.95 -55.23 134.95 -55.23 134.95 -55.23 134.95 -55.23 134.95 -55.23 134.95 -55.23 134.95 -55.23 134.95 -55.23 134.95 -55.23 134.95 -55.23 134.95 -55.23 134.95 -55.23 134.95 -55.23 134.95 -55.23 134.95 -55.23 134.95 -55.23 134.95 -55.23 134.95 -55.23 134.95 -55.23 134.95 -55.23 134.95 -55.23 134.95 -55.23 134.95 -55.23 134.95 -55.23 134.95 -55.23 134.95 -55.23 134.95 -55.23 134.95 -55.23 134.95 -55.23 134.95 -55.23 134.95 -55.23 134.95 -55.23 134.95 -55.23 134.95 -55.23 134.95 -55.23 134.95 -55.23 134.95 -55.23 134.95 -55.23 134.95 -55.23 134.95 -55.23 134.95 -55.23 134.95 -55.23 134.95 -55.23 134.95 -55.23 134.95 -55.23 134.95 -55.23 134.95 -55.23 134.95 -55.23 134.95 -55.23 134.95 -55.23 134.95 -55.23 134.95 -55.23 134.95 -55.23 134.95 -55.23 134.95 -55.23 134.95 -55.23 134.95 -55.23 134.95 -55.23 134.95 -55.23 134.95 -55.23 134.95 -55.23 134.95 -55.23 134.95 -55.23 134.95 -55.23 134.95 -55.23 134.95 -55.23 134.95 -55.23 134.95 -55.23 134.95 -55.23 134.95 -55.23 134.95 -55.23 134.95 -55.23 134.95 -55.23 134.95 -55.23 134.95 -55.23 134.95 -55.23 134.95 -55.23 134.95 -55.23 134.95 -55.23 134.95 -55.23 134.95 -55.23 134.95 -55.23 134.95 -55.23 134.95 -55.23 134.95 -55.23 134.95 -55.23 134.95 -55.23 134.95 -55.23 134.95 -55.23 134.95 -55.23 134.95 -55.23 134.95 -55.23 134.95 -55.23 134.95 -55.23 134.95 -55.23 134.95 -55.23 134.95 -55.23 134.95 -55.23 134.95 -55.23 134.95 -55.23 134.95 -55.23 134.95 -55.23 134.95 -55.23 134.95 -55.23 134.95 -55.23 134.95 -55.23 134.95 -55.23 134.95 -55.23 134.95 -55.23 134.95 -55.23 134.95 -55.23 134.95 -55.23 134.95 -55.23 134.95 -55.23 134.95 -55.23 134.95 -55.23 134.95 -55.23 134.95 -55.23 134.95 -55.23 134.95 -55.23 134.95 -55.23 134.95 -55.23 134.95 -55.23 134.95 -55.23 134.95 -55.23 134.95 -55.23 134.95 -55.23 134.95 -55.23 134.95 -55.23 134.95 -55.23 134.95 -55.23 134.95"/>
  <g class="st16">
    <g>
      <line class="st5" x1="83.49" y1="144.32" x2="83.49" y2="144.32"/>
      <line class="st5" x1="83.49" y1="144.32" x2="83.49" y2="144.32"/>
      <line class="st5" x1="83.49" y1="144.32" x2="83.49" y2="144.32"/>
      <line class="st5" x1="83.49" y1="144.32" x2="83.49" y2="144.32"/>
      <line class="st5" x1="83.49" y1="144.32" x2="83.49" y2="144.32"/>
      <line class="st5" x1="83.49" y1="144.32" x2="83.49" y2="144.32"/>
      <line class="st5" x1="83.49" y1="144.32" x2="83.49" y2="144.32"/>
      <path class="st15" d="M87.24,147.79l-.26-.22c-1.4,1.39-2.3,1.84-3.58,1.84-1.73,0-2.72-1.17-2.72-3.19,0-1.85.75-3.74,1.96-5,.75-.78,1.73-1.2,2.76-1.2,1.43,0,2.23.84,2.38,2.52l.28.05.58-3.1h-.33c-.12.25-.28.34-.59.34-.14,0-.31-.03-.64-.11-.68-.17-1.31-.26-1.82-.26-3.33,0-6.32,3.11-6.32,6.59,0,2.38,1.68,4.06,4.06,4.06,1.6,0,2.85-.67,4.25-2.32"/>
    </g>
  </g>
  <polygon class="st5" points="-75.06 124.14 -75.06 124.14 -75.06 124.14 -75.06 124.14 -75.06 124.14 -75.06 124.14 -75.06 124.14 -75.06 124.14 -75.06 124.14 -75.06 124.14 -75.06 124.14 -75.06 124.14 -75.06 124.14 -75.06 124.14 -75.06 124.14 -75.06 124.14 -75.06 124.14 -75.06 124.14 -75.06 124.14 -75.06 124.14 -75.06 124.14 -75.06 124.14 -75.06 124.14 -75.06 124.14 -75.06 124.14 -75.06 124.14 -75.06 124.14 -75.06 124.14 -75.06 124.14 -75.06 124.14 -75.06 124.14 -75.06 124.14 -75.06 124.14 -75.06 124.14 -75.06 124.14 -75.06 124.14 -75.06 124.14 -75.06 124.14 -75.06 124.14 -75.06 124.14 -75.06 124.14 -75.06 124.14 -75.06 124.14 -75.06 124.14 -75.06 124.14 -75.06 124.14 -75.06 124.14 -75.06 124.14 -75.06 124.14 -75.06 124.14 -75.06 124.14 -75.06 124.14 -75.06 124.14 -75.06 124.14 -75.06 124.14 -75.06 124.14 -75.06 124.14 -75.06 124.14 -75.06 124.14 -75.06 124.14 -75.06 124.14 -75.06 124.14 -75.06 124.14 -75.06 124.14 -75.06 124.14 -75.06 124.14 -75.06 124.14 -75.06 124.14 -75.06 124.14 -75.06 124.14 -75.06 124.14 -75.06 124.14 -75.06 124.14 -75.06 124.14 -75.06 124.14 -75.06 124.14 -75.06 124.14 -75.06 124.14 -75.06 124.14 -75.06 124.14 -75.06 124.14 -75.06 124.14 -75.06 124.14 -75.06 124.14 -75.06 124.14 -75.06 124.14 -75.06 124.14 -75.06 124.14 -75.06 124.14 -75.06 124.14 -75.06 124.14 -75.06 124.14 -75.06 124.14 -75.06 124.14 -75.06 124.14 -75.06 124.14 -75.06 124.14 -75.06 124.14 -75.06 124.14 -75.06 124.14 -75.06 124.14 -75.06 124.14 -75.06 124.14 -75.06 124.14 -75.06 124.14 -75.06 124.14 -75.06 124.14 -75.06 124.14 -75.06 124.14 -75.06 124.14 -75.06 124.14 -75.06 124.14 -75.06 124.14 -75.06 124.14 -75.06 124.14 -75.06 124.14 -75.06 124.14 -75.06 124.14 -75.06 124.14 -75.06 124.14 -75.06 124.14 -75.06 124.14 -75.06 124.14 -75.06 124.14 -75.06 124.14 -75.06 124.14 -75.06 124.14 -75.06 124.14 -75.06 124.14 -75.06 124.14 -75.06 124.14 -75.06 124.14 -75.06 124.14 -75.06 124.14 -75.06 124.14 -75.06 124.14 -75.06 124.14 -75.06 124.14 -75.06 124.14 -75.06 124.14 -75.06 124.14 -75.06 124.14 -75.06 124.14 -75.06 124.14 -75.06 124.14 -75.06 124.14 -75.06 124.14 -75.06 124.14 -75.06 124.14 -75.06 124.14 -75.06 124.14 -75.06 124.14 -75.06 124.14 -75.06 124.14 -75.06 124.14 -75.06 124.14 -75.06 124.14 -75.06 124.14 -75.06 124.14 -75.06 124.14 -75.06 124.14 -75.06 124.14 -75.06 124.14 -75.06 124.14 -75.06 124.14 -75.06 124.14 -75.06 124.14 -75.06 124.14 -75.06 124.14 -75.06 124.14 -75.06 124.14 -75.06 124.14 -75.06 124.14 -75.06 124.14 -75.06 124.14 -75.06 124.14 -75.06 124.14 -75.06 124.14 -75.06 124.14 -75.06 124.14 -75.06 124.14 -75.06 124.14 -75.06 124.14 -75.06 124.14 -75.06 124.14 -75.06 124.14 -75.06 124.14 -75.06 124.14 -75.06 124.14 -75.06 124.14 -75.06 124.14 -75.06 124.14 -75.06 124.14 -75.06 124.14 -75.06 124.14 -75.06 124.14 -75.06 124.14 -75.06 124.14 -75.06 124.14 -75.06 124.14 -75.06 124.14 -75.06 124.14 -75.06 124.14 -75.06 124.14 -75.06 124.14 -75.06 124.14 -75.06 124.14 -75.06 124.14 -75.06 124.14 -75.06 124.14 -75.06 124.14 -75.06 124.14 -75.06 124.14 -75.06 124.14 -75.06 124.14 -75.06 124.14 -75.06 124.14 -75.06 124.14 -75.06 124.14 -75.06 124.14 -75.06 124.14 -75.06 124.14 -75.06 124.14 -75.06 124.14 -75.06 124.14 -75.06 124.14 -75.06 124.14 -75.06 124.14 -75.06 124.14 -75.06 124.14 -75.06 124.14 -75.06 124.14 -75.06 124.14 -75.06 124.14 -75.06 124.14 -75.06 124.14 -75.06 124.14 -75.06 124.14 -75.06 124.14 -75.06 124.14 -75.06 124.14 -75.06 124.14 -75.06 124.14 -75.06 124.14 -75.06 124.14 -75.06 124.14 -75.06 124.14 -75.06 124.14 -75.06 124.14 -75.06 124.14 -75.06 124.14 -75.06 124.14 -75.06 124.14 -75.06 124.14 -75.06 124.14 -75.06 124.14 -75.06 124.14 -75.06 124.14 -75.06 124.14 -75.06 124.14 -75.06 124.14 -75.06 124.14 -75.06 124.14 -75.06 124.14 -75.06 124.14 -75.06 124.14 -75.06 124.14 -75.06 124.14 -75.06 124.14 -75.06 124.14 -75.06 124.14 -75.06 124.14 -75.06 124.14 -75.06 124.14 -75.06 124.14 -75.06 124.14 -75.06 124.14 -75.06 124.14 -75.06 124.14 -75.06 124.14 -75.06 124.14 -75.06 124.14 -75.06 124.14 -75.06 124.14 -75.06 124.14 -75.06 124.14 -75.06 124.14 -75.06 124.14 -75.06 124.14 -75.06 124.14 -75.06 124.14 -75.06 124.14 -75.06 124.14 -75.06 124.14 -75.06 124.14 -75.06 124.14 -75.06 124.14 -75.06 124.14 -75.06 124.14 -75.06 124.14 -75.06 124.14 -75.06 124.14 -75.06 124.14 -75.06 124.14 -75.06 124.14 -75.06 124.14 -75.06 124.14 -75.06 124.14 -75.06 124.14 -75.06 124.14 -75.06 124.14 -75.06 124.14 -75.06 124.14 -75.06 124.14 -75.06 124.14 -75.06 124.14 -75.06 124.14 -75.06 124.14 -75.06 124.14 -75.06 124.14 -75.06 124.14 -75.06 124.14 -75.06 124.14 -75.06 124.14 -75.06 124.14 -75.06 124.14 -75.06 124.14 -75.06 124.14 -75.06 124.14 -75.06 124.14 -75.06 124.14 -75.06 124.14 -75.06 124.14 -75.06 124.14 -75.06 124.14 -75.06 124.14 -75.06 124.14 -75.06 124.14 -75.06 124.14 -75.06 124.14 -75.06 124.14 -75.06 124.14 -75.06 124.14 -75.06 124.14 -75.06 124.14 -75.06 124.14 -75.06 124.14 -75.06 124.14 -75.06 124.14 -75.06 124.14 -75.06 124.14 -75.06 124.14 -75.06 124.14 -75.06 124.14 -75.06 124.14 -75.06 124.14 -75.06 124.14 -75.06 124.14 -75.06 124.14 -75.06 124.14 -75.06 124.14 -75.06 124.14 -75.06 124.14 -75.06 124.14 -75.06 124.14 -75.06 124.14 -75.06 124.14 -75.06 124.14 -75.06 124.14 -75.06 124.14 -75.06 124.14 -75.06 124.14 -75.06 124.14 -75.06 124.14 -75.06 124.14 -75.06 124.14 -75.06 124.14 -75.06 124.14 -75.06 124.14 -75.06 124.14 -75.06 124.14 -75.06 124.14 -75.06 124.14 -75.06 124.14 -75.06 124.14 -75.06 124.14 -75.06 124.14 -75.06 124.14 -75.06 124.14 -75.06 124.14 -75.06 124.14 -75.06 124.14 -75.06 124.14 -75.06 124.14 -75.06 124.14 -75.06 124.14 -75.06 124.14 -75.06 124.14 -75.06 124.14 -75.06 124.14 -75.06 124.14 -75.06 124.14 -75.06 124.14 -75.06 124.14 -75.06 124.14 -75.06 124.14 -75.06 124.14 -75.06 124.14 -75.06 124.14 -75.06 124.14 -75.06 124.14 -75.06 124.14 -75.06 124.14 -75.06 124.14 -75.06 124.14 -75.06 124.14 -75.06 124.14 -75.06 124.14 -75.06 124.14 -75.06 124.14 -75.06 124.14 -75.06 124.14 -75.06 124.14 -75.06 124.14 -75.06 124.14 -75.06 124.14 -75.06 124.14 -75.06 124.14 -75.06 124.14 -75.06 124.14 -75.06 124.14 -75.06 124.14 -75.06 124.14 -75.06 124.14 -75.06 124.14 -75.06 124.14 -75.06 124.14 -75.06 124.14 -75.06 124.14 -75.06 124.14 -75.06 124.14 -75.06 124.14 -75.06 124.14 -75.06 124.14 -75.06 124.14 -75.06 124.14 -75.06 124.14 -75.06 124.14 -75.06 124.14 -75.06 124.14 -75.06 124.14 -75.06 124.14 -75.06 124.14 -75.06 124.14 -75.06 124.14 -75.06 124.14 -75.06 124.14 -75.06 124.14 -75.06 124.14 -75.06 124.14 -75.06 124.14 -75.06 124.14 -75.06 124.14 -75.06 124.14 -75.06 124.14 -75.06 124.14 -75.06 124.14 -75.06 124.14 -75.06 124.14 -75.06 124.14 -75.06 124.14 -75.06 124.14 -75.06 124.14 -75.06 124.14 -75.06 124.14 -75.06 124.14 -75.06 124.14 -75.06 124.14 -75.06 124.14 -75.06 124.14 -75.06 124.14 -75.06 124.14 -75.06 124.14 -75.06 124.14 -75.06 124.14 -75.06 124.14 -75.06 124.14 -75.06 124.14 -75.06 124.14 -75.06 124.14 -75.06 124.14 -75.06 124.14 -75.06 124.14 -75.06 124.14 -75.06 124.14 -75.06 124.14 -75.06 124.14 -75.06 124.14 -75.06 124.14 -75.06 124.14 -75.06 124.14 -75.06 124.14 -75.06 124.14 -75.06 124.14 -75.06 124.14 -75.06 124.14 -75.06 124.14 -75.06 124.14 -75.06 124.14 -75.06 124.14 -75.06 124.14 -75.06 124.14 -75.06 124.14 -75.06 124.14 -75.06 124.14 -75.06 124.14 -75.06 124.14 -75.06 124.14 -75.06 124.14 -75.06 124.14 -75.06 124.14 -75.06 124.14 -75.06 124.14 -75.06 124.14 -75.06 124.14 -75.06 124.14 -75.06 124.14 -75.06 124.14 -75.06 124.14 -75.06 124.14 -75.06 124.14 -75.06 124.14 -75.06 124.14 -75.06 124.14 -75.06 124.14 -75.06 124.14 -75.06 124.14 -75.06 124.14 -75.06 124.14 -75.06 124.14 -75.06 124.14 -75.06 124.14 -75.06 124.14 -75.06 124.14 -75.06 124.14 -75.06 124.14 -75.06 124.14 -75.06 124.14 -75.06 124.14 -75.06 124.14 -75.06 124.14 -75.06 124.14 -75.06 124.14 -75.06 124.14 -75.06 124.14 -75.06 124.14 -75.06 124.14 -75.06 124.14 -75.06 124.14 -75.06 124.14 -75.06 124.14 -75.06 124.14 -75.06 124.14 -75.06 124.14 -75.06 124.14 -75.06 124.14 -75.06 124.14 -75.06 124.14 -75.06 124.14 -75.06 124.14 -75.06 124.14 -75.06 124.14 -75.06 124.14 -75.06 124.14 -75.06 124.14 -75.06 124.14 -75.06 124.14 -75.06 124.14 -75.06 124.14 -75.06 124.14 -75.06 124.14 -75.06 124.14 -75.06 124.14 -75.06 124.14 -75.06 124.14 -75.06 124.14 -75.06 124.14 -75.06 124.14 -75.06 124.14 -75.06 124.14 -75.06 124.14 -75.06 124.14 -75.06 124.14 -75.06 124.14 -75.06 124.14 -75.06 124.14 -75.06 124.14 -75.06 124.14 -75.06 124.14 -75.06 124.14 -75.06 124.14 -75.06 124.14 -75.06 124.14 -75.06 124.14 -75.06 124.14 -75.06 124.14 -75.06 124.14 -75.06 124.14 -75.06 124.14 -75.06 124.14 -75.06 124.14 -75.06 124.14 -75.06 124.14 -75.06 124.14 -75.06 124.14 -75.06 124.14 -75.06 124.14 -75.06 124.14 -75.06 124.14 -75.06 124.14 -75.06 124.14 -75.06 124.14 -75.06 124.14 -75.06 124.14 -75.06 124.14 -75.06 124.14 -75.06 124.14 -75.06 124.14 -75.06 124.14 -75.06 124.14 -75.06 124.14 -75.06 124.14 -75.06 124.14 -75.06 124.14 -75.06 124.14 -75.06 124.14 -75.06 124.14 -75.06 124.14 -75.06 124.14 -75.06 124.14 -75.06 124.14 -75.06 124.14 -75.06 124.14 -75.06 124.14 -75.06 124.14 -75.06 124.14 -75.06 124.14 -75.06 124.14 -75.06 124.14 -75.06 124.14 -75.06 124.14 -75.06 124.14 -75.06 124.14 -75.06 124.14 -75.06 124.14 -75.06 124.14 -75.06 124.14 -75.06 124.14 -75.06 124.14 -75.06 124.14 -75.06 124.14 -75.06 124.14 -75.06 124.14 -75.06 124.14 -75.06 124.14 -75.06 124.14 -75.06 124.14 -75.06 124.14 -75.06 124.14 -75.06 124.14 -75.06 124.14 -75.06 124.14 -75.06 124.14 -75.06 124.14 -75.06 124.14 -75.06 124.14 -75.06 124.14 -75.06 124.14 -75.06 124.14 -75.06 124.14 -75.06 124.14 -75.06 124.14 -75.06 124.14 -75.06 124.14 -75.06 124.14 -75.06 124.14 -75.06 124.14 -75.06 124.14 -75.06 124.14 -75.06 124.14 -75.06 124.14 -75.06 124.14 -75.06 124.14 -75.06 124.14 -75.06 124.14 -75.06 124.14 -75.06 124.14 -75.06 124.14 -75.06 124.14 -75.06 124.14 -75.06 124.14 -75.06 124.14 -75.06 124.14 -75.06 124.14 -75.06 124.14 -75.06 124.14 -75.06 124.14 -75.06 124.14 -75.06 124.14 -75.06 124.14 -75.06 124.14 -75.06 124.14 -75.06 124.14 -75.06 124.14 -75.06 124.14 -75.06 124.14 -75.06 124.14 -75.06 124.14 -75.06 124.14 -75.06 124.14 -75.06 124.14 -75.06 124.14 -75.06 124.14 -75.06 124.14 -75.06 124.14 -75.06 124.14 -75.06 124.14 -75.06 124.14 -75.06 124.14 -75.06 124.14 -75.06 124.14 -75.06 124.14 -75.06 124.14 -75.06 124.14 -75.06 124.14 -75.06 124.14 -75.06 124.14 -75.06 124.14 -75.06 124.14 -75.06 124.14 -75.06 124.14 -75.06 124.14 -75.06 124.14 -75.06 124.14 -75.06 124.14 -75.06 124.14 -75.06 124.14 -75.06 124.14 -75.06 124.14 -75.06 124.14 -75.06 124.14 -75.06 124.14 -75.06 124.14 -75.06 124.14 -75.06 124.14 -75.06 124.14 -75.06 124.14 -75.06 124.14 -75.06 124.14 -75.06 124.14 -75.06 124.14 -75.06 124.14 -75.06 124.14 -75.06 124.14 -75.06 124.14 -75.06 124.14 -75.06 124.14 -75.06 124.14 -75.06 124.14 -75.06 124.14 -75.06 124.14 -75.06 124.14 -75.06 124.14 -75.06 124.14 -75.06 124.14 -75.06 124.14 -75.06 124.14 -75.06 124.14 -75.06 124.14 -75.06 124.14 -75.06 124.14 -75.06 124.14 -75.06 124.14 -75.06 124.14 -75.06 124.14 -75.06 124.14 -75.06 124.14 -75.06 124.14 -75.06 124.14 -75.06 124.14 -75.06 124.14 -75.06 124.14 -75.06 124.14 -75.06 124.14 -75.06 124.14 -75.06 124.14 -75.06 124.14 -75.06 124.14 -75.06 124.14 -75.06 124.14 -75.06 124.14 -75.06 124.14 -75.06 124.14 -75.06 124.14 -75.06 124.14 -75.06 124.14 -75.06 124.14 -75.06 124.14 -75.06 124.14 -75.06 124.14 -75.06 124.14 -75.06 124.14 -75.06 124.14 -75.06 124.14 -75.06 124.14 -75.06 124.14 -75.06 124.14 -75.06 124.14 -75.06 124.14 -75.06 124.14 -75.06 124.14 -75.06 124.14 -75.06 124.14 -75.06 124.14 -75.06 124.14 -75.06 124.14 -75.06 124.14 -75.06 124.14 -75.06 124.14 -75.06 124.14 -75.06 124.14 -75.06 124.14 -75.06 124.14 -75.06 124.14 -75.06 124.14 -75.06 124.14 -75.06 124.14 -75.06 124.14 -75.06 124.14 -75.06 124.14 -75.06 124.14 -75.06 124.14 -75.06 124.14 -75.06 124.14"/>
  <polygon class="st5" points="-71.82 45.65 -71.82 45.65 -71.82 45.65 -71.82 45.65 -71.82 45.65 -71.82 45.65 -71.82 45.65 -71.82 45.65 -71.82 45.65 -71.82 45.65 -71.82 45.65 -71.82 45.65 -71.82 45.65 -71.82 45.65 -71.82 45.65 -71.82 45.65 -71.82 45.65 -71.82 45.65 -71.82 45.65 -71.82 45.65 -71.82 45.65 -71.82 45.65 -71.82 45.65 -71.82 45.65 -71.82 45.65 -71.82 45.65 -71.82 45.65 -71.82 45.65 -71.82 45.65 -71.82 45.65 -71.82 45.65 -71.82 45.65 -71.82 45.65 -71.82 45.65 -71.82 45.65 -71.82 45.65 -71.82 45.65 -71.82 45.65 -71.82 45.65 -71.82 45.65 -71.82 45.65 -71.82 45.65 -71.82 45.65 -71.82 45.65 -71.82 45.65 -71.82 45.65 -71.82 45.65 -71.82 45.65 -71.82 45.65 -71.82 45.65 -71.82 45.65 -71.82 45.65 -71.82 45.65 -71.82 45.65 -71.82 45.65 -71.82 45.65 -71.82 45.65 -71.82 45.65 -71.82 45.65 -71.82 45.65 -71.82 45.65 -71.82 45.65 -71.82 45.65 -71.82 45.65 -71.82 45.65 -71.82 45.65 -71.82 45.65 -71.82 45.65 -71.82 45.65 -71.82 45.65 -71.82 45.65 -71.82 45.65 -71.82 45.65 -71.82 45.65 -71.82 45.65 -71.82 45.65 -71.82 45.65 -71.82 45.65 -71.82 45.65 -71.82 45.65 -71.82 45.65 -71.82 45.65 -71.82 45.65 -71.82 45.65 -71.82 45.65 -71.82 45.65 -71.82 45.65 -71.82 45.65 -71.82 45.65 -71.82 45.65 -71.82 45.65 -71.82 45.65 -71.82 45.65 -71.82 45.65 -71.82 45.65 -71.82 45.65 -71.82 45.65 -71.82 45.65 -71.82 45.65 -71.82 45.65 -71.82 45.65 -71.82 45.65 -71.82 45.65 -71.82 45.65 -71.82 45.65 -71.82 45.65 -71.82 45.65 -71.82 45.65 -71.82 45.65 -71.82 45.65 -71.82 45.65 -71.82 45.65 -71.82 45.65 -71.82 45.65 -71.82 45.65 -71.82 45.65 -71.82 45.65 -71.82 45.65 -71.82 45.65 -71.82 45.65 -71.82 45.65 -71.82 45.65 -71.82 45.65 -71.82 45.65 -71.82 45.65 -71.82 45.65 -71.82 45.65 -71.82 45.65 -71.82 45.65 -71.82 45.65 -71.82 45.65 -71.82 45.65 -71.82 45.65 -71.82 45.65 -71.82 45.65 -71.82 45.65 -71.82 45.65 -71.82 45.65 -71.82 45.65 -71.82 45.65 -71.82 45.65 -71.82 45.65 -71.82 45.65 -71.82 45.65 -71.82 45.65 -71.82 45.65 -71.82 45.65 -71.82 45.65 -71.82 45.65 -71.82 45.65 -71.82 45.65 -71.82 45.65 -71.82 45.65 -71.82 45.65 -71.82 45.65 -71.82 45.65 -71.82 45.65 -71.82 45.65 -71.82 45.65 -71.82 45.65 -71.82 45.65 -71.82 45.65 -71.82 45.65 -71.82 45.65 -71.82 45.65 -71.82 45.65 -71.82 45.65 -71.82 45.65 -71.82 45.65 -71.82 45.65 -71.82 45.65 -71.82 45.65 -71.82 45.65 -71.82 45.65 -71.82 45.65 -71.82 45.65 -71.82 45.65 -71.82 45.65 -71.82 45.65 -71.82 45.65 -71.82 45.65 -71.82 45.65 -71.82 45.65 -71.82 45.65 -71.82 45.65 -71.82 45.65 -71.82 45.65 -71.82 45.65 -71.82 45.65 -71.82 45.65 -71.82 45.65 -71.82 45.65 -71.82 45.65 -71.82 45.65 -71.82 45.65 -71.82 45.65 -71.82 45.65 -71.82 45.65 -71.82 45.65 -71.82 45.65 -71.82 45.65 -71.82 45.65 -71.82 45.65 -71.82 45.65 -71.82 45.65 -71.82 45.65 -71.82 45.65 -71.82 45.65 -71.82 45.65 -71.82 45.65 -71.82 45.65 -71.82 45.65 -71.82 45.65 -71.82 45.65 -71.82 45.65 -71.82 45.65 -71.82 45.65 -71.82 45.65 -71.82 45.65 -71.82 45.65 -71.82 45.65 -71.82 45.65 -71.82 45.65 -71.82 45.65 -71.82 45.65 -71.82 45.65 -71.82 45.65 -71.82 45.65 -71.82 45.65 -71.82 45.65 -71.82 45.65 -71.82 45.65 -71.82 45.65 -71.82 45.65 -71.82 45.65 -71.82 45.65 -71.82 45.65 -71.82 45.65 -71.82 45.65 -71.82 45.65 -71.82 45.65 -71.82 45.65 -71.82 45.65 -71.82 45.65 -71.82 45.65 -71.82 45.65 -71.82 45.65 -71.82 45.65 -71.82 45.65 -71.82 45.65 -71.82 45.65 -71.82 45.65 -71.82 45.65 -71.82 45.65 -71.82 45.65 -71.82 45.65 -71.82 45.65 -71.82 45.65 -71.82 45.65 -71.82 45.65 -71.82 45.65 -71.82 45.65 -71.82 45.65 -71.82 45.65 -71.82 45.65 -71.82 45.65 -71.82 45.65 -71.82 45.65 -71.82 45.65 -71.82 45.65 -71.82 45.65 -71.82 45.65 -71.82 45.65 -71.82 45.65 -71.82 45.65 -71.82 45.65 -71.82 45.65 -71.82 45.65 -71.82 45.65 -71.82 45.65 -71.82 45.65 -71.82 45.65 -71.82 45.65 -71.82 45.65 -71.82 45.65 -71.82 45.65 -71.82 45.65 -71.82 45.65 -71.82 45.65 -71.82 45.65 -71.82 45.65 -71.82 45.65 -71.82 45.65 -71.82 45.65 -71.82 45.65 -71.82 45.65 -71.82 45.65 -71.82 45.65 -71.82 45.65 -71.82 45.65 -71.82 45.65 -71.82 45.65 -71.82 45.65 -71.82 45.65 -71.82 45.65 -71.82 45.65 -71.82 45.65 -71.82 45.65 -71.82 45.65 -71.82 45.65 -71.82 45.65 -71.82 45.65 -71.82 45.65 -71.82 45.65 -71.82 45.65 -71.82 45.65 -71.82 45.65 -71.82 45.65 -71.82 45.65 -71.82 45.65 -71.82 45.65 -71.82 45.65 -71.82 45.65 -71.82 45.65 -71.82 45.65 -71.82 45.65 -71.82 45.65 -71.82 45.65 -71.82 45.65 -71.82 45.65 -71.82 45.65 -71.82 45.65 -71.82 45.65 -71.82 45.65 -71.82 45.65 -71.82 45.65 -71.82 45.65 -71.82 45.65 -71.82 45.65 -71.82 45.65 -71.82 45.65 -71.82 45.65 -71.82 45.65 -71.82 45.65 -71.82 45.65 -71.82 45.65 -71.82 45.65 -71.82 45.65 -71.82 45.65 -71.82 45.65 -71.82 45.65 -71.82 45.65 -71.82 45.65 -71.82 45.65 -71.82 45.65 -71.82 45.65 -71.82 45.65 -71.82 45.65 -71.82 45.65 -71.82 45.65 -71.82 45.65 -71.82 45.65 -71.82 45.65 -71.82 45.65 -71.82 45.65 -71.82 45.65 -71.82 45.65 -71.82 45.65 -71.82 45.65 -71.82 45.65 -71.82 45.65 -71.82 45.65 -71.82 45.65 -71.82 45.65 -71.82 45.65 -71.82 45.65 -71.82 45.65 -71.82 45.65 -71.82 45.65 -71.82 45.65 -71.82 45.65 -71.82 45.65 -71.82 45.65 -71.82 45.65 -71.82 45.65 -71.82 45.65 -71.82 45.65 -71.82 45.65 -71.82 45.65 -71.82 45.65 -71.82 45.65 -71.82 45.65 -71.82 45.65 -71.82 45.65 -71.82 45.65 -71.82 45.65 -71.82 45.65 -71.82 45.65 -71.82 45.65 -71.82 45.65 -71.82 45.65 -71.82 45.65 -71.82 45.65 -71.82 45.65 -71.82 45.65 -71.82 45.65 -71.82 45.65 -71.82 45.65 -71.82 45.65 -71.82 45.65 -71.82 45.65 -71.82 45.65 -71.82 45.65 -71.82 45.65 -71.82 45.65 -71.82 45.65 -71.82 45.65 -71.82 45.65 -71.82 45.65 -71.82 45.65 -71.82 45.65 -71.82 45.65 -71.82 45.65 -71.82 45.65 -71.82 45.65 -71.82 45.65 -71.82 45.65 -71.82 45.65 -71.82 45.65 -71.82 45.65 -71.82 45.65 -71.82 45.65 -71.82 45.65 -71.82 45.65 -71.82 45.65 -71.82 45.65 -71.82 45.65 -71.82 45.65 -71.82 45.65 -71.82 45.65 -71.82 45.65 -71.82 45.65 -71.82 45.65 -71.82 45.65 -71.82 45.65 -71.82 45.65 -71.82 45.65 -71.82 45.65 -71.82 45.65 -71.82 45.65 -71.82 45.65 -71.82 45.65 -71.82 45.65 -71.82 45.65 -71.82 45.65 -71.82 45.65 -71.82 45.65 -71.82 45.65 -71.82 45.65 -71.82 45.65 -71.82 45.65 -71.82 45.65 -71.82 45.65 -71.82 45.65 -71.82 45.65 -71.82 45.65 -71.82 45.65 -71.82 45.65 -71.82 45.65 -71.82 45.65 -71.82 45.65 -71.82 45.65 -71.82 45.65 -71.82 45.65 -71.82 45.65 -71.82 45.65 -71.82 45.65 -71.82 45.65 -71.82 45.65 -71.82 45.65 -71.82 45.65 -71.82 45.65 -71.82 45.65 -71.82 45.65 -71.82 45.65 -71.82 45.65 -71.82 45.65 -71.82 45.65 -71.82 45.65 -71.82 45.65 -71.82 45.65 -71.82 45.65 -71.82 45.65 -71.82 45.65 -71.82 45.65 -71.82 45.65 -71.82 45.65 -71.82 45.65 -71.82 45.65 -71.82 45.65 -71.82 45.65 -71.82 45.65 -71.82 45.65 -71.82 45.65 -71.82 45.65 -71.82 45.65 -71.82 45.65 -71.82 45.65 -71.82 45.65 -71.82 45.65 -71.82 45.65 -71.82 45.65 -71.82 45.65 -71.82 45.65 -71.82 45.65 -71.82 45.65 -71.82 45.65 -71.82 45.65 -71.82 45.65 -71.82 45.65 -71.82 45.65 -71.82 45.65 -71.82 45.65 -71.82 45.65 -71.82 45.65 -71.82 45.65 -71.82 45.65 -71.82 45.65 -71.82 45.65 -71.82 45.65 -71.82 45.65 -71.82 45.65 -71.82 45.65 -71.82 45.65 -71.82 45.65 -71.82 45.65 -71.82 45.65 -71.82 45.65 -71.82 45.65 -71.82 45.65 -71.82 45.65 -71.82 45.65 -71.82 45.65 -71.82 45.65 -71.82 45.65 -71.82 45.65 -71.82 45.65 -71.82 45.65 -71.82 45.65 -71.82 45.65 -71.82 45.65 -71.82 45.65 -71.82 45.65 -71.82 45.65 -71.82 45.65 -71.82 45.65 -71.82 45.65 -71.82 45.65 -71.82 45.65 -71.82 45.65 -71.82 45.65 -71.82 45.65 -71.82 45.65 -71.82 45.65 -71.82 45.65 -71.82 45.65 -71.82 45.65 -71.82 45.65 -71.82 45.65 -71.82 45.65 -71.82 45.65 -71.82 45.65 -71.82 45.65 -71.82 45.65 -71.82 45.65 -71.82 45.65 -71.82 45.65 -71.82 45.65 -71.82 45.65 -71.82 45.65 -71.82 45.65 -71.82 45.65 -71.82 45.65 -71.82 45.65 -71.82 45.65 -71.82 45.65 -71.82 45.65 -71.82 45.65 -71.82 45.65 -71.82 45.65 -71.82 45.65 -71.82 45.65 -71.82 45.65 -71.82 45.65 -71.82 45.65 -71.82 45.65 -71.82 45.65 -71.82 45.65 -71.82 45.65 -71.82 45.65 -71.82 45.65 -71.82 45.65 -71.82 45.65 -71.82 45.65 -71.82 45.65 -71.82 45.65 -71.82 45.65 -71.82 45.65 -71.82 45.65 -71.82 45.65 -71.82 45.65 -71.82 45.65 -71.82 45.65 -71.82 45.65 -71.82 45.65 -71.82 45.65 -71.82 45.65 -71.82 45.65 -71.82 45.65 -71.82 45.65 -71.82 45.65 -71.82 45.65 -71.82 45.65 -71.82 45.65 -71.82 45.65 -71.82 45.65 -71.82 45.65 -71.82 45.65 -71.82 45.65 -71.82 45.65 -71.82 45.65 -71.82 45.65 -71.82 45.65 -71.82 45.65 -71.82 45.65 -71.82 45.65 -71.82 45.65 -71.82 45.65 -71.82 45.65 -71.82 45.65 -71.82 45.65 -71.82 45.65 -71.82 45.65 -71.82 45.65 -71.82 45.65 -71.82 45.65 -71.82 45.65 -71.82 45.65 -71.82 45.65 -71.82 45.65 -71.82 45.65 -71.82 45.65 -71.82 45.65 -71.82 45.65 -71.82 45.65 -71.82 45.65 -71.82 45.65 -71.82 45.65 -71.82 45.65 -71.82 45.65 -71.82 45.65 -71.82 45.65 -71.82 45.65 -71.82 45.65 -71.82 45.65 -71.82 45.65 -71.82 45.65 -71.82 45.65 -71.82 45.65 -71.82 45.65 -71.82 45.65 -71.82 45.65 -71.82 45.65 -71.82 45.65 -71.82 45.65 -71.82 45.65 -71.82 45.65 -71.82 45.65 -71.82 45.65 -71.82 45.65 -71.82 45.65 -71.82 45.65 -71.82 45.65 -71.82 45.65 -71.82 45.65 -71.82 45.65 -71.82 45.65 -71.82 45.65 -71.82 45.65 -71.82 45.65 -71.82 45.65 -71.82 45.65 -71.82 45.65 -71.82 45.65 -71.82 45.65 -71.82 45.65 -71.82 45.65 -71.82 45.65 -71.82 45.65 -71.82 45.65 -71.82 45.65 -71.82 45.65 -71.82 45.65 -71.82 45.65 -71.82 45.65 -71.82 45.65 -71.82 45.65 -71.82 45.65 -71.82 45.65 -71.82 45.65 -71.82 45.65 -71.82 45.65 -71.82 45.65 -71.82 45.65 -71.82 45.65 -71.82 45.65 -71.82 45.65 -71.82 45.65 -71.82 45.65 -71.82 45.65 -71.82 45.65 -71.82 45.65 -71.82 45.65 -71.82 45.65 -71.82 45.65 -71.82 45.65 -71.82 45.65 -71.82 45.65 -71.82 45.65 -71.82 45.65 -71.82 45.65 -71.82 45.65 -71.82 45.65 -71.82 45.65 -71.82 45.65 -71.82 45.65 -71.82 45.65 -71.82 45.65 -71.82 45.65 -71.82 45.65 -71.82 45.65 -71.82 45.65 -71.82 45.65 -71.82 45.65 -71.82 45.65 -71.82 45.65 -71.82 45.65 -71.82 45.65 -71.82 45.65 -71.82 45.65 -71.82 45.65 -71.82 45.65 -71.82 45.65 -71.82 45.65 -71.82 45.65 -71.82 45.65 -71.82 45.65 -71.82 45.65 -71.82 45.65 -71.82 45.65 -71.82 45.65 -71.82 45.65 -71.82 45.65 -71.82 45.65 -71.82 45.65 -71.82 45.65 -71.82 45.65 -71.82 45.65 -71.82 45.65 -71.82 45.65 -71.82 45.65 -71.82 45.65 -71.82 45.65 -71.82 45.65 -71.82 45.65 -71.82 45.65 -71.82 45.65 -71.82 45.65 -71.82 45.65 -71.82 45.65 -71.82 45.65 -71.82 45.65 -71.82 45.65 -71.82 45.65 -71.82 45.65 -71.82 45.65 -71.82 45.65 -71.82 45.65 -71.82 45.65 -71.82 45.65 -71.82 45.65 -71.82 45.65 -71.82 45.65 -71.82 45.65 -71.82 45.65 -71.82 45.65 -71.82 45.65 -71.82 45.65 -71.82 45.65 -71.82 45.65 -71.82 45.65 -71.82 45.65 -71.82 45.65 -71.82 45.65 -71.82 45.65 -71.82 45.65 -71.82 45.65 -71.82 45.65 -71.82 45.65 -71.82 45.65 -71.82 45.65 -71.82 45.65 -71.82 45.65 -71.82 45.65 -71.82 45.65 -71.82 45.65 -71.82 45.65 -71.82 45.65 -71.82 45.65 -71.82 45.65 -71.82 45.65 -71.82 45.65 -71.82 45.65 -71.82 45.65 -71.82 45.65 -71.82 45.65 -71.82 45.65 -71.82 45.65 -71.82 45.65 -71.82 45.65 -71.82 45.65 -71.82 45.65 -71.82 45.65 -71.82 45.65 -71.82 45.65 -71.82 45.65 -71.82 45.65 -71.82 45.65 -71.82 45.65"/>
  <g class="st10">
    <g>
      <line class="st5" x1="277.5" y1="171.19" x2="277.5" y2="171.19"/>
      <line class="st5" x1="277.5" y1="171.19" x2="277.5" y2="171.19"/>
      <line class="st5" x1="277.5" y1="171.19" x2="277.5" y2="171.19"/>
      <line class="st5" x1="277.5" y1="171.19" x2="277.5" y2="171.19"/>
      <line class="st5" x1="277.5" y1="171.19" x2="277.5" y2="171.19"/>
      <line class="st5" x1="277.5" y1="171.19" x2="277.5" y2="171.19"/>
      <line class="st5" x1="277.5" y1="171.19" x2="277.5" y2="171.19"/>
      <path d="M279.65,172.96l-.22-.12c-.12.16-.2.23-.34.42-.36.47-.53.62-.73.62-.22,0-.36-.2-.47-.64-.03-.14-.05-.22-.06-.25-.37-1.46-.56-2.3-.56-2.54.69-1.2,1.25-1.88,1.53-1.88.09,0,.23.05.37.12.19.11.3.14.44.14.31,0,.53-.23.53-.56s-.26-.58-.64-.58c-.69,0-1.26.56-2.35,2.23l-.17-.86c-.22-1.06-.39-1.37-.81-1.37-.36,0-.86.12-1.82.45l-.17.06.06.23.26-.06c.3-.08.48-.11.61-.11.39,0,.48.14.7,1.07l.45,1.91-1.28,1.82c-.33.47-.62.75-.79.75-.09,0-.25-.05-.4-.14-.2-.11-.36-.16-.5-.16-.31,0-.53.23-.53.54,0,.4.3.65.78.65s.67-.14,1.45-1.07l1.4-1.84.47,1.87c.2.81.4,1.04.9,1.04.59,0,1-.37,1.9-1.77"/>
    </g>
  </g>
  <polygon class="st5" points="0 0 0 0 0 0 0 0 0 0 0 0 0 0 0 0 0 0 0 0 0 0 0 0 0 0 0 0 0 0 0 0 0 0 0 0 0 0 0 0 0 0 0 0 0 0 0 0 0 0 0 0 0 0 0 0 0 0 0 0 0 0 0 0 0 0 0 0 0 0 0 0 0 0 0 0 0 0 0 0 0 0 0 0 0 0 0 0 0 0 0 0 0 0 0 0 0 0 0 0 0 0 0 0 0 0 0 0 0 0 0 0 0 0 0 0 0 0 0 0 0 0 0 0 0 0 0 0 0 0 0 0 0 0 0 0 0 0 0 0 0 0 0 0 0 0 0 0 0 0 0 0 0 0 0 0 0 0 0 0 0 0 0 0 0 0 0 0 0 0 0 0 0 0 0 0 0 0 0 0 0 0 0 0 0 0 0 0 0 0 0 0 0 0 0 0 0 0 0 0 0 0 0 0 0 0 0 0 0 0 0 0 0 0 0 0 0 0 0 0 0 0 0 0 0 0 0 0 0 0 0 0 0 0 0 0 0 0 0 0 0 0 0 0 0 0 0 0 0 0 0 0 0 0 0 0 0 0 0 0 0 0 0 0 0 0 0 0 0 0 0 0 0 0 0 0 0 0 0 0 0 0 0 0 0 0 0 0 0 0 0 0 0 0 0 0 0 0 0 0 0 0 0 0 0 0 0 0 0 0 0 0 0 0 0 0 0 0 0 0 0 0 0 0 0 0 0 0 0 0 0 0 0 0 0 0 0 0 0 0 0 0 0 0 0 0 0 0 0 0 0 0 0 0 0 0 0 0 0 0 0 0 0 0 0 0 0 0 0 0 0 0 0 0 0 0 0 0 0 0 0 0 0 0 0 0 0 0 0 0 0 0 0 0 0 0 0 0 0 0 0 0 0 0 0 0 0 0 0 0 0 0 0 0 0 0 0 0 0 0 0 0 0 0 0 0 0 0 0 0 0 0 0 0 0 0 0 0 0 0 0 0 0 0 0 0 0 0 0 0 0 0 0 0 0 0 0 0 0 0 0 0 0 0 0 0 0 0 0 0 0 0 0 0 0 0 0 0 0 0 0 0 0 0 0 0 0 0 0 0 0 0 0 0 0 0 0 0 0 0 0 0 0 0 0 0 0 0 0 0 0 0 0 0 0 0 0 0 0 0 0 0 0 0 0 0 0 0 0 0 0 0 0 0 0 0 0 0 0 0 0 0 0 0 0 0 0 0 0 0 0 0 0 0 0 0 0 0 0 0 0 0 0 0 0 0 0 0 0 0 0 0 0 0 0 0 0 0 0 0 0 0 0 0 0 0 0 0 0 0 0 0 0 0 0 0 0 0 0 0 0 0 0 0 0 0 0 0 0 0 0 0 0 0 0 0 0 0 0 0 0 0 0 0 0 0 0 0 0 0 0 0 0 0 0 0 0 0 0 0 0 0 0 0 0 0 0 0 0 0 0 0 0 0 0 0 0 0 0 0 0 0 0 0 0 0 0 0 0 0 0 0 0 0 0 0 0 0 0 0 0 0 0 0 0 0 0 0 0 0 0 0 0 0 0 0 0 0 0 0 0 0 0 0 0 0 0 0 0 0 0 0 0 0 0 0 0 0 0 0 0 0 0 0 0 0 0 0 0 0 0 0 0 0 0 0 0 0 0 0 0 0 0 0 0 0 0 0 0 0 0 0 0 0 0 0 0 0 0 0 0 0 0 0 0 0 0 0 0 0 0 0 0 0 0 0 0 0 0 0 0 0 0 0 0 0 0 0 0 0 0 0 0 0 0 0 0 0 0 0 0 0 0 0 0 0 0 0 0 0 0 0 0 0 0 0 0 0 0 0 0 0 0 0 0 0 0 0 0 0 0 0 0 0 0 0 0 0 0 0 0 0 0 0 0 0 0 0 0 0 0 0 0 0 0 0 0 0 0 0 0 0 0 0 0 0 0 0 0 0 0 0 0 0 0 0 0 0 0 0 0 0 0 0 0 0 0 0 0 0 0 0 0 0 0 0 0 0 0 0 0 0 0 0 0 0 0 0 0 0 0 0 0 0 0 0 0 0 0 0 0 0 0 0 0 0 0 0 0 0 0 0 0 0 0 0 0 0 0 0 0 0 0 0 0 0 0 0 0 0 0 0 0 0 0 0 0 0 0 0 0 0 0 0 0 0 0 0 0 0 0 0 0 0 0 0 0 0 0 0 0 0 0 0 0 0 0 0 0 0 0 0 0 0 0 0 0 0 0 0 0 0 0 0 0 0 0 0 0 0 0 0 0 0 0 0 0 0 0 0 0 0 0 0 0 0 0 0 0 0 0 0 0 0 0 0 0 0 0 0 0 0 0 0 0 0 0 0 0 0 0 0 0 0 0 0 0 0 0 0 0 0 0 0 0 0 0 0 0 0 0 0 0 0 0 0 0 0 0 0 0 0 0 0 0 0 0 0 0 0 0 0 0 0 0 0 0 0 0 0 0 0 0 0 0 0 0 0 0 0 0 0 0 0 0 0 0 0 0 0 0 0 0 0 0 0 0 0 0 0 0 0 0 0 0 0 0 0 0 0 0 0 0 0 0 0 0 0 0 0 0 0 0 0 0 0 0 0 0 0 0 0 0 0 0 0 0 0 0 0 0 0 0 0 0 0 0 0 0 0 0 0 0 0 0 0 0 0 0 0 0 0 0 0 0 0 0 0 0 0 0 0 0 0 0 0 0 0 0 0 0 0 0 0 0 0 0 0 0 0 0 0 0 0 0 0 0 0 0 0 0 0 0 0 0 0 0 0 0 0 0 0 0 0 0 0 0 0 0 0 0 0 0 0 0 0 0 0 0 0 0 0 0 0 0 0 0 0 0 0 0 0 0 0 0 0 0 0 0 0 0 0 0 0 0 0 0 0 0 0 0 0 0 0 0 0 0 0 0 0 0 0 0 0 0 0 0 0 0 0 0 0 0 0 0 0 0 0 0 0 0 0 0 0 0 0 0 0 0 0 0 0 0 0 0 0 0 0 0 0 0 0 0 0 0 0 0 0 0 0 0 0 0 0 0 0 0 0 0 0 0 0 0 0 0 0 0 0 0 0 0 0 0 0 0 0 0 0 0 0 0 0 0 0 0 0 0 0 0 0 0 0 0 0 0 0 0 0 0 0 0 0 0 0 0 0 0 0 0 0 0 0 0 0 0 0 0 0 0 0 0 0 0 0 0 0 0 0 0 0 0 0 0 0 0 0 0 0 0 0 0 0 0 0 0 0 0 0 0 0 0 0 0 0 0 0 0 0 0 0 0 0 0 0 0 0 0 0 0 0 0 0 0 0 0 0 0 0 0 0 0 0 0 0 0 0 0 0 0 0 0 0 0 0 0 0 0 0 0 0 0 0 0 0 0 0 0 0 0 0 0 0 0 0 0 0 0 0 0 0 0 0 0 0 0 0 0 0 0 0 0 0 0 0 0 0 0 0 0 0 0 0 0 0 0 0 0 0 0 0 0 0 0 0 0 0 0 0 0 0 0 0 0 0 0 0 0 0 0 0 0 0 0 0 0 0 0 0 0 0 0 0 0 0 0 0 0 0 0 0 0 0 0 0 0 0 0 0 0 0 0 0 0 0 0 0 0 0 0 0 0 0 0 0 0 0 0 0 0 0 0 0 0 0 0 0 0 0 0 0 0 0 0 0 0 0 0 0 0 0 0 0 0 0 0 0 0 0 0 0 0 0 0 0 0 0 0 0 0 0 0 0 0 0 0 0 0 0 0 0 0 0 0 0 0 0 0 0 0 0"/>
  <g class="st13">
    <g>
      <line class="st5" x1="67.79" y1="94.93" x2="67.79" y2="94.93"/>
      <line class="st5" x1="67.79" y1="94.93" x2="67.79" y2="94.93"/>
      <line class="st5" x1="67.79" y1="94.93" x2="67.79" y2="94.93"/>
      <line class="st5" x1="67.79" y1="94.93" x2="67.79" y2="94.93"/>
      <line class="st5" x1="67.79" y1="94.93" x2="67.79" y2="94.93"/>
      <line class="st5" x1="67.79" y1="94.93" x2="67.79" y2="94.93"/>
      <line class="st5" x1="67.79" y1="94.93" x2="67.79" y2="94.93"/>
      <path d="M71.21,91.58c0-.47-.39-.86-.86-.86-.36,0-.61.23-.61.58,0,.25.12.41.44.61.3.17.4.31.4.53,0,.62-.56,1.82-1.9,4.03l-.31-1.81c-.23-1.39-1.11-3.94-1.34-3.94h-.06l-.14.02-1.53.26-.5.09v.26c.19-.05.31-.06.48-.06.62,0,.9.23,1.2,1,.42,1.06,1.28,4.55,1.28,5.17,0,.17-.06.36-.16.54-.12.2-.83,1.12-1.11,1.42-.36.39-.54.51-.75.51-.11,0-.2-.05-.37-.17-.23-.19-.39-.26-.58-.26-.34,0-.61.26-.61.61,0,.4.33.68.79.68.89,0,2.57-1.79,4.17-4.47,1.31-2.15,2.04-3.86,2.04-4.75"/>
    </g>
  </g>
  <polygon class="st5" points="-66.15 50.48 -66.15 50.48 -66.15 50.48 -66.15 50.48 -66.15 50.48 -66.15 50.48 -66.15 50.48 -66.15 50.48 -66.15 50.48 -66.15 50.48 -66.15 50.48 -66.15 50.48 -66.15 50.48 -66.15 50.48 -66.15 50.48 -66.15 50.48 -66.15 50.48 -66.15 50.48 -66.15 50.48 -66.15 50.48 -66.15 50.48 -66.15 50.48 -66.15 50.48 -66.15 50.48 -66.15 50.48 -66.15 50.48 -66.15 50.48 -66.15 50.48 -66.15 50.48 -66.15 50.48 -66.15 50.48 -66.15 50.48 -66.15 50.48 -66.15 50.48 -66.15 50.48 -66.15 50.48 -66.15 50.48 -66.15 50.48 -66.15 50.48 -66.15 50.48 -66.15 50.48 -66.15 50.48 -66.15 50.48 -66.15 50.48 -66.15 50.48 -66.15 50.48 -66.15 50.48 -66.15 50.48 -66.15 50.48 -66.15 50.48 -66.15 50.48 -66.15 50.48 -66.15 50.48 -66.15 50.48 -66.15 50.48 -66.15 50.48 -66.15 50.48 -66.15 50.48 -66.15 50.48 -66.15 50.48 -66.15 50.48 -66.15 50.48 -66.15 50.48 -66.15 50.48 -66.15 50.48 -66.15 50.48 -66.15 50.48 -66.15 50.48 -66.15 50.48 -66.15 50.48 -66.15 50.48 -66.15 50.48 -66.15 50.48 -66.15 50.48 -66.15 50.48 -66.15 50.48 -66.15 50.48 -66.15 50.48 -66.15 50.48 -66.15 50.48 -66.15 50.48 -66.15 50.48 -66.15 50.48 -66.15 50.48 -66.15 50.48 -66.15 50.48 -66.15 50.48 -66.15 50.48 -66.15 50.48 -66.15 50.48 -66.15 50.48 -66.15 50.48 -66.15 50.48 -66.15 50.48 -66.15 50.48 -66.15 50.48 -66.15 50.48 -66.15 50.48 -66.15 50.48 -66.15 50.48 -66.15 50.48 -66.15 50.48 -66.15 50.48 -66.15 50.48 -66.15 50.48 -66.15 50.48 -66.15 50.48 -66.15 50.48 -66.15 50.48 -66.15 50.48 -66.15 50.48 -66.15 50.48 -66.15 50.48 -66.15 50.48 -66.15 50.48 -66.15 50.48 -66.15 50.48 -66.15 50.48 -66.15 50.48 -66.15 50.48 -66.15 50.48 -66.15 50.48 -66.15 50.48 -66.15 50.48 -66.15 50.48 -66.15 50.48 -66.15 50.48 -66.15 50.48 -66.15 50.48 -66.15 50.48 -66.15 50.48 -66.15 50.48 -66.15 50.48 -66.15 50.48 -66.15 50.48 -66.15 50.48 -66.15 50.48 -66.15 50.48 -66.15 50.48 -66.15 50.48 -66.15 50.48 -66.15 50.48 -66.15 50.48 -66.15 50.48 -66.15 50.48 -66.15 50.48 -66.15 50.48 -66.15 50.48 -66.15 50.48 -66.15 50.48 -66.15 50.48 -66.15 50.48 -66.15 50.48 -66.15 50.48 -66.15 50.48 -66.15 50.48 -66.15 50.48 -66.15 50.48 -66.15 50.48 -66.15 50.48 -66.15 50.48 -66.15 50.48 -66.15 50.48 -66.15 50.48 -66.15 50.48 -66.15 50.48 -66.15 50.48 -66.15 50.48 -66.15 50.48 -66.15 50.48 -66.15 50.48 -66.15 50.48 -66.15 50.48 -66.15 50.48 -66.15 50.48 -66.15 50.48 -66.15 50.48 -66.15 50.48 -66.15 50.48 -66.15 50.48 -66.15 50.48 -66.15 50.48 -66.15 50.48 -66.15 50.48 -66.15 50.48 -66.15 50.48 -66.15 50.48 -66.15 50.48 -66.15 50.48 -66.15 50.48 -66.15 50.48 -66.15 50.48 -66.15 50.48 -66.15 50.48 -66.15 50.48 -66.15 50.48 -66.15 50.48 -66.15 50.48 -66.15 50.48 -66.15 50.48 -66.15 50.48 -66.15 50.48 -66.15 50.48 -66.15 50.48 -66.15 50.48 -66.15 50.48 -66.15 50.48 -66.15 50.48 -66.15 50.48 -66.15 50.48 -66.15 50.48 -66.15 50.48 -66.15 50.48 -66.15 50.48 -66.15 50.48 -66.15 50.48 -66.15 50.48 -66.15 50.48 -66.15 50.48 -66.15 50.48 -66.15 50.48 -66.15 50.48 -66.15 50.48 -66.15 50.48 -66.15 50.48 -66.15 50.48 -66.15 50.48 -66.15 50.48 -66.15 50.48 -66.15 50.48 -66.15 50.48 -66.15 50.48 -66.15 50.48 -66.15 50.48 -66.15 50.48 -66.15 50.48 -66.15 50.48 -66.15 50.48 -66.15 50.48 -66.15 50.48 -66.15 50.48 -66.15 50.48 -66.15 50.48 -66.15 50.48 -66.15 50.48 -66.15 50.48 -66.15 50.48 -66.15 50.48 -66.15 50.48 -66.15 50.48 -66.15 50.48 -66.15 50.48 -66.15 50.48 -66.15 50.48 -66.15 50.48 -66.15 50.48 -66.15 50.48 -66.15 50.48 -66.15 50.48 -66.15 50.48 -66.15 50.48 -66.15 50.48 -66.15 50.48 -66.15 50.48 -66.15 50.48 -66.15 50.48 -66.15 50.48 -66.15 50.48 -66.15 50.48 -66.15 50.48 -66.15 50.48 -66.15 50.48 -66.15 50.48 -66.15 50.48 -66.15 50.48 -66.15 50.48 -66.15 50.48 -66.15 50.48 -66.15 50.48 -66.15 50.48 -66.15 50.48 -66.15 50.48 -66.15 50.48 -66.15 50.48 -66.15 50.48 -66.15 50.48 -66.15 50.48 -66.15 50.48 -66.15 50.48 -66.15 50.48 -66.15 50.48 -66.15 50.48 -66.15 50.48 -66.15 50.48 -66.15 50.48 -66.15 50.48 -66.15 50.48 -66.15 50.48 -66.15 50.48 -66.15 50.48 -66.15 50.48 -66.15 50.48 -66.15 50.48 -66.15 50.48 -66.15 50.48 -66.15 50.48 -66.15 50.48 -66.15 50.48 -66.15 50.48 -66.15 50.48 -66.15 50.48 -66.15 50.48 -66.15 50.48 -66.15 50.48 -66.15 50.48 -66.15 50.48 -66.15 50.48 -66.15 50.48 -66.15 50.48 -66.15 50.48 -66.15 50.48 -66.15 50.48 -66.15 50.48 -66.15 50.48 -66.15 50.48 -66.15 50.48 -66.15 50.48 -66.15 50.48 -66.15 50.48 -66.15 50.48 -66.15 50.48 -66.15 50.48 -66.15 50.48 -66.15 50.48 -66.15 50.48 -66.15 50.48 -66.15 50.48 -66.15 50.48 -66.15 50.48 -66.15 50.48 -66.15 50.48 -66.15 50.48 -66.15 50.48 -66.15 50.48 -66.15 50.48 -66.15 50.48 -66.15 50.48 -66.15 50.48 -66.15 50.48 -66.15 50.48 -66.15 50.48 -66.15 50.48 -66.15 50.48 -66.15 50.48 -66.15 50.48 -66.15 50.48 -66.15 50.48 -66.15 50.48 -66.15 50.48 -66.15 50.48 -66.15 50.48 -66.15 50.48 -66.15 50.48 -66.15 50.48 -66.15 50.48 -66.15 50.48 -66.15 50.48 -66.15 50.48 -66.15 50.48 -66.15 50.48 -66.15 50.48 -66.15 50.48 -66.15 50.48 -66.15 50.48 -66.15 50.48 -66.15 50.48 -66.15 50.48 -66.15 50.48 -66.15 50.48 -66.15 50.48 -66.15 50.48 -66.15 50.48 -66.15 50.48 -66.15 50.48 -66.15 50.48 -66.15 50.48 -66.15 50.48 -66.15 50.48 -66.15 50.48 -66.15 50.48 -66.15 50.48 -66.15 50.48 -66.15 50.48 -66.15 50.48 -66.15 50.48 -66.15 50.48 -66.15 50.48 -66.15 50.48 -66.15 50.48 -66.15 50.48 -66.15 50.48 -66.15 50.48 -66.15 50.48 -66.15 50.48 -66.15 50.48 -66.15 50.48 -66.15 50.48 -66.15 50.48 -66.15 50.48 -66.15 50.48 -66.15 50.48 -66.15 50.48 -66.15 50.48 -66.15 50.48 -66.15 50.48 -66.15 50.48 -66.15 50.48 -66.15 50.48 -66.15 50.48 -66.15 50.48 -66.15 50.48 -66.15 50.48 -66.15 50.48 -66.15 50.48 -66.15 50.48 -66.15 50.48 -66.15 50.48 -66.15 50.48 -66.15 50.48 -66.15 50.48 -66.15 50.48 -66.15 50.48 -66.15 50.48 -66.15 50.48 -66.15 50.48 -66.15 50.48 -66.15 50.48 -66.15 50.48 -66.15 50.48 -66.15 50.48 -66.15 50.48 -66.15 50.48 -66.15 50.48 -66.15 50.48 -66.15 50.48 -66.15 50.48 -66.15 50.48 -66.15 50.48 -66.15 50.48 -66.15 50.48 -66.15 50.48 -66.15 50.48 -66.15 50.48 -66.15 50.48 -66.15 50.48 -66.15 50.48 -66.15 50.48 -66.15 50.48 -66.15 50.48 -66.15 50.48 -66.15 50.48 -66.15 50.48 -66.15 50.48 -66.15 50.48 -66.15 50.48 -66.15 50.48 -66.15 50.48 -66.15 50.48 -66.15 50.48 -66.15 50.48 -66.15 50.48 -66.15 50.48 -66.15 50.48 -66.15 50.48 -66.15 50.48 -66.15 50.48 -66.15 50.48 -66.15 50.48 -66.15 50.48 -66.15 50.48 -66.15 50.48 -66.15 50.48 -66.15 50.48 -66.15 50.48 -66.15 50.48 -66.15 50.48 -66.15 50.48 -66.15 50.48 -66.15 50.48 -66.15 50.48 -66.15 50.48 -66.15 50.48 -66.15 50.48 -66.15 50.48 -66.15 50.48 -66.15 50.48 -66.15 50.48 -66.15 50.48 -66.15 50.48 -66.15 50.48 -66.15 50.48 -66.15 50.48 -66.15 50.48 -66.15 50.48 -66.15 50.48 -66.15 50.48 -66.15 50.48 -66.15 50.48 -66.15 50.48 -66.15 50.48 -66.15 50.48 -66.15 50.48 -66.15 50.48 -66.15 50.48 -66.15 50.48 -66.15 50.48 -66.15 50.48 -66.15 50.48 -66.15 50.48 -66.15 50.48 -66.15 50.48 -66.15 50.48 -66.15 50.48 -66.15 50.48 -66.15 50.48 -66.15 50.48 -66.15 50.48 -66.15 50.48 -66.15 50.48 -66.15 50.48 -66.15 50.48 -66.15 50.48 -66.15 50.48 -66.15 50.48 -66.15 50.48 -66.15 50.48 -66.15 50.48 -66.15 50.48 -66.15 50.48 -66.15 50.48 -66.15 50.48 -66.15 50.48 -66.15 50.48 -66.15 50.48 -66.15 50.48 -66.15 50.48 -66.15 50.48 -66.15 50.48 -66.15 50.48 -66.15 50.48 -66.15 50.48 -66.15 50.48 -66.15 50.48 -66.15 50.48 -66.15 50.48 -66.15 50.48 -66.15 50.48 -66.15 50.48 -66.15 50.48 -66.15 50.48 -66.15 50.48 -66.15 50.48 -66.15 50.48 -66.15 50.48 -66.15 50.48 -66.15 50.48 -66.15 50.48 -66.15 50.48 -66.15 50.48 -66.15 50.48 -66.15 50.48 -66.15 50.48 -66.15 50.48 -66.15 50.48 -66.15 50.48 -66.15 50.48 -66.15 50.48 -66.15 50.48 -66.15 50.48 -66.15 50.48 -66.15 50.48 -66.15 50.48 -66.15 50.48 -66.15 50.48 -66.15 50.48 -66.15 50.48 -66.15 50.48 -66.15 50.48 -66.15 50.48 -66.15 50.48 -66.15 50.48 -66.15 50.48 -66.15 50.48 -66.15 50.48 -66.15 50.48 -66.15 50.48 -66.15 50.48 -66.15 50.48 -66.15 50.48 -66.15 50.48 -66.15 50.48 -66.15 50.48 -66.15 50.48 -66.15 50.48 -66.15 50.48 -66.15 50.48 -66.15 50.48 -66.15 50.48 -66.15 50.48 -66.15 50.48 -66.15 50.48 -66.15 50.48 -66.15 50.48 -66.15 50.48 -66.15 50.48 -66.15 50.48 -66.15 50.48 -66.15 50.48 -66.15 50.48 -66.15 50.48 -66.15 50.48 -66.15 50.48 -66.15 50.48 -66.15 50.48 -66.15 50.48 -66.15 50.48 -66.15 50.48 -66.15 50.48 -66.15 50.48 -66.15 50.48 -66.15 50.48 -66.15 50.48 -66.15 50.48 -66.15 50.48 -66.15 50.48 -66.15 50.48 -66.15 50.48 -66.15 50.48 -66.15 50.48 -66.15 50.48 -66.15 50.48 -66.15 50.48 -66.15 50.48 -66.15 50.48 -66.15 50.48 -66.15 50.48 -66.15 50.48 -66.15 50.48 -66.15 50.48 -66.15 50.48 -66.15 50.48 -66.15 50.48 -66.15 50.48 -66.15 50.48 -66.15 50.48 -66.15 50.48 -66.15 50.48 -66.15 50.48 -66.15 50.48 -66.15 50.48 -66.15 50.48 -66.15 50.48 -66.15 50.48 -66.15 50.48 -66.15 50.48 -66.15 50.48 -66.15 50.48 -66.15 50.48 -66.15 50.48 -66.15 50.48 -66.15 50.48 -66.15 50.48 -66.15 50.48 -66.15 50.48 -66.15 50.48 -66.15 50.48 -66.15 50.48 -66.15 50.48 -66.15 50.48 -66.15 50.48 -66.15 50.48 -66.15 50.48 -66.15 50.48 -66.15 50.48 -66.15 50.48 -66.15 50.48 -66.15 50.48 -66.15 50.48 -66.15 50.48 -66.15 50.48 -66.15 50.48 -66.15 50.48 -66.15 50.48 -66.15 50.48 -66.15 50.48 -66.15 50.48 -66.15 50.48 -66.15 50.48 -66.15 50.48 -66.15 50.48 -66.15 50.48 -66.15 50.48 -66.15 50.48 -66.15 50.48 -66.15 50.48 -66.15 50.48 -66.15 50.48 -66.15 50.48 -66.15 50.48 -66.15 50.48 -66.15 50.48 -66.15 50.48 -66.15 50.48 -66.15 50.48 -66.15 50.48 -66.15 50.48 -66.15 50.48 -66.15 50.48 -66.15 50.48 -66.15 50.48 -66.15 50.48 -66.15 50.48 -66.15 50.48 -66.15 50.48 -66.15 50.48 -66.15 50.48 -66.15 50.48 -66.15 50.48 -66.15 50.48 -66.15 50.48 -66.15 50.48 -66.15 50.48 -66.15 50.48 -66.15 50.48 -66.15 50.48 -66.15 50.48 -66.15 50.48 -66.15 50.48 -66.15 50.48 -66.15 50.48 -66.15 50.48 -66.15 50.48 -66.15 50.48 -66.15 50.48 -66.15 50.48 -66.15 50.48 -66.15 50.48 -66.15 50.48 -66.15 50.48 -66.15 50.48 -66.15 50.48 -66.15 50.48 -66.15 50.48 -66.15 50.48 -66.15 50.48 -66.15 50.48 -66.15 50.48 -66.15 50.48 -66.15 50.48 -66.15 50.48 -66.15 50.48 -66.15 50.48 -66.15 50.48 -66.15 50.48 -66.15 50.48 -66.15 50.48 -66.15 50.48 -66.15 50.48 -66.15 50.48 -66.15 50.48 -66.15 50.48 -66.15 50.48 -66.15 50.48 -66.15 50.48 -66.15 50.48 -66.15 50.48 -66.15 50.48 -66.15 50.48 -66.15 50.48 -66.15 50.48 -66.15 50.48 -66.15 50.48 -66.15 50.48 -66.15 50.48 -66.15 50.48 -66.15 50.48 -66.15 50.48 -66.15 50.48 -66.15 50.48 -66.15 50.48 -66.15 50.48 -66.15 50.48 -66.15 50.48 -66.15 50.48 -66.15 50.48 -66.15 50.48 -66.15 50.48 -66.15 50.48 -66.15 50.48 -66.15 50.48 -66.15 50.48 -66.15 50.48 -66.15 50.48 -66.15 50.48 -66.15 50.48 -66.15 50.48 -66.15 50.48 -66.15 50.48 -66.15 50.48 -66.15 50.48 -66.15 50.48 -66.15 50.48 -66.15 50.48 -66.15 50.48 -66.15 50.48 -66.15 50.48 -66.15 50.48 -66.15 50.48 -66.15 50.48 -66.15 50.48 -66.15 50.48 -66.15 50.48 -66.15 50.48 -66.15 50.48 -66.15 50.48 -66.15 50.48 -66.15 50.48 -66.15 50.48 -66.15 50.48 -66.15 50.48 -66.15 50.48 -66.15 50.48 -66.15 50.48 -66.15 50.48 -66.15 50.48 -66.15 50.48 -66.15 50.48 -66.15 50.48 -66.15 50.48"/>
  <g class="st11">
    <g>
      <line class="st5" x1="10.73" y1="28.23" x2="10.73" y2="28.23"/>
      <line class="st5" x1="10.73" y1="28.23" x2="10.73" y2="28.23"/>
      <line class="st5" x1="10.73" y1="28.23" x2="10.73" y2="28.23"/>
      <line class="st5" x1="10.73" y1="28.23" x2="10.73" y2="28.23"/>
      <line class="st5" x1="10.73" y1="28.23" x2="10.73" y2="28.23"/>
      <line class="st5" x1="10.73" y1="28.23" x2="10.73" y2="28.23"/>
      <line class="st5" x1="10.73" y1="28.23" x2="10.73" y2="28.23"/>
      <path d="M13.52,30.96c0-.34-.22-.56-.55-.56s-.53.2-.53.5c0,.12.05.26.14.45.05.09.08.17.08.23,0,.14-.17.23-.42.23-.39,0-.58-.14-1.09-.78-.68-.89-.98-1.09-1.88-1.29l4.52-5.36v-.17h-4.42l-.48,1.79.25.06c.33-.78.53-.92,1.26-.92h2.27l-4.83,5.79.14.14c.25-.2.45-.28.7-.28.41,0,.9.2,1.63.65.78.48,1.29.68,1.74.68.78,0,1.46-.56,1.46-1.18"/>
    </g>
  </g>
  <polygon class="st5" points="-69.9 64.46 -69.9 64.46 -69.9 64.46 -69.9 64.46 -69.9 64.46 -69.9 64.46 -69.9 64.46 -69.9 64.46 -69.9 64.46 -69.9 64.46 -69.9 64.46 -69.9 64.46 -69.9 64.46 -69.9 64.46 -69.9 64.46 -69.9 64.46 -69.9 64.46 -69.9 64.46 -69.9 64.46 -69.9 64.46 -69.9 64.46 -69.9 64.46 -69.9 64.46 -69.9 64.46 -69.9 64.46 -69.9 64.46 -69.9 64.46 -69.9 64.46 -69.9 64.46 -69.9 64.46 -69.9 64.46 -69.9 64.46 -69.9 64.46 -69.9 64.46 -69.9 64.46 -69.9 64.46 -69.9 64.46 -69.9 64.46 -69.9 64.46 -69.9 64.46 -69.9 64.46 -69.9 64.46 -69.9 64.46 -69.9 64.46 -69.9 64.46 -69.9 64.46 -69.9 64.46 -69.9 64.46 -69.9 64.46 -69.9 64.46 -69.9 64.46 -69.9 64.46 -69.9 64.46 -69.9 64.46 -69.9 64.46 -69.9 64.46 -69.9 64.46 -69.9 64.46 -69.9 64.46 -69.9 64.46 -69.9 64.46 -69.9 64.46 -69.9 64.46 -69.9 64.46 -69.9 64.46 -69.9 64.46 -69.9 64.46 -69.9 64.46 -69.9 64.46 -69.9 64.46 -69.9 64.46 -69.9 64.46 -69.9 64.46 -69.9 64.46 -69.9 64.46 -69.9 64.46 -69.9 64.46 -69.9 64.46 -69.9 64.46 -69.9 64.46 -69.9 64.46 -69.9 64.46 -69.9 64.46 -69.9 64.46 -69.9 64.46 -69.9 64.46 -69.9 64.46 -69.9 64.46 -69.9 64.46 -69.9 64.46 -69.9 64.46 -69.9 64.46 -69.9 64.46 -69.9 64.46 -69.9 64.46 -69.9 64.46 -69.9 64.46 -69.9 64.46 -69.9 64.46 -69.9 64.46 -69.9 64.46 -69.9 64.46 -69.9 64.46 -69.9 64.46 -69.9 64.46 -69.9 64.46 -69.9 64.46 -69.9 64.46 -69.9 64.46 -69.9 64.46 -69.9 64.46 -69.9 64.46 -69.9 64.46 -69.9 64.46 -69.9 64.46 -69.9 64.46 -69.9 64.46 -69.9 64.46 -69.9 64.46 -69.9 64.46 -69.9 64.46 -69.9 64.46 -69.9 64.46 -69.9 64.46 -69.9 64.46 -69.9 64.46 -69.9 64.46 -69.9 64.46 -69.9 64.46 -69.9 64.46 -69.9 64.46 -69.9 64.46 -69.9 64.46 -69.9 64.46 -69.9 64.46 -69.9 64.46 -69.9 64.46 -69.9 64.46 -69.9 64.46 -69.9 64.46 -69.9 64.46 -69.9 64.46 -69.9 64.46 -69.9 64.46 -69.9 64.46 -69.9 64.46 -69.9 64.46 -69.9 64.46 -69.9 64.46 -69.9 64.46 -69.9 64.46 -69.9 64.46 -69.9 64.46 -69.9 64.46 -69.9 64.46 -69.9 64.46 -69.9 64.46 -69.9 64.46 -69.9 64.46 -69.9 64.46 -69.9 64.46 -69.9 64.46 -69.9 64.46 -69.9 64.46 -69.9 64.46 -69.9 64.46 -69.9 64.46 -69.9 64.46 -69.9 64.46 -69.9 64.46 -69.9 64.46 -69.9 64.46 -69.9 64.46 -69.9 64.46 -69.9 64.46 -69.9 64.46 -69.9 64.46 -69.9 64.46 -69.9 64.46 -69.9 64.46 -69.9 64.46 -69.9 64.46 -69.9 64.46 -69.9 64.46 -69.9 64.46 -69.9 64.46 -69.9 64.46 -69.9 64.46 -69.9 64.46 -69.9 64.46 -69.9 64.46 -69.9 64.46 -69.9 64.46 -69.9 64.46 -69.9 64.46 -69.9 64.46 -69.9 64.46 -69.9 64.46 -69.9 64.46 -69.9 64.46 -69.9 64.46 -69.9 64.46 -69.9 64.46 -69.9 64.46 -69.9 64.46 -69.9 64.46 -69.9 64.46 -69.9 64.46 -69.9 64.46 -69.9 64.46 -69.9 64.46 -69.9 64.46 -69.9 64.46 -69.9 64.46 -69.9 64.46 -69.9 64.46 -69.9 64.46 -69.9 64.46 -69.9 64.46 -69.9 64.46 -69.9 64.46 -69.9 64.46 -69.9 64.46 -69.9 64.46 -69.9 64.46 -69.9 64.46 -69.9 64.46 -69.9 64.46 -69.9 64.46 -69.9 64.46 -69.9 64.46 -69.9 64.46 -69.9 64.46 -69.9 64.46 -69.9 64.46 -69.9 64.46 -69.9 64.46 -69.9 64.46 -69.9 64.46 -69.9 64.46 -69.9 64.46 -69.9 64.46 -69.9 64.46 -69.9 64.46 -69.9 64.46 -69.9 64.46 -69.9 64.46 -69.9 64.46 -69.9 64.46 -69.9 64.46 -69.9 64.46 -69.9 64.46 -69.9 64.46 -69.9 64.46 -69.9 64.46 -69.9 64.46 -69.9 64.46 -69.9 64.46 -69.9 64.46 -69.9 64.46 -69.9 64.46 -69.9 64.46 -69.9 64.46 -69.9 64.46 -69.9 64.46 -69.9 64.46 -69.9 64.46 -69.9 64.46 -69.9 64.46 -69.9 64.46 -69.9 64.46 -69.9 64.46 -69.9 64.46 -69.9 64.46 -69.9 64.46 -69.9 64.46 -69.9 64.46 -69.9 64.46 -69.9 64.46 -69.9 64.46 -69.9 64.46 -69.9 64.46 -69.9 64.46 -69.9 64.46 -69.9 64.46 -69.9 64.46 -69.9 64.46 -69.9 64.46 -69.9 64.46 -69.9 64.46 -69.9 64.46 -69.9 64.46 -69.9 64.46 -69.9 64.46 -69.9 64.46 -69.9 64.46 -69.9 64.46 -69.9 64.46 -69.9 64.46 -69.9 64.46 -69.9 64.46 -69.9 64.46 -69.9 64.46 -69.9 64.46 -69.9 64.46 -69.9 64.46 -69.9 64.46 -69.9 64.46 -69.9 64.46 -69.9 64.46 -69.9 64.46 -69.9 64.46 -69.9 64.46 -69.9 64.46 -69.9 64.46 -69.9 64.46 -69.9 64.46 -69.9 64.46 -69.9 64.46 -69.9 64.46 -69.9 64.46 -69.9 64.46 -69.9 64.46 -69.9 64.46 -69.9 64.46 -69.9 64.46 -69.9 64.46 -69.9 64.46 -69.9 64.46 -69.9 64.46 -69.9 64.46 -69.9 64.46 -69.9 64.46 -69.9 64.46 -69.9 64.46 -69.9 64.46 -69.9 64.46 -69.9 64.46 -69.9 64.46 -69.9 64.46 -69.9 64.46 -69.9 64.46 -69.9 64.46 -69.9 64.46 -69.9 64.46 -69.9 64.46 -69.9 64.46 -69.9 64.46 -69.9 64.46 -69.9 64.46 -69.9 64.46 -69.9 64.46 -69.9 64.46 -69.9 64.46 -69.9 64.46 -69.9 64.46 -69.9 64.46 -69.9 64.46 -69.9 64.46 -69.9 64.46 -69.9 64.46 -69.9 64.46 -69.9 64.46 -69.9 64.46 -69.9 64.46 -69.9 64.46 -69.9 64.46 -69.9 64.46 -69.9 64.46 -69.9 64.46 -69.9 64.46 -69.9 64.46 -69.9 64.46 -69.9 64.46 -69.9 64.46 -69.9 64.46 -69.9 64.46 -69.9 64.46 -69.9 64.46 -69.9 64.46 -69.9 64.46 -69.9 64.46 -69.9 64.46 -69.9 64.46 -69.9 64.46 -69.9 64.46 -69.9 64.46 -69.9 64.46 -69.9 64.46 -69.9 64.46 -69.9 64.46 -69.9 64.46 -69.9 64.46 -69.9 64.46 -69.9 64.46 -69.9 64.46 -69.9 64.46 -69.9 64.46 -69.9 64.46 -69.9 64.46 -69.9 64.46 -69.9 64.46 -69.9 64.46 -69.9 64.46 -69.9 64.46 -69.9 64.46 -69.9 64.46 -69.9 64.46 -69.9 64.46 -69.9 64.46 -69.9 64.46 -69.9 64.46 -69.9 64.46 -69.9 64.46 -69.9 64.46 -69.9 64.46 -69.9 64.46 -69.9 64.46 -69.9 64.46 -69.9 64.46 -69.9 64.46 -69.9 64.46 -69.9 64.46 -69.9 64.46 -69.9 64.46 -69.9 64.46 -69.9 64.46 -69.9 64.46 -69.9 64.46 -69.9 64.46 -69.9 64.46 -69.9 64.46 -69.9 64.46 -69.9 64.46 -69.9 64.46 -69.9 64.46 -69.9 64.46 -69.9 64.46 -69.9 64.46 -69.9 64.46 -69.9 64.46 -69.9 64.46 -69.9 64.46 -69.9 64.46 -69.9 64.46 -69.9 64.46 -69.9 64.46 -69.9 64.46 -69.9 64.46 -69.9 64.46 -69.9 64.46 -69.9 64.46 -69.9 64.46 -69.9 64.46 -69.9 64.46 -69.9 64.46 -69.9 64.46 -69.9 64.46 -69.9 64.46 -69.9 64.46 -69.9 64.46 -69.9 64.46 -69.9 64.46 -69.9 64.46 -69.9 64.46 -69.9 64.46 -69.9 64.46 -69.9 64.46 -69.9 64.46 -69.9 64.46 -69.9 64.46 -69.9 64.46 -69.9 64.46 -69.9 64.46 -69.9 64.46 -69.9 64.46 -69.9 64.46 -69.9 64.46 -69.9 64.46 -69.9 64.46 -69.9 64.46 -69.9 64.46 -69.9 64.46 -69.9 64.46 -69.9 64.46 -69.9 64.46 -69.9 64.46 -69.9 64.46 -69.9 64.46 -69.9 64.46 -69.9 64.46 -69.9 64.46 -69.9 64.46 -69.9 64.46 -69.9 64.46 -69.9 64.46 -69.9 64.46 -69.9 64.46 -69.9 64.46 -69.9 64.46 -69.9 64.46 -69.9 64.46 -69.9 64.46 -69.9 64.46 -69.9 64.46 -69.9 64.46 -69.9 64.46 -69.9 64.46 -69.9 64.46 -69.9 64.46 -69.9 64.46 -69.9 64.46 -69.9 64.46 -69.9 64.46 -69.9 64.46 -69.9 64.46 -69.9 64.46 -69.9 64.46 -69.9 64.46 -69.9 64.46 -69.9 64.46 -69.9 64.46 -69.9 64.46 -69.9 64.46 -69.9 64.46 -69.9 64.46 -69.9 64.46 -69.9 64.46 -69.9 64.46 -69.9 64.46 -69.9 64.46 -69.9 64.46 -69.9 64.46 -69.9 64.46 -69.9 64.46 -69.9 64.46 -69.9 64.46 -69.9 64.46 -69.9 64.46 -69.9 64.46 -69.9 64.46 -69.9 64.46 -69.9 64.46 -69.9 64.46 -69.9 64.46 -69.9 64.46 -69.9 64.46 -69.9 64.46 -69.9 64.46 -69.9 64.46 -69.9 64.46 -69.9 64.46 -69.9 64.46 -69.9 64.46 -69.9 64.46 -69.9 64.46 -69.9 64.46 -69.9 64.46 -69.9 64.46 -69.9 64.46 -69.9 64.46 -69.9 64.46 -69.9 64.46 -69.9 64.46 -69.9 64.46 -69.9 64.46 -69.9 64.46 -69.9 64.46 -69.9 64.46 -69.9 64.46 -69.9 64.46 -69.9 64.46 -69.9 64.46 -69.9 64.46 -69.9 64.46 -69.9 64.46 -69.9 64.46 -69.9 64.46 -69.9 64.46 -69.9 64.46 -69.9 64.46 -69.9 64.46 -69.9 64.46 -69.9 64.46 -69.9 64.46 -69.9 64.46 -69.9 64.46 -69.9 64.46 -69.9 64.46 -69.9 64.46 -69.9 64.46 -69.9 64.46 -69.9 64.46 -69.9 64.46 -69.9 64.46 -69.9 64.46 -69.9 64.46 -69.9 64.46 -69.9 64.46 -69.9 64.46 -69.9 64.46 -69.9 64.46 -69.9 64.46 -69.9 64.46 -69.9 64.46 -69.9 64.46 -69.9 64.46 -69.9 64.46 -69.9 64.46 -69.9 64.46 -69.9 64.46 -69.9 64.46 -69.9 64.46 -69.9 64.46 -69.9 64.46 -69.9 64.46 -69.9 64.46 -69.9 64.46 -69.9 64.46 -69.9 64.46 -69.9 64.46 -69.9 64.46 -69.9 64.46 -69.9 64.46 -69.9 64.46 -69.9 64.46 -69.9 64.46 -69.9 64.46 -69.9 64.46 -69.9 64.46 -69.9 64.46 -69.9 64.46 -69.9 64.46 -69.9 64.46 -69.9 64.46 -69.9 64.46 -69.9 64.46 -69.9 64.46 -69.9 64.46 -69.9 64.46 -69.9 64.46 -69.9 64.46 -69.9 64.46 -69.9 64.46 -69.9 64.46 -69.9 64.46 -69.9 64.46 -69.9 64.46 -69.9 64.46 -69.9 64.46 -69.9 64.46 -69.9 64.46 -69.9 64.46 -69.9 64.46 -69.9 64.46 -69.9 64.46 -69.9 64.46 -69.9 64.46 -69.9 64.46 -69.9 64.46 -69.9 64.46 -69.9 64.46 -69.9 64.46 -69.9 64.46 -69.9 64.46 -69.9 64.46 -69.9 64.46 -69.9 64.46 -69.9 64.46 -69.9 64.46 -69.9 64.46 -69.9 64.46 -69.9 64.46 -69.9 64.46 -69.9 64.46 -69.9 64.46 -69.9 64.46 -69.9 64.46 -69.9 64.46 -69.9 64.46 -69.9 64.46 -69.9 64.46 -69.9 64.46 -69.9 64.46 -69.9 64.46 -69.9 64.46 -69.9 64.46 -69.9 64.46 -69.9 64.46 -69.9 64.46 -69.9 64.46 -69.9 64.46 -69.9 64.46 -69.9 64.46 -69.9 64.46 -69.9 64.46 -69.9 64.46 -69.9 64.46 -69.9 64.46 -69.9 64.46 -69.9 64.46 -69.9 64.46 -69.9 64.46 -69.9 64.46 -69.9 64.46 -69.9 64.46 -69.9 64.46 -69.9 64.46 -69.9 64.46 -69.9 64.46 -69.9 64.46 -69.9 64.46 -69.9 64.46 -69.9 64.46 -69.9 64.46 -69.9 64.46 -69.9 64.46 -69.9 64.46 -69.9 64.46 -69.9 64.46 -69.9 64.46 -69.9 64.46 -69.9 64.46 -69.9 64.46 -69.9 64.46 -69.9 64.46 -69.9 64.46 -69.9 64.46 -69.9 64.46 -69.9 64.46 -69.9 64.46 -69.9 64.46 -69.9 64.46 -69.9 64.46 -69.9 64.46 -69.9 64.46 -69.9 64.46 -69.9 64.46 -69.9 64.46 -69.9 64.46 -69.9 64.46 -69.9 64.46 -69.9 64.46 -69.9 64.46 -69.9 64.46 -69.9 64.46 -69.9 64.46 -69.9 64.46 -69.9 64.46 -69.9 64.46 -69.9 64.46 -69.9 64.46 -69.9 64.46 -69.9 64.46 -69.9 64.46 -69.9 64.46 -69.9 64.46 -69.9 64.46 -69.9 64.46 -69.9 64.46 -69.9 64.46 -69.9 64.46 -69.9 64.46 -69.9 64.46 -69.9 64.46 -69.9 64.46 -69.9 64.46 -69.9 64.46 -69.9 64.46 -69.9 64.46 -69.9 64.46 -69.9 64.46 -69.9 64.46 -69.9 64.46 -69.9 64.46 -69.9 64.46 -69.9 64.46 -69.9 64.46 -69.9 64.46 -69.9 64.46 -69.9 64.46 -69.9 64.46 -69.9 64.46 -69.9 64.46 -69.9 64.46 -69.9 64.46 -69.9 64.46 -69.9 64.46 -69.9 64.46 -69.9 64.46 -69.9 64.46 -69.9 64.46 -69.9 64.46 -69.9 64.46 -69.9 64.46 -69.9 64.46 -69.9 64.46 -69.9 64.46 -69.9 64.46 -69.9 64.46 -69.9 64.46 -69.9 64.46 -69.9 64.46 -69.9 64.46 -69.9 64.46 -69.9 64.46 -69.9 64.46 -69.9 64.46 -69.9 64.46 -69.9 64.46 -69.9 64.46 -69.9 64.46 -69.9 64.46 -69.9 64.46 -69.9 64.46 -69.9 64.46 -69.9 64.46 -69.9 64.46 -69.9 64.46 -69.9 64.46 -69.9 64.46 -69.9 64.46 -69.9 64.46 -69.9 64.46 -69.9 64.46 -69.9 64.46 -69.9 64.46 -69.9 64.46 -69.9 64.46 -69.9 64.46 -69.9 64.46 -69.9 64.46 -69.9 64.46 -69.9 64.46 -69.9 64.46 -69.9 64.46 -69.9 64.46 -69.9 64.46 -69.9 64.46 -69.9 64.46 -69.9 64.46"/>
  <g class="st12">
    <g>
      <line class="st5" x1="132.03" y1="23.27" x2="132.03" y2="23.27"/>
      <line class="st5" x1="132.03" y1="23.27" x2="132.03" y2="23.27"/>
      <line class="st5" x1="132.03" y1="23.27" x2="132.03" y2="23.27"/>
      <line class="st5" x1="132.03" y1="23.27" x2="132.03" y2="23.27"/>
      <line class="st5" x1="132.03" y1="23.27" x2="132.03" y2="23.27"/>
      <line class="st5" x1="132.03" y1="23.27" x2="132.03" y2="23.27"/>
      <line class="st5" x1="132.03" y1="23.27" x2="132.03" y2="23.27"/>
      <path d="M119.16,18.53c0-.58-.58-1.01-1.34-1.01s-1.34.33-1.9,1.01c-.48.62-.81,1.35-1.28,2.88h-1.43l-.11.5h1.4l-1.37,6.54c-.36,1.68-.86,2.52-1.51,2.52-.19,0-.31-.11-.31-.25,0-.06.02-.09.06-.17.06-.09.08-.16.08-.25,0-.33-.28-.59-.61-.59s-.58.28-.58.64c0,.54.53.95,1.23.95,1.39,0,2.46-1.53,3.11-4.41l1.12-4.98h1.7l.09-.5h-1.68c.45-2.46,1.03-3.55,1.9-3.55.22,0,.34.08.34.2,0,0-.02.08-.06.14-.08.12-.09.2-.09.33,0,.37.23.62.58.62s.65-.28.65-.62"/>
      <path d="M125,16.91c-2.26,1.46-3.85,3.99-3.85,7.16,0,2.9,1.65,5.82,3.8,7.15l.19-.25c-2.06-1.62-2.65-3.5-2.65-6.94s.64-5.25,2.65-6.87l-.14-.25"/>
      <path d="M132.71,26.47l-.22-.12c-.12.16-.2.23-.34.42-.36.47-.53.62-.73.62-.22,0-.36-.2-.47-.64-.03-.14-.05-.22-.06-.25-.37-1.46-.56-2.3-.56-2.54.69-1.2,1.25-1.88,1.53-1.88.09,0,.23.05.37.12.19.11.3.14.44.14.31,0,.53-.23.53-.56s-.26-.58-.64-.58c-.69,0-1.26.56-2.35,2.23l-.17-.86c-.22-1.06-.39-1.37-.81-1.37-.36,0-.86.12-1.82.45l-.17.06.06.23.26-.06c.3-.08.48-.11.61-.11.39,0,.48.14.7,1.07l.45,1.91-1.28,1.82c-.33.47-.62.75-.79.75-.09,0-.25-.05-.4-.14-.2-.11-.36-.16-.5-.16-.31,0-.53.23-.53.54,0,.4.3.65.78.65s.67-.14,1.45-1.07l1.4-1.84.47,1.87c.2.81.4,1.04.9,1.04.59,0,1-.37,1.9-1.77"/>
      <path d="M136.93,27.98c0-1.29-.9-1.49-1.26-1.49-.39,0-.9.23-.9.9,0,.62.56.78.96.78.11,0,.19-.02.23-.03.06-.02.11-.03.14-.03.11,0,.22.08.22.22,0,.3-.25,1-1.28,1.65l.14.3c.47-.16,1.74-1.18,1.74-2.29"/>
      <path d="M147.82,22.06c0-.47-.39-.86-.86-.86-.36,0-.61.23-.61.58,0,.25.12.41.44.61.3.17.4.31.4.53,0,.62-.56,1.82-1.9,4.03l-.31-1.81c-.23-1.39-1.11-3.94-1.34-3.94h-.06l-.14.02-1.53.26-.5.09v.26c.19-.05.31-.06.48-.06.62,0,.9.23,1.2,1,.42,1.06,1.28,4.55,1.28,5.17,0,.17-.06.36-.16.54-.12.2-.83,1.12-1.11,1.42-.36.39-.54.51-.75.51-.11,0-.2-.05-.37-.17-.23-.19-.39-.26-.58-.26-.34,0-.61.26-.61.61,0,.4.33.68.79.68.89,0,2.57-1.79,4.17-4.47,1.31-2.15,2.04-3.86,2.04-4.75"/>
      <path d="M149.28,16.91l-.14.25c2.01,1.62,2.65,3.41,2.65,6.87s-.59,5.32-2.65,6.94l.19.25c2.15-1.32,3.8-4.25,3.8-7.15,0-3.18-1.59-5.7-3.85-7.16"/>
    </g>
  </g>
  <polygon class="st5" points="138.11 167.31 138.11 167.3 138.11 167.3 138.11 167.3 138.11 167.31 138.11 167.31 138.11 167.3 138.11 167.3 138.11 167.3 138.11 167.3 138.11 167.3 138.11 167.3 138.11 167.3 138.11 167.3 138.11 167.3 138.11 167.3 138.11 167.3 138.11 167.3 138.11 167.3 138.11 167.3 138.11 167.3 138.11 167.3 138.11 167.3 138.11 167.3 138.11 167.3 138.11 167.3 138.11 167.3 138.11 167.3 138.11 167.3 138.11 167.3 138.11 167.3 138.11 167.3 138.11 167.3 138.11 167.3 138.11 167.3 138.11 167.3 138.11 167.3 138.11 167.3 138.11 167.3 138.11 167.3 138.11 167.3 138.11 167.3 138.11 167.3 138.11 167.3 138.11 167.3 138.11 167.3 138.11 167.3 138.11 167.3 138.11 167.3 138.11 167.3 138.11 167.3 138.11 167.3 138.11 167.3 138.11 167.3 138.11 167.3 138.11 167.3 138.11 167.3 138.11 167.3 138.11 167.3 138.11 167.3 138.11 167.3 138.11 167.3 138.11 167.3 138.11 167.3 138.11 167.3 138.11 167.3 138.11 167.3 138.11 167.3 138.11 167.3 138.11 167.3 138.11 167.3 138.11 167.3 138.11 167.3 138.11 167.3 138.11 167.3 138.11 167.3 138.11 167.31 138.11 167.3 138.11 167.3 138.11 167.3 138.11 167.3 138.11 167.3 138.11 167.3 138.11 167.3 138.11 167.3 138.11 167.3 138.11 167.3 138.11 167.3 138.11 167.3 138.11 167.3 138.11 167.3 138.11 167.3 138.11 167.3 138.11 167.3 138.11 167.3 138.11 167.3 138.11 167.3 138.11 167.3 138.11 167.3 138.11 167.3 138.11 167.3 138.11 167.3 138.11 167.3 138.11 167.3 138.11 167.3 138.11 167.3 138.11 167.3 138.11 167.3 138.11 167.3 138.11 167.3 138.11 167.3 138.11 167.3 138.11 167.3 138.11 167.3 138.11 167.3 138.11 167.31 138.11 167.3 138.11 167.3 138.11 167.3 138.11 167.3 138.11 167.3 138.11 167.3 138.11 167.31 138.11 167.3 138.11 167.3 138.11 167.3 138.11 167.3 138.11 167.3 138.11 167.3 138.11 167.3 138.11 167.3 138.11 167.3 138.11 167.3 138.11 167.3 138.11 167.3 138.11 167.3 138.11 167.3 138.11 167.3 138.11 167.3 138.11 167.3 138.11 167.3 138.11 167.3 138.11 167.3 138.11 167.3 138.11 167.3 138.11 167.3 138.11 167.3 138.11 167.3 138.11 167.3 138.11 167.3 138.11 167.3 138.11 167.3 138.11 167.3 138.11 167.3 138.11 167.3 138.11 167.3 138.11 167.3 138.11 167.3 138.11 167.3 138.11 167.3 138.11 167.3 138.11 167.3 138.11 167.3 138.11 167.3 138.11 167.3 138.11 167.3 138.11 167.3 138.11 167.3 138.11 167.3 138.11 167.3 138.11 167.3 138.11 167.3 138.11 167.3 138.11 167.3 138.11 167.3 138.11 167.3 138.11 167.3 138.11 167.3 138.11 167.3 138.11 167.3 138.11 167.3 138.11 167.3 138.11 167.3 138.11 167.3 138.11 167.3 138.11 167.3 138.11 167.3 138.11 167.3 138.11 167.3 138.11 167.3 138.11 167.3 138.11 167.3 138.11 167.3 138.11 167.3 138.11 167.3 138.11 167.3 138.11 167.3 138.11 167.3 138.11 167.3 138.11 167.3 138.11 167.31 138.11 167.3 138.11 167.3 138.11 167.3 138.11 167.3 138.11 167.3 138.11 167.3 138.11 167.3 138.11 167.3 138.11 167.3 138.11 167.3 138.11 167.3 138.11 167.3 138.11 167.3 138.11 167.3 138.11 167.3 138.11 167.3 138.11 167.3 138.11 167.3 138.11 167.3 138.11 167.3 138.11 167.3 138.11 167.3 138.11 167.31 138.11 167.3 138.11 167.3 138.11 167.3 138.11 167.3 138.11 167.3 138.11 167.3 138.11 167.3 138.11 167.3 138.11 167.3 138.11 167.3 138.11 167.3 138.11 167.31 138.11 167.3 138.11 167.3 138.11 167.3 138.11 167.31 138.11 167.3 138.11 167.3 138.11 167.3 138.11 167.3 138.11 167.3 138.11 167.3 138.11 167.3 138.11 167.3 138.11 167.3 138.11 167.3 138.11 167.3 138.11 167.3 138.11 167.3 138.11 167.3 138.11 167.3 138.11 167.3 138.11 167.3 138.11 167.3 138.11 167.3 138.11 167.31 138.11 167.3 138.11 167.3 138.11 167.3 138.11 167.3 138.11 167.3 138.11 167.3 138.11 167.3 138.11 167.3 138.11 167.3 138.11 167.3 138.11 167.3 138.11 167.3 138.11 167.3 138.11 167.31 138.11 167.3 138.11 167.3 138.11 167.3 138.11 167.3 138.11 167.3 138.11 167.3 138.11 167.3 138.11 167.3 138.11 167.3 138.11 167.3 138.11 167.3 138.11 167.3 138.11 167.3 138.11 167.3 138.11 167.3 138.11 167.3 138.11 167.3 138.11 167.3 138.11 167.3 138.11 167.3 138.11 167.3 138.11 167.3 138.11 167.3 138.11 167.3 138.11 167.3 138.11 167.31 138.11 167.3 138.11 167.3 138.11 167.3 138.11 167.3 138.11 167.3 138.11 167.3 138.11 167.3 138.11 167.3 138.11 167.3 138.11 167.3 138.11 167.3 138.11 167.3 138.11 167.3 138.11 167.3 138.11 167.3 138.11 167.3 138.11 167.3 138.11 167.3 138.11 167.3 138.11 167.3 138.11 167.3 138.11 167.3 138.11 167.3 138.11 167.3 138.11 167.3 138.11 167.3 138.11 167.3 138.11 167.3 138.11 167.3 138.11 167.3 138.11 167.3 138.11 167.31 138.11 167.3 138.11 167.3 138.11 167.3 138.11 167.3 138.11 167.3 138.11 167.3 138.11 167.3 138.11 167.3 138.11 167.3 138.11 167.3 138.11 167.3 138.11 167.3 138.11 167.3 138.11 167.3 138.11 167.3 138.11 167.3 138.11 167.3 138.11 167.3 138.11 167.3 138.11 167.3 138.11 167.3 138.11 167.3 138.11 167.3 138.11 167.3 138.11 167.3 138.11 167.3 138.11 167.3 138.11 167.3 138.11 167.3 138.11 167.3 138.11 167.3 138.11 167.3 138.11 167.3 138.11 167.3 138.11 167.3 138.11 167.3 138.11 167.3 138.11 167.3 138.11 167.3 138.11 167.3 138.11 167.3 138.11 167.3 138.11 167.3 138.11 167.3 138.11 167.3 138.11 167.3 138.11 167.3 138.11 167.3 138.11 167.3 138.11 167.3 138.11 167.3 138.11 167.3 138.11 167.3 138.11 167.3 138.11 167.3 138.11 167.3 138.11 167.3 138.11 167.31 138.11 167.3 138.11 167.3 138.11 167.3 138.11 167.3 138.11 167.3 138.11 167.3 138.11 167.31 138.11 167.3 138.11 167.3 138.11 167.3 138.11 167.3 138.11 167.3 138.11 167.3 138.11 167.3 138.11 167.3 138.11 167.3 138.11 167.3 138.11 167.3 138.11 167.3 138.11 167.3 138.11 167.3 138.11 167.3 138.11 167.3 138.11 167.3 138.11 167.31 138.11 167.3 138.11 167.3 138.11 167.3 138.11 167.3 138.11 167.3 138.11 167.31 138.11 167.3 138.11 167.3 138.11 167.3 138.11 167.3 138.11 167.3 138.11 167.3 138.11 167.3 138.11 167.3 138.11 167.3 138.11 167.3 138.11 167.3 138.11 167.3 138.11 167.3 138.11 167.3 138.11 167.3 138.11 167.3 138.11 167.3 138.11 167.3 138.11 167.3 138.11 167.3 138.11 167.3 138.11 167.3 138.11 167.3 138.11 167.3 138.11 167.3 138.11 167.3 138.11 167.3 138.11 167.3 138.11 167.3 138.11 167.3 138.11 167.3 138.11 167.3 138.11 167.3 138.11 167.3 138.11 167.3 138.11 167.3 138.11 167.3 138.11 167.3 138.11 167.3 138.11 167.3 138.11 167.3 138.11 167.3 138.11 167.3 138.11 167.3 138.11 167.3 138.11 167.3 138.11 167.3 138.11 167.3 138.11 167.3 138.11 167.3 138.11 167.3 138.11 167.3 138.11 167.3 138.11 167.3 138.11 167.3 138.11 167.3 138.11 167.3 138.11 167.3 138.11 167.3 138.11 167.3 138.11 167.3 138.11 167.3 138.11 167.3 138.11 167.3 138.11 167.3 138.11 167.3 138.11 167.3 138.11 167.3 138.11 167.3 138.11 167.3 138.11 167.3 138.11 167.3 138.11 167.3 138.11 167.3 138.11 167.3 138.11 167.3 138.11 167.3 138.11 167.3 138.11 167.3 138.11 167.3 138.11 167.3 138.11 167.3 138.11 167.3 138.11 167.31 138.11 167.3 138.11 167.3 138.11 167.3 138.11 167.3 138.11 167.3 138.11 167.3 138.11 167.3 138.11 167.3 138.11 167.3 138.11 167.3 138.11 167.3 138.11 167.3 138.11 167.3 138.11 167.3 138.11 167.3 138.11 167.3 138.11 167.3 138.11 167.3 138.11 167.3 138.11 167.3 138.11 167.31 138.11 167.3 138.11 167.3 138.11 167.3 138.11 167.3 138.11 167.3 138.11 167.3 138.11 167.3 138.11 167.3 138.11 167.3 138.11 167.3 138.11 167.3 138.11 167.3 138.11 167.3 138.11 167.31 138.11 167.3 138.11 167.3 138.11 167.3 138.11 167.3 138.11 167.3 138.11 167.3 138.11 167.3 138.11 167.3 138.11 167.3 138.11 167.3 138.11 167.3 138.11 167.3 138.11 167.3 138.11 167.31 138.11 167.3 138.11 167.3 138.11 167.3 138.11 167.3 138.11 167.3 138.11 167.3 138.11 167.3 138.11 167.3 138.11 167.3 138.11 167.3 138.11 167.3 138.11 167.3 138.11 167.3 138.11 167.3 138.11 167.3 138.11 167.3 138.11 167.3 138.11 167.3 138.11 167.3 138.11 167.3 138.11 167.3 138.11 167.3 138.11 167.3 138.11 167.3 138.11 167.3 138.11 167.3 138.11 167.3 138.11 167.3 138.11 167.3 138.11 167.3 138.11 167.3 138.11 167.3 138.11 167.3 138.11 167.3 138.11 167.3 138.11 167.3 138.11 167.3 138.11 167.3 138.11 167.3 138.11 167.3 138.11 167.3 138.11 167.3 138.11 167.3 138.11 167.3 138.11 167.3 138.11 167.3 138.11 167.3 138.11 167.3 138.11 167.3 138.11 167.3 138.11 167.3 138.11 167.3 138.11 167.3 138.11 167.3 138.11 167.3 138.11 167.3 138.11 167.3 138.11 167.3 138.11 167.3 138.11 167.3 138.11 167.3 138.11 167.3 138.11 167.3 138.11 167.3 138.11 167.3 138.11 167.3 138.11 167.3 138.11 167.3 138.11 167.3 138.11 167.3 138.11 167.3 138.11 167.3 138.11 167.3 138.11 167.3 138.11 167.3 138.11 167.3 138.11 167.3 138.11 167.3 138.11 167.3 138.11 167.3 138.11 167.3 138.11 167.3 138.11 167.3 138.11 167.3 138.11 167.3 138.11 167.3 138.11 167.3 138.11 167.3 138.11 167.3 138.11 167.3 138.11 167.3 138.11 167.3 138.11 167.3 138.11 167.3 138.11 167.3 138.11 167.3 138.11 167.3 138.11 167.3 138.11 167.3 138.11 167.3 138.11 167.3 138.11 167.3 138.11 167.3 138.11 167.3 138.11 167.3 138.11 167.3 138.11 167.3 138.11 167.3 138.11 167.3 138.11 167.3 138.11 167.3 138.11 167.3 138.11 167.3 138.11 167.3 138.11 167.3 138.11 167.3 138.11 167.3 138.11 167.3 138.11 167.3 138.11 167.3 138.11 167.3 138.11 167.3 138.11 167.3 138.11 167.3 138.11 167.3 138.11 167.3 138.11 167.3 138.11 167.3 138.11 167.3 138.11 167.3 138.11 167.3 138.11 167.3 138.11 167.3 138.11 167.3 138.11 167.3 138.11 167.3 138.11 167.3 138.11 167.3 138.11 167.3 138.11 167.3 138.11 167.3 138.11 167.3 138.11 167.3 138.11 167.3 138.11 167.3 138.11 167.3 138.11 167.3 138.11 167.3 138.11 167.3 138.11 167.3 138.11 167.3 138.11 167.3 138.11 167.3 138.11 167.3 138.11 167.3 138.11 167.3 138.11 167.3 138.11 167.3 138.11 167.3 138.11 167.3 138.11 167.3 138.11 167.3 138.11 167.31 138.11 167.3 138.11 167.3 138.11 167.3 138.11 167.3 138.11 167.3 138.11 167.3 138.11 167.3 138.11 167.3 138.11 167.3 138.11 167.3 138.11 167.3 138.11 167.3 138.11 167.3 138.11 167.3 138.11 167.3 138.11 167.3 138.11 167.3 138.11 167.3 138.11 167.3 138.11 167.3 138.11 167.3 138.11 167.3 138.11 167.3 138.11 167.3 138.11 167.3 138.11 167.3 138.11 167.3 138.11 167.3 138.11 167.3 138.11 167.3 138.11 167.3 138.11 167.3 138.11 167.3 138.11 167.3 138.11 167.3 138.11 167.3 138.11 167.3 138.11 167.3 138.11 167.3 138.11 167.3 138.11 167.3 138.11 167.3 138.11 167.3 138.11 167.3 138.11 167.3 138.11 167.3 138.11 167.3 138.11 167.3 138.11 167.3 138.11 167.3 138.11 167.3 138.11 167.3 138.11 167.3 138.11 167.3 138.11 167.3 138.11 167.3 138.11 167.3 138.11 167.3 138.11 167.3 138.11 167.3 138.11 167.3 138.11 167.3 138.11 167.3 138.11 167.3 138.11 167.3 138.11 167.3 138.11 167.3 138.11 167.3 138.11 167.3 138.11 167.3 138.11 167.3 138.11 167.3 138.11 167.3 138.11 167.3 138.11 167.3 138.11 167.3 138.11 167.3 138.11 167.3 138.11 167.3 138.11 167.3 138.11 167.3 138.11 167.3 138.11 167.3 138.11 167.3 138.11 167.3 138.11 167.3 138.11 167.3 138.11 167.3 138.11 167.3 138.11 167.3 138.11 167.3 138.11 167.3 138.11 167.3 138.11 167.3 138.11 167.3 138.11 167.3 138.11 167.3 138.11 167.3 138.11 167.3 138.11 167.3 138.11 167.3 138.11 167.3 138.11 167.3 138.11 167.3 138.11 167.3 138.11 167.3 138.11 167.3 138.11 167.3 138.11 167.3 138.11 167.3 138.11 167.3 138.11 167.3 138.11 167.3 138.11 167.3 138.11 167.3 138.11 167.3 138.11 167.3 138.11 167.3 138.11 167.3 138.11 167.3 138.11 167.3 138.11 167.3 138.11 167.3 138.11 167.3 138.11 167.3 138.11 167.3 138.11 167.31"/>
  <line class="st8" x1="122.39" y1="138.04" x2="137.32" y2="141.31"/>
  <line class="st8" x1="123.2" y1="134.33" x2="121.57" y2="141.75"/>
  <line class="st8" x1="138.14" y1="137.6" x2="136.51" y2="145.02"/>
  <polygon class="st2" points="57.27 210.07 57.27 210.07 57.27 210.07 57.27 210.07 57.27 210.07 57.27 210.07 57.27 210.07 57.27 210.07 57.27 210.07 57.27 210.07 57.27 210.07 57.27 210.07 57.27 210.07 57.27 210.07 57.27 210.07 57.27 210.07 57.27 210.07 57.27 210.07 57.27 210.07 57.27 210.07 57.27 210.07 57.27 210.07 57.27 210.07 57.27 210.07 57.27 210.07 57.27 210.07 57.27 210.07 57.27 210.07 57.27 210.07 57.27 210.07 57.27 210.07 57.27 210.07 57.27 210.07 57.27 210.07 57.27 210.07 57.27 210.07 57.27 210.07 57.27 210.07 57.27 210.07 57.27 210.07 57.27 210.07 57.27 210.07 57.27 210.07 57.27 210.07 57.27 210.07 57.27 210.07 57.27 210.07 57.27 210.07 57.27 210.07 57.27 210.07 57.27 210.07 57.27 210.07 57.27 210.07 57.27 210.07 57.27 210.07 57.27 210.07 57.27 210.07 57.27 210.07 57.27 210.07 57.27 210.07 57.27 210.07 57.27 210.07 57.27 210.07 57.27 210.07 57.27 210.07 57.27 210.07 57.27 210.07 57.27 210.07 57.27 210.07 57.27 210.07 57.27 210.07 57.27 210.07 57.27 210.07 57.27 210.07 57.27 210.07 57.27 210.07 57.27 210.07 57.27 210.07 57.27 210.07 57.27 210.07 57.27 210.07 57.27 210.07 57.27 210.07 57.27 210.07 57.27 210.07 57.27 210.07 57.27 210.07 57.27 210.07 57.27 210.07 57.27 210.07 57.27 210.07 57.27 210.07 57.27 210.07 57.27 210.07 57.27 210.07 57.27 210.07 57.27 210.07 57.27 210.07 57.27 210.07 57.27 210.07 57.27 210.07 57.27 210.07 57.27 210.07 57.27 210.07 57.27 210.07 57.27 210.07 57.27 210.07 57.27 210.07 57.27 210.07 57.27 210.07 57.27 210.07 57.27 210.07 57.27 210.07 57.27 210.07 57.27 210.07 57.27 210.07 57.27 210.07 57.27 210.07 57.27 210.07 57.27 210.07 57.27 210.07 57.27 210.07 57.27 210.07 57.27 210.07 57.27 210.07 57.27 210.07 57.27 210.07 57.27 210.07 57.27 210.07 57.27 210.07 57.27 210.07 57.27 210.07 57.27 210.07 57.27 210.07 57.27 210.07 57.27 210.07 57.27 210.07 57.27 210.07 57.27 210.07 57.27 210.07 57.27 210.07 57.27 210.07 57.27 210.07 57.27 210.07 57.27 210.07 57.27 210.07 57.27 210.07 57.27 210.07 57.27 210.07 57.27 210.07 57.27 210.07 57.27 210.07 57.27 210.07 57.27 210.07 57.27 210.07 57.27 210.07 57.27 210.07 57.27 210.07 57.27 210.07 57.27 210.07 57.27 210.07 57.27 210.07 57.27 210.07 57.27 210.07 57.27 210.07 57.27 210.07 57.27 210.07 57.27 210.07 57.27 210.07 57.27 210.07 57.27 210.07 57.27 210.07 57.27 210.07 57.27 210.07 57.27 210.07 57.27 210.07 57.27 210.07 57.27 210.07 57.27 210.07 57.27 210.07 57.27 210.07 57.27 210.07 57.27 210.07 57.27 210.07 57.27 210.07 57.27 210.07 57.27 210.07 57.27 210.07 57.27 210.07 57.27 210.07 57.27 210.07 57.27 210.07 57.27 210.07 57.27 210.07 57.27 210.07 57.27 210.07 57.27 210.07 57.27 210.07 57.27 210.07 57.27 210.07 57.27 210.07 57.27 210.07 57.27 210.07 57.27 210.07 57.27 210.07 57.27 210.07 57.27 210.07 57.27 210.07 57.27 210.07 57.27 210.07 57.27 210.07 57.27 210.07 57.27 210.07 57.27 210.07 57.27 210.07 57.27 210.07 57.27 210.07 57.27 210.07 57.27 210.07 57.27 210.07 57.27 210.07 57.27 210.07 57.27 210.07 57.27 210.07 57.27 210.07 57.27 210.07 57.27 210.07 57.27 210.07 57.27 210.07 57.27 210.07 57.27 210.07 57.27 210.07 57.27 210.07 57.27 210.07 57.27 210.07 57.27 210.07 57.27 210.07 57.27 210.07 57.27 210.07 57.27 210.07 57.27 210.07 57.27 210.07 57.27 210.07 57.27 210.07 57.27 210.07 57.27 210.07 57.27 210.07 57.27 210.07 57.27 210.07 57.27 210.07 57.27 210.07 57.27 210.07 57.27 210.07 57.27 210.07 57.27 210.07 57.27 210.07 57.27 210.07 57.27 210.07 57.27 210.07 57.27 210.07 57.27 210.07 57.27 210.07 57.27 210.07 57.27 210.07 57.27 210.07 57.27 210.07 57.27 210.07 57.27 210.07 57.27 210.07 57.27 210.07 57.27 210.07 57.27 210.07 57.27 210.07 57.27 210.07 57.27 210.07 57.27 210.07 57.27 210.07 57.27 210.07 57.27 210.07 57.27 210.07 57.27 210.07 57.27 210.07 57.27 210.07 57.27 210.07 57.27 210.07 57.27 210.07 57.27 210.07 57.27 210.07 57.27 210.07 57.27 210.07 57.27 210.07 57.27 210.07 57.27 210.07 57.27 210.07 57.27 210.07 57.27 210.07 57.27 210.07 57.27 210.07 57.27 210.07 57.27 210.07 57.27 210.07 57.27 210.07 57.27 210.07 57.27 210.07 57.27 210.07 57.27 210.07 57.27 210.07 57.27 210.07 57.27 210.07 57.27 210.07 57.27 210.07 57.27 210.07 57.27 210.07 57.27 210.07 57.27 210.07 57.27 210.07 57.27 210.07 57.27 210.07 57.27 210.07 57.27 210.07 57.27 210.07 57.27 210.07 57.27 210.07 57.27 210.07 57.27 210.07 57.27 210.07 57.27 210.07 57.27 210.07 57.27 210.07 57.27 210.07 57.27 210.07 57.27 210.07 57.27 210.07 57.27 210.07 57.27 210.07 57.27 210.07 57.27 210.07 57.27 210.07 57.27 210.07 57.27 210.07 57.27 210.07 57.27 210.07 57.27 210.07 57.27 210.07 57.27 210.07 57.27 210.07 57.27 210.07 57.27 210.07 57.27 210.07 57.27 210.07 57.27 210.07 57.27 210.07 57.27 210.07 57.27 210.07 57.27 210.07 57.27 210.07 57.27 210.07 57.27 210.07 57.27 210.07 57.27 210.07 57.27 210.07 57.27 210.07 57.27 210.07 57.27 210.07 57.27 210.07 57.27 210.07 57.27 210.07 57.27 210.07 57.27 210.07 57.27 210.07 57.27 210.07 57.27 210.07 57.27 210.07 57.27 210.07 57.27 210.07 57.27 210.07 57.27 210.07 57.27 210.07 57.27 210.07 57.27 210.07 57.27 210.07 57.27 210.07 57.27 210.07 57.27 210.07 57.27 210.07 57.27 210.07 57.27 210.07 57.27 210.07 57.27 210.07 57.27 210.07 57.27 210.07 57.27 210.07 57.27 210.07 57.27 210.07 57.27 210.07 57.27 210.07 57.27 210.07 57.27 210.07 57.27 210.07 57.27 210.07 57.27 210.07 57.27 210.07 57.27 210.07 57.27 210.07 57.27 210.07 57.27 210.07 57.27 210.07 57.27 210.07 57.27 210.07 57.27 210.07 57.27 210.07 57.27 210.07 57.27 210.07 57.27 210.07 57.27 210.07 57.27 210.07 57.27 210.07 57.27 210.07 57.27 210.07 57.27 210.07 57.27 210.07 57.27 210.07 57.27 210.07 57.27 210.07 57.27 210.07 57.27 210.07 57.27 210.07 57.27 210.07 57.27 210.07 57.27 210.07 57.27 210.07 57.27 210.07 57.27 210.07 57.27 210.07 57.27 210.07 57.27 210.07 57.27 210.07 57.27 210.07 57.27 210.07 57.27 210.07 57.27 210.07 57.27 210.07 57.27 210.07 57.27 210.07 57.27 210.07 57.27 210.07 57.27 210.07 57.27 210.07 57.27 210.07 57.27 210.07 57.27 210.07 57.27 210.07 57.27 210.07 57.27 210.07 57.27 210.07 57.27 210.07 57.27 210.07 57.27 210.07 57.27 210.07 57.27 210.07 57.27 210.07 57.27 210.07 57.27 210.07 57.27 210.07 57.27 210.07 57.27 210.07 57.27 210.07 57.27 210.07 57.27 210.07 57.27 210.07 57.27 210.07 57.27 210.07 57.27 210.07 57.27 210.07 57.27 210.07 57.27 210.07 57.27 210.07 57.27 210.07 57.27 210.07 57.27 210.07 57.27 210.07 57.27 210.07 57.27 210.07 57.27 210.07 57.27 210.07 57.27 210.07 57.27 210.07 57.27 210.07 57.27 210.07 57.27 210.07 57.27 210.07 57.27 210.07 57.27 210.07 57.27 210.07 57.27 210.07 57.27 210.07 57.27 210.07 57.27 210.07 57.27 210.07 57.27 210.07 57.27 210.07 57.27 210.07 57.27 210.07 57.27 210.07 57.27 210.07 57.27 210.07 57.27 210.07 57.27 210.07 57.27 210.07 57.27 210.07 57.27 210.07 57.27 210.07 57.27 210.07 57.27 210.07 57.27 210.07 57.27 210.07 57.27 210.07 57.27 210.07 57.27 210.07 57.27 210.07 57.27 210.07 57.27 210.07 57.27 210.07 57.27 210.07 57.27 210.07 57.27 210.07 57.27 210.07 57.27 210.07 57.27 210.07 57.27 210.07 57.27 210.07 57.27 210.07 57.27 210.07 57.27 210.07 57.27 210.07 57.27 210.07 57.27 210.07 57.27 210.07 57.27 210.07 57.27 210.07 57.27 210.07 57.27 210.07 57.27 210.07 57.27 210.07 57.27 210.07 57.27 210.07 57.27 210.07 57.27 210.07 57.27 210.07 57.27 210.07 57.27 210.07 57.27 210.07 57.27 210.07 57.27 210.07 57.27 210.07 57.27 210.07 57.27 210.07 57.27 210.07 57.27 210.07 57.27 210.07 57.27 210.07 57.27 210.07 57.27 210.07 57.27 210.07 57.27 210.07 57.27 210.07 57.27 210.07 57.27 210.07 57.27 210.07 57.27 210.07 57.27 210.07 57.27 210.07 57.27 210.07 57.27 210.07 57.27 210.07 57.27 210.07 57.27 210.07 57.27 210.07 57.27 210.07 57.27 210.07 57.27 210.07 57.27 210.07 57.27 210.07 57.27 210.07 57.27 210.07 57.27 210.07 57.27 210.07 57.27 210.07 57.27 210.07 57.27 210.07 57.27 210.07 57.27 210.07 57.27 210.07 57.27 210.07 57.27 210.07 57.27 210.07 57.27 210.07 57.27 210.07 57.27 210.07 57.27 210.07 57.27 210.07 57.27 210.07 57.27 210.07 57.27 210.07 57.27 210.07 57.27 210.07 57.27 210.07 57.27 210.07 57.27 210.07 57.27 210.07 57.27 210.07 57.27 210.07 57.27 210.07 57.27 210.07 57.27 210.07 57.27 210.07 57.27 210.07 57.27 210.07 57.27 210.07 57.27 210.07 57.27 210.07 57.27 210.07 57.27 210.07 57.27 210.07 57.27 210.07 57.27 210.07 57.27 210.07 57.27 210.07 57.27 210.07 57.27 210.07 57.27 210.07 57.27 210.07 57.27 210.07 57.27 210.07 57.27 210.07 57.27 210.07 57.27 210.07 57.27 210.07 57.27 210.07 57.27 210.07 57.27 210.07 57.27 210.07 57.27 210.07 57.27 210.07 57.27 210.07 57.27 210.07 57.27 210.07 57.27 210.07 57.27 210.07 57.27 210.07 57.27 210.07 57.27 210.07 57.27 210.07 57.27 210.07 57.27 210.07 57.27 210.07 57.27 210.07 57.27 210.07 57.27 210.07 57.27 210.07 57.27 210.07 57.27 210.07 57.27 210.07 57.27 210.07 57.27 210.07 57.27 210.07 57.27 210.07 57.27 210.07 57.27 210.07 57.27 210.07 57.27 210.07 57.27 210.07 57.27 210.07 57.27 210.07 57.27 210.07 57.27 210.07 57.27 210.07 57.27 210.07 57.27 210.07 57.27 210.07 57.27 210.07 57.27 210.07 57.27 210.07 57.27 210.07 57.27 210.07 57.27 210.07 57.27 210.07 57.27 210.07 57.27 210.07 57.27 210.07 57.27 210.07 57.27 210.07 57.27 210.07 57.27 210.07 57.27 210.07 57.27 210.07 57.27 210.07 57.27 210.07 57.27 210.07 57.27 210.07 57.27 210.07 57.27 210.07 57.27 210.07 57.27 210.07 57.27 210.07 57.27 210.07 57.27 210.07 57.27 210.07 57.27 210.07 57.27 210.07 57.27 210.07 57.27 210.07 57.27 210.07 57.27 210.07 57.27 210.07 57.27 210.07 57.27 210.07 57.27 210.07 57.27 210.07 57.27 210.07 57.27 210.07 57.27 210.07 57.27 210.07 57.27 210.07 57.27 210.07 57.27 210.07 57.27 210.07 57.27 210.07 57.27 210.07 57.27 210.07 57.27 210.07 57.27 210.07 57.27 210.07 57.27 210.07 57.27 210.07 57.27 210.07 57.27 210.07 57.27 210.07 57.27 210.07 57.27 210.07 57.27 210.07 57.27 210.07 57.27 210.07 57.27 210.07 57.27 210.07 57.27 210.07 57.27 210.07 57.27 210.07 57.27 210.07 57.27 210.07 57.27 210.07 57.27 210.07 57.27 210.07 57.27 210.07 57.27 210.07 57.27 210.07 57.27 210.07 57.27 210.07 57.27 210.07 57.27 210.07 57.27 210.07 57.27 210.07 57.27 210.07 57.27 210.07 57.27 210.07 57.27 210.07 57.27 210.07 57.27 210.07 57.27 210.07 57.27 210.07 57.27 210.07 57.27 210.07 57.27 210.07 57.27 210.07 57.27 210.07 57.27 210.07 57.27 210.07 57.27 210.07 57.27 210.07 57.27 210.07 57.27 210.07 57.27 210.07 57.27 210.07 57.27 210.07 57.27 210.07 57.27 210.07 57.27 210.07 57.27 210.07 57.27 210.07 57.27 210.07 57.27 210.07 57.27 210.07 57.27 210.07 57.27 210.07 57.27 210.07 57.27 210.07 57.27 210.07 57.27 210.07 57.27 210.07 57.27 210.07 57.27 210.07 57.27 210.07 57.27 210.07 57.27 210.07 57.27 210.07 57.27 210.07 57.27 210.07 57.27 210.07 57.27 210.07 57.27 210.07 57.27 210.07 57.27 210.07 57.27 210.07 57.27 210.07 57.27 210.07 57.27 210.07 57.27 210.07 57.27 210.07 57.27 210.07 57.27 210.07 57.27 210.07 57.27 210.07 57.27 210.07 57.27 210.07 57.27 210.07 57.27 210.07 57.27 210.07 57.27 210.07 57.27 210.07 57.27 210.07 57.27 210.07 57.27 210.07 57.27 210.07 57.27 210.07 57.27 210.07 57.27 210.07 57.27 210.07 57.27 210.07 57.27 210.07 57.27 210.07 57.27 210.07 57.27 210.07 57.27 210.07 57.27 210.07"/>
  <g class="st14">
    <line class="st2" x1="127.47" y1="150.84" x2="127.47" y2="150.84"/>
    <line class="st2" x1="127.47" y1="150.84" x2="127.47" y2="150.84"/>
    <line class="st2" x1="127.47" y1="150.84" x2="127.47" y2="150.84"/>
    <line class="st2" x1="127.47" y1="150.84" x2="127.47" y2="150.84"/>
    <line class="st2" x1="127.47" y1="150.84" x2="127.47" y2="150.84"/>
    <line class="st2" x1="127.47" y1="150.84" x2="127.47" y2="150.84"/>
    <line class="st2" x1="127.47" y1="150.84" x2="127.47" y2="150.84"/>
    <path class="st15" d="M124.91,154.77c0,.11-.11.3-.26.47-.28.31-.67.47-1.12.47-1.29,0-2.15-1.25-2.15-3.16,0-1.76.76-2.91,1.95-2.91.83,0,1.59.73,1.59,1.56v3.58M127.26,155.7v-.25c-.28.02-.31.02-.36.02-.56,0-.68-.17-.68-.89v-8.83l-.08-.03c-.75.26-1.29.42-2.29.69v.25c.12-.02.22-.02.34-.02.58,0,.72.16.72.79v2.43c-.59-.5-1.01-.67-1.63-.67-1.79,0-3.24,1.76-3.24,3.97,0,1.99,1.17,3.35,2.88,3.35.87,0,1.46-.31,1.99-1.04v1l.06.05,2.29-.81Z"/>
    <path class="st15" d="M133.64,147.11c0,1.29-1.98,2.72-2.91,3.41l.67-2.29c.2-.69.62-1.84,1.49-1.84.44,0,.75.26.75.72M134.07,147.01c0-.75-.58-1.2-1.29-1.2-2.4,0-3.02,4.16-3.47,5.73l-1.73,1.18.16.26,1.43-.95c-.25.86-.72,1.9-.72,2.82s.56,1.67,1.56,1.67c1.29,0,2.24-1.26,2.77-2.3l-.28-.11c-.39.73-1.14,1.84-2.07,1.84-.61,0-.92-.47-.92-1.03,0-.89.81-3.1,1.06-3.94,1.18-.79,3.5-2.37,3.5-3.97Z"/>
  </g>
</svg>