<?xml version="1.0" encoding="UTF-8"?>
<svg xmlns="http://www.w3.org/2000/svg" xmlns:xlink="http://www.w3.org/1999/xlink" width="221.892pt" height="139.291pt" viewBox="0 0 221.892 139.291">
<defs>
<g>
<g id="glyph-0-0">
<path d="M 5.25 0 L 5.25 -0.3125 C 4.5625 -0.3125 4.46875 -0.375 4.46875 -0.875 L 4.46875 -6.921875 L 3.046875 -6.8125 L 3.046875 -6.5 C 3.734375 -6.5 3.8125 -6.4375 3.8125 -5.9375 L 3.8125 -3.78125 C 3.53125 -4.140625 3.09375 -4.40625 2.5625 -4.40625 C 1.390625 -4.40625 0.34375 -3.421875 0.34375 -2.140625 C 0.34375 -0.875 1.3125 0.109375 2.453125 0.109375 C 3.09375 0.109375 3.53125 -0.234375 3.78125 -0.546875 L 3.78125 0.109375 Z M 3.78125 -1.171875 C 3.78125 -1 3.78125 -0.984375 3.671875 -0.8125 C 3.375 -0.328125 2.9375 -0.109375 2.5 -0.109375 C 2.046875 -0.109375 1.6875 -0.375 1.453125 -0.75 C 1.203125 -1.15625 1.171875 -1.71875 1.171875 -2.140625 C 1.171875 -2.5 1.1875 -3.09375 1.46875 -3.546875 C 1.6875 -3.859375 2.0625 -4.1875 2.609375 -4.1875 C 2.953125 -4.1875 3.375 -4.03125 3.671875 -3.59375 C 3.78125 -3.421875 3.78125 -3.40625 3.78125 -3.21875 Z M 3.78125 -1.171875 "/>
</g>
<g id="glyph-1-0">
<path d="M 4.96875 -2.03125 C 4.96875 -2.625 4.78125 -3.078125 4.53125 -3.421875 C 4.109375 -3.984375 3.734375 -4.078125 2.875 -4.28125 C 2.609375 -4.359375 2.265625 -4.4375 2.15625 -4.46875 C 1.8125 -4.609375 1.53125 -4.984375 1.53125 -5.46875 C 1.53125 -5.953125 1.765625 -6.515625 2.515625 -6.515625 C 3.984375 -6.515625 4.171875 -5.109375 4.234375 -4.734375 C 4.25 -4.578125 4.3125 -4.5625 4.46875 -4.5625 C 4.703125 -4.5625 4.703125 -4.609375 4.703125 -4.84375 L 4.703125 -6.671875 C 4.703125 -6.859375 4.703125 -6.953125 4.53125 -6.953125 C 4.4375 -6.953125 4.421875 -6.9375 4.203125 -6.71875 L 3.921875 -6.453125 C 3.53125 -6.78125 3.078125 -6.953125 2.5 -6.953125 C 1.25 -6.953125 0.5625 -6.078125 0.5625 -4.953125 C 0.5625 -4.359375 0.765625 -3.921875 1.03125 -3.59375 C 1.4375 -3.125 1.796875 -3.046875 2.671875 -2.828125 C 2.90625 -2.765625 3.296875 -2.671875 3.34375 -2.65625 C 3.84375 -2.4375 4 -1.9375 4 -1.53125 C 4 -1.03125 3.8125 -0.359375 3 -0.359375 C 2.296875 -0.359375 1.09375 -0.640625 1.03125 -2.046875 C 1.015625 -2.21875 1.015625 -2.265625 0.796875 -2.265625 C 0.5625 -2.265625 0.5625 -2.21875 0.5625 -1.984375 L 0.5625 -0.171875 C 0.5625 0.015625 0.5625 0.109375 0.734375 0.109375 C 0.828125 0.109375 0.84375 0.09375 1.0625 -0.125 L 1.34375 -0.40625 C 1.921875 0.046875 2.625 0.109375 3.015625 0.109375 C 4.3125 0.109375 4.96875 -0.84375 4.96875 -2.03125 Z M 4.96875 -2.03125 "/>
</g>
<g id="glyph-2-0">
<path d="M 1.015625 -1.25 C 1.203125 -0.296875 1.8125 0.125 2.484375 0.125 C 2.84375 0.125 3.4375 -0.015625 4.140625 -0.53125 C 4.359375 -0.71875 4.375 -0.734375 4.375 -0.796875 C 4.375 -0.859375 4.25 -1.0625 4.140625 -1.0625 C 4.09375 -1.0625 4.078125 -1.0625 3.984375 -0.96875 C 3.59375 -0.65625 3.03125 -0.234375 2.5 -0.234375 C 1.921875 -0.234375 1.90625 -1.046875 1.90625 -1.28125 C 1.90625 -1.609375 1.9375 -1.84375 2 -2.140625 C 2.0625 -2.21875 2.265625 -2.40625 2.34375 -2.484375 C 2.875 -3 4.453125 -4.578125 4.453125 -6.03125 C 4.453125 -6.78125 4.046875 -7 3.6875 -7 C 2.15625 -7 0.953125 -3.75 0.953125 -1.796875 C 0.78125 -1.640625 0.34375 -1.28125 0.171875 -1.109375 C 0.046875 -1 0.03125 -0.984375 0.03125 -0.921875 C 0.03125 -0.875 0.15625 -0.65625 0.265625 -0.65625 C 0.3125 -0.65625 0.328125 -0.65625 0.46875 -0.78125 Z M 2.15625 -2.9375 C 2.578125 -4.59375 2.625 -4.78125 2.796875 -5.296875 C 2.875 -5.515625 3.234375 -6.640625 3.671875 -6.640625 C 3.921875 -6.640625 4 -6.4375 4 -6.125 C 4 -5.75 3.890625 -5.078125 3.1875 -4.109375 C 2.796875 -3.578125 2.28125 -3.046875 2.15625 -2.9375 Z M 2.15625 -2.9375 "/>
</g>
<g id="glyph-3-0">
<path d="M 7.578125 -6.921875 C 7.578125 -6.953125 7.5625 -7.03125 7.46875 -7.03125 C 7.4375 -7.03125 7.421875 -7.015625 7.3125 -6.90625 L 6.625 -6.140625 C 6.53125 -6.28125 6.078125 -7.03125 4.96875 -7.03125 C 2.734375 -7.03125 0.5 -4.828125 0.5 -2.515625 C 0.5 -0.875 1.671875 0.21875 3.203125 0.21875 C 4.0625 0.21875 4.828125 -0.171875 5.359375 -0.640625 C 6.28125 -1.453125 6.453125 -2.359375 6.453125 -2.390625 C 6.453125 -2.5 6.34375 -2.5 6.328125 -2.5 C 6.265625 -2.5 6.21875 -2.46875 6.203125 -2.390625 C 6.109375 -2.109375 5.875 -1.390625 5.1875 -0.8125 C 4.5 -0.265625 3.875 -0.09375 3.359375 -0.09375 C 2.46875 -0.09375 1.40625 -0.609375 1.40625 -2.15625 C 1.40625 -2.734375 1.609375 -4.34375 2.609375 -5.515625 C 3.21875 -6.21875 4.15625 -6.71875 5.046875 -6.71875 C 6.0625 -6.71875 6.65625 -5.953125 6.65625 -4.796875 C 6.65625 -4.390625 6.625 -4.390625 6.625 -4.28125 C 6.625 -4.1875 6.734375 -4.1875 6.765625 -4.1875 C 6.890625 -4.1875 6.890625 -4.203125 6.953125 -4.390625 Z M 7.578125 -6.921875 "/>
</g>
</g>
<clipPath id="clip-0">
<path clip-rule="nonzero" d="M 17 13 L 29 13 L 29 115 L 17 115 Z M 17 13 "/>
</clipPath>
<clipPath id="clip-1">
<path clip-rule="nonzero" d="M 19.75 104.792969 C 5.578125 62.273438 48.097656 5.578125 104.792969 14.082031 C 161.484375 19.75 204.003906 48.097656 189.832031 76.445312 C 175.660156 99.121094 133.140625 118.964844 90.617188 113.296875 C 48.097656 107.625 19.75 118.964844 19.75 104.792969 "/>
</clipPath>
<clipPath id="clip-2">
<path clip-rule="nonzero" d="M 17 13 L 43 13 L 43 115 L 17 115 Z M 17 13 "/>
</clipPath>
<clipPath id="clip-3">
<path clip-rule="nonzero" d="M 19.75 104.792969 C 5.578125 62.273438 48.097656 5.578125 104.792969 14.082031 C 161.484375 19.75 204.003906 48.097656 189.832031 76.445312 C 175.660156 99.121094 133.140625 118.964844 90.617188 113.296875 C 48.097656 107.625 19.75 118.964844 19.75 104.792969 "/>
</clipPath>
<clipPath id="clip-4">
<path clip-rule="nonzero" d="M 28 13 L 57 13 L 57 115 L 28 115 Z M 28 13 "/>
</clipPath>
<clipPath id="clip-5">
<path clip-rule="nonzero" d="M 19.75 104.792969 C 5.578125 62.273438 48.097656 5.578125 104.792969 14.082031 C 161.484375 19.75 204.003906 48.097656 189.832031 76.445312 C 175.660156 99.121094 133.140625 118.964844 90.617188 113.296875 C 48.097656 107.625 19.75 118.964844 19.75 104.792969 "/>
</clipPath>
<clipPath id="clip-6">
<path clip-rule="nonzero" d="M 42 13 L 71 13 L 71 115 L 42 115 Z M 42 13 "/>
</clipPath>
<clipPath id="clip-7">
<path clip-rule="nonzero" d="M 19.75 104.792969 C 5.578125 62.273438 48.097656 5.578125 104.792969 14.082031 C 161.484375 19.75 204.003906 48.097656 189.832031 76.445312 C 175.660156 99.121094 133.140625 118.964844 90.617188 113.296875 C 48.097656 107.625 19.75 118.964844 19.75 104.792969 "/>
</clipPath>
<clipPath id="clip-8">
<path clip-rule="nonzero" d="M 56 13 L 85 13 L 85 115 L 56 115 Z M 56 13 "/>
</clipPath>
<clipPath id="clip-9">
<path clip-rule="nonzero" d="M 19.75 104.792969 C 5.578125 62.273438 48.097656 5.578125 104.792969 14.082031 C 161.484375 19.75 204.003906 48.097656 189.832031 76.445312 C 175.660156 99.121094 133.140625 118.964844 90.617188 113.296875 C 48.097656 107.625 19.75 118.964844 19.75 104.792969 "/>
</clipPath>
<clipPath id="clip-10">
<path clip-rule="nonzero" d="M 70 13 L 100 13 L 100 115 L 70 115 Z M 70 13 "/>
</clipPath>
<clipPath id="clip-11">
<path clip-rule="nonzero" d="M 19.75 104.792969 C 5.578125 62.273438 48.097656 5.578125 104.792969 14.082031 C 161.484375 19.75 204.003906 48.097656 189.832031 76.445312 C 175.660156 99.121094 133.140625 118.964844 90.617188 113.296875 C 48.097656 107.625 19.75 118.964844 19.75 104.792969 "/>
</clipPath>
<clipPath id="clip-12">
<path clip-rule="nonzero" d="M 84 13 L 114 13 L 114 115 L 84 115 Z M 84 13 "/>
</clipPath>
<clipPath id="clip-13">
<path clip-rule="nonzero" d="M 19.75 104.792969 C 5.578125 62.273438 48.097656 5.578125 104.792969 14.082031 C 161.484375 19.75 204.003906 48.097656 189.832031 76.445312 C 175.660156 99.121094 133.140625 118.964844 90.617188 113.296875 C 48.097656 107.625 19.75 118.964844 19.75 104.792969 "/>
</clipPath>
<clipPath id="clip-14">
<path clip-rule="nonzero" d="M 99 13 L 128 13 L 128 115 L 99 115 Z M 99 13 "/>
</clipPath>
<clipPath id="clip-15">
<path clip-rule="nonzero" d="M 19.75 104.792969 C 5.578125 62.273438 48.097656 5.578125 104.792969 14.082031 C 161.484375 19.75 204.003906 48.097656 189.832031 76.445312 C 175.660156 99.121094 133.140625 118.964844 90.617188 113.296875 C 48.097656 107.625 19.75 118.964844 19.75 104.792969 "/>
</clipPath>
<clipPath id="clip-16">
<path clip-rule="nonzero" d="M 113 13 L 142 13 L 142 115 L 113 115 Z M 113 13 "/>
</clipPath>
<clipPath id="clip-17">
<path clip-rule="nonzero" d="M 19.75 104.792969 C 5.578125 62.273438 48.097656 5.578125 104.792969 14.082031 C 161.484375 19.75 204.003906 48.097656 189.832031 76.445312 C 175.660156 99.121094 133.140625 118.964844 90.617188 113.296875 C 48.097656 107.625 19.75 118.964844 19.75 104.792969 "/>
</clipPath>
<clipPath id="clip-18">
<path clip-rule="nonzero" d="M 127 13 L 156 13 L 156 115 L 127 115 Z M 127 13 "/>
</clipPath>
<clipPath id="clip-19">
<path clip-rule="nonzero" d="M 19.75 104.792969 C 5.578125 62.273438 48.097656 5.578125 104.792969 14.082031 C 161.484375 19.75 204.003906 48.097656 189.832031 76.445312 C 175.660156 99.121094 133.140625 118.964844 90.617188 113.296875 C 48.097656 107.625 19.75 118.964844 19.75 104.792969 "/>
</clipPath>
<clipPath id="clip-20">
<path clip-rule="nonzero" d="M 141 13 L 170 13 L 170 115 L 141 115 Z M 141 13 "/>
</clipPath>
<clipPath id="clip-21">
<path clip-rule="nonzero" d="M 19.75 104.792969 C 5.578125 62.273438 48.097656 5.578125 104.792969 14.082031 C 161.484375 19.75 204.003906 48.097656 189.832031 76.445312 C 175.660156 99.121094 133.140625 118.964844 90.617188 113.296875 C 48.097656 107.625 19.75 118.964844 19.75 104.792969 "/>
</clipPath>
<clipPath id="clip-22">
<path clip-rule="nonzero" d="M 155 13 L 185 13 L 185 115 L 155 115 Z M 155 13 "/>
</clipPath>
<clipPath id="clip-23">
<path clip-rule="nonzero" d="M 19.75 104.792969 C 5.578125 62.273438 48.097656 5.578125 104.792969 14.082031 C 161.484375 19.75 204.003906 48.097656 189.832031 76.445312 C 175.660156 99.121094 133.140625 118.964844 90.617188 113.296875 C 48.097656 107.625 19.75 118.964844 19.75 104.792969 "/>
</clipPath>
<clipPath id="clip-24">
<path clip-rule="nonzero" d="M 170 13 L 193 13 L 193 115 L 170 115 Z M 170 13 "/>
</clipPath>
<clipPath id="clip-25">
<path clip-rule="nonzero" d="M 19.75 104.792969 C 5.578125 62.273438 48.097656 5.578125 104.792969 14.082031 C 161.484375 19.75 204.003906 48.097656 189.832031 76.445312 C 175.660156 99.121094 133.140625 118.964844 90.617188 113.296875 C 48.097656 107.625 19.75 118.964844 19.75 104.792969 "/>
</clipPath>
<clipPath id="clip-26">
<path clip-rule="nonzero" d="M 184 13 L 193 13 L 193 115 L 184 115 Z M 184 13 "/>
</clipPath>
<clipPath id="clip-27">
<path clip-rule="nonzero" d="M 19.75 104.792969 C 5.578125 62.273438 48.097656 5.578125 104.792969 14.082031 C 161.484375 19.75 204.003906 48.097656 189.832031 76.445312 C 175.660156 99.121094 133.140625 118.964844 90.617188 113.296875 C 48.097656 107.625 19.75 118.964844 19.75 104.792969 "/>
</clipPath>
<clipPath id="clip-28">
<path clip-rule="nonzero" d="M 39 94 L 86 94 L 86 139.289062 L 39 139.289062 Z M 39 94 "/>
</clipPath>
<clipPath id="clip-29">
<path clip-rule="nonzero" d="M 49 104 L 89 104 L 89 139.289062 L 49 139.289062 Z M 49 104 "/>
</clipPath>
<clipPath id="clip-30">
<path clip-rule="nonzero" d="M 10 94 L 49 94 L 49 139.289062 L 10 139.289062 Z M 10 94 "/>
</clipPath>
<clipPath id="clip-31">
<path clip-rule="nonzero" d="M 12 110 L 50 110 L 50 139.289062 L 12 139.289062 Z M 12 110 "/>
</clipPath>
</defs>
<g clip-path="url(#clip-0)">
<g clip-path="url(#clip-1)">
<path fill="none" stroke-width="0.3985" stroke-linecap="butt" stroke-linejoin="miter" stroke="rgb(75%, 75%, 75%)" stroke-opacity="1" stroke-miterlimit="10" d="M -99.213875 -51.02375 L -82.206063 79.370781 " transform="matrix(1, 0, 0, -1, 104.792, 76.445)"/>
</g>
</g>
<g clip-path="url(#clip-2)">
<g clip-path="url(#clip-3)">
<path fill="none" stroke-width="0.3985" stroke-linecap="butt" stroke-linejoin="miter" stroke="rgb(75%, 75%, 75%)" stroke-opacity="1" stroke-miterlimit="10" d="M -85.042 -51.02375 L -68.030281 79.370781 " transform="matrix(1, 0, 0, -1, 104.792, 76.445)"/>
</g>
</g>
<g clip-path="url(#clip-4)">
<g clip-path="url(#clip-5)">
<path fill="none" stroke-width="0.3985" stroke-linecap="butt" stroke-linejoin="miter" stroke="rgb(75%, 75%, 75%)" stroke-opacity="1" stroke-miterlimit="10" d="M -70.866219 -51.02375 L -53.858406 79.370781 " transform="matrix(1, 0, 0, -1, 104.792, 76.445)"/>
</g>
</g>
<g clip-path="url(#clip-6)">
<g clip-path="url(#clip-7)">
<path fill="none" stroke-width="0.3985" stroke-linecap="butt" stroke-linejoin="miter" stroke="rgb(75%, 75%, 75%)" stroke-opacity="1" stroke-miterlimit="10" d="M -56.694344 -51.02375 L -39.686531 79.370781 " transform="matrix(1, 0, 0, -1, 104.792, 76.445)"/>
</g>
</g>
<g clip-path="url(#clip-8)">
<g clip-path="url(#clip-9)">
<path fill="none" stroke-width="0.3985" stroke-linecap="butt" stroke-linejoin="miter" stroke="rgb(75%, 75%, 75%)" stroke-opacity="1" stroke-miterlimit="10" d="M -42.518563 -51.02375 L -25.51075 79.370781 " transform="matrix(1, 0, 0, -1, 104.792, 76.445)"/>
</g>
</g>
<g clip-path="url(#clip-10)">
<g clip-path="url(#clip-11)">
<path fill="none" stroke-width="0.3985" stroke-linecap="butt" stroke-linejoin="miter" stroke="rgb(75%, 75%, 75%)" stroke-opacity="1" stroke-miterlimit="10" d="M -28.346688 -51.02375 L -11.338875 79.370781 " transform="matrix(1, 0, 0, -1, 104.792, 76.445)"/>
</g>
</g>
<g clip-path="url(#clip-12)">
<g clip-path="url(#clip-13)">
<path fill="none" stroke-width="0.3985" stroke-linecap="butt" stroke-linejoin="miter" stroke="rgb(75%, 75%, 75%)" stroke-opacity="1" stroke-miterlimit="10" d="M -14.174813 -51.02375 L 2.833 79.370781 " transform="matrix(1, 0, 0, -1, 104.792, 76.445)"/>
</g>
</g>
<g clip-path="url(#clip-14)">
<g clip-path="url(#clip-15)">
<path fill="none" stroke-width="0.3985" stroke-linecap="butt" stroke-linejoin="miter" stroke="rgb(75%, 75%, 75%)" stroke-opacity="1" stroke-miterlimit="10" d="M 0.00096875 -51.02375 L 17.008781 79.370781 " transform="matrix(1, 0, 0, -1, 104.792, 76.445)"/>
</g>
</g>
<g clip-path="url(#clip-16)">
<g clip-path="url(#clip-17)">
<path fill="none" stroke-width="0.3985" stroke-linecap="butt" stroke-linejoin="miter" stroke="rgb(75%, 75%, 75%)" stroke-opacity="1" stroke-miterlimit="10" d="M 14.172844 -51.02375 L 31.180656 79.370781 " transform="matrix(1, 0, 0, -1, 104.792, 76.445)"/>
</g>
</g>
<g clip-path="url(#clip-18)">
<g clip-path="url(#clip-19)">
<path fill="none" stroke-width="0.3985" stroke-linecap="butt" stroke-linejoin="miter" stroke="rgb(75%, 75%, 75%)" stroke-opacity="1" stroke-miterlimit="10" d="M 28.348625 -51.02375 L 45.356437 79.370781 " transform="matrix(1, 0, 0, -1, 104.792, 76.445)"/>
</g>
</g>
<g clip-path="url(#clip-20)">
<g clip-path="url(#clip-21)">
<path fill="none" stroke-width="0.3985" stroke-linecap="butt" stroke-linejoin="miter" stroke="rgb(75%, 75%, 75%)" stroke-opacity="1" stroke-miterlimit="10" d="M 42.5205 -51.02375 L 59.528312 79.370781 " transform="matrix(1, 0, 0, -1, 104.792, 76.445)"/>
</g>
</g>
<g clip-path="url(#clip-22)">
<g clip-path="url(#clip-23)">
<path fill="none" stroke-width="0.3985" stroke-linecap="butt" stroke-linejoin="miter" stroke="rgb(75%, 75%, 75%)" stroke-opacity="1" stroke-miterlimit="10" d="M 56.692375 -51.02375 L 73.700187 79.370781 " transform="matrix(1, 0, 0, -1, 104.792, 76.445)"/>
</g>
</g>
<g clip-path="url(#clip-24)">
<g clip-path="url(#clip-25)">
<path fill="none" stroke-width="0.3985" stroke-linecap="butt" stroke-linejoin="miter" stroke="rgb(75%, 75%, 75%)" stroke-opacity="1" stroke-miterlimit="10" d="M 70.868156 -51.02375 L 87.875969 79.370781 " transform="matrix(1, 0, 0, -1, 104.792, 76.445)"/>
</g>
</g>
<g clip-path="url(#clip-26)">
<g clip-path="url(#clip-27)">
<path fill="none" stroke-width="0.3985" stroke-linecap="butt" stroke-linejoin="miter" stroke="rgb(75%, 75%, 75%)" stroke-opacity="1" stroke-miterlimit="10" d="M 85.040031 -51.02375 L 102.047844 79.370781 " transform="matrix(1, 0, 0, -1, 104.792, 76.445)"/>
</g>
</g>
<path fill="none" stroke-width="1.19553" stroke-linecap="butt" stroke-linejoin="miter" stroke="rgb(0%, 0%, 0%)" stroke-opacity="1" stroke-miterlimit="10" d="M -85.042 -28.347969 C -99.213875 14.171562 -56.694344 70.866875 0.00096875 62.362969 C 56.692375 56.695 99.211906 28.347344 85.040031 -0.0003125 C 70.868156 -22.676094 28.348625 -42.519844 -14.174813 -36.851875 C -56.694344 -31.18 -85.042 -42.519844 -85.042 -28.347969 " transform="matrix(1, 0, 0, -1, 104.792, 76.445)"/>
<path fill-rule="nonzero" fill="rgb(0%, 0%, 100%)" fill-opacity="0.15" stroke-width="0.79701" stroke-linecap="butt" stroke-linejoin="miter" stroke="rgb(0%, 0%, 100%)" stroke-opacity="1" stroke-miterlimit="10" d="M -8.502938 8.503594 L 9.922844 11.905937 L 8.504875 19.843437 L -9.920906 16.441094 Z M -8.502938 8.503594 " transform="matrix(1, 0, 0, -1, 104.792, 76.445)"/>
<path fill="none" stroke-width="1.19553" stroke-linecap="butt" stroke-linejoin="miter" stroke="rgb(0%, 0%, 0%)" stroke-opacity="1" stroke-miterlimit="10" d="M 0.00096875 14.171562 L 0.00096875 34.527031 " transform="matrix(1, 0, 0, -1, 104.792, 76.445)"/>
<path fill-rule="nonzero" fill="rgb(0%, 0%, 0%)" fill-opacity="1" stroke-width="1.19553" stroke-linecap="butt" stroke-linejoin="miter" stroke="rgb(0%, 0%, 0%)" stroke-opacity="1" stroke-miterlimit="10" d="M 6.667422 -0.00096875 L 1.929141 1.795906 L 3.511172 -0.00096875 L 1.929141 -1.793937 Z M 6.667422 -0.00096875 " transform="matrix(0, -1, -1, 0, 104.792, 45.12836)"/>
<g fill="rgb(0%, 0%, 0%)" fill-opacity="1">
<use xlink:href="#glyph-0-0" x="99.252" y="32.733"/>
</g>
<g fill="rgb(0%, 0%, 0%)" fill-opacity="1">
<use xlink:href="#glyph-1-0" x="104.792" y="32.733"/>
</g>
<path fill="none" stroke-width="1.19553" stroke-linecap="butt" stroke-linejoin="miter" stroke="rgb(100%, 0%, 0%)" stroke-opacity="1" stroke-miterlimit="10" d="M 70.040031 39.003594 L 44.055656 39.191094 " transform="matrix(1, 0, 0, -1, 104.792, 76.445)"/>
<path fill-rule="nonzero" fill="rgb(100%, 0%, 0%)" fill-opacity="1" stroke-width="1.19553" stroke-linecap="butt" stroke-linejoin="miter" stroke="rgb(100%, 0%, 0%)" stroke-opacity="1" stroke-miterlimit="10" d="M 6.665874 0.00109642 L 1.929833 1.795029 L 3.509368 0.0016493 L 1.928518 -1.795112 Z M 6.665874 0.00109642 " transform="matrix(-0.99992, -0.00725, -0.00725, 0.99992, 152.05988, 37.2777)"/>
<path fill="none" stroke-width="0.3985" stroke-linecap="butt" stroke-linejoin="miter" stroke="rgb(0%, 0%, 0%)" stroke-opacity="1" stroke-dasharray="2.98883 2.98883" stroke-miterlimit="10" d="M 38.899406 39.22625 L 49.250969 53.784844 " transform="matrix(1, 0, 0, -1, 104.792, 76.445)"/>
<path fill="none" stroke-width="1.19553" stroke-linecap="butt" stroke-linejoin="miter" stroke="rgb(0%, 0%, 100%)" stroke-opacity="1" stroke-miterlimit="10" d="M 70.040031 39.003594 L 53.454094 50.796562 " transform="matrix(1, 0, 0, -1, 104.792, 76.445)"/>
<path fill-rule="nonzero" fill="rgb(0%, 0%, 100%)" fill-opacity="1" stroke-width="1.19553" stroke-linecap="butt" stroke-linejoin="miter" stroke="rgb(0%, 0%, 100%)" stroke-opacity="1" stroke-miterlimit="10" d="M 6.667345 -0.000632939 L 1.930661 1.793653 L 3.513068 -0.000283688 L 1.932567 -1.795216 Z M 6.667345 -0.000632939 " transform="matrix(-0.81493, -0.57948, -0.57948, 0.81493, 160.86274, 27.50864)"/>
<g fill="rgb(0%, 0%, 100%)" fill-opacity="1">
<use xlink:href="#glyph-0-0" x="148.913" y="18.632"/>
</g>
<g fill="rgb(0%, 0%, 100%)" fill-opacity="1">
<use xlink:href="#glyph-2-0" x="154.452" y="18.632"/>
</g>
<path fill="none" stroke-width="1.19553" stroke-linecap="butt" stroke-linejoin="miter" stroke="rgb(100%, 0%, 0%)" stroke-opacity="1" stroke-miterlimit="10" d="M -83.63575 11.605156 L -91.042 -4.27375 " transform="matrix(1, 0, 0, -1, 104.792, 76.445)"/>
<path fill-rule="nonzero" fill="rgb(100%, 0%, 0%)" fill-opacity="1" stroke-width="1.19553" stroke-linecap="butt" stroke-linejoin="miter" stroke="rgb(100%, 0%, 0%)" stroke-opacity="1" stroke-miterlimit="10" d="M 6.665727 -0.00206456 L 1.93164 1.79456 L 3.509615 0.000323797 L 1.929589 -1.796715 Z M 6.665727 -0.00206456 " transform="matrix(-0.4226, 0.9063, 0.9063, 0.4226, 15.10787, 77.80738)"/>
<path fill="none" stroke-width="1.19553" stroke-linecap="butt" stroke-linejoin="miter" stroke="rgb(100%, 0%, 0%)" stroke-opacity="1" stroke-miterlimit="10" d="M -46.049813 54.554375 L -63.502938 53.030937 " transform="matrix(1, 0, 0, -1, 104.792, 76.445)"/>
<path fill-rule="nonzero" fill="rgb(100%, 0%, 0%)" fill-opacity="1" stroke-width="1.19553" stroke-linecap="butt" stroke-linejoin="miter" stroke="rgb(100%, 0%, 0%)" stroke-opacity="1" stroke-miterlimit="10" d="M 6.666355 0.0018308 L 1.929598 1.796465 L 3.509536 -0.000436388 L 1.929103 -1.795373 Z M 6.666355 0.0018308 " transform="matrix(-0.99617, 0.08714, 0.08714, 0.99617, 44.48832, 23.13602)"/>
<path fill="none" stroke-width="1.19553" stroke-linecap="butt" stroke-linejoin="miter" stroke="rgb(100%, 0%, 0%)" stroke-opacity="1" stroke-miterlimit="10" d="M 39.200187 54.214531 L 26.809562 66.60125 " transform="matrix(1, 0, 0, -1, 104.792, 76.445)"/>
<path fill-rule="nonzero" fill="rgb(100%, 0%, 0%)" fill-opacity="1" stroke-width="1.19553" stroke-linecap="butt" stroke-linejoin="miter" stroke="rgb(100%, 0%, 0%)" stroke-opacity="1" stroke-miterlimit="10" d="M 6.664291 0.000471998 L 1.929944 1.795878 L 3.509901 0.000471998 L 1.929944 -1.794934 Z M 6.664291 0.000471998 " transform="matrix(-0.7071, -0.7071, -0.7071, 0.7071, 133.87281, 12.11433)"/>
<path fill="none" stroke-width="1.19553" stroke-linecap="butt" stroke-linejoin="miter" stroke="rgb(100%, 0%, 0%)" stroke-opacity="1" stroke-miterlimit="10" d="M 69.094719 39.687187 L 67.567375 57.140312 " transform="matrix(1, 0, 0, -1, 104.792, 76.445)"/>
<path fill-rule="nonzero" fill="rgb(100%, 0%, 0%)" fill-opacity="1" stroke-width="1.19553" stroke-linecap="butt" stroke-linejoin="miter" stroke="rgb(100%, 0%, 0%)" stroke-opacity="1" stroke-miterlimit="10" d="M 6.667879 0.000710028 L 1.931121 1.795345 L 3.511059 -0.00155716 L 1.930627 -1.796494 Z M 6.667879 0.000710028 " transform="matrix(-0.08714, -0.99617, -0.99617, 0.08714, 172.64034, 22.50556)"/>
<path fill="none" stroke-width="1.19553" stroke-linecap="butt" stroke-linejoin="miter" stroke="rgb(100%, 0%, 0%)" stroke-opacity="1" stroke-miterlimit="10" d="M 65.3955 -19.031563 L 77.786125 -6.644844 " transform="matrix(1, 0, 0, -1, 104.792, 76.445)"/>
<path fill-rule="nonzero" fill="rgb(100%, 0%, 0%)" fill-opacity="1" stroke-width="1.19553" stroke-linecap="butt" stroke-linejoin="miter" stroke="rgb(100%, 0%, 0%)" stroke-opacity="1" stroke-miterlimit="10" d="M 6.667713 0.000634634 L 1.930605 1.793278 L 3.510562 -0.00212753 L 1.930605 -1.797533 Z M 6.667713 0.000634634 " transform="matrix(0.7071, -0.7071, -0.7071, -0.7071, 180.30524, 85.35972)"/>
<path fill="none" stroke-width="1.19553" stroke-linecap="butt" stroke-linejoin="miter" stroke="rgb(100%, 0%, 0%)" stroke-opacity="1" stroke-miterlimit="10" d="M 23.329094 -35.676094 L 40.782219 -34.14875 " transform="matrix(1, 0, 0, -1, 104.792, 76.445)"/>
<path fill-rule="nonzero" fill="rgb(100%, 0%, 0%)" fill-opacity="1" stroke-width="1.19553" stroke-linecap="butt" stroke-linejoin="miter" stroke="rgb(100%, 0%, 0%)" stroke-opacity="1" stroke-miterlimit="10" d="M 6.665576 0.00139831 L 1.928819 1.796033 L 3.512648 -0.00120928 L 1.932215 -1.796146 Z M 6.665576 0.00139831 " transform="matrix(0.99617, -0.08714, -0.08714, -0.99617, 142.3757, 110.8752)"/>
<g clip-path="url(#clip-28)">
<path fill="none" stroke-width="1.19553" stroke-linecap="butt" stroke-linejoin="miter" stroke="rgb(100%, 0%, 0%)" stroke-opacity="1" stroke-miterlimit="10" d="M -48.233406 -35.191719 L -35.842781 -47.582344 " transform="matrix(1, 0, 0, -1, 104.792, 76.445)"/>
</g>
<path fill-rule="nonzero" fill="rgb(100%, 0%, 0%)" fill-opacity="1" d="M 71.390625 126.46875 L 69.3125 121.851562 L 69.160156 124.238281 L 66.773438 124.390625 Z M 71.390625 126.46875 "/>
<g clip-path="url(#clip-29)">
<path fill="none" stroke-width="1.19553" stroke-linecap="butt" stroke-linejoin="miter" stroke="rgb(100%, 0%, 0%)" stroke-opacity="1" stroke-miterlimit="10" d="M 6.666062 -0.000109603 L 1.931716 1.795296 L 3.511673 -0.000109603 L 1.931716 -1.795515 Z M 6.666062 -0.000109603 " transform="matrix(0.7071, 0.7071, 0.7071, -0.7071, 66.67713, 121.7551)"/>
</g>
<g clip-path="url(#clip-30)">
<path fill="none" stroke-width="1.19553" stroke-linecap="butt" stroke-linejoin="miter" stroke="rgb(100%, 0%, 0%)" stroke-opacity="1" stroke-miterlimit="10" d="M -77.768563 -35.363594 L -73.233406 -52.285469 " transform="matrix(1, 0, 0, -1, 104.792, 76.445)"/>
</g>
<path fill-rule="nonzero" fill="rgb(100%, 0%, 0%)" fill-opacity="1" d="M 32.453125 132.066406 L 32.960938 127.027344 L 31.632812 129.019531 L 29.492188 127.957031 Z M 32.453125 132.066406 "/>
<g clip-path="url(#clip-31)">
<path fill="none" stroke-width="1.19553" stroke-linecap="butt" stroke-linejoin="miter" stroke="rgb(100%, 0%, 0%)" stroke-opacity="1" stroke-miterlimit="10" d="M 6.665386 0.00216351 L 1.929388 1.796746 L 3.510007 -0.00170019 L 1.929723 -1.794442 Z M 6.665386 0.00216351 " transform="matrix(0.25879, 0.96593, 0.96593, -0.25879, 30.7261, 125.62867)"/>
</g>
<g fill="rgb(0%, 0%, 0%)" fill-opacity="1">
<use xlink:href="#glyph-3-0" x="205.757" y="65.676"/>
</g>
</svg>
